/* XPM */
static char *result[] = {
/* columns rows colors chars-per-pixel */
"64 64 185 2 ",
"   c #000000",
".  c #070A0F",
"X  c #080A10",
"o  c gray17",
"O  c #262824",
"+  c #2A3C29",
"@  c #751236",
"#  c #7B163B",
"$  c #6C282D",
"%  c #2E7A19",
"&  c #387B18",
"*  c #3E7A0A",
"=  c #065024",
"-  c #0A5224",
";  c #1E5A28",
":  c #134A25",
">  c #244726",
",  c #364A26",
"<  c #29522B",
"1  c #265627",
"2  c #3F5039",
"3  c #1E6E26",
"4  c #236325",
"5  c #236C25",
"6  c #2B6C24",
"7  c #236C29",
"8  c #326C25",
"9  c #356A26",
"0  c #297125",
"q  c #327329",
"w  c #3F6F3B",
"e  c #5D5719",
"r  c #4C771C",
"t  c #637A1E",
"y  c #4E4B38",
"u  c #634D2A",
"i  c #456C25",
"p  c #4A6A26",
"a  c #4D7124",
"s  c #507124",
"d  c #4A6839",
"f  c #547835",
"g  c #6C6528",
"h  c #323743",
"j  c #3D216B",
"k  c #3B2367",
"l  c #7F1B40",
"z  c #413457",
"x  c #452973",
"c  c #4E337D",
"v  c #355946",
"b  c #2A7A48",
"n  c #444444",
"m  c #404C54",
"M  c #585858",
"N  c #7A5741",
"B  c #567B49",
"V  c #536F5B",
"C  c #506C48",
"Z  c gray42",
"A  c #7C7160",
"S  c #7C7C7C",
"D  c #486E71",
"F  c #831E43",
"G  c #8B274B",
"H  c #912D51",
"J  c #9A365B",
"K  c #9E3A5E",
"L  c #A13C61",
"P  c #A8476A",
"I  c #B14C71",
"U  c #B9557A",
"Y  c #95786F",
"T  c #3E890A",
"R  c #3D840B",
"E  c #3B8217",
"W  c #29B41F",
"Q  c #008D23",
"!  c #009124",
"~  c #019329",
"^  c #109537",
"/  c #03A239",
"(  c #0DA72E",
")  c #2AB327",
"_  c #3FB929",
"`  c #3EB625",
"'  c #428D04",
"]  c #4A840C",
"[  c #4A8A08",
"{  c #43870A",
"}  c #489300",
"|  c #449900",
" . c #51910A",
".. c #498115",
"X. c #548A0D",
"o. c #48B400",
"O. c #4DB50A",
"+. c #47B400",
"@. c #52B400",
"#. c #43AC1A",
"$. c #4BB116",
"%. c #55B817",
"&. c #4FAE27",
"*. c #59B82F",
"=. c #61BE2B",
"-. c #6BC23C",
";. c #66C034",
":. c #01AC43",
">. c #00AD49",
",. c #1EA242",
"<. c #02B344",
"1. c #00B44B",
"2. c #02B94C",
"3. c #02B452",
"4. c #2F9076",
"5. c #2C9764",
"6. c #32AB61",
"7. c #30AC7E",
"8. c #2DA874",
"9. c #53AA40",
"0. c #5AB347",
"q. c #71837B",
"w. c #5DA07C",
"e. c #51AC6A",
"r. c #7CC957",
"t. c #71C445",
"y. c #553A83",
"u. c #5E438C",
"i. c #664A94",
"p. c #624690",
"a. c #6B5099",
"s. c #527D93",
"d. c #797593",
"f. c #775CA5",
"g. c #7C62A9",
"h. c #BB6D82",
"j. c #856AB4",
"k. c #9075BE",
"l. c #8777AF",
"z. c #C45F84",
"x. c #D16D92",
"c. c #D9779A",
"v. c #CC678C",
"b. c #E37EA3",
"n. c #977CC5",
"m. c #3F8C8D",
"M. c #349F8E",
"N. c #2BA68A",
"B. c #619F82",
"V. c #47B48B",
"C. c #6DB189",
"Z. c #4FCF8E",
"A. c #59CB86",
"S. c #76D39D",
"D. c #5C92C7",
"F. c #6A8FDE",
"G. c #6C91DE",
"H. c #73B0DF",
"J. c #6F8FE7",
"K. c #7CB0E6",
"L. c #8B8B8B",
"P. c #9A9A9A",
"I. c #83AD90",
"U. c #85A38B",
"Y. c #B6B6B6",
"T. c gray66",
"R. c #9CD68B",
"E. c #97D486",
"W. c #A3D99D",
"Q. c #B2E0B7",
"!. c #9E83CC",
"~. c #A98DD7",
"^. c #A38DD0",
"/. c #87AFF7",
"(. c #AFDED2",
"). c #B7E5D2",
"_. c #C3C3C3",
"`. c #D0D0D0",
"'. c gainsboro",
"]. c #CFECEA",
"[. c #CBE6E9",
"{. c #D7EFF7",
"}. c gray91",
"|. c #F4F4F4",
" X c white",
/* pixels */
"{.{.{.{.{.{.{.{.{.{.{.{./.J.J.J.J.J.J./.{.{.{.{.{.{.{.{.{.{.{.{.{.{.{.].r.=.-.-.-.-.-.-.*.&.e.G.J.J.J./.{.{.{.{.{.{.{.{.{.{.{.{.",
"{.{.{./.J.J.J./.{.{.{.].R.R.C.B.B.C.R.R.R.V.N.N.4.K.{.{.{.{.).A.E.R.E.C.9.$.O.O.O.O.O.O.%.%.0.w.G./.{.{.{./.J.J.J./.{.{.{.{.{.{.",
"J.J.J.J.J.J.J.J.J.J.H.S._ ` _ _ _ _ ` &.&.( :./ Q M.D.J./.(.Z.2.) $.$.$.&.O.+.+.o.o.o.o.+.%.=.=.W.Q.).{.{.{.{.{./.J.J.J./.{.{./.",
"J.J.J.J.J.J.J.J.J.J.N.2.1.1.1.1.1.1./ Q ! ! ! ~ ^ :.7.F.J.e.2.<.3.) @.+.+.+.+.+.+.o.o.o.+.o.O.-.;.=.r.'.{.{.{.{.{.{./.J.J.{./.J.",
"J.J.J.J.J.J.J.J.J.8.3.2.1.1.2.1.2.1.1.>.>.>.:.:.:./ ,.5.I.6.<.~ 2.2.) @.+.+.o.+.o.o.o.o.o.o.o.O.o.%.t.r.K.J.J.J./.{.{./.{.{.J.J.",
"X                                                                                                                           . X ",
"                                                                                                                                ",
"                                                                                                                                ",
"                                                                                                                                ",
"                                                                                                                                ",
"                                                                                                                                ",
"                                                                                                                                ",
"                                                                                                                                ",
"                                         X X X X X X X X X X X X X X X X X X X X X X X X                                        ",
"                                         X X X X X X X X X X X X X X X X X X X X X X X X                                        ",
"                                         X X X X X X X X X X X X X X X X X X X X X X X X                                        ",
"                                         X X X X X X X X X X X X X X X X X X X X X X X}.                                        ",
"                                        Z Z Z Z Z Z Z Z Z Z Z Z Z Z Z Z Z Z _. X X X XP.                                        ",
"                                                                          o |. X X X|.o                                         ",
"                                                                          L. X X X XP.                                          ",
"                                                                          }. X X X|.o                                           ",
"                                                                        L. X X X XY.                                            ",
"                                                                        }. X X X Xn                                             ",
"                                                                      L. X X X XY.                                              ",
"                                                                      `. X X X XM                                               ",
"                                                                    Z  X X X X`.                                                ",
"                                                                    `. X X X XZ                                                 ",
"                                                                  Z  X X X X'.                                                  ",
"                                                                  `. X X X XL.                                                  ",
"                                                                n  X X X X}.                                                    ",
"                                                                Y. X X X XL.                                                    ",
"                                                              n  X X X X|.                                                      ",
"                                                              Y. X X X XP.                                                      ",
"                                                            n  X X X X|.o                                                       ",
"                                                            P. X X X XT.                                                        ",
"                                                          o |. X X X Xn                                                         ",
"                                                          P. X X X XY.                                                          ",
"                                                        o |. X X X Xn                                                           ",
"                                                        P. X X X X_.                                                            ",
"                                                        }. X X X XZ                                                             ",
"                                                      L. X X X X`.                                                              ",
"                                                      }. X X X XS                                                               ",
"                                                    L. X X X X}.                                                                ",
"                                                    }. X X X XL.                                                                ",
"                                                  S  X X X X}.                                                                  ",
"                                                  `. X X X XP.                                                                  ",
"                                                Z  X X X X|.o                                                                   ",
"                                                `. X X X XP.                                                                    ",
"                                              Z  X X X X Xo                                                                     ",
"                                              Y. X X X XY.                                                                      ",
"                                            n  X X X X Xn                                                                       ",
"                                            Y. X X X XY.                                                                        ",
"                                                                                                                                ",
"                                                                                                                                ",
"                                                                                                                                ",
"                                                                                                                                ",
"                                                                                                                                ",
"                                                                                                                                ",
"                                                                                                                                ",
"X                                                                                                                             . ",
"J.J.4.~ ^ 3 5 6 i q < > q #.V c ~.f.x j u.^.g.k p.n.d.< 4 T T 5 5 - = 6 d p s  . .g H b.I l @ K b.I @ K x.Y 9 } % ; > > * T 5 J.",
"J.J.D.m.b 5 3 8 a i 1 > 1 | d x j.^.a.x !.j.g.g.f B v > 3 T T 5 6 - = 0 a r [ } | u F z.b.J l c.U U U y C w % } % ; > ; { T 3 J.",
"J.J.J.J.s.9 5 6 a s , + m 2 z j c k.f.y.!.g.l.q.' E < + 8 r & 5 5 - = 5 p ] X.g e $ @ G v.P H x.U U A > 4 5 6 ] & C D 9 ' { 8 J.",
"J.J.J./.[.B 9 6 p a + h i.x j j k u.a.i.i.n.d.r } r , O p s 9 5 5 - = 6 i ] t L # @ @ @ J P K K c.Y 4 > 4 3 6 i a U.[.d [ [ i J."
};
