/* XPM */
static char *_671a3f01fe843719aabfb7bff0408fcFMCBRGpD2ItL6HUF[] = {
/* columns rows colors chars-per-pixel */
"64 64 209 2 ",
"   c #000000",
".  c #050B02",
"X  c #0B0808",
"o  c #0E190C",
"O  c #221617",
"+  c #330B1A",
"@  c #0C250B",
"#  c #143411",
"$  c #0F2E0D",
"%  c #361C22",
"&  c #192B22",
"*  c gray17",
"=  c #262824",
"-  c #263C25",
";  c #2D3C2B",
":  c #751236",
">  c #7B163B",
",  c #64102F",
"<  c #4F3435",
"1  c #591D29",
"2  c #154A14",
"3  c #245A00",
"4  c #2C771A",
"5  c #387B18",
"6  c #31730F",
"7  c #085124",
"8  c #185226",
"9  c #234424",
"0  c #254B27",
"q  c #245424",
"w  c #265728",
"e  c #2F523F",
"r  c #34492E",
"t  c #197326",
"y  c #226323",
"u  c #246C24",
"i  c #2B6C24",
"p  c #236C29",
"a  c #336A27",
"s  c #247124",
"d  c #297321",
"f  c #2D722D",
"g  c #327329",
"h  c #2C6E38",
"j  c #396C3C",
"k  c #2C7039",
"l  c #2A7533",
"z  c #3C753A",
"x  c #5D5719",
"c  c #4C771C",
"v  c #637A1E",
"b  c #474B36",
"n  c #58543C",
"m  c #456C25",
"M  c #4A6A26",
"N  c #4D7124",
"B  c #466637",
"V  c #52752D",
"C  c #685929",
"Z  c #3D216B",
"A  c #3B2367",
"S  c #323743",
"D  c #7F1B40",
"F  c #413457",
"G  c #782941",
"H  c #452973",
"J  c #4E337D",
"K  c #395B44",
"L  c #337249",
"P  c #3D7865",
"I  c #444444",
"U  c #555758",
"Y  c #725946",
"T  c #567B49",
"R  c #516D4E",
"E  c #41796F",
"W  c #467776",
"Q  c gray42",
"!  c #7C7C7C",
"~  c #7C7160",
"^  c #6C6252",
"/  c #821D42",
"(  c #882749",
")  c #9C385D",
"_  c #912D51",
"`  c #9F3C61",
"'  c #A03C61",
"]  c #AA496C",
"[  c #B9557A",
"{  c #B14C71",
"}  c #94786F",
"|  c #A87C7D",
" . c #3C8908",
".. c #3B8217",
"X. c #29B41F",
"o. c #068925",
"O. c #009325",
"+. c #019329",
"@. c #089421",
"#. c #0E9636",
"$. c #109236",
"%. c #02A439",
"&. c #13B839",
"*. c #0DA72E",
"=. c #3FB929",
"-. c #3EB625",
";. c #2AB327",
":. c #468809",
">. c #489300",
",. c #449900",
"<. c #51910A",
"1. c #498115",
"2. c #548A0D",
"3. c #42A400",
"4. c #48B400",
"5. c #4DB60B",
"6. c #47B400",
"7. c #43AC1A",
"8. c #49B218",
"9. c #55B817",
"0. c #52B400",
"q. c #4FAE27",
"w. c #5ABC24",
"e. c #57B336",
"r. c #53AD2B",
"t. c #61BE2B",
"y. c #6AC23B",
"u. c #01AC43",
"i. c #00AD49",
"p. c #00B44B",
"a. c #02B648",
"s. c #02B452",
"d. c #1EA242",
"f. c #2F9076",
"g. c #359963",
"h. c #1CA06A",
"j. c #32AB7A",
"k. c #30AA6B",
"l. c #1D8E55",
"z. c #4C9053",
"x. c #57AF44",
"c. c #508B71",
"v. c #6D9178",
"b. c #55A870",
"n. c #70A07B",
"m. c #79C853",
"M. c #91CD76",
"N. c #553A83",
"B. c #5E438C",
"V. c #654993",
"C. c #6B5099",
"Z. c #4D7B8A",
"A. c #797593",
"S. c #775CA5",
"D. c #7C62A9",
"F. c #BB6D82",
"G. c #856AB4",
"H. c #8C76B7",
"J. c #C45F84",
"K. c #D16D92",
"L. c #D9779A",
"P. c #CE698E",
"I. c #E37EA3",
"U. c #977CC5",
"Y. c #3A968E",
"T. c #2BA68A",
"R. c #619F82",
"E. c #6DB189",
"W. c #5884A9",
"Q. c #5592BD",
"!. c #4DA08A",
"~. c #54CD8A",
"^. c #76D39D",
"/. c #5C92C7",
"(. c #598FC0",
"). c #6A8BDB",
"_. c #698CD7",
"`. c #6B91DA",
"'. c #73B0DF",
"]. c #6F8FE7",
"[. c #7DA9E6",
"{. c #7CB0E5",
"}. c #8B8B8B",
"|. c #9A9A9A",
" X c #84A88E",
".X c #B6B6B6",
"XX c gray66",
"oX c #9CD68B",
"OX c #97D486",
"+X c #A3D99D",
"@X c #9BC3B1",
"#X c #B2E0B7",
"$X c #9E83CC",
"%X c #A78DD4",
"&X c #80ABE9",
"*X c #87AFF7",
"=X c #AFDED2",
"-X c #B7E4CF",
";X c #C3C3C3",
":X c #D0D0D0",
">X c gainsboro",
",X c #C9DFE6",
"<X c #C9E3E6",
"1X c #CFECEA",
"2X c #CCE5EA",
"3X c #D7EFF7",
"4X c gray91",
"5X c #F4F4F4",
"6X c white",
/* pixels */
"3X3X3X3X3X3X3X3X3X3X3X3X*X].].].].].].*X3X3X3X3X3X3X3X3X3X3X3X3X3X3X3X1Xm.y.y.y.y.y.y.y.e.w.b.].].].].*X3X3X3X3X3X3X3X3X3X3X3X3X",
"3X3X3X*X].].].*X3X3X3X1XoXOXE.R.R.E.oXoXoX!.T.j.f.{.3X3X3X3X=X~.OX+XOXE.e.8.5.6.5.5.5.5.5.9.x.b.`.*X3X3X3X*X].].].*X3X3X3X3X3X3X",
"].].].].].].].].].].'.^.=.=.q.=.=.=.-.-.-.*.u.%.O.T./.].{.=X~.a.;.8.9.8.q.5.6.6.4.4.4.4.5.9.t.t.oX#X-X3X3X3X3X3X*X].].].*X3X3X*X",
"].].].].].].].].].].T.a.p.p.p.p.p.p.#.o.+.O.O.+.#.%.T.].`.b.a.a.s.X.4.4.6.6.6.6.4.4.4.4.6.6.5.y.y.9.M.1X3X3X3X3X3X3X*X].].3X*X].",
"].].].].].].].].].j.s.p.p.p.p.p.a.s.p.i.i.i.u.u.a.%.d.g. Xk.a.+.p.a.;.0.6.6.4.6.4.4.4.4.4.4.4.5.0.9.m.m.&X].].].*X3X3X*X3X3X].].",
"                                                  X                             . @ # 3  .6.4.6.4.5.9.e.k.Q.].].].*X3X3X3X*X].].",
"                                                                                          o 3 ,.4.4.5.r.&.h.(.].].].*X3X3X].].].",
"                                                                                                3 3.4.4.&.%.l.].].].].3X3X].].].",
"                                                                                                  . 6 &.%.$.W ].].].].*X3X].].].",
"                                                                                                      7 o.L Z.W.`.].].].3X*X].].",
"                                                                                                        @ h P P W.].].*X3X3X].].",
"                                                                                                          o h E P W.*X3X3X3X*X].",
"                                                                                                            $ k L !.@X1X*X3X3X*X",
"                                                      I |.:X4X6X6X6X:X.X!                                     2 L z.c.[.].*X3X3X",
"                                                  I ;X6X6X6X6X6X6X6X6X6X6X5X|.                                . w u h _.].].].].",
"                                                }.6X6X6X6X6X6X6X6X6X6X6X6X6X6X:X*                               $ w K _.3X3X3X3X",
"                                              }.6X6X6X6X6X6X>X:X:X>X6X6X6X6X6X6X>X                                9 K ,X3X*X*X3X",
"                                            Q 6X6X6X6X6X.XI         I ;X6X6X6X6X6X|.                              @ K [.].].].].",
"                                            4X6X6X6X6X}.                |.6X6X6X6X6XI                             . K ).].].].].",
"                                          }.6X6X6X6X.X                    :X6X6X6X6X|.                              ; ).].].].].",
"                                          .X6X6X6X6XI                     }.6X6X6X6X:X                              & ).].].].].",
"                                          4X6X6X6X>X                      * 6X6X6X6X5X                              o _.].].].].",
"                                          6X6X6X6X:X                        6X6X6X6X6X                              X ).].].].].",
"                                          6X6X6X6X:X                        6X6X6X6X4X                                <X*X].].].",
"                                          4X6X6X6X6X                      U 6X6X6X6X;X                                <X3X3X3X3X",
"                                          .X6X6X6X6X}.                    |.6X6X6X6X}.                                <X3X3X3X3X",
"                                          Q 6X6X6X6X5XI                 I 5X6X6X6X5X*                                 ).*X3X3X*X",
"                                            :X6X6X6X6X>XU             * >X6X6X6X6X!                                   ].].3X*X].",
"                                            I 5X6X6X6X6X6X|.*       Q 4X6X6X6X6X.X                                    [.3X3X].].",
"                                              U 5X6X6X6X6X6X6X;X|.:X6X6X6X6X6X.X                                      ,X3X*X].].",
"                                                I :X6X6X6X6X6X6X6X6X6X6X6X5X!                                         ,X3X].].].",
"                                                    |.6X6X6X6X6X6X6X6X6X6X;XI                                         3X3X].].].",
"                                                I .X6X6X6X6X6X6X6X6X6X6X6X6X6X.X*                                     *X3X].].].",
"                                              |.6X6X6X6X6X4XXX}.;X6X6X6X6X6X6X6X5XQ                                   ].3X*X].].",
"                                          * :X6X6X6X6X5X}.        * |.5X6X6X6X6X6X6X}.                                *X3X3X].].",
"                                          :X6X6X6X6X>XI               * XX6X6X6X6X6X6XU                               3X3X3X*X].",
"                                        |.6X6X6X6X>X*                     }.6X6X6X6X6X>X                              3X*X3X3X*X",
"                                      * 5X6X6X6X6XU                         |.6X6X6X6X6XQ                             &X].*X3X3X",
"                                      |.6X6X6X6X;X                            4X6X6X6X6X.X                            W _.].].].",
"                                      ;X6X6X6X6X}.                            XX6X6X6X6X>X                            z.M.-X3X3X",
"                                      >X6X6X6X6XQ                             Q 6X6X6X6X6X                            w.8.g./.].",
"                                      6X6X6X6X6XQ                             Q 6X6X6X6X6X                          . +.#.#.#.].",
"                                      6X6X6X6X6X!                             Q 6X6X6X6X4X                          @ +.o.l z.3X",
"                                      :X6X6X6X6XXX                            XX6X6X6X6X;X                          $ o.u z E.3X",
"                                      XX6X6X6X6X5X*                         * 4X6X6X6X6X}.                          # y i k n.3X",
"                                      U 6X6X6X6X6X.X                        .X6X6X6X6X5X*                           q u u h c.3X",
"                                        .X6X6X6X6X6X.X*                   |.6X6X6X6X6X}.                          . u u u h P *X",
"                                        * 5X6X6X6X6X6X4X}.*         * }.4X6X6X6X6X6X.X                            # u u u L P ].",
"                                          U 5X6X6X6X6X6X6X6X>X:X:X>X6X6X6X6X6X6X6X.X                              y u u u k E ].",
"                                            * :X6X6X6X6X6X6X6X6X6X6X6X6X6X6X6X6X|.                              $ i u u u k E *X",
"                                                }.>X6X6X6X6X6X6X6X6X6X6X6X6X.XI                             X X y u u u u k c.3X",
"                                                    U |.;X>X6X6X6X5X:X.X}.*                                   < u u u u u f c.3X",
"                                                                                                            % y u u u u u u u ].",
"                                                                                                          o a i u u u u u u s 3X",
"                                                                                                        @ u u y u u u u s u w ].",
"                                                                                                      < R a B a u u u u u q 0 ].",
"                                                                                                  X 2 u u n ' ' u u u s q q u ].",
"                                                                                                O - q u Y G D P.u s u q 9 q u ].",
"                                                                                          X + , r 9 8 n G ( { } u u q 9 0 w u ].",
"                                                                                X O + 1 , : : > ^ r < ' / { | 4 s w 9 9 u 4 u ].",
"].].f.O.$.t u i N k 8 0 f 8.R N.%XG.H Z B.$XS.A V.U.A.e u  . .y u 7 7 i M V N <.<.Y ( I.{ > : ) I.{ : ) P.} g :...w 9 9 6  .s ].",
"].].(.Y.L i u i M m w - q ,.B H G.%XV.H $XG.S.G.V T K 9 u  . .u u 7 7 d m c :.>.>.x / J.I.) D L.[ [ [ b R z 5 >...8 9 q :.:.u ].",
"].].].].Z.a i i M N r ; U r F Z J H.S.N.U.G.H.v.>...q - a c 5 p u 7 7 u M :.2.C x G > ( P.] _ K.[ [ ~ 0 w s i :.d L W a :.:.i ].",
"].].].*X,Xz.a i N N ; S V.H Z Z A B.C.V.V.U.A.c >.c r & M N a p i 7 7 u M 2.v ' > : : : _ ] ` ` L.} y q y u i M N  X<XV :.:.m ]."
};
