/* XPM */
static char *result[] = {
/* columns rows colors chars-per-pixel */
"64 64 202 2 ",
"   c #000000",
".  c #010B03",
"X  c #07080C",
"o  c #0A0912",
"O  c #0C1019",
"+  c #08140E",
"@  c #06280A",
"#  c #013913",
"$  c #093B0C",
"%  c #151027",
"&  c #23143B",
"*  c gray17",
"=  c #262928",
"-  c #28372B",
";  c #751236",
":  c #7B163B",
">  c #6C282D",
",  c #065818",
"<  c #135F13",
"1  c #00651C",
"2  c #2E7A19",
"3  c #387B18",
"4  c #3E7A0A",
"5  c #055223",
"6  c #0A5224",
"7  c #185226",
"8  c #244726",
"9  c #275528",
"0  c #394C2C",
"q  c #197925",
"w  c #177425",
"e  c #236325",
"r  c #236C25",
"t  c #2B6C24",
"y  c #236C29",
"u  c #336B25",
"i  c #297125",
"p  c #327329",
"a  c #3F6F3B",
"s  c #5D5719",
"d  c #4C771C",
"f  c #637A1E",
"g  c #634D2A",
"h  c #456C25",
"j  c #4A6A26",
"k  c #4D7124",
"l  c #4E6E33",
"z  c #6C6528",
"x  c #4E4B38",
"c  c #292847",
"v  c #2F364C",
"b  c #3D216B",
"n  c #3C2564",
"m  c #7F1B40",
"M  c #413457",
"N  c #452973",
"B  c #4E337D",
"V  c #2F524E",
"C  c #2A7A48",
"Z  c #364770",
"A  c #444444",
"S  c #434D52",
"D  c #585858",
"F  c #7A5741",
"G  c #567B49",
"H  c #516D4E",
"J  c #515868",
"K  c gray42",
"L  c #7C7C7C",
"P  c #71716A",
"I  c #486E71",
"U  c #831E43",
"Y  c #9C385D",
"T  c #8D294D",
"R  c #A13C61",
"E  c #A8476A",
"W  c #B9557A",
"Q  c #B14C71",
"!  c #95786F",
"~  c #3E880A",
"^  c #3B8217",
"/  c #29B41F",
"(  c #028D24",
")  c #088325",
"_  c #009124",
"`  c #029229",
"'  c #058E36",
"]  c #059131",
"[  c #0A9035",
"{  c #0B9138",
"}  c #009D32",
"|  c #169A3A",
" . c #03A339",
".. c #0DB43F",
"X. c #0DA72E",
"o. c #2AB327",
"O. c #3FB929",
"+. c #3BB426",
"@. c #428D04",
"#. c #47860A",
"$. c #489300",
"%. c #449900",
"&. c #51910A",
"*. c #498115",
"=. c #548A0D",
"-. c #48B400",
";. c #4DB50A",
":. c #47B400",
">. c #43AC1A",
",. c #4BB116",
"<. c #55B817",
"1. c #52B400",
"2. c #4FAE27",
"3. c #59B82F",
"4. c #61BE2B",
"5. c #6AC23B",
"6. c #18924C",
"7. c #01AD43",
"8. c #00AD49",
"9. c #02A640",
"0. c #01B445",
"q. c #00B44A",
"w. c #02BA4C",
"e. c #09B541",
"r. c #02B452",
"t. c #00BA53",
"y. c #1EA242",
"u. c #2B9575",
"i. c #2C926D",
"p. c #30AA71",
"a. c #57AF44",
"s. c #71837B",
"d. c #55A870",
"f. c #7CC957",
"g. c #71C445",
"h. c #553983",
"j. c #3C7F8A",
"k. c #5E438C",
"l. c #664A94",
"z. c #624690",
"x. c #6B5099",
"c. c #67548E",
"v. c #527D93",
"b. c #757B87",
"n. c #776D99",
"m. c #775CA5",
"M. c #7C62A9",
"N. c #5770B5",
"B. c #BB6D82",
"V. c #866AB4",
"C. c #8975B4",
"Z. c #C45F84",
"A. c #D16D92",
"S. c #D9779A",
"D. c #CC678C",
"F. c #E37EA3",
"G. c #977CC5",
"H. c #3E8E8E",
"J. c #359889",
"K. c #2BA68A",
"L. c #36A389",
"P. c #5F9F85",
"I. c #619F83",
"U. c #6BB488",
"Y. c #568FBB",
"T. c #47B48B",
"R. c #54CD8A",
"E. c #76D39D",
"W. c #5C92C7",
"Q. c #5F8ECA",
"!. c #698FDD",
"~. c #678FD8",
"^. c #6C92DA",
"/. c #6482CE",
"(. c #73B0DF",
"). c #6F8FE7",
"_. c #7CB0E6",
"`. c #8B8B8B",
"'. c #9A9A9A",
"]. c #84A88E",
"[. c #988CBD",
"{. c gray66",
"}. c #B6B6B6",
"|. c #9CD68B",
" X c #97D486",
".X c #A3D99D",
"XX c #B2E0B7",
"oX c #9E83CC",
"OX c #A78DD4",
"+X c #A8BBC1",
"@X c #87AFF7",
"#X c #B7D9D6",
"$X c #B7E5D2",
"%X c #C3C3C3",
"&X c #D0D0D0",
"*X c gainsboro",
"=X c #CFECEA",
"-X c #CBE6E9",
";X c #D7EFF7",
":X c gray91",
">X c #F4F4F4",
",X c white",
/* pixels */
";X;X;X;X;X;X;X;X;X;X;X;X@X).).).).).).@X;X;X;X;X;X;X;X;X;X;X;X;X;X;X;X=Xf.4.5.5.5.5.5.5.3.2.d.).).).).@X;X;X;X;X;X;X;X;X;X;X;X;X",
";X;X;X@X).).).@X;X;X;X;X X XU.I.I.U.|.|.|.T.K.K.u._.;X;X;X;X$XR. X|. XU.3.>.;.,.;.;.;.;.<.<.a.d.^.@X;X;X;X@X).).).@X;X;X;X;X;X;X",
").).).).).).).).).).(.E.O.O.2.O.O.O.2.>.2.X. . .( L.W.)._.$XR.e.o.>.<.,.2.,.-.-.-.-.-.-.-.<.4.5..XXXXX;X;X;X;X;X@X).).).@X;X;X@X",
").).).).).).).).).!.K.q.q.q.q.q.q.r. .( ` ` ` _ | 8.p.!.!.d.w.0.t.o.;.:.-.:.-.-.-.-.-.-.-.-.;.5.4.4.f.=X;X;X;X;X;X;X@X).).;X@X).",
").).).).).).).).).p.r.q.w.q.q.q.q.r.q.9.8.8.7.7.8. .y.i.].p.e.} q.w.o.1.-.:.-.-.-.-.-.-.-.-.-.;.;.<.g.f.@X).).).@X;X;X@X;X;X).).",
").).).).).).).^.I.e.r.0. .0.w.q.' < $ @ . .                                                                                     ",
").).).).).).^.P.+.e.t.9.) ` 5 +                                                                                                 ",
").).).).).).I.+.q.q.w.{ @ .                                                                                                     ",
").).).).).).L...8.} 1 .                                                                                                         ",
").).).).).).L.t.0.#                                                                                                             ",
").).).).).W.u.q.#                                                                                                               ",
").).).).).6.9.#                                                                                                                 ",
").).).).~.| ,                                                                                                                   ",
").).).).~.V                                                                                                                     ",
";X;X@X)./.X                                                                                                                     ",
").;X;X;XJ                                                                                                                       ",
";X;X;X#XX                                                                                                                       ",
").).@XK                                                                                                                         ",
").).).O                                                                                                                         ",
").).N.                    ,X,X,X,X`.                          :X,X,X,X'.                      * `.%X*X,X,X>X&X'.A               ",
").).Z                     ,X,X,X,X%X                        L ,X,X,X,X'.                  * '.>X,X,X,X,X,X,X,X,X,X&XA           ",
").).v                   D ,X,X,X,X,X*                       }.,X,X,X,X'.                D *X,X,X,X>X%X'.'.%X>X,X,X,X>XK         ",
").).% .                 K ,X,X*X,X,X`.                      >X,X:X,X,X}.              D >X,X,X>X`.            `.>X,X,X,XD       ",
").).o                   K ,X,X{.,X,X%X                    `.,X,X{.,X,X&X            * *X,X,X>XD                 D >X,X,X>X*     ",
";X;XX                   K ,X,X'.*X,X,X*                   %X,X,XL ,X,X&X            {.,X,X,XD                     D ,X,X,X}.    ",
";X;X                    '.,X,X'.{.,X,X`.                * ,X,X%XK ,X,X&X          A ,X,X,X{.                        {.,X,X,X*   ",
").).                    '.,X,X'.L ,X,X%X                '.,X,X'.K ,X,X*X          '.,X,X,X*                         * ,X,X,X'.  ",
").).                    '.,X,XK   ,X,X,X*               *X,X,XA   ,X,X,X          *X,X,X%X                            %X,X,X&X  ",
").).                    }.,X,XK   %X,X,X`.            A ,X,X*X    ,X,X,X        * ,X,X,X'.                            '.,X,X>X  ",
").).                    &X,X,XK   `.,X,X%X            '.,X,X'.    ,X,X,X        K ,X,X,XK                             K ,X,X,X* ",
").).                    &X,X,XK   A ,X,X,XA           :X,X,XA     ,X,X,X*       '.,X,X,X                                ,X,X,XK ",
").).                    &X,X,XK     *X,X,X'.        D ,X,X*X      ,X,X,XK       '.,X,X,X                                ,X,X,XK ",
").).                    >X,X,X*     '.,X,X&X        {.,X,X'.      >X,X,XK       '.,X,X,X                                ,X,X,XK ",
").).                    ,X,X,X      A ,X,X,X*       :X,X,XA       &X,X,XK       '.,X,X,X                                ,X,X,XD ",
").).                    ,X,X,X        *X,X,X`.    D ,X,X%X        &X,X,XK       L ,X,X,XD                             K ,X,X,X  ",
").).                    ,X,X,X        '.,X,X%X    '.,X,X`.        &X,X,X'.      D ,X,X,X`.                            '.,X,X:X  ",
").).                  K ,X,X:X        A ,X,X>X    *X,X,X*         &X,X,X'.        >X,X,X%X                            %X,X,X}.  ",
").).                  K ,X,X&X          *X,X,XK * ,X,X%X          {.,X,X'.        }.,X,X,X*                         * ,X,X,X`.  ",
";X;X                  K ,X,X&X          '.,X,X'.`.,X,XL           '.,X,X'.        K ,X,X,X{.                        {.,X,X>X    ",
").;X                  L ,X,X&X          D ,X,X&X}.,X>X            '.,X,X&X          &X,X,X,XD                     D ,X,X,X'.    ",
").).                  '.,X,X%X            :X,X,X:X,X}.            '.,X,X&X          A >X,X,X>XD                 D >X,X,X*X      ",
").@XO                 '.,X,X'.            {.,X,X,X,XL             '.,X,X&X            `.,X,X,X>X'.            '.>X,X,X>XA       ",
";X;X=                 '.,X,X'.            D ,X,X,X>X              K ,X,X&X              `.>X,X,X,X>X%X'.'.%X>X,X,X,X*XD         ",
";X;XS                 %X,X,X'.              :X,X,X{.              K ,X,X>X                A &X,X,X,X,X,X,X,X,X,X>X'.*           ",
";X;Xb.                &X,X,X'.              {.,X,XD               K ,X,X,X                    D '.&X>X,X,X*X%X`.*               ",
";X;X}.                                                                                                                          ",
";X;X@XO                                                                                                                         ",
";X;X).Z                                                                                                                         ",
";X;X!.H..                                                                                                                       ",
";X;XH.' #                                                                                                                       ",
";XU.6._ ) .                                                                                                                     ",
"!.` ` ` ( 1                                                                                                                     ",
").{ _ _ ( _ #                                                                                                                   ",
";X| _ _ _ _ ( @                                                                                                                 ",
").{ ` _ _ _ ( ( @                                                                                                               ",
").] _ ` _ _ _ _ ( =                                                                                                             ",
").[ ` [ _ _ _ _ ( y 5 .                                                                                                         ",
").Y.i.( _ _ _ _ ` J V v %                                                                                                       ",
").).J.( _ _ _ _ q V.k.k.x.l.c o                                                                                                 ",
").).u._ ` ( ` q r oXn.c.[.[.V.h.n & % o   X                                                                                     ",
").).u.( { y y t h p 9 9 p ,.H B OXV.N b k.OXm.n z.G.n.9 r ~ ~ e r 6 5 r l j d &.&.F T F.Q m : Y F.Q ; Y D.! p $.^ 9 8 8 4 ~ r ).",
").).W.P.C y y u k h 9 8 9 %.l N V.OXl.N oXV.M.V.l G V 9 r ~ ~ r r 6 6 t k d #.$.%.g U Z.F.Y m S.W W W x H l 2 $.^ 7 8 7 @.~ r ).",
").).).!.P.9 t t j k 0 - S 0 n N B C.m.h.G.M.C.s.$.^ 9 - u d 3 r t 6 6 t h #.=.z s > ; T D.E T A.W W P 8 e r 2 d i C I u @.#.u ).",
").).)._.=Xl u t k k - v l.N b b b k.x.l.l.G.b.d $.*.0 = j k u r r 6 , t h d f R : ; ; ; Y R Y R S.! r 8 e r t j k ].-Xl #.#.h )."
};
