/* XPM */
static char *result[] = {
/* columns rows colors chars-per-pixel */
"64 64 184 2 ",
"   c #000000",
".  c #070A0F",
"X  c #080A10",
"o  c gray17",
"O  c #262824",
"+  c #2A3C29",
"@  c #751236",
"#  c #7B163B",
"$  c #6C282D",
"%  c #2E7A19",
"&  c #387B18",
"*  c #3E7A0A",
"=  c #065024",
"-  c #0A5224",
";  c #1E5A28",
":  c #134A25",
">  c #244726",
",  c #364A26",
"<  c #29522B",
"1  c #265627",
"2  c #3F5039",
"3  c #1E6E26",
"4  c #236325",
"5  c #236C25",
"6  c #2B6C24",
"7  c #236C29",
"8  c #326C25",
"9  c #356A26",
"0  c #297125",
"q  c #327329",
"w  c #3F6F3B",
"e  c #5D5719",
"r  c #4C771C",
"t  c #637A1E",
"y  c #4E4B38",
"u  c #634D2A",
"i  c #456C25",
"p  c #4A6A26",
"a  c #4D7124",
"s  c #507124",
"d  c #4A6839",
"f  c #547835",
"g  c #6C6528",
"h  c #323743",
"j  c #3D216B",
"k  c #3B2367",
"l  c #7F1B40",
"z  c #413457",
"x  c #452973",
"c  c #4E337D",
"v  c #355946",
"b  c #2A7A48",
"n  c #444444",
"m  c #404C54",
"M  c #585858",
"N  c #7A5741",
"B  c #567B49",
"V  c #516D4E",
"C  c gray42",
"Z  c #7C7160",
"A  c #7C7C7C",
"S  c #486E71",
"D  c #831E43",
"F  c #8B274B",
"G  c #912D51",
"H  c #9A365B",
"J  c #9E3A5E",
"K  c #A13C61",
"L  c #A8476A",
"P  c #B14C71",
"I  c #B9557A",
"U  c #95786F",
"Y  c #3E890A",
"T  c #3D840B",
"R  c #3B8217",
"E  c #29B41F",
"W  c #008D23",
"Q  c #009124",
"!  c #019329",
"~  c #109537",
"^  c #03A239",
"/  c #0DA72E",
"(  c #2AB327",
")  c #3FB929",
"_  c #3EB625",
"`  c #428D04",
"'  c #4A840C",
"]  c #4A8A08",
"[  c #43870A",
"{  c #489300",
"}  c #449900",
"|  c #51910A",
" . c #498115",
".. c #548A0D",
"X. c #48B400",
"o. c #4DB50A",
"O. c #47B400",
"+. c #52B400",
"@. c #43AC1A",
"#. c #4BB116",
"$. c #55B817",
"%. c #4FAE27",
"&. c #59B82F",
"*. c #61BE2B",
"=. c #6BC23C",
"-. c #66C034",
";. c #01AC43",
":. c #00AD49",
">. c #1EA242",
",. c #02B344",
"<. c #00B44B",
"1. c #02B94C",
"2. c #02B452",
"3. c #2F9076",
"4. c #2C9764",
"5. c #32AB61",
"6. c #30AC7E",
"7. c #2DA874",
"8. c #53AA40",
"9. c #5AB347",
"0. c #71837B",
"q. c #5DA07C",
"w. c #51AC6A",
"e. c #7CC957",
"r. c #71C445",
"t. c #553A83",
"y. c #5E438C",
"u. c #664A94",
"i. c #624690",
"p. c #6B5099",
"a. c #527D93",
"s. c #797593",
"d. c #775CA5",
"f. c #7C62A9",
"g. c #BB6D82",
"h. c #856AB4",
"j. c #9075BE",
"k. c #8777AF",
"l. c #C45F84",
"z. c #D16D92",
"x. c #D9779A",
"c. c #CC678C",
"v. c #E37EA3",
"b. c #977CC5",
"n. c #3F8C8D",
"m. c #349F8E",
"M. c #2BA68A",
"N. c #619F82",
"B. c #47B48B",
"V. c #6DB189",
"C. c #4FCF8E",
"Z. c #59CB86",
"A. c #76D39D",
"S. c #5C92C7",
"D. c #6A8FDE",
"F. c #6C91DE",
"G. c #73B0DF",
"H. c #6F8FE7",
"J. c #7CB0E6",
"K. c #8B8B8B",
"L. c #9A9A9A",
"P. c #83AD90",
"I. c #85A38B",
"U. c #B6B6B6",
"Y. c gray66",
"T. c #9CD68B",
"R. c #97D486",
"E. c #A3D99D",
"W. c #B2E0B7",
"Q. c #9E83CC",
"!. c #A98DD7",
"~. c #A38DD0",
"^. c #87AFF7",
"/. c #AFDED2",
"(. c #B7E5D2",
"). c #C3C3C3",
"_. c #D0D0D0",
"`. c gainsboro",
"'. c #CFECEA",
"]. c #CBE6E9",
"[. c #D7EFF7",
"{. c gray91",
"}. c white",
"|. c #F4F4F4",
/* pixels */
"[.[.[.[.[.[.[.[.[.[.[.[.^.H.H.H.H.H.H.^.[.[.[.[.[.[.[.[.[.[.[.[.[.[.[.'.e.*.=.=.=.=.=.=.&.%.w.F.H.H.H.^.[.[.[.[.[.[.[.[.[.[.[.[.",
"[.[.[.^.H.H.H.^.[.[.[.'.T.T.V.N.N.V.T.T.T.B.M.M.3.J.[.[.[.[.(.Z.R.T.R.V.8.#.o.o.o.o.o.o.$.$.9.q.F.^.[.[.[.^.H.H.H.^.[.[.[.[.[.[.",
"H.H.H.H.H.H.H.H.H.H.G.A.) _ ) ) ) ) _ %.%./ ;.^ W m.S.H.^./.C.1.( #.#.#.%.o.O.O.X.X.X.X.O.$.*.*.E.W.(.[.[.[.[.[.^.H.H.H.^.[.[.^.",
"H.H.H.H.H.H.H.H.H.H.M.1.<.<.<.<.<.<.^ W Q Q Q ! ~ ;.6.D.H.w.1.,.2.( +.O.O.O.O.O.O.X.X.X.O.X.o.=.-.*.e.`.[.[.[.[.[.[.^.H.H.[.^.H.",
"H.H.H.H.H.H.H.H.H.7.2.1.<.<.1.<.1.<.<.:.:.:.;.;.;.^ >.4.P.5.,.! 1.1.( +.O.O.X.O.X.X.X.X.X.X.X.o.X.$.r.e.J.H.H.H.^.[.[.^.[.[.H.H.",
"X                                                                                                                           . X ",
"                                                                                                                                ",
"                                                                                                                                ",
"                                                                                                                                ",
"                                                                                                                                ",
"                                                                                                                                ",
"                                                                                                                                ",
"                                                                                                                                ",
"                                                }.}.}.}.}.}.}.}.}.}.}.}.}.}.}.}.}.}.C                                           ",
"                                              n }.}.}.}.}.}.}.}.}.}.}.}.}.}.}.}.}.}.C                                           ",
"                                              C }.}.}.}.}.}.}.}.}.}.}.}.}.}.}.}.}.}.C                                           ",
"                                              K.}.}.}.}.}.}.}.}.}.}.}.}.}.}.}.}.}.}.C                                           ",
"                                              L.}.}.}.`.C C C C C C C C C C C C C C o                                           ",
"                                              U.}.}.}.Y.                                                                        ",
"                                              _.}.}.}.L.                                                                        ",
"                                              {.}.}.}.C                                                                         ",
"                                              }.}.}.}.C                                                                         ",
"                                            n }.}.}.}.                                                                          ",
"                                            C }.}.}.|.                                                                          ",
"                                            K.}.}.}._.                                                                          ",
"                                            L.}.}.}.).                                                                          ",
"                                            U.}.}.}.L.                                                                          ",
"                                            _.}.}.}.K.                                                                          ",
"                                            {.}.}.}.`.|.}.}.}.`._.L.M                                                           ",
"                                            }.}.}.}.}.}.}.}.}.}.}.}.}.{.L.o                                                     ",
"                                          M }.}.}.}.}.}.}.}.}.}.}.}.}.}.}.|.A                                                   ",
"                                          C }.}.}.}.}.}.}.}.}.}.}.}.}.}.}.}.}.Y.                                                ",
"                                          n C C           M C L.`.}.}.}.}.}.}.}.L.                                              ",
"                                                                  C _.}.}.}.}.}.}.C                                             ",
"                                                                      U.}.}.}.}.}.`.                                            ",
"                                                                        ).}.}.}.}.}.C                                           ",
"                                                                        o |.}.}.}.}.Y.                                          ",
"                                                                          U.}.}.}.}._.                                          ",
"                                                                          K.}.}.}.}.}.                                          ",
"                                                                          C }.}.}.}.}.                                          ",
"                                                                          C }.}.}.}.}.                                          ",
"                                                                          K.}.}.}.}._.                                          ",
"                                                                          U.}.}.}.}.Y.                                          ",
"                                                                        n }.}.}.}.}.C                                           ",
"                                                                        _.}.}.}.}.{.                                            ",
"                                        o                             U.}.}.}.}.}.A                                             ",
"                                        Y._.K.                    C `.}.}.}.}.}.).                                              ",
"                                        {.}.}.|.).L.C C C C C L.`.}.}.}.}.}.}.`.o                                               ",
"                                      M }.}.}.}.}.}.}.}.}.}.}.}.}.}.}.}.}.}.`.o                                                 ",
"                                      L.}.}.}.}.}.}.}.}.}.}.}.}.}.}.}.}.}.L.                                                    ",
"                                        C ).}.}.}.}.}.}.}.}.}.}.}.}.}.U.n                                                       ",
"                                            o A Y._.{.}.}.}.}._.U.K.o                                                           ",
"                                                                                                                                ",
"                                                                                                                                ",
"                                                                                                                                ",
"                                                                                                                                ",
"                                                                                                                                ",
"                                                                                                                                ",
"                                                                                                                                ",
"X                                                                                                                             . ",
"H.H.3.! ~ 3 4 6 p q < < q @.V c !.d.x j y.~.f.k i.b.s.< 4 Y Y 5 5 - = 6 p p s | | N F x.P # @ J x.P @ J c.U 9 { % ; > > * Y 5 H.",
"H.H.S.n.b 7 3 9 p i < > 1 } d x h.~.p.x Q.h.f.f.f B v > 3 Y Y 3 5 - = 0 i r ] { } u F l.v.J l x.I I I y V w & { % ; > ; [ Y 3 H.",
"H.H.H.H.a., 6 6 p s , + v 2 z x c j.d.t.Q.f.k.0.` R < + 8 r & 5 6 - = 5 p ' ..g e $ @ F c.L G z.I I Z > 4 5 6 [ & V S 9 ` [ 8 H.",
"H.H.H.^.].8.8 0 p a o h u.x j j k y.p.u.u.b.s.r { r , O p s 9 5 0 - = 6 i ' t K # @ @ @ H L J K x.U 5 > 4 5 6 i a I.].d ] ] i H."
};
