/* XPM */
static char *result[] = {
/* columns rows colors chars-per-pixel */
"64 64 209 2 ",
"   c #000000",
".  c #050B02",
"X  c #0B0808",
"o  c #0E190C",
"O  c #221617",
"+  c #330B1A",
"@  c #0C250B",
"#  c #143411",
"$  c #0F2E0D",
"%  c #361C22",
"&  c #192B22",
"*  c #2A2B2A",
"=  c #263C25",
"-  c #2D3C2B",
";  c #751236",
":  c #7B163B",
">  c #64102F",
",  c #4F3435",
"<  c #591D29",
"1  c #154A14",
"2  c #245A00",
"3  c #2C771A",
"4  c #387B18",
"5  c #31730F",
"6  c #085124",
"7  c #185226",
"8  c #234424",
"9  c #254B27",
"0  c #245424",
"q  c #265728",
"w  c #2F523F",
"e  c #34492E",
"r  c #197326",
"t  c #226323",
"y  c #246C24",
"u  c #2B6C24",
"i  c #236C29",
"p  c #336A27",
"a  c #247124",
"s  c #297321",
"d  c #2D722D",
"f  c #327329",
"g  c #2C6E38",
"h  c #396C3C",
"j  c #2C7039",
"k  c #2A7533",
"l  c #3C753A",
"z  c #5D5719",
"x  c #4C771C",
"c  c #637A1E",
"v  c #474B36",
"b  c #58543C",
"n  c #456C25",
"m  c #4A6A26",
"M  c #4D7124",
"N  c #466637",
"B  c #52752D",
"V  c #685929",
"C  c #323743",
"Z  c #3D216B",
"A  c #3B2367",
"S  c #7F1B40",
"D  c #413457",
"F  c #782941",
"G  c #452973",
"H  c #4E337D",
"J  c #395B44",
"K  c #337249",
"L  c #3D7865",
"P  c #444444",
"I  c #535657",
"U  c #725946",
"Y  c #567B49",
"T  c #516D4E",
"R  c #41796F",
"E  c #467776",
"W  c gray42",
"Q  c #7C7C7C",
"!  c #7C7160",
"~  c #6C6252",
"^  c #821D42",
"/  c #882749",
"(  c #9C385D",
")  c #912D51",
"_  c #9F3C61",
"`  c #A03C61",
"'  c #AA496C",
"]  c #B9557A",
"[  c #B14C71",
"{  c #94786F",
"}  c #A87C7D",
"|  c #3C8908",
" . c #3B8217",
".. c #29B41F",
"X. c #068925",
"o. c #009325",
"O. c #019329",
"+. c #089421",
"@. c #0E9636",
"#. c #109236",
"$. c #02A439",
"%. c #13B839",
"&. c #0DA72E",
"*. c #2AB327",
"=. c #3FB929",
"-. c #3EB625",
";. c #468809",
":. c #489300",
">. c #449900",
",. c #51910A",
"<. c #498115",
"1. c #548A0D",
"2. c #42A400",
"3. c #48B400",
"4. c #4DB60B",
"5. c #47B400",
"6. c #43AC1A",
"7. c #49B218",
"8. c #55B817",
"9. c #52B400",
"0. c #4FAE27",
"q. c #5ABC24",
"w. c #57B336",
"e. c #53AD2B",
"r. c #61BE2B",
"t. c #6AC23B",
"y. c #01AC43",
"u. c #00AD49",
"i. c #00B44B",
"p. c #02B94C",
"a. c #02B344",
"s. c #02B452",
"d. c #1EA242",
"f. c #2F9076",
"g. c #359963",
"h. c #1CA06A",
"j. c #32AB7A",
"k. c #30AA6B",
"l. c #1D8E55",
"z. c #4C9053",
"x. c #57AF44",
"c. c #508B71",
"v. c #6D9178",
"b. c #55A870",
"n. c #70A07B",
"m. c #79C853",
"M. c #91CD76",
"N. c #553A83",
"B. c #5E438C",
"V. c #654993",
"C. c #6B5099",
"Z. c #4D7B8A",
"A. c #797593",
"S. c #775CA5",
"D. c #7C62A9",
"F. c #BB6D82",
"G. c #856AB4",
"H. c #8C76B7",
"J. c #C45F84",
"K. c #D16D92",
"L. c #D9779A",
"P. c #CE698E",
"I. c #E37EA3",
"U. c #977CC5",
"Y. c #3A968E",
"T. c #2BA68A",
"R. c #619F82",
"E. c #6DB189",
"W. c #5884A9",
"Q. c #5592BD",
"!. c #4DA08A",
"~. c #54CD8A",
"^. c #76D39D",
"/. c #5C92C7",
"(. c #598FC0",
"). c #6A8BDB",
"_. c #698CD7",
"`. c #6B91DA",
"'. c #73B0DF",
"]. c #6F8FE7",
"[. c #7DA9E6",
"{. c #7CB0E5",
"}. c #8B8B8B",
"|. c #9A9A9A",
" X c #84A88E",
".X c #B6B6B6",
"XX c gray66",
"oX c #9CD68B",
"OX c #97D486",
"+X c #A3D99D",
"@X c #9BC3B1",
"#X c #B2E0B7",
"$X c #9E83CC",
"%X c #A78DD4",
"&X c #80ABE9",
"*X c #87AFF7",
"=X c #AFDED2",
"-X c #B7E4CF",
";X c #C3C3C3",
":X c #D0D0D0",
">X c gainsboro",
",X c #C9DFE6",
"<X c #C9E3E6",
"1X c #CFECEA",
"2X c #CCE5EA",
"3X c #D7EFF7",
"4X c white",
"5X c #F4F4F4",
"6X c gray91",
/* pixels */
"3X3X3X3X3X3X3X3X3X3X3X3X*X].].].].].].*X3X3X3X3X3X3X3X3X3X3X3X3X3X3X3X1Xm.r.m.r.t.t.t.t.w.q.b.].].].].*X3X3X3X3X3X3X3X3X3X3X3X3X",
"3X3X3X*X].].].*X3X3X3X1XoXOXE.R.R.E.oXoXoX!.T.j.f.{.3X3X3X3X-X~.OX+XOXE.w.7.4.4.4.4.4.4.4.8.x.b.`.*X3X3X3X*X].].].*X3X3X3X3X3X3X",
"].].].].].].].].].].'.^.=.-.0.=.=.=.-.6.-.&.y.$.o.T./.].{.=X~.a.*.7.4.7.0.4.5.5.3.3.3.3.4.8.r.r.oX#X-X3X3X3X3X3X*X].].].*X3X3X*X",
"].].].].].].].].].].T.i.i.i.p.p.p.s.@.o.O.o.o.O.@.$.T.].`.b.p.a.p.*.4.5.5.5.5.5.3.3.3.3.5.5.4.t.t.8.M.1X3X3X3X3X3X3X*X].].3X*X].",
"].].].].].].].].].j.s.i.p.i.i.i.i.s.i.u.u.u.y.y.a.$.d.g. Xk.a.O.i.p.*.9.5.5.5.3.3.3.3.3.3.3.3.4.9.8.m.m.&X].].].*X3X3X*X3X3X].].",
"                                                  X                             . @ # 2 | 5.3.5.3.4.8.w.k.Q.].].].*X3X3X3X*X].].",
"                                                                                          o 2 >.3.3.4.e.%.h.(.].].].*X3X3X].].].",
"                                                                                                2 2.3.3.%.$.l.].].].].3X3X].].].",
"                                                                                                  . 5 %.$.#.E ].].].].*X3X].].].",
"                                                                                                      6 X.K Z.W.`.].].].3X*X].].",
"                                                                                                        @ g L L W.].].*X3X3X].].",
"                                                                                                          o g R L W.*X3X3X3X*X].",
"                                                                                                            $ j K !.@X1X*X3X3X*X",
"                                                4X4X4X4X4X4X4X4X4X4X4X4X4X4X4X4X4X4XW                         1 K z.c.[.].*X3X3X",
"                                              P 4X4X4X4X4X4X4X4X4X4X4X4X4X4X4X4X4X4XW                         . q y g _.].].].].",
"                                              W 4X4X4X4X4X4X4X4X4X4X4X4X4X4X4X4X4X4XW                           $ q J _.3X3X3X3X",
"                                              }.4X4X4X4X4X4X4X4X4X4X4X4X4X4X4X4X4X4XW                             8 J ,X3X*X*X3X",
"                                              |.4X4X4X>XW W W W W W W W W W W W W W *                             @ J [.].].].].",
"                                              .X4X4X4XXX                                                          . J ).].].].].",
"                                              :X4X4X4X|.                                                            - ).].].].].",
"                                              6X4X4X4XW                                                             & ).].].].].",
"                                              4X4X4X4XW                                                             o _.].].].].",
"                                            P 4X4X4X4X                                                              X ).].].].].",
"                                            W 4X4X4X5X                                                                <X*X].].].",
"                                            }.4X4X4X:X                                                                <X3X3X3X3X",
"                                            |.4X4X4X;X                                                                <X3X3X3X3X",
"                                            .X4X4X4X|.                                                                ).*X3X3X*X",
"                                            :X4X4X4X}.                                                                ].].3X*X].",
"                                            6X4X4X4X>X5X4X4X4X>X:X|.I                                                 [.3X3X].].",
"                                            4X4X4X4X4X4X4X4X4X4X4X4X4X6X|.*                                           ,X3X*X].].",
"                                          I 4X4X4X4X4X4X4X4X4X4X4X4X4X4X4X5XQ                                         ,X3X].].].",
"                                          W 4X4X4X4X4X4X4X4X4X4X4X4X4X4X4X4X4XXX                                      3X3X].].].",
"                                          P W W           I W |.>X4X4X4X4X4X4X4X|.                                    *X3X].].].",
"                                                                  W :X4X4X4X4X4X4XW                                   ].3X*X].].",
"                                                                      .X4X4X4X4X4X>X                                  *X3X3X].].",
"                                                                        ;X4X4X4X4X4XW                                 3X3X3X*X].",
"                                                                        * 5X4X4X4X4XXX                                3X*X3X3X*X",
"                                                                          .X4X4X4X4X:X                                &X].*X3X3X",
"                                                                          }.4X4X4X4X4X                                E _.].].].",
"                                                                          W 4X4X4X4X4X                                z.M.-X3X3X",
"                                                                          W 4X4X4X4X4X                                q.7.g./.].",
"                                                                          }.4X4X4X4X:X                              . O.@.@.@.].",
"                                                                          .X4X4X4X4XXX                              @ O.X.k z.3X",
"                                                                        P 4X4X4X4X4XW                               $ X.y l E.3X",
"                                                                        :X4X4X4X4X6X                                # t u j n.3X",
"                                        *                             .X4X4X4X4X4XQ                                 0 y y g c.3X",
"                                        XX:X}.                    W >X4X4X4X4X4X;X                                . y y y g L *X",
"                                        6X4X4X5X;X|.W W W W W |.>X4X4X4X4X4X4X>X*                                 # y y y K L ].",
"                                      I 4X4X4X4X4X4X4X4X4X4X4X4X4X4X4X4X4X4X>X*                                   t y y y j R ].",
"                                      |.4X4X4X4X4X4X4X4X4X4X4X4X4X4X4X4X4X|.                                    $ u y y y j R *X",
"                                        W ;X4X4X4X4X4X4X4X4X4X4X4X4X4X.XP                                   X X t y y y y j c.3X",
"                                            * Q XX:X6X4X4X4X4X:X.X}.*                                         , y y y y y d c.3X",
"                                                                                                            % t y y y y y y y ].",
"                                                                                                          o p u y y y y y y a 3X",
"                                                                                                        @ y y t y y y y a y q ].",
"                                                                                                      , T p N p y y y y y 0 9 ].",
"                                                                                                  X 1 y y b ` ` y y y a 0 0 y ].",
"                                                                                                O = 0 y U F S P.y a y 0 8 0 y ].",
"                                                                                          X + > e 8 7 b F / [ { y y 0 8 9 q y ].",
"                                                                                X O + < > ; ; : ~ e , ` ^ [ } 3 a q 8 8 y 3 y ].",
"].].f.o.@.r y u n l q 9 d 7.T N.%XG.G Z B.$XS.A V.U.A.w y | | t y 6 6 u m B M ,.,.U / I.[ : ; ( I.[ ; ( P.{ f ;. .q 8 8 5 | a ].",
"].].(.Y.K u y u m p q = 0 >.N G G.%XV.G $XG.S.G.B Y J 8 y | | y y 6 6 s n x ;.:.:.z ^ J.I.( S L.] ] ] v T l 4 :. .7 8 0 ;.;.y ].",
"].].].].Z.f u u m M e - I e D Z H H.S.N.U.G.H.v.:. .0 = p x 4 i y 6 6 y m ;.1.V z F : / P.' ) K.] ] ! 9 q a u ;.s K E p ;.;.u ].",
"].].].*X<XY p 3 m M - C V.G Z Z A B.C.V.V.U.A.x :.x e & m M p i u 6 6 y m 1.c ` : ; ; ; ) ' _ _ L.{ t 0 t y u m M  X<XB ;.;.n ]."
};
