/* XPM */
static char *e439b096ea634ee3918999786215c4edP5K3sB8CxZLK5WFO[] = {
/* columns rows colors chars-per-pixel */
"64 64 210 2 ",
"   c #000000",
".  c #050B02",
"X  c #0B0808",
"o  c #0E190C",
"O  c #221617",
"+  c #330B1A",
"@  c #0C250B",
"#  c #143411",
"$  c #0F2E0D",
"%  c #361C22",
"&  c #192B22",
"*  c #2A2B2A",
"=  c #263C25",
"-  c #2D3C2B",
";  c #461225",
":  c #751236",
">  c #7B163B",
",  c #64102F",
"<  c #4F3435",
"1  c #6C282D",
"2  c #154A14",
"3  c #245A00",
"4  c #2C771A",
"5  c #387B18",
"6  c #31730F",
"7  c #085124",
"8  c #185226",
"9  c #234424",
"0  c #254B27",
"q  c #245424",
"w  c #265728",
"e  c #2F523F",
"r  c #34492E",
"t  c #197326",
"y  c #226323",
"u  c #246C24",
"i  c #2B6C24",
"p  c #236C29",
"a  c #336A27",
"s  c #247124",
"d  c #297321",
"f  c #2D722D",
"g  c #327329",
"h  c #2C6E38",
"j  c #396C3C",
"k  c #2C7039",
"l  c #2A7533",
"z  c #3C753A",
"x  c #5D5719",
"c  c #4C771C",
"v  c #637A1E",
"b  c #474B36",
"n  c #58543C",
"m  c #456C25",
"M  c #4A6A26",
"N  c #4D7124",
"B  c #466637",
"V  c #52752D",
"C  c #685929",
"Z  c #323743",
"A  c #3D216B",
"S  c #3B2367",
"D  c #7F1B40",
"F  c #413457",
"G  c #782941",
"H  c #452973",
"J  c #4E337D",
"K  c #395B44",
"L  c #337249",
"P  c #3D7865",
"I  c #444444",
"U  c #4C5256",
"Y  c #725946",
"T  c #567B49",
"R  c #516D4E",
"E  c #41796F",
"W  c #467776",
"Q  c gray42",
"!  c #7C7C7C",
"~  c #7C7160",
"^  c #6C6252",
"/  c #821D42",
"(  c #882749",
")  c #9C385D",
"_  c #912D51",
"`  c #9F3C61",
"'  c #A03C61",
"]  c #AA496C",
"[  c #B9557A",
"{  c #B14C71",
"}  c #94786F",
"|  c #A87C7D",
" . c #3C8908",
".. c #3B8217",
"X. c #29B41F",
"o. c #068925",
"O. c #009325",
"+. c #019329",
"@. c #089421",
"#. c #0E9636",
"$. c #109236",
"%. c #02A439",
"&. c #13B839",
"*. c #0DA72E",
"=. c #2AB327",
"-. c #3FB929",
";. c #3EB625",
":. c #468809",
">. c #489300",
",. c #449900",
"<. c #51910A",
"1. c #498115",
"2. c #548A0D",
"3. c #42A400",
"4. c #48B400",
"5. c #4DB60B",
"6. c #47B400",
"7. c #43AC1A",
"8. c #49B218",
"9. c #55B817",
"0. c #52B400",
"q. c #4FAE27",
"w. c #5ABC24",
"e. c #57B336",
"r. c #53AD2B",
"t. c #61BE2B",
"y. c #6AC23B",
"u. c #01AC43",
"i. c #00AD49",
"p. c #00B44B",
"a. c #02B94C",
"s. c #02B344",
"d. c #02B452",
"f. c #1EA242",
"g. c #2F9076",
"h. c #359963",
"j. c #1CA06A",
"k. c #32AB7A",
"l. c #30AA6B",
"z. c #1D8E55",
"x. c #4C9053",
"c. c #57AF44",
"v. c #508B71",
"b. c #6D9178",
"n. c #55A870",
"m. c #70A07B",
"M. c #79C853",
"N. c #91CD76",
"B. c #553A83",
"V. c #5E438C",
"C. c #654993",
"Z. c #6B5099",
"A. c #4D7B8A",
"S. c #797593",
"D. c #775CA5",
"F. c #7C62A9",
"G. c #BB6D82",
"H. c #856AB4",
"J. c #8C76B7",
"K. c #C45F84",
"L. c #D16D92",
"P. c #D9779A",
"I. c #CE698E",
"U. c #E37EA3",
"Y. c #977CC5",
"T. c #3A968E",
"R. c #2BA68A",
"E. c #619F82",
"W. c #6DB189",
"Q. c #5884A9",
"!. c #5592BD",
"~. c #4DA08A",
"^. c #54CD8A",
"/. c #76D39D",
"(. c #5C92C7",
"). c #598FC0",
"_. c #6A8BDB",
"`. c #698CD7",
"'. c #6B91DA",
"]. c #73B0DF",
"[. c #6F8FE7",
"{. c #7DA9E6",
"}. c #7CB0E5",
"|. c #8B8B8B",
" X c #9A9A9A",
".X c #84A88E",
"XX c #B6B6B6",
"oX c gray66",
"OX c #9CD68B",
"+X c #97D486",
"@X c #A3D99D",
"#X c #9BC3B1",
"$X c #B2E0B7",
"%X c #9E83CC",
"&X c #A78DD4",
"*X c #80ABE9",
"=X c #87AFF7",
"-X c #AFDED2",
";X c #B7E4CF",
":X c #C3C3C3",
">X c #D0D0D0",
",X c gainsboro",
"<X c #C9DFE6",
"1X c #C9E3E6",
"2X c #CFECEA",
"3X c #CCE5EA",
"4X c #D7EFF7",
"5X c white",
"6X c #F4F4F4",
"7X c gray91",
/* pixels */
"4X4X4X4X4X4X4X4X4X4X4X4X=X[.[.[.[.[.[.=X4X4X4X4X4X4X4X4X4X4X4X4X4X4X4X2XM.t.M.t.y.y.y.y.e.w.n.[.[.[.[.=X4X4X4X4X4X4X4X4X4X4X4X4X",
"4X4X4X=X[.[.[.=X4X4X4X2XOX+XW.E.E.W.OXOXOX~.R.k.g.}.4X4X4X4X;X^.+X@X+XW.e.8.5.5.5.5.5.5.5.9.c.n.'.=X4X4X4X=X[.[.[.=X4X4X4X4X4X4X",
"[.[.[.[.[.[.[.[.[.[.]./.-.;.q.-.-.-.;.7.;.*.u.%.O.R.(.[.}.-X^.s.=.8.5.8.q.5.6.6.4.4.4.4.5.9.t.t.OX$X;X4X4X4X4X4X=X[.[.[.=X4X4X=X",
"[.[.[.[.[.[.[.[.[.[.R.p.p.p.a.a.a.d.#.O.+.O.O.+.#.%.R.[.'.n.a.s.a.=.5.6.6.6.6.6.4.4.4.4.6.6.5.y.y.9.N.2X4X4X4X4X4X4X=X[.[.4X=X[.",
"[.[.[.[.[.[.[.[.[.k.d.p.a.p.p.p.p.d.p.i.i.i.u.u.s.%.f.h..Xl.s.+.p.a.=.0.6.6.6.4.4.4.4.4.4.4.4.5.0.9.M.M.*X[.[.[.=X4X4X=X4X4X[.[.",
"                                                  X                             . @ # 3  .6.4.6.4.5.9.e.l.!.[.[.[.=X4X4X4X=X[.[.",
"                                                                                          o 3 ,.4.4.5.r.&.j.).[.[.[.=X4X4X[.[.[.",
"                                                                                                3 3.4.4.&.%.z.[.[.[.[.4X4X[.[.[.",
"                                                                                                  . 6 &.%.$.A.[.[.[.[.=X4X[.[.[.",
"                                                                                                      7 o.L A.A.'.[.[.[.4X=X[.[.",
"                                                                                                        @ h P P Q.[.[.=X4X4X[.[.",
"                                                                                                          o h E P Q.=X4X4X4X=X[.",
"                                                                                                            $ k L ~.#X2X=X4X4X=X",
"                                        5X5X5X5X5X5X5X5X5X5X5X5X5X5X5X5X5X5X5X5X5X5X5X5X                      2 L x.v.{.[.=X4X4X",
"                                        5X5X5X5X5X5X5X5X5X5X5X5X5X5X5X5X5X5X5X5X5X5X5X5X                      . w u k `.[.[.[.[.",
"                                        5X5X5X5X5X5X5X5X5X5X5X5X5X5X5X5X5X5X5X5X5X5X5X5X                        $ w K `.4X4X4X4X",
"                                        5X5X5X5X5X5X5X5X5X5X5X5X5X5X5X5X5X5X5X5X5X5X5X7X                          9 K <X4X=X=X4X",
"                                        Q Q Q Q Q Q Q Q Q Q Q Q Q Q Q Q Q Q :X5X5X5X5X X                          @ K {.[.[.[.[.",
"                                                                          * 6X5X5X5X6X*                           . K _.[.[.[.[.",
"                                                                          |.5X5X5X5X X                              - _.[.[.[.[.",
"                                                                          7X5X5X5X6X*                               & _.[.[.[.[.",
"                                                                        |.5X5X5X5XXX                                o `.[.[.[.[.",
"                                                                        7X5X5X5X5XI                                 X _.[.[.[.[.",
"                                                                      |.5X5X5X5XXX                                    1X=X[.[.[.",
"                                                                      >X5X5X5X5XU                                     1X4X4X4X4X",
"                                                                    Q 5X5X5X5X>X                                      1X4X4X4X4X",
"                                                                    >X5X5X5X5XQ                                       _.=X4X4X=X",
"                                                                  Q 5X5X5X5X,X                                        [.[.4X=X[.",
"                                                                  >X5X5X5X5X|.                                        {.4X4X[.[.",
"                                                                I 5X5X5X5X7X                                          <X4X=X[.[.",
"                                                                XX5X5X5X5X|.                                          <X4X[.[.[.",
"                                                              I 5X5X5X5X6X                                            4X4X[.[.[.",
"                                                              XX5X5X5X5X X                                            =X4X[.[.[.",
"                                                            I 5X5X5X5X6X*                                             [.4X=X[.[.",
"                                                             X5X5X5X5XoX                                              =X4X4X[.[.",
"                                                          * 6X5X5X5X5XI                                               4X4X4X=X[.",
"                                                           X5X5X5X5XXX                                                4X=X4X4X=X",
"                                                        * 6X5X5X5X5XI                                                 *X[.=X4X4X",
"                                                         X5X5X5X5X:X                                                  W `.[.[.[.",
"                                                        7X5X5X5X5XQ                                                   x.N.;X4X4X",
"                                                      |.5X5X5X5X>X                                                    w.8.h.(.[.",
"                                                      7X5X5X5X5X!                                                   . +.#.#.#.[.",
"                                                    |.5X5X5X5X7X                                                    @ +.o.l x.4X",
"                                                    7X5X5X5X5X|.                                                    $ o.u z W.4X",
"                                                  ! 5X5X5X5X7X                                                      # u i k m.4X",
"                                                  >X5X5X5X5X X                                                      q u u h v.4X",
"                                                Q 5X5X5X5X6X*                                                     . y u u k P =X",
"                                                >X5X5X5X5X X                                                      # u u u L P [.",
"                                              Q 5X5X5X5X5X*                                                       y u u u k E [.",
"                                              XX5X5X5X5XXX                                                      # p u u u k E =X",
"                                            I 5X5X5X5X5XI                                                     X y u u u u h v.4X",
"                                            XX5X5X5X5XXX                                                      1 p p u u u f v.4X",
"                                                                                                            % y u u u u u u u [.",
"                                                                                                          o a i u u u u u u u 4X",
"                                                                                                        @ u u y u u u u s u q [.",
"                                                                                                      < R a B a u u u u u w 0 [.",
"                                                                                                  X 2 i u n ' ' u u u s q q u [.",
"                                                                                                O - q i Y D / I.u s u q 9 q u [.",
"                                                                                      X   X + : r = 0 n G ( { } u u q 9 9 y u [.",
"                                                                                X O + ; , : : > ^ r - ) ( { | 4 d w 9 9 y 4 u [.",
"[.[.g.O.#.t u i M k w 0 f 8.R B.&XH.H A V.&XD.S C.Y.S.e u  . .y u 7 7 i V M N <.2.Y ( U.{ > > ) U.] : ` I.} 5 :.4 y 9 9 5  .u [.",
"[.[.).T.L p u i M m w 9 q ,.B H H.&XC.H %XH.F.F.V T K 9 u  . .u u 7 7 i M c :.>.:.C / K.U.) D P.[ [ [ b R j 4 >...8 9 q :. .u [.",
"[.[.[.[.A.j u i N N r - U r F A J J.D.B.Y.F.J.b.>...8 = a c 5 p u 7 7 u M :.2.C x 1 > ( I.' _ L.[ | ~ 0 y u 4 c 5 L W a :.:.i [.",
"[.[.[.=X2XV a i N N - Z C.H A A S V.Z.C.C.Y.S.c >.c r * M N a u d 7 7 i m 2.v ' > : : > ' ' ) ' L.} u 0 y s i M N .X2XB :.:.N [."
};
