/* XPM */
static char *result[] = {
/* columns rows colors chars-per-pixel */
"64 64 208 2 ",
"   c #000000",
".  c #050B02",
"X  c #0B0808",
"o  c #0E190C",
"O  c #221617",
"+  c #330B1A",
"@  c #0C250B",
"#  c #143411",
"$  c #0F2E0D",
"%  c #361C22",
"&  c #192B22",
"*  c gray17",
"=  c #262824",
"-  c #263C25",
";  c #2D3C2B",
":  c #751236",
">  c #7B163B",
",  c #64102F",
"<  c #4F3435",
"1  c #591D29",
"2  c #154A14",
"3  c #245A00",
"4  c #2C771A",
"5  c #387B18",
"6  c #31730F",
"7  c #085124",
"8  c #185226",
"9  c #234424",
"0  c #254B27",
"q  c #245424",
"w  c #265728",
"e  c #2F523F",
"r  c #34492E",
"t  c #197326",
"y  c #226323",
"u  c #246C24",
"i  c #2B6C24",
"p  c #236C29",
"a  c #336A27",
"s  c #247124",
"d  c #297321",
"f  c #2D722D",
"g  c #327329",
"h  c #2C6E38",
"j  c #396C3C",
"k  c #2C7039",
"l  c #2A7533",
"z  c #3C753A",
"x  c #5D5719",
"c  c #4C771C",
"v  c #637A1E",
"b  c #474B36",
"n  c #58543C",
"m  c #456C25",
"M  c #4A6A26",
"N  c #4D7124",
"B  c #466637",
"V  c #52752D",
"C  c #685929",
"Z  c #323743",
"A  c #3D216B",
"S  c #3B2367",
"D  c #7F1B40",
"F  c #413457",
"G  c #782941",
"H  c #452973",
"J  c #4E337D",
"K  c #395B44",
"L  c #337249",
"P  c #3D7865",
"I  c #545555",
"U  c #725946",
"Y  c #567B49",
"T  c #516D4E",
"R  c #41796F",
"E  c #467776",
"W  c gray42",
"Q  c #7C7C7C",
"!  c #7C7160",
"~  c #6C6252",
"^  c #821D42",
"/  c #882749",
"(  c #9C385D",
")  c #912D51",
"_  c #9F3C61",
"`  c #A03C61",
"'  c #AA496C",
"]  c #B9557A",
"[  c #B14C71",
"{  c #94786F",
"}  c #A87C7D",
"|  c #3C8908",
" . c #3B8217",
".. c #29B41F",
"X. c #068925",
"o. c #009325",
"O. c #019329",
"+. c #089421",
"@. c #0E9636",
"#. c #109236",
"$. c #02A439",
"%. c #13B839",
"&. c #0DA72E",
"*. c #2AB327",
"=. c #3FB929",
"-. c #3EB625",
";. c #468809",
":. c #489300",
">. c #449900",
",. c #51910A",
"<. c #498115",
"1. c #548A0D",
"2. c #42A400",
"3. c #48B400",
"4. c #4DB60B",
"5. c #47B400",
"6. c #43AC1A",
"7. c #49B218",
"8. c #55B817",
"9. c #52B400",
"0. c #4FAE27",
"q. c #5ABC24",
"w. c #57B336",
"e. c #53AD2B",
"r. c #61BE2B",
"t. c #6AC23B",
"y. c #01AC43",
"u. c #00AD49",
"i. c #00B44B",
"p. c #02B94C",
"a. c #02B344",
"s. c #02B452",
"d. c #1EA242",
"f. c #2F9076",
"g. c #359963",
"h. c #1CA06A",
"j. c #32AB7A",
"k. c #30AA6B",
"l. c #1D8E55",
"z. c #4C9053",
"x. c #57AF44",
"c. c #508B71",
"v. c #6D9178",
"b. c #55A870",
"n. c #70A07B",
"m. c #79C853",
"M. c #91CD76",
"N. c #553A83",
"B. c #5E438C",
"V. c #654993",
"C. c #6B5099",
"Z. c #4D7B8A",
"A. c #797593",
"S. c #775CA5",
"D. c #7C62A9",
"F. c #BB6D82",
"G. c #856AB4",
"H. c #8C76B7",
"J. c #C45F84",
"K. c #D16D92",
"L. c #D9779A",
"P. c #CE698E",
"I. c #E37EA3",
"U. c #977CC5",
"Y. c #3A968E",
"T. c #2BA68A",
"R. c #619F82",
"E. c #6DB189",
"W. c #5884A9",
"Q. c #5592BD",
"!. c #4DA08A",
"~. c #54CD8A",
"^. c #76D39D",
"/. c #5C92C7",
"(. c #598FC0",
"). c #6A8BDB",
"_. c #698CD7",
"`. c #6B91DA",
"'. c #73B0DF",
"]. c #6F8FE7",
"[. c #7DA9E6",
"{. c #7CB0E5",
"}. c #8B8B8B",
"|. c #9A9A9A",
" X c #84A88E",
".X c #AFAFAF",
"XX c #9CD68B",
"oX c #97D486",
"OX c #A3D99D",
"+X c #9BC3B1",
"@X c #B2E0B7",
"#X c #9E83CC",
"$X c #A78DD4",
"%X c #80ABE9",
"&X c #87AFF7",
"*X c #AFDED2",
"=X c #B7E4CF",
"-X c #D0D0D0",
";X c gainsboro",
":X c #C3C3C3",
">X c #C9DFE6",
",X c #C9E3E6",
"<X c #CFECEA",
"1X c #CCE5EA",
"2X c #D7EFF7",
"3X c #F4F4F4",
"4X c white",
"5X c gray91",
/* pixels */
"2X2X2X2X2X2X2X2X2X2X2X2X&X].].].].].].&X2X2X2X2X2X2X2X2X2X2X2X2X2X2X2X<Xm.r.m.r.t.t.t.t.w.q.b.].].].].&X2X2X2X2X2X2X2X2X2X2X2X2X",
"2X2X2X&X].].].&X2X2X2X<XXXoXE.R.R.E.XXXXXX!.T.j.f.{.2X2X2X2X=X~.oXOXoXE.w.7.4.4.4.4.4.4.4.8.x.b.`.&X2X2X2X&X].].].&X2X2X2X2X2X2X",
"].].].].].].].].].].'.^.=.-.0.=.=.=.-.6.-.&.y.$.o.T./.].{.*X~.a.*.7.4.7.0.4.5.5.3.3.3.3.4.8.r.r.XX@X=X2X2X2X2X2X&X].].].&X2X2X&X",
"].].].].].].].].].].T.i.i.i.p.p.p.s.@.o.O.o.o.O.@.$.T.].`.b.p.a.p.*.4.5.5.5.5.5.3.3.3.3.5.5.4.t.t.8.M.<X2X2X2X2X2X2X&X].].2X&X].",
"].].].].].].].].].j.s.i.p.i.i.i.i.s.i.u.u.u.y.y.a.$.d.g. Xk.a.O.i.p.*.9.5.5.5.3.3.3.3.3.3.3.3.4.9.8.m.m.%X].].].&X2X2X&X2X2X].].",
"                                                  X                             . @ # 3 | 5.3.5.3.4.8.w.k.Q.].].].&X2X2X2X&X].].",
"                                                                                          o 3 >.3.3.4.e.%.h.(.].].].&X2X2X].].].",
"                                                                                                3 2.3.3.%.$.l.].].].].2X2X].].].",
"                                                                                                  . 6 %.$.#.E ].].].].&X2X].].].",
"                                                                                                      7 X.L Z.W.`.].].].2X&X].].",
"                                                                                                        @ h P P W.].].&X2X2X].].",
"                                                                                                          o h R P W.&X2X2X2X&X].",
"                                                                                                            $ k L !.+X<X&X2X2X&X",
"                                                    Q .X-X5X4X4X4X-X.X}.*                                     2 L z.c.[.].&X2X2X",
"                                              I |.3X4X4X4X4X4X4X4X4X4X4X4X.X*                                 . w u h _.].].].].",
"                                          * |.4X4X4X4X4X4X4X4X4X4X4X4X4X4X4X3XI                                 $ w K _.2X2X2X2X",
"                                        I ;X4X4X4X4X4X4X4X4X4X4X4X4X4X4X4X4X4X3XI                                 9 K >X2X&X&X2X",
"                                        I 3X4X4X4X4X3X.X|.W W W |.-X4X4X4X4X4X4X3X*                               @ K [.].].].].",
"                                          .X4X4X5X}.                W ;X4X4X4X4X4X.X                              . K ).].].].].",
"                                          W 4X|.                      * 5X4X4X4X4X4X*                               ; ).].].].].",
"                                            W                           W 4X4X4X4X4X|.                              & ).].].].].",
"                                                                          -X4X4X4X4X:X                              o _.].].].].",
"                                                                          |.4X4X4X4X;X                              X ).].].].].",
"                                                                          W 4X4X4X4X4X                                ,X&X].].].",
"                                                                          W 4X4X4X4X4X                                ,X2X2X2X2X",
"                                                                          W 4X4X4X4X5X                                ,X2X2X2X2X",
"                                                                          }.4X4X4X4X-X                                ).&X2X2X&X",
"                                                                          .X4X4X4X4X.X                                ].].2X&X].",
"                                                                          5X4X4X4X4XQ                                 [.2X2X].].",
"                                                                        W 4X4X4X4X3X                                  >X2X&X].].",
"                                                                        -X4X4X4X4X|.                                  >X2X].].].",
"                                                                      Q 4X4X4X4X3X*                                   2X2X].].].",
"                                                                    * 5X4X4X4X4X|.                                    &X2X].].].",
"                                                                    :X4X4X4X4X;X                                      ].2X&X].].",
"                                                                  |.4X4X4X4X4XI                                       &X2X2X].].",
"                                                                W 4X4X4X4X4X|.                                        2X2X2X&X].",
"                                                              I 3X4X4X4X4X.X                                          2X&X2X2X&X",
"                                                            * 3X4X4X4X4X;X*                                           %X].&X2X2X",
"                                                          * ;X4X4X4X4X;X*                                             E _.].].].",
"                                                        * ;X4X4X4X4X4XI                                               z.M.=X2X2X",
"                                                      * ;X4X4X4X4X3XI                                                 q.7.g./.].",
"                                                    * ;X4X4X4X4X3XI                                                 . O.@.@.@.].",
"                                                  * ;X4X4X4X4X3XI                                                   @ O.X.l z.2X",
"                                                = ;X4X4X4X4X3XI                                                     $ X.u z E.2X",
"                                              * ;X4X4X4X4X3XI                                                       # y i k n.2X",
"                                            * ;X4X4X4X4X3XI                                   X                     q u u h c.2X",
"                                          * ;X4X4X4X4X3XI                                                         . u u u h P &X",
"                                        * ;X4X4X4X4X3X{ W W W W W W W W W W W W W W W W                           # u u u L P ].",
"                                      * ;X4X4X4X4X4X4X4X4X4X4X4X4X4X4X4X4X4X4X4X4X4X4X4X                          y u u u k R ].",
"                                      W 4X4X4X4X4X4X4X4X4X4X4X4X4X4X4X4X4X4X4X4X4X4X4X4X                        $ i u u u k R &X",
"                                      W 4X4X4X4X4X4X4X4X4X4X4X4X4X4X4X4X4X4X4X4X4X4X4X4X                    X X y u u u u k c.2X",
"                                      W 4X4X4X4X4X4X4X4X4X4X4X4X4X4X4X4X4X4X4X4X4X4X4X4X                      < u u u u u f c.2X",
"                                                                                                            % y u u u u u u u ].",
"                                                                                                          o a i u u u u u u s 2X",
"                                                                                                        @ u u y u u u u s u w ].",
"                                                                                                      < T a B a u u u u u q 0 ].",
"                                                                                                  X 2 u u n ` ` u u u s q q u ].",
"                                                                                                O - q u U G D P.u s u q 9 q u ].",
"                                                                                          X + , r 9 8 n G / [ { u u q 9 0 w u ].",
"                                                                                X O + 1 , : : > ~ r < ` ^ [ } 4 s w 9 9 u 4 u ].",
"].].f.o.@.t u i m z w 0 f 7.T N.$XG.H A B.#XS.S V.U.A.e u | | y u 7 7 i M V N ,.,.U / I.[ > : ( I.[ : ( P.{ g ;. .w 9 9 6 | s ].",
"].].(.Y.L u u i M a w - q >.B H G.$XV.H #XG.S.G.V Y K 9 u | | u u 7 7 d m c ;.:.:.x ^ J.I.( D L.] ] ] b T z 5 :. .8 9 q ;.;.u ].",
"].].].].Z.a u i M N r ; I r F A J H.S.N.U.G.H.v.:. .q - a c 5 p u 7 7 u M ;.1.C x G > / P.' ) K.] ] ! 0 w s i ;.d L E a ;.;.i ].",
"].].].&X;Xz.a i N N ; Z V.H A A S B.C.V.V.U.A.c :.c r & M N a p i 7 7 u M 1.v ` > : : : ) ' _ _ L.{ y q y u i M N  X,XV ;.;.m ]."
};
