/* XPM */
static char *result[] = {
/* columns rows colors chars-per-pixel */
"64 64 182 2 ",
"   c #000000",
".  c #070A0F",
"X  c #080A10",
"o  c gray17",
"O  c #262824",
"+  c #2A3C29",
"@  c #751236",
"#  c #7B163B",
"$  c #6C282D",
"%  c #2E7A19",
"&  c #387B18",
"*  c #3E7A0A",
"=  c #065024",
"-  c #0A5224",
";  c #1E5A28",
":  c #134A25",
">  c #244726",
",  c #364A26",
"<  c #29522B",
"1  c #265627",
"2  c #3F5039",
"3  c #1E6E26",
"4  c #236325",
"5  c #236C25",
"6  c #2B6C24",
"7  c #236C29",
"8  c #326C25",
"9  c #356A26",
"0  c #297125",
"q  c #327329",
"w  c #3F6F3B",
"e  c #5D5719",
"r  c #4C771C",
"t  c #637A1E",
"y  c #4E4B38",
"u  c #634D2A",
"i  c #456C25",
"p  c #4A6A26",
"a  c #4D7124",
"s  c #507124",
"d  c #4A6839",
"f  c #547835",
"g  c #6C6528",
"h  c #323743",
"j  c #3D216B",
"k  c #3B2367",
"l  c #7F1B40",
"z  c #413457",
"x  c #452973",
"c  c #4E337D",
"v  c #355946",
"b  c #2A7A48",
"n  c #444444",
"m  c #404C54",
"M  c #585858",
"N  c #7A5741",
"B  c #567B49",
"V  c #516D4E",
"C  c gray42",
"Z  c #7C7160",
"A  c #7C7C7C",
"S  c #486E71",
"D  c #831E43",
"F  c #8B274B",
"G  c #912D51",
"H  c #9A365B",
"J  c #9E3A5E",
"K  c #A13C61",
"L  c #A8476A",
"P  c #B14C71",
"I  c #B9557A",
"U  c #95786F",
"Y  c #3E890A",
"T  c #3D840B",
"R  c #3B8217",
"E  c #29B41F",
"W  c #008D23",
"Q  c #009124",
"!  c #019329",
"~  c #109537",
"^  c #03A239",
"/  c #0DA72E",
"(  c #2AB327",
")  c #3FB929",
"_  c #3EB625",
"`  c #428D04",
"'  c #4A840C",
"]  c #4A8A08",
"[  c #43870A",
"{  c #489300",
"}  c #449900",
"|  c #51910A",
" . c #498115",
".. c #548A0D",
"X. c #48B400",
"o. c #4DB50A",
"O. c #47B400",
"+. c #52B400",
"@. c #43AC1A",
"#. c #4BB116",
"$. c #55B817",
"%. c #4FAE27",
"&. c #59B82F",
"*. c #61BE2B",
"=. c #6BC23C",
"-. c #66C034",
";. c #01AC43",
":. c #00AD49",
">. c #1EA242",
",. c #02B344",
"<. c #00B44B",
"1. c #02B94C",
"2. c #02B452",
"3. c #2F9076",
"4. c #2C9764",
"5. c #32AB61",
"6. c #30AC7E",
"7. c #2DA874",
"8. c #57AF44",
"9. c #71837B",
"0. c #5DA07C",
"q. c #51AC6A",
"w. c #7CC957",
"e. c #71C445",
"r. c #553A83",
"t. c #5E438C",
"y. c #664A94",
"u. c #624690",
"i. c #6B5099",
"p. c #527D93",
"a. c #797593",
"s. c #775CA5",
"d. c #7C62A9",
"f. c #BB6D82",
"g. c #856AB4",
"h. c #9075BE",
"j. c #8777AF",
"k. c #C45F84",
"l. c #D16D92",
"z. c #D9779A",
"x. c #CC678C",
"c. c #E37EA3",
"v. c #977CC5",
"b. c #3F8C8D",
"n. c #349F8E",
"m. c #2BA68A",
"M. c #619F82",
"N. c #47B48B",
"B. c #6DB189",
"V. c #4FCF8E",
"C. c #59CB86",
"Z. c #76D39D",
"A. c #5C92C7",
"S. c #6A8FDE",
"D. c #6C91DE",
"F. c #73B0DF",
"G. c #6F8FE7",
"H. c #7CB0E6",
"J. c #8B8B8B",
"K. c #9A9A9A",
"L. c #83AD90",
"P. c #85A38B",
"I. c gray66",
"U. c #B6B6B6",
"Y. c #9CD68B",
"T. c #97D486",
"R. c #A3D99D",
"E. c #B2E0B7",
"W. c #9E83CC",
"Q. c #A78DD4",
"!. c #87AFF7",
"~. c #AFDED2",
"^. c #B7E5D2",
"/. c #C3C3C3",
"(. c #D0D0D0",
"). c gainsboro",
"_. c #CFECEA",
"`. c #CBE6E9",
"'. c #D7EFF7",
"]. c gray91",
"[. c #F4F4F4",
"{. c white",
/* pixels */
"'.'.'.'.'.'.'.'.'.'.'.'.!.G.G.G.G.G.G.!.'.'.'.'.'.'.'.'.'.'.'.'.'.'.'._.w.-.=.=.=.=.=.=.&.%.q.G.G.G.G.!.'.'.'.'.'.'.'.'.'.'.'.'.",
"'.'.'.!.G.G.G.!.'.'.'._.Y.Y.B.M.M.B.Y.Y.Y.N.m.m.3.H.'.'.'.'.^.C.T.Y.T.B.&.@.o.o.o.o.o.o.$.$.8.0.D.!.'.'.'.!.G.G.G.!.'.'.'.'.'.'.",
"G.G.G.G.G.G.G.G.G.G.F.Z.) _ ) ) ) ) _ %.%./ ;.^ W n.A.G.!.~.V.1.( #.#.#.%.#.O.O.X.O.X.X.O.$.*.*.R.E.^.].'.'.'.'.!.G.G.G.!.'.'.!.",
"G.G.G.G.G.G.G.G.G.G.m.1.<.<.<.<.<.<.^ W Q Q Q ! ~ ;.6.S.G.q.1.,.2.( +.O.O.O.O.O.X.X.X.X.O.X.o.=.=.$.w._.'.'.'.'.'.'.!.G.G.'.!.G.",
"G.G.G.G.G.G.G.G.G.7.2.1.<.<.1.<.1.<.<.:.:.:.;.;.;.^ >.4.L.5.,.! 1.1.( +.O.O.O.X.X.X.X.X.X.X.X.o.o.$.e.w.H.G.G.G.!.'.'.!.'.'.G.G.",
"X                                                                                                                           . X ",
"                                                                                                                                ",
"                                                                                                                                ",
"                                                                                                                                ",
"                                                                                                                                ",
"                                                                                                                                ",
"                                                                                                                                ",
"                                                                                                                                ",
"                                                                                                                                ",
"                                                                                                                                ",
"                                                                                                                                ",
"                                                                                                                                ",
"                                                                                                                                ",
"                                                                                                                                ",
"  ).{.{./.                          /.{.{.).    C {.{.{.{.{.{.{.{.{.{.{.{.{.C               A U.).{.{.{.)./.J.o                 ",
"  K.{.{.{.o                       o {.{.{.K.    C {.{.{.{.{.{.{.{.{.{.{.{.{.C           C ].{.{.{.{.{.{.{.{.{.].                ",
"  M {.{.{.A                       J.{.{.{.n     C {.{.{.(.(.(.(.(.(.(.(.(.(.M         J.{.{.{.{.[.(.(.(.[.{.{.U.                ",
"    ].{.{.U.                      /.{.{.(.      C {.{.{.                            o [.{.{.).C           M U.A                 ",
"    I.{.{.[.                    o {.{.{.J.      C {.{.{.                            I.{.{.].o                                   ",
"    M {.{.{.C                   J.{.{.{.o       C {.{.{.                            ).{.{.J.                                    ",
"      ].{.{.I.                  /.{.{./.        C {.{.{.                            {.{.{.C                                     ",
"      I.{.{.].                o {.{.{.J.        C {.{.{.                            {.{.{.J.                                    ",
"      C {.{.{.M               J.{.{.[.o         C {.{.{.                            (.{.{.).                              o I.(.",
"        [.{.{.K.              /.{.{.U.          C {.{.{.                            J.{.{.{./.o                           U.{.{.",
"        U.{.{.).            o {.{.{.A           C {.{.{.                              ).{.{.{.[.K.o                       {.{.{.",
"        A {.{.{.o           J.{.{.[.            C {.{.{.(.(.(.(.(.(.(.(.(.I.          o ).{.{.{.{.{.U.C                   ).{.{.",
"          [.{.{.J.          /.{.{.U.            C {.{.{.{.{.{.{.{.{.{.{.{.(.              K.[.{.{.{.{.{.(.C               M ].{.",
"          U.{.{./.        o {.{.{.A             C {.{.{.{.{.{.{.{.{.{.{.{.(.                o K.].{.{.{.{.{.I.                  ",
"          J.{.{.{.        J.{.{.].              C {.{.{.                                          A (.{.{.{.{.I.                ",
"          o {.{.{.A       U.{.{.I.              C {.{.{.                                              C [.{.{.{.C               ",
"            /.{.{.I.      [.{.{.M               C {.{.{.                                                n [.{.{.U.              ",
"            J.{.{.].    A {.{.].                C {.{.{.                                                  I.{.{.].              ",
"            o {.{.{.n   I.{.{.I.                C {.{.{.                                                  C {.{.{.              ",
"              (.{.{.K.  ].{.{.n                 C {.{.{.                                                  C {.{.{.              ",
"              K.{.{./.n {.{.).                  C {.{.{.                                                  I.{.{.(.              ",
"              n {.{.[.J.{.{.K.                  C {.{.{.                            n                   M [.{.{.K.        o I./.",
"                ).{.{.).{.{.n                   C {.{.{.                            [.(.J.o         o J.[.{.{.].          U.{.{.",
"                K.{.{.{.{.).                    C {.{.{.(.(.(.(.(.(.(.(.(.(.(.    C {.{.{.{.).(.(.(.{.{.{.{.[.M           {.{.{.",
"                n {.{.{.{.K.                    C {.{.{.{.{.{.{.{.{.{.{.{.{.{.    C ].{.{.{.{.{.{.{.{.{.{.(.n             ].{.{.",
"                  ).{.{.{.o                     C {.{.{.{.{.{.{.{.{.{.{.{.{.{.        A I.(.{.{.{.{.(.I.M                 M ].{.",
"                                                                                                                                ",
"                                                                                                                                ",
"                                                                                                                                ",
"                                                                                                                                ",
"                                                                                                                                ",
"                                                                                                                                ",
"                                                                                                                                ",
"                                                                                                                                ",
"                                                                                                                                ",
"                                                                                                                                ",
"                                                                                                                                ",
"                                                                                                                                ",
"                                                                                                                                ",
"                                                                                                                                ",
"X                                                                                                                             . ",
"G.G.3.! ~ 3 4 6 p q < < q @.V c Q.d.x j t.Q.d.k u.v.a.< 4 Y Y 5 5 - = 6 p p s | | N F z.P # @ J z.P @ J x.U 9 { % ; > > * Y 5 G.",
"G.G.A.b.b 7 4 6 p i < > 1 } d x g.Q.y.x W.g.d.d.f B v > 3 Y Y 5 5 - = 0 i r ] { } u F k.c.J l z.I I I y V w & { % ; > ; [ Y 3 G.",
"G.G.G.G.p., 6 6 p s , + v 2 z x c h.s.r.W.d.j.9.` R < + 8 r & 3 6 - = 6 i ' ..g e $ @ F x.L G l.I I Z > 4 5 6 [ & V S 9 ` [ 8 G.",
"G.G.G.!.`.8.8 0 p a o h y.x j j k t.i.u.y.v.a.r { r , O p s 9 5 0 - = 6 i ' t K # @ @ @ H L J K z.U 5 > 4 5 6 i a P.`.d ] ] i G."
};
