/* XPM */
static char *result[] = {
/* columns rows colors chars-per-pixel */
"64 64 183 2 ",
"   c #000000",
".  c #070A0F",
"X  c #080A10",
"o  c #292A28",
"O  c #2A3C29",
"+  c #751236",
"@  c #7B163B",
"#  c #6C282D",
"$  c #2E7A19",
"%  c #387B18",
"&  c #3E7A0A",
"*  c #065024",
"=  c #0A5224",
"-  c #1E5A28",
";  c #134A25",
":  c #244726",
">  c #364A26",
",  c #29522B",
"<  c #265627",
"1  c #3F5039",
"2  c #1E6E26",
"3  c #236325",
"4  c #236C25",
"5  c #2B6C24",
"6  c #236C29",
"7  c #326C25",
"8  c #356A26",
"9  c #297125",
"0  c #327329",
"q  c #3F6F3B",
"w  c #5D5719",
"e  c #4C771C",
"r  c #637A1E",
"t  c #4E4B38",
"y  c #634D2A",
"u  c #456C25",
"i  c #4A6A26",
"p  c #4D7124",
"a  c #507124",
"s  c #4A6839",
"d  c #547835",
"f  c #6C6528",
"g  c #323743",
"h  c #3D216B",
"j  c #3B2367",
"k  c #7F1B40",
"l  c #413457",
"z  c #452973",
"x  c #4E337D",
"c  c #355946",
"v  c #2A7A48",
"b  c #404C54",
"n  c #515151",
"m  c #7A5741",
"M  c #436F46",
"N  c #567B49",
"B  c #536F5B",
"V  c #5D6849",
"C  c gray42",
"Z  c #7C7160",
"A  c #486E71",
"S  c #831E43",
"D  c #8B274B",
"F  c #912D51",
"G  c #9A365B",
"H  c #9E3A5E",
"J  c #A13C61",
"K  c #A8476A",
"L  c #B14C71",
"P  c #B9557A",
"I  c #95786F",
"U  c #3E890A",
"Y  c #3D840B",
"T  c #3B8217",
"R  c #29B41F",
"E  c #008D23",
"W  c #009124",
"Q  c #019329",
"!  c #0A8F33",
"~  c #159A3A",
"^  c #03A239",
"/  c #0DA72E",
"(  c #2AB327",
")  c #3FB929",
"_  c #3EB625",
"`  c #428D04",
"'  c #4A840C",
"]  c #4A8A08",
"[  c #43870A",
"{  c #489300",
"}  c #449900",
"|  c #51910A",
" . c #498115",
".. c #548A0D",
"X. c #48B400",
"o. c #4DB50A",
"O. c #47B400",
"+. c #52B400",
"@. c #43AC1A",
"#. c #4BB116",
"$. c #55B817",
"%. c #4FAE27",
"&. c #5BBC21",
"*. c #57B33C",
"=. c #61BE2B",
"-. c #6BC23C",
";. c #66C034",
":. c #01AC43",
">. c #00AD49",
",. c #1EA242",
"<. c #02B344",
"1. c #00B44B",
"2. c #02B94C",
"3. c #02B452",
"4. c #2F9076",
"5. c #2C9764",
"6. c #32AB61",
"7. c #30AC7E",
"8. c #2DA874",
"9. c #53AA40",
"0. c #5AB347",
"q. c #71837B",
"w. c #5DA07C",
"e. c #51AC6A",
"r. c #7CC957",
"t. c #71C445",
"y. c #553A83",
"u. c #5E438C",
"i. c #664A94",
"p. c #624690",
"a. c #6B5099",
"s. c #527D93",
"d. c #797593",
"f. c #775CA5",
"g. c #7C62A9",
"h. c #BB6D82",
"j. c #856AB4",
"k. c #9075BE",
"l. c #8777AF",
"z. c #C45F84",
"x. c #D16D92",
"c. c #D9779A",
"v. c #CC678C",
"b. c #E37EA3",
"n. c #977CC5",
"m. c #3F8C8D",
"M. c #349F8E",
"N. c #2BA68A",
"B. c #619F82",
"V. c #47B48B",
"C. c #6DB189",
"Z. c #4FCF8E",
"A. c #59CB86",
"S. c #76D39D",
"D. c #5C92C7",
"F. c #6A8FDE",
"G. c #6C91DE",
"H. c #73B0DF",
"J. c #6F8FE7",
"K. c #7CB0E6",
"L. c #8B8B8B",
"P. c #9A9A9A",
"I. c #83AD90",
"U. c #85A38B",
"Y. c #B6B6B6",
"T. c #9CD68B",
"R. c #97D486",
"E. c #A3D99D",
"W. c #B2E0B7",
"Q. c #9E83CC",
"!. c #A98DD7",
"~. c #A38DD0",
"^. c #87AFF7",
"/. c #AFDED2",
"(. c #B7E5D2",
"). c #D0D0D0",
"_. c gainsboro",
"`. c #CFECEA",
"'. c #CBE6E9",
"]. c #D7EFF7",
"[. c white",
"{. c #F4F4F4",
"}. c gray91",
/* pixels */
"].].].].].].].].].].].].^.J.J.J.J.J.J.^.].].].].].].].].].].].].].].].`.r.&.t.=.-.-.-.-.*.%.e.J.J.J.J.^.].].].].].].].].].].].].",
"].].].^.J.J.J.^.].].].`.T.T.C.B.B.C.T.T.T.V.N.N.4.K.].].].].(.Z.R.T.R.C.*.#.o.#.o.o.o.o.o.$.*.w.G.^.].].].^.J.J.J.^.].].].].].].",
"J.J.J.J.J.J.J.J.J.J.H.S.) _ ) ) ) ) _ %.%./ :.^ E M.D.J.^./.Z.<.( #.$.#.%.#.X.X.X.X.X.X.X.$.;.;.E.W.(.}.].].].].^.J.J.J.^.].].^.",
"J.J.J.J.J.J.J.J.J.J.N.2.1.1.1.1.1.1.^ E E W E Q ~ :.7.F.G.e.2.2.3.( X.X.X.X.X.X.O.X.X.X.X.X.o.;.;.$.r.`.].].].].].].^.J.J.].^.J.",
"J.J.J.J.J.J.J.J.J.8.3.2.1.1.2.1.2.1.1.>.>.>.:.:.:.^ ,.5.I.6.<.Q 2.2.( +.X.X.X.X.X.X.X.X.X.X.X.o.o.&.t.r.K.J.J.J.^.].].^.].].J.J.",
"X                                                                                                                           . X ",
"                                                                                                                                ",
"                                                                                                                                ",
"                                                                                                                                ",
"                                                                                                                                ",
"                                                                                                                                ",
"                                                                                                                                ",
"                                                                                                                                ",
"                                                            L.}.[.[.[.[.                                                        ",
"                                                        L.}.[.[.[.[.[.[.                                                        ",
"                                                    C _.[.[.[.[.[.[.[.[.                                                        ",
"                                                C ).[.[.[.[.[.[.[.[.[.[.                                                        ",
"                                              P.[.[.[.[.[.[.{.[.[.[.[.[.                                                        ",
"                                              P.[.[.[.[.[.P.o [.[.[.[.[.                                                        ",
"                                              n [.[.[.Y.b     [.[.[.[.[.                                                        ",
"                                                {.).C         [.[.[.[.[.                                                        ",
"                                                n             [.[.[.[.[.                                                        ",
"                                                              [.[.[.[.[.                                                        ",
"                                                              [.[.[.[.[.                                                        ",
"                                                              [.[.[.[.[.                                                        ",
"                                                              [.[.[.[.[.                                                        ",
"                                                              [.[.[.[.[.                                                        ",
"                                                              [.[.[.[.[.                                                        ",
"                                                              [.[.[.[.[.                                                        ",
"                                                              [.[.[.[.[.                                                        ",
"                                                              [.[.[.[.[.                                                        ",
"                                                              [.[.[.[.[.                                                        ",
"                                                              [.[.[.[.[.                                                        ",
"                                                              [.[.[.[.[.                                                        ",
"                                                              [.[.[.[.[.                                                        ",
"                                                              [.[.[.[.[.                                                        ",
"                                                              [.[.[.[.[.                                                        ",
"                                                              [.[.[.[.[.                                                        ",
"                                                              [.[.[.[.[.                                                        ",
"                                                              [.[.[.[.[.                                                        ",
"                                                              [.[.[.[.[.                                                        ",
"                                                              [.[.[.[.[.                                                        ",
"                                                              [.[.[.[.[.                                                        ",
"                                                              [.[.[.[.[.                                                        ",
"                                                              [.[.[.[.[.                                                        ",
"                                                              [.[.[.[.[.                                                        ",
"                                                              [.[.[.[.[.                                                        ",
"                                                              [.[.[.[.[.                                                        ",
"                                                              [.[.[.[.[.                                                        ",
"                                                              [.[.[.[.[.                                                        ",
"                                                              [.[.[.[.[.                                                        ",
"                                                              [.[.[.[.[.                                                        ",
"                                                                                                                                ",
"                                                                                                                                ",
"                                                                                                                                ",
"                                                                                                                                ",
"                                                                                                                                ",
"                                                                                                                                ",
"                                                                                                                                ",
"X                                                                                                                             . ",
"J.J.4.Q ! 9 2 5 u 0 , : 0 @.B x !.g.z j u.Q.g.j p.n.d., 3 U U 4 4 = * 5 i i a | | m D b.L @ + H b.K + H x.I 0 ` $ - : : & U 4 J.",
"J.J.D.m.v 4 2 7 p u < : < } s z j.!.i.z Q.j.g.j.d N c : 2 U U 2 4 = * 9 u e ] { } y D P b.H @ c.P P P t V q $ { $ - : - [ U 2 J.",
"J.J.J.G.s.8 4 5 p a > O b 1 l h x k.f.x n.g.l.q.{ T , O 7 e % 4 5 = * 4 i ' ..f w # @ D v.K F x.P P Z : 3 4 5 ' % M A 8 ` [ 7 J.",
"J.J.J.^.'.N 8 5 i p O g i.z h h j u.a.i.i.Q.d.e { e : o i a 8 4 9 = * 5 u ' r J @ + + + G K H J c.I 4 : 3 4 5 i a U.'.s ] ] u J."
};
