/* XPM */
static char *result[] = {
/* columns rows colors chars-per-pixel */
"64 64 210 2 ",
"   c #000000",
".  c #050B02",
"X  c #0B0808",
"o  c #0E190C",
"O  c #221617",
"+  c #330B1A",
"@  c #0F2D0F",
"#  c #0A2009",
"$  c #143411",
"%  c #0F2E0D",
"&  c #361C22",
"*  c #192B22",
"=  c #263C25",
"-  c #2B3329",
";  c #461225",
":  c #751236",
">  c #7B163B",
",  c #64102F",
"<  c #4F3435",
"1  c #6C282D",
"2  c #154A14",
"3  c #245A00",
"4  c #2C771A",
"5  c #387B18",
"6  c #31730F",
"7  c #085124",
"8  c #185226",
"9  c #234424",
"0  c #244B25",
"q  c #2A4D2D",
"w  c #245424",
"e  c #265728",
"r  c #2F523F",
"t  c #34492E",
"y  c #197326",
"u  c #226323",
"i  c #246C24",
"p  c #2B6C24",
"a  c #236C29",
"s  c #336A27",
"d  c #247124",
"f  c #297321",
"g  c #2D722D",
"h  c #327329",
"j  c #2C6E38",
"k  c #396C3C",
"l  c #2C7039",
"z  c #2A7533",
"x  c #3C753A",
"c  c #5D5719",
"v  c #4C771C",
"b  c #637A1E",
"n  c #474B36",
"m  c #58543C",
"M  c #634D2A",
"N  c #456C25",
"B  c #4A6A26",
"V  c #4D7124",
"C  c #466637",
"Z  c #52752D",
"A  c #6C6528",
"S  c #323743",
"D  c #3D216B",
"F  c #3B2367",
"G  c #7F1B40",
"H  c #413457",
"J  c #782941",
"K  c #452973",
"L  c #4E337D",
"P  c #395B44",
"I  c #337249",
"U  c #3D7865",
"Y  c #4D5052",
"T  c #725946",
"R  c #567B49",
"E  c #516D4E",
"W  c #6C6252",
"Q  c #41796F",
"!  c #467776",
"~  c gray42",
"^  c #7C7160",
"/  c #821D42",
"(  c #882749",
")  c #9C385D",
"_  c #912D51",
"`  c #9F3C61",
"'  c #A03C61",
"]  c #AB4E6E",
"[  c #A84368",
"{  c #B9557A",
"}  c #B14C71",
"|  c #94786F",
" . c #A87C7D",
".. c #3C8908",
"X. c #3B8217",
"o. c #29B41F",
"O. c #068925",
"+. c #009325",
"@. c #019329",
"#. c #089421",
"$. c #0E9636",
"%. c #109236",
"&. c #02A439",
"*. c #13B839",
"=. c #0DA72E",
"-. c #2AB327",
";. c #3FB929",
":. c #3EB625",
">. c #468809",
",. c #489300",
"<. c #449900",
"1. c #51910A",
"2. c #498115",
"3. c #548A0D",
"4. c #42A400",
"5. c #48B400",
"6. c #4DB60B",
"7. c #47B400",
"8. c #43AC1A",
"9. c #49B218",
"0. c #55B817",
"q. c #52B400",
"w. c #4FAE27",
"e. c #5ABC24",
"r. c #57B336",
"t. c #53AD2B",
"y. c #61BE2B",
"u. c #6AC23B",
"i. c #1D8E55",
"p. c #01AC43",
"a. c #00AD49",
"s. c #02B344",
"d. c #00B44B",
"f. c #02B94C",
"g. c #02B452",
"h. c #1EA242",
"j. c #2F9076",
"k. c #359963",
"l. c #1CA06A",
"z. c #32AB7A",
"x. c #30AA6B",
"c. c #4C9053",
"v. c #57AF44",
"b. c #508B71",
"n. c #6D9178",
"m. c #55A870",
"M. c #70A07B",
"N. c #7CC957",
"B. c #71C445",
"V. c #91CD76",
"C. c #553A83",
"Z. c #5E438C",
"A. c #654993",
"S. c #6B5099",
"D. c #4A7B86",
"F. c #527D93",
"G. c #797593",
"H. c #775CA5",
"J. c #7C62A9",
"K. c #BB6D82",
"L. c #856AB4",
"P. c #8C76B7",
"I. c #C45F84",
"U. c #D16D92",
"Y. c #D9779A",
"T. c #CE698E",
"R. c #E37EA3",
"E. c #977CC5",
"W. c #3A968E",
"Q. c #2BA68A",
"!. c #619F82",
"~. c #6DB189",
"^. c #5884A9",
"/. c #5592BD",
"(. c #4DA08A",
"). c #54CD8A",
"_. c #76D39D",
"`. c #5C92C7",
"'. c #598FC0",
"]. c #6A8BDB",
"[. c #698CD7",
"{. c #6B91DA",
"}. c #73B0DF",
"|. c #6F8FE7",
" X c #7DA9E6",
".X c #7CB0E5",
"XX c #9A9A9A",
"oX c #8B8B8B",
"OX c #84A88E",
"+X c #B6B6B6",
"@X c #9CD68B",
"#X c #97D486",
"$X c #A3D99D",
"%X c #9BC3B1",
"&X c #B2E0B7",
"*X c #9E83CC",
"=X c #A78DD4",
"-X c #80ABE9",
";X c #87AFF7",
":X c #AFDED2",
">X c #B7E4CF",
",X c gray83",
"<X c #C9DFE6",
"1X c #C9E3E6",
"2X c #CFECEA",
"3X c #CCE5EA",
"4X c #D7EFF7",
"5X c white",
"6X c #F4F4F4",
"7X c gray91",
/* pixels */
"4X4X4X4X4X4X4X4X4X4X4X4X;X|.|.|.|.|.|.;X4X4X4X4X4X4X4X4X4X4X4X4X4X4X4X2XN.y.u.u.u.u.u.u.r.t.m.|.|.|.|.;X4X4X4X4X4X4X4X4X4X4X4X4X",
"4X4X4X;X|.|.|.;X4X4X4X2X@X#X~.!.!.~.@X@X@X(.Q.z.j..X4X4X4X4X>X).#X$X#X~.r.9.6.6.6.6.6.6.6.e.r.m.{.;X4X4X4X;X|.|.|.;X4X4X4X4X4X4X",
"|.|.|.|.|.|.|.|.|.|.}._.;.:.w.;.;.;.:.:.:.=.p.&.+.Q.`.|..X:X).s.-.9.6.9.w.9.7.7.5.5.5.5.5.0.u.u.@X&X>X4X4X4X4X4X;X|.|.|.;X4X4X;X",
"|.|.|.|.|.|.|.|.|.|.Q.d.d.d.f.f.d.f.$.O.+.+.+.@.$.&.Q.|.{.m.f.s.f.-.6.7.7.7.7.7.5.5.5.5.5.5.5.u.u.6.V.2X4X4X4X4X4X4X;X|.|.4X;X|.",
"|.|.|.|.|.|.|.|.|.z.g.d.f.d.d.d.d.g.d.a.a.a.a.s.s.&.h.k.OXx.s.@.d.f.-.q.5.7.5.5.5.5.5.5.5.5.5.6.q.0.B.V.}.].|.|.;X4X4X;X4X4X|.|.",
"                                                  X                             . # $ 3 ..7.5.7.5.6.0.r.x./.|.|.|.;X4X4X4X;X|.|.",
"                                                                                          # 3 <.5.5.6.t.*.l.'.|.|.|.;X4X4X|.|.|.",
"                                                                                                3 4.5.5.*.&.i.{.|.|.|.4X4X|.|.|.",
"                                                                                                  . 6 *.&.%.! |.|.|.|.;X4X|.|.|.",
"                                                                                                      7 O.I D.^.|.|.|.|.4X;X|.|.",
"                                                                                                        # j U U ^.{.|.;X4X4X|.|.",
"                                                                                                          # j Q Q ^.;X4X4X4X;X|.",
"                                                                                                            @ j I (.%X2X;X4X4X;X",
"                                                            oX7X5X5X5X5X                                      2 I c.b. X|.;X4X4X",
"                                                        oX7X5X5X5X5X5X5X                                      . e p j [.|.|.|.|.",
"                                                    ~ ,X5X5X5X5X5X5X5X5X                                        % e P ].4X4X4X4X",
"                                                ~ ,X5X5X5X5X5X5X5X5X5X5X                                          9 P 1X4X;X;X4X",
"                                              XX5X5X5X5X5X5X6X5X5X5X5X5X                                          o P  X|.|.|.|.",
"                                              XX5X5X5X5X5XXX- 5X5X5X5X5X                                          . P ].|.|.|.|.",
"                                            . Y 5X5X5X+XY     5X5X5X5X5X                                            = ].|.|.|.|.",
"                                                6X,X~         5X5X5X5X5X                                            * [.|.|.|.|.",
"                                                Y             5X5X5X5X5X                                            o [.|.|.|.|.",
"                                                              5X5X5X5X5X                                            X ].|.|.|.|.",
"                                                              5X5X5X5X5X                                            X 1X;X|.|.|.",
"                                                              5X5X5X5X5X                                              1X4X4X4X4X",
"                                                              5X5X5X5X5X                                              <X4X4X4X4X",
"                                                              5X5X5X5X5X                                              |.;X4X4X;X",
"                                                              5X5X5X5X5X                                              |.|.4X;X|.",
"                                                              5X5X5X5X5X                                               X4X4X|.|.",
"                                                              5X5X5X5X5X                                              <X4X;X|.|.",
"                                                              5X5X5X5X5X                                              <X4X|.|.|.",
"                                                              5X5X5X5X5X                                              4X4X|.|.|.",
"                                                              5X5X5X5X5X                                              ;X4X|.|.|.",
"                                                              5X5X5X5X5X                                              |.4X;X|.|.",
"                                                              5X5X5X5X5X                                              ;X4X4X|.|.",
"                                                              5X5X5X5X5X                                              4X4X4X;X|.",
"                                                              5X5X5X5X5X                                              4X;X4X4X;X",
"                                                              5X5X5X5X5X                                              -X|.;X4X4X",
"                                                              5X5X5X5X5X                                              ! [.|.|.|.",
"                                                              5X5X5X5X5X                                              c.V.>X4X4X",
"                                                              5X5X5X5X5X                                            . e.9.k.'.|.",
"                                                              5X5X5X5X5X                                            . @.$.$.$.|.",
"                                                              5X5X5X5X5X                                            # @.y z c.4X",
"                                                              5X5X5X5X5X                                            @ O.y x ~.4X",
"                                                              5X5X5X5X5X                                            $ i d l M.4X",
"                                                              5X5X5X5X5X                                            8 i i l b.4X",
"                                                              5X5X5X5X5X                                          . i i i j U ;X",
"                                                              5X5X5X5X5X                                          $ i i i I U |.",
"                                                              5X5X5X5X5X                                          u i i i l Q |.",
"                                                              5X5X5X5X5X                                        @ a i i i l Q ;X",
"                                                              5X5X5X5X5X                                      X u a i i i l b.4X",
"                                                              5X5X5X5X5X                                      1 a a i i i g b.4X",
"                                                                                                            & u i i i i i i i |.",
"                                                                                                          o s p i i i i i i d 4X",
"                                                                                                        @ u i u i i i i d i w |.",
"                                                                                                      < E s C s i i i i i e 0 |.",
"                                                                                                  X 2 i i m ' ' i i i i w w i |.",
"                                                                                              X O = w i T J / T.i 4 i w 9 w i |.",
"                                                                                      .   X + , q = 0 m J ( ] | i i w 9 0 u i |.",
"                                                                                X O + ; , : : > W t < ' / ]  .4 d e 9 9 u 4 i |.",
"|.|.j.+.$.y a p N z e q g 9.E C.=XL.K D Z.=XH.F A.E.G.q u ....i i 7 7 p B Z V 1.1._ ( R.} > > ) R.] : ` T.| v >.X.e 9 9 5 ..i |.",
"|.|.'.W.I g a p V N e q w <.C K L.=XA.K *XL.H.L.Z E P w y ..>.i i 7 7 4 N v >.,.,.M J K.R.) G Y.{ { { n E k 4 ,.X.8 9 w >...i |.",
"|.|.|.|.F.s i p B V t - Y t H D L P.H.C.P.L.P.n.,.X.e = s v 5 i i 7 7 i B >.3.A c 1 > ( T.[ _ U.}  .| 9 u i p >.4 I ! s >.>.s |.",
"|.|.|.;X2XZ s p V V - S A.K D D D Z.S.A.A.E.G.V ,.v t * B V s i p 7 7 p N v b ' > : : : ) ' ' ' U.| u 0 u i p B V OX2XC >.>.N |."
};
