/* XPM */
static char *result[] = {
/* columns rows colors chars-per-pixel */
"64 64 24 1 ",
"  c #281820",
". c #5F243D",
"X c #41383F",
"o c #7E3A49",
"O c #69686B",
"+ c #AC3B5C",
"@ c #CC606C",
"# c #CC824F",
"$ c #E0B56C",
"% c #91619A",
"& c #9B6FA1",
"* c #6F8FE7",
"= c #8EA291",
"- c #BF8BA1",
"; c #CAB48E",
": c #EEA499",
"> c #D6A0A8",
", c #DBA6AB",
"< c #EAB2AB",
"1 c #DEC38E",
"2 c #87AFF7",
"3 c #A8D1C0",
"4 c #D7EFF7",
"5 c #E3F4E3",
/* pixels */
"4444444444442******24444444444444444444444442******2444444444444",
"4442***24444442**24442***24444444442***24444442**24442***2444444",
"**********244444444444442***2442**********244444444444442***2442",
"************244444444444442**42*************244444444444442**42*",
"*************24444442***244244***************24444442***244244**",
"**************244442*****24442****************244442*****24442**",
"***************2442*******244******************2442*******244***",
"****************44*********44*******************44*********44***",
"****************44*********24*******************44*********24***",
"***************244**********42*****************244**********42**",
"**************24442********244****************24442********244**",
"*************244*442******24442**************244*442******24442*",
"************244***442****2442442************244***442****2442442",
"***********24444444442**2442*244***********24444444442**2442*244",
"442*****2444442***244444442*****442*****2444442***244444442*****",
"*444444444442*******2442****4444*4+--44444442*******2442****4444",
"44442***2442*********2442*4442244==:;%**2442*********2442*444224",
"**24442**42***********444442****=55=:<&**42***********444442****",
"****244244************2442******=55=::-244************2442******",
"*****24442*************42******=555=::-442*************42*******",
"******244**************42******=555=:$&44**************42*******",
"******2442************2442****=5555=::&442************2442******",
"*****244442**********244442***=5555=:@-4442**********244442*****",
"***244444442*******2444444442=55555=@++44442*******2444444442***",
"4444444444442******2444444444=55555=++o444442******2444444444444",
"4442***24444442**24442*%%&-+o=3555==++o24444442**24442***2444444",
"**********2444444444---<$::@+======O#+++%%&44444444444442***2442",
"************244444--<::=====O======O++@:$:>%&-4444444444442**42*",
"*************2444-<:===5553=O=======O======::,--44442***244244**",
"**************24+:==5555553=O======O=355555===#<-442*****24442**",
"***************2o=35533=====O======O3555555555==:+2*******244***",
"****************X============O=O=========3355555=o*********44***",
"****************XO===========OO3===============33=o********24***",
"***************24XXXXXXXO=====O===O===============.*********42**",
"**************24442*****XOO====OO==O=====OXXXXXXXX2********244**",
"*************244*442***O============OOOXXX***244*442******24442*",
"************244***442*=335333=========O+o***244***442****2442442",
"***********2444444444=355553===O=====3=@o**24444444442**2442*244",
"442*****2444442***244=55553===OO====35=:@+44442***244444442*****",
"*444444444442*******=35553===O+X====35=::+442*******2442****4444",
"***24444444444444444=3553===O+oXO====55=::-444444444444444442***",
"*24442***24444444442O333===O+#.*X====35=:$-444444442***24444442*",
"444444442***2442****O=====O+o.44XO====35=:>%2442**********244444",
"44444444442**42*****XO===O+o.4444XO====5=::%*42*************2444",
"44442***244244*******X===O#.*24444XO====5=:,-4***************244",
"4442*****24442********X==O+.**24444XO====5=:1&****************24",
"442*******244**********XO+o ***2442*XXO===3=@:+****************2",
"44*********44***********   *****44****XXXO==O+.*****************",
"44*********24*******************44*******     ******************",
"44**********42*****************244**********42*****************2",
"442********244****************24442********244****************24",
"*442******24442**************244*442******24442**************244",
"**442****2442442************244***442****2442442************244*",
"444442**2442*244***********24444444442**2442*244***********24444",
"**244444442*****442*****2444442***244444442*****442*****2444442*",
"****2442****4444*444444444442*******2442****4444*444444444442***",
"*****2442*44422444442***2442*********2442*44422444442***2442****",
"******444442******24442**42***********444442******24442**42*****",
"******2442**********244244************2442**********244244******",
"*******42************24442*************42************24442******",
"*******42*************244**************42*************244*******",
"******2442************2442************2442************2442******",
"*****244442**********244442**********244442**********244442*****",
"***2444444442******244444442*******2444444442******244444442****"
};
