/* XPM */
static char *result[] = {
/* columns rows colors chars-per-pixel */
"64 64 22 1 ",
"  c #281820",
". c #5F243D",
"X c #41383F",
"o c #7E3A49",
"O c #69686B",
"+ c #AC3B5C",
"@ c #CC606C",
"# c #CC824F",
"$ c #E0B56C",
"% c #91619A",
"& c #7F99BB",
"* c #6F8FE7",
"= c #8EA291",
"- c #BF8BA1",
"; c #EEA499",
": c #EAB2AB",
"> c #8BA8C3",
", c #97BDCC",
"< c #87AFF7",
"1 c #A8D1C0",
"2 c #D7EFF7",
"3 c #E3F4E3",
/* pixels */
"222222222222<******<222222222222222222222222<******<222222222222",
"222<***<222222<**<222<***<222222222<***<222222<**<222<***<222222",
"**********<2222222222222<***<22<**********<2222222222222<***<22<",
"************<2222222222222<**2<*************<2222222222222<**2<*",
"*************<222222<***<22<22***************<222222<***<22<22**",
"**************<2222<*****<222<****************<2222<*****<222<**",
"***************<22<*******<22******************<22<*******<22***",
"****************22*********22*******************22*********22***",
"****************22*********<2*******************22*********<2***",
"***************<22**********2<*****************<22**********2<**",
"**************<222<********<22****************<222<********<22**",
"*************<22*22<******<222<**************<22*22<******<222<*",
"************<22***22<****<22<22<************<22***22<****<22<22<",
"***********<222222222<**<22<*<22***********<222222222<**<22<*<22",
"22<*****<22222<***<2222222<*****22<*****<22222<***<2222222<*****",
"*22222222222<*******<22<****2222*22==++22222<*******<22<****2222",
"2222<***<22<*********<22<*222<<222=33=$+<22<*********<22<*222<<2",
"**<222<**2<***********22222<*****=333=;+*2<***********22222<****",
"****<22<22************<22<******=333=;@o22************<22<******",
"*****<222<*************2<******=3333=@o22<*************2<*******",
"******<22**************2<*****=13333=$o22**************2<*******",
"******<22<************<22<****=33331++o22<************<22<******",
"*****<2222<********%%<2222<**=13333=++o222<**********<2222<*****",
"***<2222222<******&>:---2222<=33331=++o2222<*******<22222222<***",
"222222222222<****&,3==;;+++oo=3331==++o22222++++++*<222222222222",
"222<***<222222<**O=133==$;;@O=111===#+oo++++;$;===+22<***<222222",
"**********<222222O==3333===OO=======O++@$;;;===331O22222<***<22<",
"************<22222O==333333=O=======OO======33331=O2222222<**2<*",
"*************<2222X===13333=O=======O=133333331==O22<***<22<22**",
"**************<2222X====111=O======O=13333331===X22<*****<222<**",
"***************<22<*X========O=O====111111=====X22<*******<22***",
"****************22***XO======OO1=============OX*22*********22***",
"****************22****XXO=====O===O========OXX**22*********<2***",
"***************<22******XXOO===OO==O=====OXX***<22**********2<**",
"**************<222<****O============OOOOXX****<222<********<22**",
"*************<22*22<**=13311==========O+o****<22*22<******<222<*",
"************<22***22<=13331====O=====1=@o***<22***22<****<22<22<",
"***********<222222222=3331====OO====13=;;+*<222222222<**<22<*<22",
"22<*****<22222<***<2=1333====O+X====13=;;+2222<***<2222222<*****",
"*22222222222<*******=333====O+oXO====31=;$+2<*******<22<****2222",
"***<2222222222222222=331===O+#.*X====13=;;+22222222222222222<***",
"*<222<***<222222222<O11===O+o.<*XO====13=;;+2222222<***<222222<*",
"22222222<***<22<****O=====O+.2222XO====3=;;+<22<**********<22222",
"2222222222<**2<******X===O#.<22222XO===13=;;+2<*************<222",
"2222<***<22<22*******XO==O+.*<22222XO===13=;+2***************<22",
"222<*****<222<********XO=O+.**<2222<XO===1=;$+****************<2",
"22<*******<22**********XO+o ***<22<**XXO==1=@@+****************<",
"22*********22***********   *****22*****XXO===+.*****************",
"22*********<2*******************22*******     ******************",
"22**********2<*****************<22**********2<*****************<",
"22<********<22****************<222<********<22****************<2",
"*22<******<222<**************<22*22<******<222<**************<22",
"**22<****<22<22<************<22***22<****<22<22<************<22*",
"22222<**<22<*<22***********<222222222<**<22<*<22***********<2222",
"**<2222222<*****22<*****<22222<***<2222222<*****22<*****<22222<*",
"****<22<****2222*22222222222<*******<22<****2222*22222222222<***",
"*****<22<*222<<22222<***<22<*********<22<*222<<22222<***<22<****",
"******22222<******<222<**2<***********22222<******<222<**2<*****",
"******<22<**********<22<22************<22<**********<22<22******",
"*******2<************<222<*************2<************<222<******",
"*******2<*************<22**************2<*************<22*******",
"******<22<************<22<************<22<************<22<******",
"*****<2222<**********<2222<**********<2222<**********<2222<*****",
"***<22222222<******<2222222<*******<22222222<******<2222222<****"
};
