/* XPM */
static char *result[] = {
/* columns rows colors chars-per-pixel */
"64 64 23 1 ",
"  c #281820",
". c #5F243D",
"X c #41383F",
"o c #7E3A49",
"O c #69686B",
"+ c #AC3B5C",
"@ c #CC606C",
"# c #CC824F",
"$ c #E0B56C",
"% c #91619A",
"& c #AE6F94",
"* c #9B6FA1",
"= c #6F8FE7",
"- c #8EA291",
"; c #BF8BA1",
": c #EEA499",
"> c #D6A0A8",
", c #DBA6AB",
"< c #DEC38E",
"1 c #87AFF7",
"2 c #A8D1C0",
"3 c #D7EFF7",
"4 c #E3F4E3",
/* pixels */
"3333333333331======13333333333333333333333331======1333333333333",
"3331===13333331==13331===13333333331===13333331==13331===1333333",
"==========133333333333331===1331==========133333333333331===1331",
"============133333333333331==31=============133333333333331==31=",
"=============13333331===133133===============13333331===133133==",
"==============133331=====13331================133331=====13331==",
"===============1331=======133==================1331=======133===",
"================33=========33===================33=========33===",
"================33=========13===================33=========13===",
"===============133==========31=================133==========31==",
"==============13331========133================13331========133==",
"=============133=331======13331==============133=331======13331=",
"============133===331====1331331============133===331====1331331",
"===========13333333331==1331=133===========13333333331==1331=133",
"331=====1333331===133333331=====331=====1333331===133333331=====",
"=333333333331=======1331====3333=333333333331=======1331====3333",
"33331===1331=========1331=33311333331===1331=========1331=333113",
"==13331==31===========333331==%%%%13331==31===========333331====",
"====133133============1331===%>$:>%=133133============1331======",
"=====13331=============31====%@@@:>%=13331=============31=======",
"======133==============31=====++++@>%=133==============31=======",
"======1331============1331====OOO++$%=1331============1331======",
"=====133331==========133331===O--O++&*33331==========133331=====",
"===133333331=======1333333331=O---O+@+333331=======1333333331===",
"3333333333331======13333333333O----O+o3333331======1333333333333",
"3331===13333331==13331===1333O-22--O++o13333331==13331===1333333",
"==========133333333333331=+oo-2442-O++o===133333333333331===1331",
"============13333333333;;;:@O24444-O#++++===133333333333331==31=",
"=============13333331%%>$::@O24444--O+@::%%==13333331===133133==",
"==============133331%>::---OO-2222--OO-:$:>%%=133331=====13331==",
"===============1331%>:--444-O-------O-4--:::>%=1331=======133===",
"================33%>:-44422-O------O-2444--::>%=33=========33===",
"================33%$-442-----O------2444444-:$>%33=========13===",
"===============13;>-442------OO2--------2444-::*33==========31==",
"==============133+@-42-----O--O---O--------24-::+31========133==",
"=============133=o+-2--OXXO----OO--O--------2-::o331======13331=",
"============133==o+O-OXX------------OOXXXO-----:o=331====1331331",
"===========133333o+OXX-244442---------O+oXXO--O@o33331==1331=133",
"331=====1333331===.X3-2444422--O-----2-@o33XX-O+.=133333331=====",
"=333333333331=======1-444422--OO----24-:+3331...====1331====3333",
"===13333333333333333-244422--O+X----24-::+3333333333333333331===",
"=13331===13333333331O24422--O+oX-----44-:+3333333331===13333331=",
"333333331===1331====O-222--O+#.XO----24-:$+=1331==========133333",
"33333333331==31=====X-----O+o.33XO----24-::%=31=============1333",
"33331===133133======XO---O+o.1333XO----24-:,;3===============133",
"3331=====13331=======XO--O#.==1333XO----24-:<*================13",
"331=======133=========XXO+o ===1331XXO----2-:>%================1",
"33=========33===========   =====33===XXXO---O+.=================",
"33=========13===================33======      ==================",
"33==========31=================133==========31=================1",
"331========133================13331========133================13",
"=331======13331==============133=331======13331==============133",
"==331====1331331============133===331====1331331============133=",
"333331==1331=133===========13333333331==1331=133===========13333",
"==133333331=====331=====1333331===133333331=====331=====1333331=",
"====1331====3333=333333333331=======1331====3333=333333333331===",
"=====1331=33311333331===1331=========1331=33311333331===1331====",
"======333331======13331==31===========333331======13331==31=====",
"======1331==========133133============1331==========133133======",
"=======31============13331=============31============13331======",
"=======31=============133==============31=============133=======",
"======1331============1331============1331============1331======",
"=====133331==========133331==========133331==========133331=====",
"===1333333331======133333331=======1333333331======133333331===="
};
