/* XPM */
static char *result[] = {
/* columns rows colors chars-per-pixel */
"64 64 66 1 ",
"  c #583947",
". c #583A47",
"X c #593A48",
"o c #9C594F",
"O c #9D5950",
"+ c #9D5A50",
"@ c #B17654",
"# c #8B5C63",
"$ c #8B5C64",
"% c #8C5D64",
"& c #975F60",
"* c #985F60",
"= c #985F62",
"- c #986061",
"; c #9A6261",
": c #9B6261",
"> c #9B6362",
", c #86657B",
"< c #87667C",
"1 c #8A6B7E",
"2 c #8B6C7F",
"3 c #A26961",
"4 c #A36961",
"5 c #A36A62",
"6 c #A46B64",
"7 c #AF7F79",
"8 c #AF8079",
"9 c #B0807A",
"0 c #E6924C",
"q c #E6934C",
"w c #E6934D",
"e c #E7934D",
"r c #ECB342",
"t c #EDB443",
"y c #C78E68",
"u c #C78F69",
"i c #C68E6A",
"p c #C88F69",
"a c #E0B372",
"s c #E0B472",
"d c #E1B473",
"f c #EFC268",
"g c #F0C268",
"h c #F0C368",
"j c #F0C369",
"k c #6F8FE7",
"l c #CEA497",
"z c #CFA497",
"x c #CFA597",
"c c #CFA598",
"v c #F1C995",
"b c #F1CA95",
"n c #F1CA96",
"m c #F2CA96",
"M c #F7E49A",
"N c #F8E49B",
"B c #F8E59B",
"V c #87AFF7",
"C c #FAECC4",
"Z c #FAECC5",
"A c #FAEDC5",
"S c #FFFFCC",
"D c #FFFFCD",
"F c #D7EFF7",
"G c #FFFFF8",
"H c #FFFFF9",
/* pixels */
"FFFFFFFFFFFFVkkkkkkVFFFFFFFFFFFFFFFFFFFFFFFFVkkkkkkVFFFFFFFFFFFF",
"FFFVkkkVFFFFFFVkkVFFFVkkkVFFFFFFFFFVkkkVFFFFFFVkkVFFFVkkkVFFFFFF",
"kkkkkkkkkkVFFFFFFFFFFFFFVkkkVFFVkkkkkkkkkkVFFFFFFFFFFFFFVkkkVFFV",
"kkkkkkkkkkkkVFFFFFFFFFFFFFVkkFVkkkkkkkkkkkkkVFFFFFFFFFFFFFVkkFVk",
"kkkkkkkkkkkkkVFFFFFFVkkkVFFVFFkkkkkkkkkkkkkkkVFFFFFFVkkkVFFVFFkk",
"kkkkkkkkkkkkkkVFFFFVkkkkkVFFFVkkkkkkkkkkkkkkkkVFFFFVkkkkkVFFFVkk",
"kkkkkkkkkkkkkkkVFFVkkkkkkkVFFkkkkkkkkkkkkkkkkkkVFFVkkkkkkkVFFkkk",
"kkkkkkkkkkkkkkkkFFkkkkkkkkkFFkkkkkkkkkkkkkkkkkkkFFkkkkkkkkkFFkkk",
"kkkkkkkkkkkkkkkkFFkkkkkkkkkVFkkkkkkkkkkkkkkkkkkkFFkkkkkkkkkVFkkk",
"kkkkkkkkkkkkkkkVFFkkkkkkkkkkFVkkkkkkkkkkkkkkkkkVFFkkkkkkkkkkFVkk",
"kkkkkkkkkkkkkkVFFFVkkkkkkkkVFFkkkkkkkkkkkkkkkkVFFFVkkkkkkkkVFFkk",
"kkkkkkkkkkkkkVFFkFFVkkkkkkVFFFVkkkkkkkkkkkkkkVFFkFFVkkkkkkVFFFVk",
"kkkkkkkkkkkkVFFkkkFFVkkkkVFFVFFVkkkkkkkkkkkkVFFkkkFFVkkkkVFFVFFV",
"kkkkkkkkkkkVFFFFFFFFFVkkVFFVkVFFkkkkkkkkkkkVFFFFFFFFFVkkVFFVkVFF",
"FFVkkkkkVFFFFFVkkkVFFFFFFFVkkkkkFFVkkkkkVFFFFFVkkkVFFFFFFFVkkkkk",
"kFFFFFFFFFFFVkkkkkkkVFFVkkkkF545*4FFFFFFFFFFVkkkkkkkVFFVkkkkFFFF",
"FFFFVkkkVFFVkkkkkkkkkVFFVkFF3uq00u3FVkkkVFFVkkkkkkkkkVFFVkFFFVVF",
"kkVFFFVkkFVkkkkkkkkkkkFFFFF;0fhjfj05FFVkkFVkkkkkkkkkkkFFFFFVkkkk",
"kkkkVFFVFFkkkkkkkkkkkkVFFV-<MMNfMMM,>FFVFFkkkkkkkkkkkkVFFVkkkkkk",
"kkkkkVFFFVkkkkkkkkkkkkkFVk,BGHDaDGGN<2FFFVkkkkkkkkkkkkkFVkkkkkkk",
"kkkkkkVFFkkkkkkkkkkkkkkFV<MGGHSdSGGGB<VFFkkkkkkkkkkkkkkFVkkkkkkk",
"kkkkkkVFFVkkkkkkkkkkkkVFF1HGShgvfjDGG<VFFVkkkkkkkkkkkkVFFVkkkkkk",
"kkkkkVFFFFVkkkkkkkkkkVFFF4GDhhzCzffDG>FFFFVkkkkkkkkkkVFFFFVkkkkk",
"kkkVFFFFFFFVkkkkkkkVFFFFF5SNhc8Z9zfMD4FFFFFVkkkkkkkVFFFFFFFFVkkk",
"FFFFFFFFFFFFVkkkkkkVFFFF5SMMhz#AbljBNS4FFFFFVkkkkkkVFFFFFFFFFFFF",
"FFFVkkkVFFFFFFVkkVFFFVkk*SNBj9.vC9jBMS-VFFFFFFVkkVFFFVkkkVFFFFFF",
"kkkkkkkkkkVFFFFFFFFFFFFF>t0Bz#.@A#xM0r-kkkVFFFFFFFFFFFFFVkkkVFFV",
"kkkkkkkkkkkkVFFFFFFFFFFF3teM9%.@+#8N0t-kkkkkVFFFFFFFFFFFFFVkkFVk",
"kkkkkkkkkkkkkVFFFFFFVkkk:00w#.oao.%wew&kkkkkkVFFFFFFVkkkVFFVFFkk",
"kkkkkkkkkkkkkkVFFFFVkkkkk:te# +n+.#0r&kkkkkkkkVFFFFVkkkkkVFFFVkk",
"kkkkkkkkkkkkkkkVFFVkkkkkk&te%.OAm %wr&kkkkkkkkkVFFVkkkkkkkVFFkkk",
"kkkkkkkkkkkkkkkkFFkkkkkkk&wq$.+Cb.#e0-kkkkkkkkkkFFkkkkkkkkkFFkkk",
"kkkkkkkkkkkkkkkkFFkkkkkkkk-0$XXA .$e=kkkkkkkkkkkFFkkkkkkkkkVFkkk",
"kkkkkkkkkkkkkkkVFFkkkkkkkk&09#.d #8q-kkkkkkkkkkVFFkkkkkkkkkkFVkk",
"kkkkkkkkkkkkkkVFFFVkkkkkkkk;e9$a$70&kkkkkkkkkkVFFFVkkkkkkkkVFFkk",
"kkkkkkkkkkkkkVFFkFFVkkkkkkV3wq8d$e0=kkkkkkkkkVFFkFFVkkkkkkVFFFVk",
"kkkkkkkkkkkkVFFkkkFFVkkkkVFF:q89f0-kkkkkkkkkVFFkkkFFVkkkkVFFVFFV",
"kkkkkkkkkkkVFFFFFFFFFVkkVFFV*ue8hq*kkkkkkkkVFFFFFFFFFVkkVFFVkVFF",
"FFVkkkkkVFFFFFVkkkVFFFFFFFVkk-uej5VkkkkkVFFFFFVkkkVFFFFFFFVkkkkk",
"kFFFFFFFFFFFVkkkkkkkVFFVkkkkFF5dh6FFFFFFFFFFVkkkkkkkVFFVkkkkFFFF",
"kkkVFFFFFFFFFFFFFFFFFFFFFFFFVk*dj*kVFFFFFFFFFFFFFFFFFFFFFFFFVkkk",
"kVFFFVkkkVFFFFFFFFFVkkkVFFFFFF>a&VFFFVkkkVFFFFFFFFFVkkkVFFFFFFVk",
"FFFFFFFFVkkkVFFVkkkkkkkkkkVFFF4a3FFFFFFFVkkkVFFVkkkkkkkkkkVFFFFF",
"FFFFFFFFFFVkkFVkkkkkkkkkkkkkV5js3FFFFFFFFFVkkFVkkkkkkkkkkkkkVFFF",
"FFFFVkkkVFFVFFkkkkkkkkkkkkkkk>hdp4FFVkkkVFFVFFkkkkkkkkkkkkkkkVFF",
"FFFVkkkkkVFFFVkkkkkkkkkkkkkkkk>day4VkkkkkVFFFVkkkkkkkkkkkkkkkkVF",
"FFVkkkkkkkVFFkkkkkkkkkkkkkkkkk&iay>kkkkkkkVFFkkkkkkkkkkkkkkkkkkV",
"FFkkkkkkkkkFFkkkkkkkkkkkkkkkkkk-+3kkkkkkkkkFFkkkkkkkkkkkkkkkkkkk",
"FFkkkkkkkkkVFkkkkkkkkkkkkkkkkkkkFFkkkkkkkkkVFkkkkkkkkkkkkkkkkkkk",
"FFkkkkkkkkkkFVkkkkkkkkkkkkkkkkkVFFkkkkkkkkkkFVkkkkkkkkkkkkkkkkkV",
"FFVkkkkkkkkVFFkkkkkkkkkkkkkkkkVFFFVkkkkkkkkVFFkkkkkkkkkkkkkkkkVF",
"kFFVkkkkkkVFFFVkkkkkkkkkkkkkkVFFkFFVkkkkkkVFFFVkkkkkkkkkkkkkkVFF",
"kkFFVkkkkVFFVFFVkkkkkkkkkkkkVFFkkkFFVkkkkVFFVFFVkkkkkkkkkkkkVFFk",
"FFFFFVkkVFFVkVFFkkkkkkkkkkkVFFFFFFFFFVkkVFFVkVFFkkkkkkkkkkkVFFFF",
"kkVFFFFFFFVkkkkkFFVkkkkkVFFFFFVkkkVFFFFFFFVkkkkkFFVkkkkkVFFFFFVk",
"kkkkVFFVkkkkFFFFkFFFFFFFFFFFVkkkkkkkVFFVkkkkFFFFkFFFFFFFFFFFVkkk",
"kkkkkVFFVkFFFVVFFFFFVkkkVFFVkkkkkkkkkVFFVkFFFVVFFFFFVkkkVFFVkkkk",
"kkkkkkFFFFFVkkkkkkVFFFVkkFVkkkkkkkkkkkFFFFFVkkkkkkVFFFVkkFVkkkkk",
"kkkkkkVFFVkkkkkkkkkkVFFVFFkkkkkkkkkkkkVFFVkkkkkkkkkkVFFVFFkkkkkk",
"kkkkkkkFVkkkkkkkkkkkkVFFFVkkkkkkkkkkkkkFVkkkkkkkkkkkkVFFFVkkkkkk",
"kkkkkkkFVkkkkkkkkkkkkkVFFkkkkkkkkkkkkkkFVkkkkkkkkkkkkkVFFkkkkkkk",
"kkkkkkVFFVkkkkkkkkkkkkVFFVkkkkkkkkkkkkVFFVkkkkkkkkkkkkVFFVkkkkkk",
"kkkkkVFFFFVkkkkkkkkkkVFFFFVkkkkkkkkkkVFFFFVkkkkkkkkkkVFFFFVkkkkk",
"kkkVFFFFFFFFVkkkkkkVFFFFFFFVkkkkkkkVFFFFFFFFVkkkkkkVFFFFFFFVkkkk"
};
