/* XPM */
static char *result[] = {
/* columns rows colors chars-per-pixel */
"64 64 65 1 ",
"  c #583947",
". c #583A47",
"X c #583A48",
"o c #9C594F",
"O c #9D594F",
"+ c #9D5A50",
"@ c #975F5E",
"# c #985F5E",
"$ c #985F5F",
"% c #B17554",
"& c #8B5C63",
"* c #8B5C64",
"= c #8C5C64",
"- c #8C5D64",
"; c #985F61",
": c #9A6260",
"> c #9B6260",
", c #9B6361",
"< c #9B6262",
"1 c #86657A",
"2 c #86657B",
"3 c #87667B",
"4 c #8B6B7D",
"5 c #A26860",
"6 c #A36860",
"7 c #A36961",
"8 c #A36962",
"9 c #AF8079",
"0 c #B0807A",
"q c #E6924C",
"w c #E6934C",
"e c #E6934D",
"r c #E7934D",
"t c #ECB342",
"y c #ECB442",
"u c #EDB443",
"i c #C78E68",
"p c #C78E69",
"a c #C78F69",
"s c #C88F69",
"d c #E0B372",
"f c #E0B472",
"g c #E1B473",
"h c #EFC268",
"j c #F0C368",
"k c #F0C369",
"l c #6F8FE7",
"z c #CEA497",
"x c #CFA497",
"c c #CFA597",
"v c #CFA598",
"b c #F1C995",
"n c #F1CA95",
"m c #F1CA96",
"M c #F7E49A",
"N c #F8E49B",
"B c #F8E59B",
"V c #87AFF7",
"C c #FAECC4",
"Z c #FAEDC5",
"A c #FFFFCC",
"S c #FFFFCD",
"D c #D7EFF7",
"F c #FFFFF8",
"G c #FFFFF9",
/* pixels */
"DDDDDDDDDDDDVllllllVDDDDDDDDDDDDDDDDDDDDDDDDVllllllVDDDDDDDDDDDD",
"DDDVlllVDDDDDDVllVDDDVlllVDDDDDDDDDVlllVDDDDDDVllVDDDVlllVDDDDDD",
"llllllllllVDDDDDDDDDDDDDVlllVDDVllllllllllVDDDDDDDDDDDDDVlllVDDV",
"llllllllllllVDDDDDDDDDDDDDVllDVlllllllllllllVDDDDDDDDDDDDDVllDVl",
"lllllllllllllVDDDDDDVlllVDDVDDlllllllllllllllVDDDDDDVlllVDDVDDll",
"llllllllllllllVDDDDVlllllVDDDVllllllllllllllllVDDDDVlllllVDDDVll",
"lllllllllllllllVDDVlllllllVDDllllllllllllllllllVDDVlllllllVDDlll",
"llllllllllllllllDDlllllllllDDlllllllllllllllllllDDlllllllllDDlll",
"llllllllllllllllDDlllllllllVDlllllllllllllllllllDDlllllllllVDlll",
"lllllllllllllllVDDllllllllllDVlllllllllllllllllVDDllllllllllDVll",
"llllllllllllllVDDDVllllllllVDDllllllllllllllllVDDDVllllllllVDDll",
"lllllllllllllVDDlDDVllllllVDDDVllllllllllllllVDDlDDVllllllVDDDVl",
"llllllllllllVDDlllDDVllllVDDVDDVllllllllllllVDDlllDDVllllVDDVDDV",
"lllllllllllVDDDDDDDDDVllVDDVlVDDlllllllllllVDDDDDDDDDVllVDDVlVDD",
"DDVlllllVDDDDDVlllVDDDDDDDVlllllDDVlllllVDDDDDVlllVDDDDDDDVlllll",
"lDDDDDDDDDDDVlllllllVDDVllllD777@7DDDDDDDDDDVlllllllVDDVllllDDDD",
"DDDDVlllVDDVlllllllllVDDVlDD5aqqqi6DVlllVDDVlllllllllVDDVlDDDVVD",
"llVDDDVllDVlllllllllllDDDDD,rhhjhhq8DDVllDVlllllllllllDDDDDVllll",
"llllVDDVDDllllllllllllVDDV$2BBNjNBN3,DDVDDllllllllllllVDDVllllll",
"lllllVDDDVlllllllllllllDVl3MFFSgSFFN2,DDDVlllllllllllllDVlllllll",
"llllllVDDllllllllllllllDV1MFFFAgSFFFN3VDDllllllllllllllDVlllllll",
"llllllVDDVllllllllllllVDD4FFAjhbhhAGF2VDDVllllllllllllVDDVllllll",
"lllllVDDDDVllllllllllVDDD5GAjkvCxhjAFM6DDDVllllllllllVDDDDVlllll",
"lllVDDDDDDDVlllllllVDDDDD7ANhc9C0cjMAA6DDDDVlllllllVDDDDDDDDVlll",
"DDDDDDDDDDDDVllllllVDDDDD7MBhv&CbzjNNA7DDDDDVllllllVDDDDDDDDDDDD",
"DDDVlllVDDDDDDVllVDDDVlll:NBh0 mZ9jNBA$VDDDDDDVllVDDDVlllVDDDDDD",
"llllllllllVDDDDDDDDDDDDDV#qBx& %C=cNet#lllVDDDDDDDDDDDDDVlllVDDV",
"llllllllllllVDDDDDDDDDDDD6uqq&..d..*et$lllllVDDDDDDDDDDDDDVllDVl",
"lllllllllllllVDDDDDDVlllV6trr&..n+ =qt#llllllVDDDDDDVlllVDDVDDll",
"llllllllllllllVDDDDVlllll>yrro.oZoX-qu#lllllllVDDDDVlllllVDDDVll",
"lllllllllllllllVDDVlllllll<ue+.+CO =q$lllllllllVDDVlllllllVDDlll",
"llllllllllllllllDDllllllll#tq+ +C..&r$llllllllllDDlllllllllDDlll",
"llllllllllllllllDDllllllll;ue0&XgX-0y@llllllllllDDlllllllllVDlll",
"lllllllllllllllVDDlllllllll$rq0-d&0ru$lllllllllVDDllllllllllDVll",
"llllllllllllllVDDDVllllllllV5rq9g-qw#lllllllllVDDDVllllllllVDDll",
"lllllllllllllVDDlDDVllllllVD7we0jqqt#llllllllVDDlDDVllllllVDDDVl",
"llllllllllllVDDlllDDVllllVDD>qr0hqu@llllllllVDDlllDDVllllVDDVDDV",
"lllllllllllVDDDDDDDDDVllVDDV$iqjrrt#lllllllVDDDDDDDDDVllVDDVlVDD",
"DDVlllllVDDDDDVlllVDDDDDDDVll$ejqe:lllllVDDDDDVlllVDDDDDDDVlllll",
"lDDDDDDDDDDDVlllllllVDDVllllD6pka7DDDDDDDDDDVlllllllVDDVllllDDDD",
"lllVDDDDDDDDDDDDDDDDDDDDDDDDVl#dp#lVDDDDDDDDDDDDDDDDDDDDDDDDVlll",
"lVDDDVlllVDDDDDDDDDVlllVDDDDDD,fa>DDDVlllVDDDDDDDDDVlllVDDDDDDVl",
"DDDDDDDDVlllVDDVllllllllllVDDD7s5DDDDDDDVlllVDDVllllllllllVDDDDD",
"DDDDDDDDDDVllDVlllllllllllllV5ji5DDDDDDDDDVllDVlllllllllllllVDDD",
"DDDDVlllVDDVDDllllllllllllll;hdp8DDDVlllVDDVDDlllllllllllllllVDD",
"DDDVlllllVDDDVlllllllllllll#aga7DDDVlllllVDDDVllllllllllllllllVD",
"DDVlllllllVDDllllllllllllll@aga,DDVlllllllVDDllllllllllllllllllV",
"DDlllllllllDDlllllllllllllll$O$lDDlllllllllDDlllllllllllllllllll",
"DDlllllllllVDlllllllllllllllllllDDlllllllllVDlllllllllllllllllll",
"DDllllllllllDVlllllllllllllllllVDDllllllllllDVlllllllllllllllllV",
"DDVllllllllVDDllllllllllllllllVDDDVllllllllVDDllllllllllllllllVD",
"lDDVllllllVDDDVllllllllllllllVDDlDDVllllllVDDDVllllllllllllllVDD",
"llDDVllllVDDVDDVllllllllllllVDDlllDDVllllVDDVDDVllllllllllllVDDl",
"DDDDDVllVDDVlVDDlllllllllllVDDDDDDDDDVllVDDVlVDDlllllllllllVDDDD",
"llVDDDDDDDVlllllDDVlllllVDDDDDVlllVDDDDDDDVlllllDDVlllllVDDDDDVl",
"llllVDDVllllDDDDlDDDDDDDDDDDVlllllllVDDVllllDDDDlDDDDDDDDDDDVlll",
"lllllVDDVlDDDVVDDDDDVlllVDDVlllllllllVDDVlDDDVVDDDDDVlllVDDVllll",
"llllllDDDDDVllllllVDDDVllDVlllllllllllDDDDDVllllllVDDDVllDVlllll",
"llllllVDDVllllllllllVDDVDDllllllllllllVDDVllllllllllVDDVDDllllll",
"lllllllDVllllllllllllVDDDVlllllllllllllDVllllllllllllVDDDVllllll",
"lllllllDVlllllllllllllVDDllllllllllllllDVlllllllllllllVDDlllllll",
"llllllVDDVllllllllllllVDDVllllllllllllVDDVllllllllllllVDDVllllll",
"lllllVDDDDVllllllllllVDDDDVllllllllllVDDDDVllllllllllVDDDDVlllll",
"lllVDDDDDDDDVllllllVDDDDDDDVlllllllVDDDDDDDDVllllllVDDDDDDDVllll"
};
