/* XPM */
static char *result[] = {
/* columns rows colors chars-per-pixel */
"64 64 78 1 ",
"  c #583947",
". c #583A47",
"X c #593B47",
"o c #583A48",
"O c #725E6A",
"+ c #9C594F",
"@ c #9D594F",
"# c #9D5950",
"$ c #9D5A50",
"% c #B17554",
"& c #8B5C63",
"* c #8B5C64",
"= c #8C5C64",
"- c #8C5D64",
"; c #8C5E64",
": c #975F60",
"> c #975F62",
", c #985F60",
"< c #985F62",
"1 c #976060",
"2 c #986061",
"3 c #986161",
"4 c #9A6261",
"5 c #9B6261",
"6 c #986063",
"7 c #9B6362",
"8 c #9A6465",
"9 c #86657C",
"0 c #8A6B7E",
"q c #98767D",
"w c #99777E",
"e c #99777F",
"r c #9A777F",
"t c #A26961",
"y c #A36961",
"u c #A36A62",
"i c #A36B64",
"p c #A46B64",
"a c #A46C65",
"s c #AF8079",
"d c #B08079",
"f c #B0807A",
"g c #E6924C",
"h c #E6934C",
"j c #E6934D",
"k c #E7934D",
"l c #ECB342",
"z c #ECB343",
"x c #ECB442",
"c c #EDB443",
"v c #C78E68",
"b c #C78F69",
"n c #E0B372",
"m c #E0B472",
"M c #EFC268",
"N c #F0C368",
"B c #F0C369",
"V c #6F8FE7",
"C c #B48E89",
"Z c #CFA598",
"A c #F0C995",
"S c #F1C995",
"D c #F1CA96",
"F c #F2CA96",
"G c #F7E49A",
"H c #F7E49B",
"J c #F8E49B",
"K c #F8E59B",
"L c #ECCDBF",
"P c #EDCEBF",
"I c #87AFF7",
"U c #F9EBC4",
"Y c #F9ECC4",
"T c #FAECC4",
"R c #FAEDC5",
"E c #FFFFCC",
"W c #FFFFCD",
"Q c #D7EFF7",
/* pixels */
"QQQQQQQQQQQQIVVVVVVIQQQQQQQQQQQQQQQQQQQQQQQQIVVVVVVIQQQQQQQQQQQQ",
"QQQIVVVIQQQQQQIVVIQQQIVVVIQQQQQQQQQIVVVIQQQQQQIVVIQQQIVVVIQQQQQQ",
"VVVVVVVVVVIQQQQQQQQQQQQQIVVVIQQIVVVVVVVVVVIQQQQQQQQQQQQQIVVVIQQI",
"VVVVVVVVVVVVIQQQQQQQQQQQQQIVVQIVVVVVVVVVVVVVIQQQQQQQQQQQQQIVVQIV",
"VVVVVVVVVVVVVIQQQQQQIVVVIQQIQQVVVVVVVVVVVVVVVIQQQQQQIVVVIQQIQQVV",
"VVVVVVVVVVVVVVIQQQQIVVVVVIQQQIVVVVVVVVVVVVVVVVIQQQQIVVVVVIQQQIVV",
"VVVVVVVVVVVVVVVIQQIVVVVVVVIQQVVVVVVVVVVVVVVVVVVIQQIVVVVVVVIQQVVV",
"VVVVVVVVVVVVVVVVQQVVVVVVVVVQQVVVVVVVVVVVVVVVVVVVQQVVVVVVVVVQQVVV",
"VVVVVVVVVVVVVVVVQQVVVVVVVVVIQVVVVVVVVVVVVVVVVVVVQQVVVVVVVVVIQVVV",
"VVVVVVVVVVVVVVVIQQVVVVVVVVVVQIVVVVVVVVVVVVVVVVVIQQVVVVVVVVVVQIVV",
"VVVVVVVVVVVVVVIQQQIVVVVVVVVIQQVVVVVVVVVVVVVVVVIQQQIVVVVVVVVIQQVV",
"VVVVVVVVVVVVVIQQVQQIVVVVVVIQQQIVVVVVVVVVVVVVVIQQVQQIVVVVVVIQQQIV",
"VVVVVVVVVVVVIQQVVVQQIVVVVIQQIQQIVVVVVVVVVVVVIQQVVVQQIVVVVIQQIQQI",
"VVVVVVVVVVVIQQQQQQQQQIVVIQQIVIQQVVVVVVVVVVVIQQQQQQQQQIVVIQQIVIQQ",
"QQIVVVVVIQQQQQIVVVIQQQQQQQ7,,VVVQQIVVVVVIQQQQQIVVVIQQQQQQQIVVVVV",
"VQQQQQQQQQQQIVVVVVVVIQQIV6M$vaQQVQQQQQQQQQQQIVVVVVVVIQQIVVVVQQQQ",
"QQQQIVVVIQQIVVVVVVVVVIQQI,vMN4IQQQQQIVVVIQQIVVVVVVVVVIQQIVQQQIIQ",
"VVIQQQIVVQIVVVVVVVVVVVQQQQybGv6VVVIQQQIVVQIVVVVVVVVVVVQQQQQIVVVV",
"VVVVIQQIQQVVVVVVVVVVVVIQQIVV3Jv6VVVVIQQIQQVVVVVVVVVVVVIQQIVVVVVV",
"VVVVVIQQQIVVVVVVVVVVVVVQIVVVV1K:VVVVVIQQQIVVVVVVVVVVVVVQIVVVVVVV",
"VVVVVVIQQVVVVVVVVVVVVVVQIVVVV2Nv6VVVVVIQQVVVVVVVVVVVVVVQIVVVVVVV",
"VVVVVVIQQIVVVVVVVVVVVVIQQIVVV:bb:VVVVVIQQIVVVVVVVVVVVVIQQIVVVVVV",
"VVVVVIQQQQIVVVVVVVVVVIQQQQIVV2bfk6VVVIQQQQIVVVVVVVVVVIQQQQIVVVVV",
"VVVIQQQQQQQIVVVVVVVIQQQQQQQQI,fBfk6IQQQQQQQIVVVVVVVIQQQQQQQQIVVV",
"QQQQQQQQQQQQIVVVVVVIQQQQQQQQiC-nskgpQQQQQQQQIVVVVVVIQQQQQQQQQQQQ",
"QQQIVVVIQQQQQQIVVIQQQIVVVIQQt&-n--k4VVVIQQQQQQIVVIQQQIVVVIQQQQQQ",
"VVVVVVVVVVIQQQQQQQQQQQQQIVVV5&.m.*kg<VVVVVIQQQQQQQQQQQQQIVVVIQQI",
"VVVVVVVVVVVVIQQQQQQQQQQQQQIV, oYo.*gk>VVVVVVIQQQQQQQQQQQQQIVVQIV",
"VVVVVVVVVVVVVIQQQQQQIVVVIQQ8g AT  *jk2VVVVVVVIQQQQQQIVVVIQQIQQVV",
"VVVVVVVVVVVVVVIQQQQIVVVVVIQug DT. -ggk>VVVVVVVIQQQQIVVVVVIQQQIVV",
"VVVVVVVVVVVVVVVIQQIVVVVVVVIug=$S+-dgkk2VVVVVVVVIQQIVVVVVVVIQQVVV",
"VVVVVVVVVVVVVVVVQQVVVVVVVVVukf$n#fNjhk,VVVVVVVVVQQVVVVVVVVVQQVVV",
"VVVVVVVVVVVVVVVVQQVVVVVVVV<kMG$%@KGMjMg6VVVVVVVVQQVVVVVVVVVIQVVV",
"VVVVVVVVVVVVVVVIQQVVVVVVVV:kJEUM%HWEGBj2VVVVVVVIQQVVVVVVVVVVQIVV",
"VVVVVVVVVVVVVVIQQQIVVVVVVV2gJEERSJEEWJM<VVVVVVIQQQIVVVVVVVVIQQVV",
"VVVVVVVVVVVVVIQQVQQIVVVVV6kMEWEGTKWEEEM2VVVVVIQQVQQIVVVVVVIQQQIV",
"VVVVVVVVVVVVIQQVVVQQIVVVV7kGWEJcRxGGWE2VVVVVIQQVVVQQIVVVVIQQIQQI",
"VVVVVVVVVVVIQQQQQQQQQIVVIpjKWGNcTZMBJW2VVVVIQQQQQQQQQIVVIQQIVIQQ",
"QQIVVVVVIQQQQQIVVVIQQQQQQuhJJlcczcMNGJ:VIQQQQQIVVVIQQQQQQQIVVVVV",
"VQQQQQQQQQQQIVVVVVVVIQQIV9-gMlMFNxMj;qpQQQQQIVVVVVVVIQQIVVVVQQQQ",
"VVVIQQQQQQQQQQQQQQQQQQQQQrL&llBNMcc-PeQQQQQQQQQQQQQQQQQQQQQQIVVV",
"VIQQQIVVVIQQQQQQQQQIVVVIQrO*glcclcg&X0VVVIQQQQQQQQQIVVVIQQQQQQIV",
"QQQQQQQQIVVVIQQIVVVVVVVVVV0gggkkgggkwuQQIVVVIQQIVVVVVVVVVVIQQQQQ",
"QQQQQQQQQQIVVQIVVVVVVVVVVV2bkgkggjkgyQQQQQIVVQIVVVVVVVVVVVVVIQQQ",
"QQQQIVVVIQQIQQVVVVVVVVVVVVV:bkllckguIVVVIQQIQQVVVVVVVVVVVVVVVIQQ",
"QQQIVVVVVIQQQIVVVVVVVVVVVVVV:vcxlbyIVVVVVIQQQIVVVVVVVVVVVVVVVVIQ",
"QQIVVVVVVVIQQVVVVVVVVVVVVVVVV,@@+tIVVVVVVVIQQVVVVVVVVVVVVVVVVVVI",
"QQVVVVVVVVVQQVVVVVVVVVVVVVVVVVVVQQVVVVVVVVVQQVVVVVVVVVVVVVVVVVVV",
"QQVVVVVVVVVIQVVVVVVVVVVVVVVVVVVVQQVVVVVVVVVIQVVVVVVVVVVVVVVVVVVV",
"QQVVVVVVVVVVQIVVVVVVVVVVVVVVVVVIQQVVVVVVVVVVQIVVVVVVVVVVVVVVVVVI",
"QQIVVVVVVVVIQQVVVVVVVVVVVVVVVVIQQQIVVVVVVVVIQQVVVVVVVVVVVVVVVVIQ",
"VQQIVVVVVVIQQQIVVVVVVVVVVVVVVIQQVQQIVVVVVVIQQQIVVVVVVVVVVVVVVIQQ",
"VVQQIVVVVIQQIQQIVVVVVVVVVVVVIQQVVVQQIVVVVIQQIQQIVVVVVVVVVVVVIQQV",
"QQQQQIVVIQQIVIQQVVVVVVVVVVVIQQQQQQQQQIVVIQQIVIQQVVVVVVVVVVVIQQQQ",
"VVIQQQQQQQIVVVVVQQIVVVVVIQQQQQIVVVIQQQQQQQIVVVVVQQIVVVVVIQQQQQIV",
"VVVVIQQIVVVVQQQQVQQQQQQQQQQQIVVVVVVVIQQIVVVVQQQQVQQQQQQQQQQQIVVV",
"VVVVVIQQIVQQQIIQQQQQIVVVIQQIVVVVVVVVVIQQIVQQQIIQQQQQIVVVIQQIVVVV",
"VVVVVVQQQQQIVVVVVVIQQQIVVQIVVVVVVVVVVVQQQQQIVVVVVVIQQQIVVQIVVVVV",
"VVVVVVIQQIVVVVVVVVVVIQQIQQVVVVVVVVVVVVIQQIVVVVVVVVVVIQQIQQVVVVVV",
"VVVVVVVQIVVVVVVVVVVVVIQQQIVVVVVVVVVVVVVQIVVVVVVVVVVVVIQQQIVVVVVV",
"VVVVVVVQIVVVVVVVVVVVVVIQQVVVVVVVVVVVVVVQIVVVVVVVVVVVVVIQQVVVVVVV",
"VVVVVVIQQIVVVVVVVVVVVVIQQIVVVVVVVVVVVVIQQIVVVVVVVVVVVVIQQIVVVVVV",
"VVVVVIQQQQIVVVVVVVVVVIQQQQIVVVVVVVVVVIQQQQIVVVVVVVVVVIQQQQIVVVVV",
"VVVIQQQQQQQQIVVVVVVIQQQQQQQIVVVVVVVIQQQQQQQQIVVVVVVIQQQQQQQIVVVV"
};
