/* XPM */
static char *result[] = {
/* columns rows colors chars-per-pixel */
"64 64 77 1 ",
"  c #583947",
". c #583A47",
"X c #593B47",
"o c #735F6B",
"O c #9C594F",
"+ c #9D594F",
"@ c #9D5950",
"# c #9D5A50",
"$ c #B17554",
"% c #8B5C63",
"& c #8B5C64",
"* c #8B5D64",
"= c #8C5C64",
"- c #8C5D64",
"; c #975F60",
": c #985F60",
"> c #985F62",
", c #986061",
"< c #986161",
"1 c #9A6261",
"2 c #9B6261",
"3 c #986063",
"4 c #9B6362",
"5 c #9A6364",
"6 c #87667C",
"7 c #8A6B7F",
"8 c #8B6B7F",
"9 c #99777E",
"0 c #99777F",
"q c #9A777F",
"w c #A26961",
"e c #A36961",
"r c #A36A62",
"t c #A36B64",
"y c #A46C65",
"u c #AF8079",
"i c #B0807A",
"p c #E6924C",
"a c #E6934C",
"s c #E6934D",
"d c #E7934D",
"f c #ECB342",
"g c #ECB442",
"h c #EDB443",
"j c #EDB444",
"k c #C78E68",
"l c #C78F69",
"z c #C78F6A",
"x c #C88F69",
"c c #E0B372",
"v c #E1B473",
"b c #EFC268",
"n c #F0C268",
"m c #F0C368",
"M c #F0C369",
"N c #6F8FE7",
"B c #A78287",
"V c #A88288",
"C c #B48E89",
"Z c #CFA597",
"A c #F1C995",
"S c #F0C996",
"D c #F1CA96",
"F c #F2CA96",
"G c #F7E49A",
"H c #F8E49B",
"J c #F8E59B",
"K c #ECCEBF",
"L c #EDCEBF",
"P c #87AFF7",
"I c #F9EBC4",
"U c #FAECC4",
"Y c #FAECC5",
"T c #FAEDC5",
"R c #FFFFCC",
"E c #FFFFCD",
"W c #D7EFF7",
/* pixels */
"WWWWWWWWWWWWPNNNNNNPWWWWWWWWWWWWWWWWWWWWWWWWPNNNNNNPWWWWWWWWWWWW",
"WWWPNNNPWWWWWWPNNPWWWPNNNPWWWWWWWWWPNNNPWWWWWWPNNPWWWPNNNPWWWWWW",
"NNNNNNNNNNPWWWWWWWWWWWWWPNNNPWWPNNNNNNNNNNPWWWWWWWWWWWWWPNNNPWWP",
"NNNNNNNNNNNNPWWWWWWWWWWWWWPNNWPNNNNNNNNNNNNNPWWWWWWWWWWWWWPNNWPN",
"NNNNNNNNNNNNNPWWWWWWPNNNPWWPWWNNNNNNNNNNNNNNNPWWWWWWPNNNPWWPWWNN",
"NNNNNNNNNNNNNNPWWWWPNNNNNPWWWPNNNNNNNNNNNNNNNNPWWWWPNNNNNPWWWPNN",
"NNNNNNNNNNNNNNNPWWPNNNNNNNPWWNNNNNNNNNNNNNNNNNNPWWPNNNNNNNPWWNNN",
"NNNNNNNNNNNNNNNNWWNNNNNNNNNWWNNNNNNNNNNNNNNNNNNNWWNNNNNNNNNWWNNN",
"NNNNNNNNNNNNNNNNWWNNNNNNNNNPWNNNNNNNNNNNNNNNNNNNWWNNNNNNNNNPWNNN",
"NNNNNNNNNNNNNNNPWWNNNNNNNNNNWPNNNNNNNNNNNNNNNNNPWWNNNNNNNNNNWPNN",
"NNNNNNNNNNNNNNPWWWPNNNNNNNNPWWNNNNNNNNNNNNNNNNPWWWPNNNNNNNNPWWNN",
"NNNNNNNNNNNNNPWWNWWPNNNNNNPWWWPNNNNNNNNNNNNNNPWWNWWPNNNNNNPWWWPN",
"NNNNNNNNNNNNPWWNNNWWPNNNNPWWPWWPNNNNNNNNNNNNPWWNNNWWPNNNNPWWPWWP",
"NNNNNNNNNNNPWWWWWWWWWPNNPWWPNPWWNNNNNNNNNNNPWWWWWWWWWPNNPWWPNPWW",
"WWPNNNNNPWWWWWPNNNPWWWWWWWPNNNNNWe2,NNNNPWWWWWPNNNPWWWWWWWPNNNNN",
"NWWWWWWWWWWWPNNNNNNNPWWPNNNNWWWW3k#btWWWWWWWPNNNNNNNPWWPNNNNWWWW",
"WWWWPNNNPWWPNNNNNNNNNPWWPNWWWPPWwMmz1NNNPWWPNNNNNNNNNPWWPNWWWPPW",
"NNPWWWPNNWPNNNNNNNNNNNWWWWWPNNN,lHleWWPNNWPNNNNNNNNNNNWWWWWPNNNN",
"NNNNPWWPWWNNNNNNNNNNNNPWWPNNNNN;lH:NPWWPWWNNNNNNNNNNNNPWWPNNNNNN",
"NNNNNPWWWPNNNNNNNNNNNNNWPNNNNNN,J<NNNPWWWPNNNNNNNNNNNNNWPNNNNNNN",
"NNNNNNPWWNNNNNNNNNNNNNNWPNNNNNN;m;NNNNPWWNNNNNNNNNNNNNNWPNNNNNNN",
"NNNNNNPWWPNNNNNNNNNNNNPWWPNNNNN,xl>NNNPWWPNNNNNNNNNNNNPWWPNNNNNN",
"NNNNNPWWWWPNNNNNNNNNNPWWWWPNNNN;ik:NNPWWWWPNNNNNNNNNNPWWWWPNNNNN",
"NNNPWWWWWWWPNNNNNNNPWWWWWWWWPN3Vmu:PWWWWWWWPNNNNNNNPWWWWWWWWPNNN",
"WWWWWWWWWWWWPNNNNNNPWWWWWWWWWyqiv-CtWWWWWWWWPNNNNNNPWWWWWWWWWWWW",
"WWWPNNNPWWWWWWPNNPWWWPNNNPWWWw-&c%%1NNNPWWWWWWPNNPWWWPNNNPWWWWWW",
"NNNNNNNNNNPWWWWWWWWWWWWWPNNN5C%.v.-B3NNNNNPWWWWWWWWWWWWWPNNNPWWP",
"NNNNNNNNNNNNPWWWWWWWWWWWWWP>p% .T .&,NNNNNNNPWWWWWWWWWWWWWPNNWPN",
"NNNNNNNNNNNNNPWWWWWWPNNNPWW4d%..US.-d3NNNNNNNPWWWWWWPNNNPWWPWWNN",
"NNNNNNNNNNNNNNPWWWWPNNNNNPWrd&..TA -a;NNNNNNNNPWWWWPNNNNNPWWWPNN",
"NNNNNNNNNNNNNNNPWWPNNNNNNN5ssu%@D@&ip,NNNNNNNNNPWWPNNNNNNNPWWNNN",
"NNNNNNNNNNNNNNNNWWNNNNNNNN,ppmi#v@uMp,NNNNNNNNNNWWNNNNNNNNNWWNNN",
"NNNNNNNNNNNNNNNNWWNNNNNNN3MamGJO$OGJbs3NNNNNNNNNWWNNNNNNNNNPWNNN",
"NNNNNNNNNNNNNNNPWWNNNNNNN,MHRRH$mIEEHs,NNNNNNNNPWWNNNNNNNNNNWPNN",
"NNNNNNNNNNNNNNPWWWPNNNNNN:HERRGFURRRGs:NNNNNNNPWWWPNNNNNNNNPWWNN",
"NNNNNNNNNNNNNPWWNWWPNNNNN;EERRHUJERRRb:NNNNNNPWWNWWPNNNNNNPWWWPN",
"NNNNNNNNNNNNPWWNNNWWPNNNN2RRHHhThJGRRm,NNNNNPWWNNNWWPNNNNPWWPWWP",
"NNNNNNNNNNNPWWWWWWWWWPNNPeEGbmZYhmnHRm,NNNNPWWWWWWWWWPNNPWWPNPWW",
"WWPNNNNNPWWWWWPNNNPWWWWWWrJMbhhjfhbMHb:NPWWWWWPNNNPWWWWWWWPNNNNN",
"NWWWWWWWWWWWPNNNNNNNPWWPN6-amgmFMhmd*9wWWWWWPNNNNNNNPWWPNNNNWWWW",
"NNNPWWWWWWWWWWWWWWWWWWWWW9K%hhbMMff-L0WWWWWWWWWWWWWWWWWWWWWWPNNN",
"NPWWWPNNNPWWWWWWWWWPNNNPW0o&shghffs-X7NNNPWWWWWWWWWPNNNPWWWWWWPN",
"WWWWWWWWPNNNPWWPNNNNNNNNNN8psddssppd=wWWPNNNPWWPNNNNNNNNNNPWWWWW",
"WWWWWWWWWWPNNWPNNNNNNNNNNNN,spdpdddpkwWWWWPNNWPNNNNNNNNNNNNNPWWW",
"WWWWPNNNPWWPWWNNNNNNNNNNNNNN;dhffdsl2NNNPWWPWWNNNNNNNNNNNNNNNPWW",
"WWWPNNNNNPWWWPNNNNNNNNNNNNNNN,fhgdl4NNNNNPWWWPNNNNNNNNNNNNNNNNPW",
"WWPNNNNNNNPWWNNNNNNNNNNNNNNNNN,++#2NNNNNNNPWWNNNNNNNNNNNNNNNNNNP",
"WWNNNNNNNNNWWNNNNNNNNNNNNNNNNNNNWWNNNNNNNNNWWNNNNNNNNNNNNNNNNNNN",
"WWNNNNNNNNNPWNNNNNNNNNNNNNNNNNNNWWNNNNNNNNNPWNNNNNNNNNNNNNNNNNNN",
"WWNNNNNNNNNNWPNNNNNNNNNNNNNNNNNPWWNNNNNNNNNNWPNNNNNNNNNNNNNNNNNP",
"WWPNNNNNNNNPWWNNNNNNNNNNNNNNNNPWWWPNNNNNNNNPWWNNNNNNNNNNNNNNNNPW",
"NWWPNNNNNNPWWWPNNNNNNNNNNNNNNPWWNWWPNNNNNNPWWWPNNNNNNNNNNNNNNPWW",
"NNWWPNNNNPWWPWWPNNNNNNNNNNNNPWWNNNWWPNNNNPWWPWWPNNNNNNNNNNNNPWWN",
"WWWWWPNNPWWPNPWWNNNNNNNNNNNPWWWWWWWWWPNNPWWPNPWWNNNNNNNNNNNPWWWW",
"NNPWWWWWWWPNNNNNWWPNNNNNPWWWWWPNNNPWWWWWWWPNNNNNWWPNNNNNPWWWWWPN",
"NNNNPWWPNNNNWWWWNWWWWWWWWWWWPNNNNNNNPWWPNNNNWWWWNWWWWWWWWWWWPNNN",
"NNNNNPWWPNWWWPPWWWWWPNNNPWWPNNNNNNNNNPWWPNWWWPPWWWWWPNNNPWWPNNNN",
"NNNNNNWWWWWPNNNNNNPWWWPNNWPNNNNNNNNNNNWWWWWPNNNNNNPWWWPNNWPNNNNN",
"NNNNNNPWWPNNNNNNNNNNPWWPWWNNNNNNNNNNNNPWWPNNNNNNNNNNPWWPWWNNNNNN",
"NNNNNNNWPNNNNNNNNNNNNPWWWPNNNNNNNNNNNNNWPNNNNNNNNNNNNPWWWPNNNNNN",
"NNNNNNNWPNNNNNNNNNNNNNPWWNNNNNNNNNNNNNNWPNNNNNNNNNNNNNPWWNNNNNNN",
"NNNNNNPWWPNNNNNNNNNNNNPWWPNNNNNNNNNNNNPWWPNNNNNNNNNNNNPWWPNNNNNN",
"NNNNNPWWWWPNNNNNNNNNNPWWWWPNNNNNNNNNNPWWWWPNNNNNNNNNNPWWWWPNNNNN",
"NNNPWWWWWWWWPNNNNNNPWWWWWWWPNNNNNNNPWWWWWWWWPNNNNNNPWWWWWWWPNNNN"
};
