/* XPM */
static char *result[] = {
/* columns rows colors chars-per-pixel */
"64 64 77 1 ",
"  c #583947",
". c #583A47",
"X c #593A47",
"o c #593B47",
"O c #583A48",
"+ c #725E6A",
"@ c #9C594F",
"# c #9D594F",
"$ c #9D5950",
"% c #9D5A50",
"& c #B07553",
"* c #B07554",
"= c #8B5C63",
"- c #8B5D63",
"; c #8B5C64",
": c #8C5C64",
"> c #8C5D64",
", c #975F60",
"< c #975F62",
"1 c #985F60",
"2 c #985F62",
"3 c #986061",
"4 c #986161",
"5 c #9A6261",
"6 c #986063",
"7 c #9B6362",
"8 c #9A6364",
"9 c #86657C",
"0 c #8A6B7F",
"q c #8B6C7F",
"w c #98767D",
"e c #99777E",
"r c #9A777F",
"t c #A26961",
"y c #A36961",
"u c #A36A62",
"i c #A46B64",
"p c #A46C65",
"a c #AF8079",
"s c #B0807A",
"d c #E6924C",
"f c #E6934C",
"g c #E6934D",
"h c #E7934D",
"j c #ECB342",
"k c #ECB343",
"l c #ECB442",
"z c #EDB443",
"x c #C78E68",
"c c #C78F69",
"v c #C78F6A",
"b c #C88F69",
"n c #E0B372",
"m c #E1B473",
"M c #EFC268",
"N c #F0C268",
"B c #F0C368",
"V c #F0C369",
"C c #6F8FE7",
"Z c #B48E89",
"A c #CFA598",
"S c #F1C995",
"D c #F1C996",
"F c #F1CA96",
"G c #F7E49A",
"H c #F8E49B",
"J c #F8E59B",
"K c #EDCEBF",
"L c #87AFF7",
"P c #F9EBC4",
"I c #F9ECC4",
"U c #FAECC4",
"Y c #FAECC5",
"T c #FAEDC5",
"R c #FFFFCC",
"E c #FFFFCD",
"W c #D7EFF7",
/* pixels */
"WWWWWWWWWWWWLCCCCCCLWWWWWWWWWWWWWWWWWWWWWWWWLCCCCCCLWWWWWWWWWWWW",
"WWWLCCCLWWWWWWLCCLWWWLCCCLWWWWWWWWWLCCCLWWWWWWLCCLWWWLCCCLWWWWWW",
"CCCCCCCCCCLWWWWWWWWWWWWWLCCCLWWLCCCCCCCCCCLWWWWWWWWWWWWWLCCCLWWL",
"CCCCCCCCCCCCLWWWWWWWWWWWWWLCCWLCCCCCCCCCCCCCLWWWWWWWWWWWWWLCCWLC",
"CCCCCCCCCCCCCLWWWWWWLCCCLWWLWWCCCCCCCCCCCCCCCLWWWWWWLCCCLWWLWWCC",
"CCCCCCCCCCCCCCLWWWWLCCCCCLWWWLCCCCCCCCCCCCCCCCLWWWWLCCCCCLWWWLCC",
"CCCCCCCCCCCCCCCLWWLCCCCCCCLWWCCCCCCCCCCCCCCCCCCLWWLCCCCCCCLWWCCC",
"CCCCCCCCCCCCCCCCWWCCCCCCCCCWWCCCCCCCCCCCCCCCCCCCWWCCCCCCCCCWWCCC",
"CCCCCCCCCCCCCCCCWWCCCCCCCCCLWCCCCCCCCCCCCCCCCCCCWWCCCCCCCCCLWCCC",
"CCCCCCCCCCCCCCCLWWCCCCCCCCCCWLCCCCCCCCCCCCCCCCCLWWCCCCCCCCCCWLCC",
"CCCCCCCCCCCCCCLWWWLCCCCCCCCLWWCCCCCCCCCCCCCCCCLWWWLCCCCCCCCLWWCC",
"CCCCCCCCCCCCCLWWCWWLCCCCCCLWWWLCCCCCCCCCCCCCCLWWCWWLCCCCCCLWWWLC",
"CCCCCCCCCCCCLWWCCCWWLCCCCLWWLWWLCCCCCCCCCCCCLWWCCCWWLCCCCLWWLWWL",
"CCCCCCCCCCCLWWWWWWWWWLCCLWWLCLWWCCCCCCCCCCCLWWWWWWWWWLCCLWWLCLWW",
"WWLCCCCCLWWWWWLCCCLWWWWWWWLC333CWWLCCCCCLWWWWWLCCCLWWWWWWWLCCCCC",
"CWWWWWWWWWWWLCCCCCCCLWWLCCC<V@vpCWWWWWWWWWWWLCCCCCCCLWWLCCCCWWWW",
"WWWWLCCCLWWLCCCCCCCCCLWWLCWycVBtWWWWLCCCLWWLCCCCCCCCCLWWLCWWWLLW",
"CCLWWWLCCWLCCCCCCCCCCCWWWWWL3xGb2CLWWWLCCWLCCCCCCCCCCCWWWWWLCCCC",
"CCCCLWWLWWCCCCCCCCCCCCLWWLCCC3Hx3CCCLWWLWWCCCCCCCCCCCCLWWLCCCCCC",
"CCCCCLWWWLCCCCCCCCCCCCCWLCCCCC4H2CCCCLWWWLCCCCCCCCCCCCCWLCCCCCCC",
"CCCCCCLWWCCCCCCCCCCCCCCWLCCCCC,Mc6CCCCLWWCCCCCCCCCCCCCCWLCCCCCCC",
"CCCCCCLWWLCCCCCCCCCCCCLWWLCCCC3xc1CCCCLWWLCCCCCCCCCCCCLWWLCCCCCC",
"CCCCCLWWWWLCCCCCCCCCCLWWWWLCC6csh,CCCLWWWWLCCCCCCCCCCLWWWWLCCCCC",
"CCCLWWWWWWWLCCCCCCCLWWWWWWWWL2aBag3LWWWWWWWLCCCCCCCLWWWWWWWWLCCC",
"WWWWWWWWWWWWLCCCCCCLWWWWWWWWuZ;nahhpWWWWWWWWLCCCCCCLWWWWWWWWWWWW",
"WWWLCCCLWWWWWWLCCLWWWLCCCLWWy==n=;d5CCCLWWWWWWLCCLWWWLCCCLWWWWWW",
"CCCCCCCCCCLWWWWWWWWWWWWWLCCC5> mO=hd<CCCCCLWWWWWWWWWWWWWLCCCLWWL",
"CCCCCCCCCCCCLWWWWWWWWWWWWWLC1..T..:hg2CCCCCCLWWWWWWWWWWWWWLCCWLC",
"CCCCCCCCCCCCCLWWWWWWLCCCLWW8d.DY .>dg3CCCCCCCLWWWWWWLCCCLWWLWWCC",
"CCCCCCCCCCCCCCLWWWWLCCCCCLugX.Uo =dfh3CCCCCCCCLWWWWLCCCCCLWWWLCC",
"CCCCCCCCCCCCCCCLWWLCCCCCCC8f=$S%>ahdh2CCCCCCCCCLWWLCCCCCCCLWWCCC",
"CCCCCCCCCCCCCCCCWWCCCCCCCC1fa%n%sNddf,CCCCCCCCCCWWCCCCCCCCCWWCCC",
"CCCCCCCCCCCCCCCCWWCCCCCCC6hBH%&#HGBhBd3CCCCCCCCCWWCCCCCCCCCLWCCC",
"CCCCCCCCCCCCCCCLWWCCCCCCC,dGRPM*HREJVd3CCCCCCCCLWWCCCCCCCCCCWLCC",
"CCCCCCCCCCCCCCLWWWLCCCCCC1hJRRTFGRREHM3CCCCCCCLWWWLCCCCCCCCLWWCC",
"CCCCCCCCCCCCCLWWCWWLCCCCC2MRRRJIHRRRRB3CCCCCCLWWCWWLCCCCCCLWWWLC",
"CCCCCCCCCCCCLWWCCCWWLCCCC7gHREJkTkGGRR3CCCCCLWWCCCWWLCCCCLWWLWWL",
"CCCCCCCCCCCLWWWWWWWWWLCCLudHRJBjUAMBHR3CCCCLWWWWWWWWWLCCLWWLCLWW",
"WWLCCCCCLWWWWWLCCCLWWWWWWihJHjzjzjMMHG1CLWWWWWLCCCLWWWWWWWLCCCCC",
"CWWWWWWWWWWWLCCCCCCCLWWLC9=hVzBSMlMd-wuWWWWWLCCCCCCCLWWLCCCCWWWW",
"CCCLWWWWWWWWWWWWWWWWWWWWWeK>zzMMBzz>KrWWWWWWWWWWWWWWWWWWWWWWLCCC",
"CLWWWLCCCLWWWWWWWWWLCCCLWr+>hjzjjjd=XqCCCLWWWWWWWWWLCCCLWWWWWWLC",
"WWWWWWWWLCCCLWWLCCCCCCCCCC0hddghdghdeuWWLCCCLWWLCCCCCCCCCCLWWWWW",
"WWWWWWWWWWLCCWLCCCCCCCCCCC3chddgdddfuWWWWWLCCWLCCCCCCCCCCCCCLWWW",
"WWWWLCCCLWWLWWCCCCCCCCCCCCC3xdjzjhgyLCCCLWWLWWCCCCCCCCCCCCCCCLWW",
"WWWLCCCCCLWWWLCCCCCCCCCCCCCC3czzjbuLCCCCCLWWWLCCCCCCCCCCCCCCCCLW",
"WWLCCCCCCCLWWCCCCCCCCCCCCCCCC3%%@uLCCCCCCCLWWCCCCCCCCCCCCCCCCCCL",
"WWCCCCCCCCCWWCCCCCCCCCCCCCCCCCCCWWCCCCCCCCCWWCCCCCCCCCCCCCCCCCCC",
"WWCCCCCCCCCLWCCCCCCCCCCCCCCCCCCCWWCCCCCCCCCLWCCCCCCCCCCCCCCCCCCC",
"WWCCCCCCCCCCWLCCCCCCCCCCCCCCCCCLWWCCCCCCCCCCWLCCCCCCCCCCCCCCCCCL",
"WWLCCCCCCCCLWWCCCCCCCCCCCCCCCCLWWWLCCCCCCCCLWWCCCCCCCCCCCCCCCCLW",
"CWWLCCCCCCLWWWLCCCCCCCCCCCCCCLWWCWWLCCCCCCLWWWLCCCCCCCCCCCCCCLWW",
"CCWWLCCCCLWWLWWLCCCCCCCCCCCCLWWCCCWWLCCCCLWWLWWLCCCCCCCCCCCCLWWC",
"WWWWWLCCLWWLCLWWCCCCCCCCCCCLWWWWWWWWWLCCLWWLCLWWCCCCCCCCCCCLWWWW",
"CCLWWWWWWWLCCCCCWWLCCCCCLWWWWWLCCCLWWWWWWWLCCCCCWWLCCCCCLWWWWWLC",
"CCCCLWWLCCCCWWWWCWWWWWWWWWWWLCCCCCCCLWWLCCCCWWWWCWWWWWWWWWWWLCCC",
"CCCCCLWWLCWWWLLWWWWWLCCCLWWLCCCCCCCCCLWWLCWWWLLWWWWWLCCCLWWLCCCC",
"CCCCCCWWWWWLCCCCCCLWWWLCCWLCCCCCCCCCCCWWWWWLCCCCCCLWWWLCCWLCCCCC",
"CCCCCCLWWLCCCCCCCCCCLWWLWWCCCCCCCCCCCCLWWLCCCCCCCCCCLWWLWWCCCCCC",
"CCCCCCCWLCCCCCCCCCCCCLWWWLCCCCCCCCCCCCCWLCCCCCCCCCCCCLWWWLCCCCCC",
"CCCCCCCWLCCCCCCCCCCCCCLWWCCCCCCCCCCCCCCWLCCCCCCCCCCCCCLWWCCCCCCC",
"CCCCCCLWWLCCCCCCCCCCCCLWWLCCCCCCCCCCCCLWWLCCCCCCCCCCCCLWWLCCCCCC",
"CCCCCLWWWWLCCCCCCCCCCLWWWWLCCCCCCCCCCLWWWWLCCCCCCCCCCLWWWWLCCCCC",
"CCCLWWWWWWWWLCCCCCCLWWWWWWWLCCCCCCCLWWWWWWWWLCCCCCCLWWWWWWWLCCCC"
};
