/* XPM */
static char *result[] = {
/* columns rows colors chars-per-pixel */
"64 64 67 1 ",
"  c #583947",
". c #583A47",
"X c #583A48",
"o c #9C594F",
"O c #9D594F",
"+ c #9D5A50",
"@ c #975F5E",
"# c #985F5E",
"$ c #985F5F",
"% c #B07553",
"& c #8B5C63",
"* c #8B5C64",
"= c #8C5C64",
"- c #8C5D64",
"; c #985F61",
": c #9A6260",
"> c #9B6260",
", c #9B6361",
"< c #9B6262",
"1 c #86657A",
"2 c #87657B",
"3 c #87667B",
"4 c #8B6B7D",
"5 c #A26860",
"6 c #A36860",
"7 c #A36961",
"8 c #A36962",
"9 c #AF7F79",
"0 c #AF8079",
"q c #B0807A",
"w c #E6924C",
"e c #E6934C",
"r c #E6934D",
"t c #E7934D",
"y c #ECB342",
"u c #ECB442",
"i c #EDB443",
"p c #C78E68",
"a c #C78E69",
"s c #C78F69",
"d c #C88F69",
"f c #E0B372",
"g c #E0B472",
"h c #E1B472",
"j c #E1B473",
"k c #EFC268",
"l c #F0C368",
"z c #F0C369",
"x c #6F8FE7",
"c c #CFA497",
"v c #CFA597",
"b c #CFA598",
"n c #F1C995",
"m c #F1CA95",
"M c #F1CA96",
"N c #F2CA96",
"B c #F7E49A",
"V c #F8E49B",
"C c #F8E59B",
"Z c #87AFF7",
"A c #FAECC5",
"S c #FAEDC5",
"D c #FFFFCC",
"F c #FFFFCD",
"G c #D7EFF7",
"H c #FFFFF8",
"J c #FFFFF9",
/* pixels */
"GGGGGGGGGGGGZxxxxxxZGGGGGGGGGGGGGGGGGGGGGGGGZxxxxxxZGGGGGGGGGGGG",
"GGGZxxxZGGGGGGZxxZGGGZxxxZGGGGGGGGGZxxxZGGGGGGZxxZGGGZxxxZGGGGGG",
"xxxxxxxxxxZGGGGGGGGGGGGGZxxxZGGZxxxxxxxxxxZGGGGGGGGGGGGGZxxxZGGZ",
"xxxxxxxxxxxxZGGGGGGGGGGGGGZxxGZxxxxxxxxxxxxxZGGGGGGGGGGGGGZxxGZx",
"xxxxxxxxxxxxxZGGGGGGZxxxZGGZGGxxxxxxxxxxxxxxxZGGGGGGZxxxZGGZGGxx",
"xxxxxxxxxxxxxxZGGGGZxxxxxZGGGZxxxxxxxxxxxxxxxxZGGGGZxxxxxZGGGZxx",
"xxxxxxxxxxxxxxxZGGZxxxxxxxZGGxxxxxxxxxxxxxxxxxxZGGZxxxxxxxZGGxxx",
"xxxxxxxxxxxxxxxxGGxxxxxxxxxGGxxxxxxxxxxxxxxxxxxxGGxxxxxxxxxGGxxx",
"xxxxxxxxxxxxxxxxGGxxxxxxxxxZGxxxxxxxxxxxxxxxxxxxGGxxxxxxxxxZGxxx",
"xxxxxxxxxxxxxxxZGGxxxxxxxxxxGZxxxxxxxxxxxxxxxxxZGGxxxxxxxxxxGZxx",
"xxxxxxxxxxxxxxZGGGZxxxxxxxxZGGxxxxxxxxxxxxxxxxZGGGZxxxxxxxxZGGxx",
"xxxxxxxxxxxxxZGGxGGZxxxxxxZGGGZxxxxxxxxxxxxxxZGGxGGZxxxxxxZGGGZx",
"xxxxxxxxxxxxZGGxxxGGZxxxxZGGZGGZxxxxxxxxxxxxZGGxxxGGZxxxxZGGZGGZ",
"xxxxxxxxxxxZGGGGGGGGGZxxZGGZxZGGxxxxxxxxxxxZGGGGGGGGGZxxZGGZxZGG",
"GGZxxxxxZGGGGGZxxxZGGGGGGGZxxxxxGGZxxxxxZGGGGGZxxxZGGGGGGGZxxxxx",
"xGGGGGGGGGGGZxxxxxxxZGGZxxxxG777@6GGGGGGGGGGZxxxxxxxZGGZxxxxGGGG",
"GGGGZxxxZGGZxxxxxxxxxZGGZxGG8stttp7GZxxxZGGZxxxxxxxxxZGGZxGGGZZG",
"xxZGGGZxxGZxxxxxxxxxxxGGGGG<rzkklkw7GGZxxGZxxxxxxxxxxxGGGGGZxxxx",
"xxxxZGGZGGxxxxxxxxxxxxZGGZ@3BCVlBBB1,GGZGGxxxxxxxxxxxxZGGZxxxxxx",
"xxxxxZGGGZxxxxxxxxxxxxxGZx3BHJDfDHHV2,GGGZxxxxxxxxxxxxxGZxxxxxxx",
"xxxxxxZGGxxxxxxxxxxxxxxGZ3BHHHDgDHHHV1ZGGxxxxxxxxxxxxxxGZxxxxxxx",
"xxxxxxZGGZxxxxxxxxxxxxZGG4HHDlkmzkFHH1ZGGZxxxxxxxxxxxxZGGZxxxxxx",
"xxxxxZGGGGZxxxxxxxxxxZGGG5HDkkvAczkDHV5GGGZxxxxxxxxxxZGGGGZxxxxx",
"xxxZGGGGGGGZxxxxxxxZGGGGG6FVkv0S0vkVDD6GGGGZxxxxxxxZGGGGGGGGZxxx",
"GGGGGGGGGGGGZxxxxxxZGGGGG5VClc*SMckCBD6GGGGGZxxxxxxZGGGGGGGGGGGG",
"GGGZxxxZGGGGGGZxxZGGGZxxx>VCk0.NAqlVVD@ZGGGGGGZxxZGGGZxxxZGGGGGG",
"xxxxxxxxxxZGGGGGGGGGGGGGZ#wVb&.%S-cBwi$xxxZGGGGGGGGGGGGGZxxxZGGZ",
"xxxxxxxxxxxxZGGGGGGGGGGGG5rw* .jo &wwy$xxxxxZGGGGGGGGGGGGGZxxGZx",
"xxxxxxxxxxxxxZGGGGGGZxxxZ7ue=.Xn+X-rty#xxxxxxZGGGGGGZxxxZGGZGGxx",
"xxxxxxxxxxxxxxZGGGGZxxxxx,iw&. Om.&twi$xxxxxxxZGGGGZxxxxxZGGGZxx",
"xxxxxxxxxxxxxxxZGGZxxxxxxx:w&. +N &rw;xxxxxxxxxZGGZxxxxxxxZGGxxx",
"xxxxxxxxxxxxxxxxGGxxxxxxxx@w&. +.X&wt#xxxxxxxxxxGGxxxxxxxxxGGxxx",
"xxxxxxxxxxxxxxxxGGxxxxxxxx;rq-.f.-qry@xxxxxxxxxxGGxxxxxxxxxZGxxx",
"xxxxxxxxxxxxxxxZGGxxxxxxxxx@w0*f-0wri@xxxxxxxxxZGGxxxxxxxxxxGZxx",
"xxxxxxxxxxxxxxZGGGZxxxxxxxxZ5e0f&0wey@xxxxxxxxZGGGZxxxxxxxxZGGxx",
"xxxxxxxxxxxxxZGGxGGZxxxxxxZG6rw9zwrt$xxxxxxxxZGGxGGZxxxxxxZGGGZx",
"xxxxxxxxxxxxZGGxxxGGZxxxxZGG,ttqktt$xxxxxxxxZGGxxxGGZxxxxZGGZGGZ",
"xxxxxxxxxxxZGGGGGGGGGZxxZGGZ@sr0lrr#xxxxxxxZGGGGGGGGGZxxZGGZxZGG",
"GGZxxxxxZGGGGGZxxxZGGGGGGGZxx@dlre,xxxxxZGGGGGZxxxZGGGGGGGZxxxxx",
"xGGGGGGGGGGGZxxxxxxxZGGZxxxxG7sld7GGGGGGGGGGZxxxxxxxZGGZxxxxGGGG",
"xxxZGGGGGGGGGGGGGGGGGGGGGGGGZx#fs$xZGGGGGGGGGGGGGGGGGGGGGGGGZxxx",
"xZGGGZxxxZGGGGGGGGGZxxxZGGGGGG,fd:GGGZxxxZGGGGGGGGGZxxxZGGGGGGZx",
"GGGGGGGGZxxxZGGZxxxxxxxxxxZGGG7a7GGGGGGGZxxxZGGZxxxxxxxxxxZGGGGG",
"GGGGGGGGGGZxxGZxxxxxxxxxxxxxZ5hs6GGGGGGGGGZxxGZxxxxxxxxxxxxxZGGG",
"GGGGZxxxZGGZGGxxxxxxxxxxxxxx@kjd7GGGZxxxZGGZGGxxxxxxxxxxxxxxxZGG",
"GGGZxxxxxZGGGZxxxxxxxxxxxxx$kfd7GGGZxxxxxZGGGZxxxxxxxxxxxxxxxxZG",
"GGZxxxxxxxZGGxxxxxxxxxxxxxx#sgp:GGZxxxxxxxZGGxxxxxxxxxxxxxxxxxxZ",
"GGxxxxxxxxxGGxxxxxxxxxxxxxxx#+@xGGxxxxxxxxxGGxxxxxxxxxxxxxxxxxxx",
"GGxxxxxxxxxZGxxxxxxxxxxxxxxxxxxxGGxxxxxxxxxZGxxxxxxxxxxxxxxxxxxx",
"GGxxxxxxxxxxGZxxxxxxxxxxxxxxxxxZGGxxxxxxxxxxGZxxxxxxxxxxxxxxxxxZ",
"GGZxxxxxxxxZGGxxxxxxxxxxxxxxxxZGGGZxxxxxxxxZGGxxxxxxxxxxxxxxxxZG",
"xGGZxxxxxxZGGGZxxxxxxxxxxxxxxZGGxGGZxxxxxxZGGGZxxxxxxxxxxxxxxZGG",
"xxGGZxxxxZGGZGGZxxxxxxxxxxxxZGGxxxGGZxxxxZGGZGGZxxxxxxxxxxxxZGGx",
"GGGGGZxxZGGZxZGGxxxxxxxxxxxZGGGGGGGGGZxxZGGZxZGGxxxxxxxxxxxZGGGG",
"xxZGGGGGGGZxxxxxGGZxxxxxZGGGGGZxxxZGGGGGGGZxxxxxGGZxxxxxZGGGGGZx",
"xxxxZGGZxxxxGGGGxGGGGGGGGGGGZxxxxxxxZGGZxxxxGGGGxGGGGGGGGGGGZxxx",
"xxxxxZGGZxGGGZZGGGGGZxxxZGGZxxxxxxxxxZGGZxGGGZZGGGGGZxxxZGGZxxxx",
"xxxxxxGGGGGZxxxxxxZGGGZxxGZxxxxxxxxxxxGGGGGZxxxxxxZGGGZxxGZxxxxx",
"xxxxxxZGGZxxxxxxxxxxZGGZGGxxxxxxxxxxxxZGGZxxxxxxxxxxZGGZGGxxxxxx",
"xxxxxxxGZxxxxxxxxxxxxZGGGZxxxxxxxxxxxxxGZxxxxxxxxxxxxZGGGZxxxxxx",
"xxxxxxxGZxxxxxxxxxxxxxZGGxxxxxxxxxxxxxxGZxxxxxxxxxxxxxZGGxxxxxxx",
"xxxxxxZGGZxxxxxxxxxxxxZGGZxxxxxxxxxxxxZGGZxxxxxxxxxxxxZGGZxxxxxx",
"xxxxxZGGGGZxxxxxxxxxxZGGGGZxxxxxxxxxxZGGGGZxxxxxxxxxxZGGGGZxxxxx",
"xxxZGGGGGGGGZxxxxxxZGGGGGGGZxxxxxxxZGGGGGGGGZxxxxxxZGGGGGGGZxxxx"
};
