/* XPM */
static char *result[] = {
/* columns rows colors chars-per-pixel */
"64 64 66 1 ",
"  c #583947",
". c #583A47",
"X c #9C594F",
"o c #9D594F",
"O c #9D5950",
"+ c #9D5A50",
"@ c #B17554",
"# c #8B5C63",
"$ c #8B5C64",
"% c #8C5C64",
"& c #8C5D64",
"* c #975F60",
"= c #985F60",
"- c #985F62",
"; c #986061",
": c #9B6261",
"> c #9B6362",
", c #86657B",
"< c #86657C",
"1 c #87657C",
"2 c #87667C",
"3 c #8B6C7F",
"4 c #99777F",
"5 c #9A777F",
"6 c #A26961",
"7 c #A36961",
"8 c #A36A62",
"9 c #A46B64",
"0 c #AF8079",
"q c #B08079",
"w c #B0807A",
"e c #E6924C",
"r c #E6934C",
"t c #E6934D",
"y c #E7934D",
"u c #ECB342",
"i c #EDB443",
"p c #C78F69",
"a c #C68E6A",
"s c #C78F6A",
"d c #C88F69",
"f c #E0B372",
"g c #E0B472",
"h c #E1B472",
"j c #E1B473",
"k c #EFC268",
"l c #F0C368",
"z c #F0C369",
"x c #6F8FE7",
"c c #CEA497",
"v c #CFA497",
"b c #CFA597",
"n c #CFA598",
"m c #F1C995",
"M c #F1CA95",
"N c #F2CA96",
"B c #F7E49A",
"V c #F8E49B",
"C c #F8E59B",
"Z c #87AFF7",
"A c #FAECC5",
"S c #FAEDC5",
"D c #FFFFCC",
"F c #FFFFCD",
"G c #D7EFF7",
"H c #FFFFF8",
/* pixels */
"GGGGGGGGGGGGZxxxxxxZGGGGGGGGGGGGGGGGGGGGGGGGZxxxxxxZGGGGGGGGGGGG",
"GGGZxxxZGGGGGGZxxZGGGZxxxZGGGGGGGGGZxxxZGGGGGGZxxZGGGZxxxZGGGGGG",
"xxxxxxxxxxZGGGGGGGGGGGGGZxxxZGGZxxxxxxxxxxZGGGGGGGGGGGGGZxxxZGGZ",
"xxxxxxxxxxxxZGGGGGGGGGGGGGZxxGZxxxxxxxxxxxxxZGGGGGGGGGGGGGZxxGZx",
"xxxxxxxxxxxxxZGGGGGGZxxxZGGZGGxxxxxxxxxxxxxxxZGGGGGGZxxxZGGZGGxx",
"xxxxxxxxxxxxxxZGGGGZxxxxxZGGGZxxxxxxxxxxxxxxxxZGGGGZxxxxxZGGGZxx",
"xxxxxxxxxxxxxxxZGGZxxxxxxxZGGxxxxxxxxxxxxxxxxxxZGGZxxxxxxxZGGxxx",
"xxxxxxxxxxxxxxxxGGxxxxxxxxxGGxxxxxxxxxxxxxxxxxxxGGxxxxxxxxxGGxxx",
"xxxxxxxxxxxxxxxxGGxxxxxxxxxZGxxxxxxxxxxxxxxxxxxxGGxxxxxxxxxZGxxx",
"xxxxxxxxxxxxxxxZGGxxxxxxxxxxGZxxxxxxxxxxxxxxxxxZGGxxxxxxxxxxGZxx",
"xxxxxxxxxxxxxxZGGGZxxxxxxxxZGGxxxxxxxxxxxxxxxxZGGGZxxxxxxxxZGGxx",
"xxxxxxxxxxxxxZGGxGGZxxxxxxZGGGZxxxxxxxxxxxxxxZGGxGGZxxxxxxZGGGZx",
"xxxxxxxxxxxxZGGxxxGGZxxxxZGGZGGZxxxxxxxxxxxxZGGxxxGGZxxxxZGGZGGZ",
"xxxxxxxxxxxZGGGGGGGGGZxxZGGZxZGGxxxxxxxxxxxZGGGGGGGGGZxxZGGZxZGG",
"GGZxxxxxZGGGGGZxxxZGGGGGGGZxxxxxGGZxxxxxZGGGGGZxxxZGGGGGGGZxxxxx",
"xGGGGGGGGGGGZxxxxxxxZGGZxxxxG678*7GGGGGGGGGGZxxxxxxxZGGZxxxxGGGG",
"GGGGZxxxZGGZxxxxxxxxxZGGZxGG7pyyts8GZxxxZGGZxxxxxxxxxZGGZxGGGZZG",
"xxZGGGZxxGZxxxxxxxxxxxGGGGG>ykklzke7GGZxxGZxxxxxxxxxxxGGGGGZxxxx",
"xxxxZGGZGGxxxxxxxxxxxxZGGZ=2CBVlBBV,>GGZGGxxxxxxxxxxxxZGGZxxxxxx",
"xxxxxZGGGZxxxxxxxxxxxxxGZ1<CHHDfDHHV=ZGGGZxxxxxxxxxxxxxGZxxxxxxx",
"xxxxxxZGGxxxxxxxxxxxxxxGZ,VHHHFhFHHHB2ZGGxxxxxxxxxxxxxxGZxxxxxxx",
"xxxxxxZGGZxxxxxxxxxxxxZG43HHDklmkzDHH2ZGGZxxxxxxxxxxxxZGGZxxxxxx",
"xxxxxZGGGGZxxxxxxxxxxZGG5BHDklbSbklDH>GGGGZxxxxxxxxxxZGGGGZxxxxx",
"xxxZGGGGGGGZxxxxxxxZGGGG7DFBlnwA0vkCF6GGGGGZxxxxxxxZGGGGGGGGZxxx",
"GGGGGGGGGGGGZxxxxxxZGGGG8DBVkw$SNvkCC8GGGGGGZxxxxxxZGGGGGGGGGGGG",
"GGGZxxxZGGGGGGZxxZGGGZxx;FBCv%.mSqkCV*xZGGGGGGZxxZGGGZxxxZGGGGGG",
"xxxxxxxxxxZGGGGGGGGGGGGG:ieC&..@S#nVy;xxxxZGGGGGGGGGGGGGZxxxZGGZ",
"xxxxxxxxxxxxZGGGGGGGGGGG8tyc#..j $teu-xxxxxxZGGGGGGGGGGGGGZxxGZx",
"xxxxxxxxxxxxxZGGGGGGZxxx>it%..+j.$eti=xxxxxxxZGGGGGGZxxxZGGZGGxx",
"xxxxxxxxxxxxxxZGGGGZxxxx;ue$. XM.$eyi;xxxxxxxxZGGGGZxxxxxZGGGZxx",
"xxxxxxxxxxxxxxxZGGZxxxxxx*y%. OM.#ty;xxxxxxxxxxZGGZxxxxxxxZGGxxx",
"xxxxxxxxxxxxxxxxGGxxxxxxx=y$ .o. $ri;xxxxxxxxxxxGGxxxxxxxxxGGxxx",
"xxxxxxxxxxxxxxxxGGxxxxxxxx*0#.f.%0ru;xxxxxxxxxxxGGxxxxxxxxxZGxxx",
"xxxxxxxxxxxxxxxZGGxxxxxxxx;y0%f$0reu;xxxxxxxxxxZGGxxxxxxxxxxGZxx",
"xxxxxxxxxxxxxxZGGGZxxxxxxx*yy0f#eye;xxxxxxxxxxZGGGZxxxxxxxxZGGxx",
"xxxxxxxxxxxxxZGGxGGZxxxxxxZ6r00kety;xxxxxxxxxZGGxGGZxxxxxxZGGGZx",
"xxxxxxxxxxxxZGGxxxGGZxxxxZGG>twlet=xxxxxxxxxZGGxxxGGZxxxxZGGZGGZ",
"xxxxxxxxxxxZGGGGGGGGGZxxZGGZ;aylry;xxxxxxxxZGGGGGGGGGZxxZGGZxZGG",
"GGZxxxxxZGGGGGZxxxZGGGGGGGZxx=prl6ZxxxxxZGGGGGZxxxZGGGGGGGZxxxxx",
"xGGGGGGGGGGGZxxxxxxxZGGZxxxxGG8fk8GGGGGGGGGGZxxxxxxxZGGZxxxxGGGG",
"xxxZGGGGGGGGGGGGGGGGGGGGGGGGZx;gl=xZGGGGGGGGGGGGGGGGGGGGGGGGZxxx",
"xZGGGZxxxZGGGGGGGGGZxxxZGGGGGG>g;ZGGGZxxxZGGGGGGGGGZxxxZGGGGGGZx",
"GGGGGGGGZxxxZGGZxxxxxxxxxxZGGG8f8GGGGGGGZxxxZGGZxxxxxxxxxxZGGGGG",
"GGGGGGGGGGZxxGZxxxxxxxxxxxxxZG6kj8GGGGGGGGZxxGZxxxxxxxxxxxxxZGGG",
"GGGGZxxxZGGZGGxxxxxxxxxxxxxxxZ8lgd7GZxxxZGGZGGxxxxxxxxxxxxxxxZGG",
"GGGZxxxxxZGGGZxxxxxxxxxxxxxxxxZ9pjp:xxxxxZGGGZxxxxxxxxxxxxxxxxZG",
"GGZxxxxxxxZGGxxxxxxxxxxxxxxxxxx>pja;xxxxxxZGGxxxxxxxxxxxxxxxxxxZ",
"GGxxxxxxxxxGGxxxxxxxxxxxxxxxxxxx7o-xxxxxxxxGGxxxxxxxxxxxxxxxxxxx",
"GGxxxxxxxxxZGxxxxxxxxxxxxxxxxxxxGGxxxxxxxxxZGxxxxxxxxxxxxxxxxxxx",
"GGxxxxxxxxxxGZxxxxxxxxxxxxxxxxxZGGxxxxxxxxxxGZxxxxxxxxxxxxxxxxxZ",
"GGZxxxxxxxxZGGxxxxxxxxxxxxxxxxZGGGZxxxxxxxxZGGxxxxxxxxxxxxxxxxZG",
"xGGZxxxxxxZGGGZxxxxxxxxxxxxxxZGGxGGZxxxxxxZGGGZxxxxxxxxxxxxxxZGG",
"xxGGZxxxxZGGZGGZxxxxxxxxxxxxZGGxxxGGZxxxxZGGZGGZxxxxxxxxxxxxZGGx",
"GGGGGZxxZGGZxZGGxxxxxxxxxxxZGGGGGGGGGZxxZGGZxZGGxxxxxxxxxxxZGGGG",
"xxZGGGGGGGZxxxxxGGZxxxxxZGGGGGZxxxZGGGGGGGZxxxxxGGZxxxxxZGGGGGZx",
"xxxxZGGZxxxxGGGGxGGGGGGGGGGGZxxxxxxxZGGZxxxxGGGGxGGGGGGGGGGGZxxx",
"xxxxxZGGZxGGGZZGGGGGZxxxZGGZxxxxxxxxxZGGZxGGGZZGGGGGZxxxZGGZxxxx",
"xxxxxxGGGGGZxxxxxxZGGGZxxGZxxxxxxxxxxxGGGGGZxxxxxxZGGGZxxGZxxxxx",
"xxxxxxZGGZxxxxxxxxxxZGGZGGxxxxxxxxxxxxZGGZxxxxxxxxxxZGGZGGxxxxxx",
"xxxxxxxGZxxxxxxxxxxxxZGGGZxxxxxxxxxxxxxGZxxxxxxxxxxxxZGGGZxxxxxx",
"xxxxxxxGZxxxxxxxxxxxxxZGGxxxxxxxxxxxxxxGZxxxxxxxxxxxxxZGGxxxxxxx",
"xxxxxxZGGZxxxxxxxxxxxxZGGZxxxxxxxxxxxxZGGZxxxxxxxxxxxxZGGZxxxxxx",
"xxxxxZGGGGZxxxxxxxxxxZGGGGZxxxxxxxxxxZGGGGZxxxxxxxxxxZGGGGZxxxxx",
"xxxZGGGGGGGGZxxxxxxZGGGGGGGZxxxxxxxZGGGGGGGGZxxxxxxZGGGGGGGZxxxx"
};
