/* XPM */
static char *result[] = {
/* columns rows colors chars-per-pixel */
"64 64 69 1 ",
"  c #583947",
". c #583A47",
"X c #583A48",
"o c #9C594F",
"O c #9D5A50",
"+ c #B17554",
"@ c #B17654",
"# c #8B5C63",
"$ c #8B5C64",
"% c #8C5C64",
"& c #8C5D64",
"* c #975F60",
"= c #985F60",
"- c #985F62",
"; c #986061",
": c #9A6261",
"> c #9B6261",
", c #9B6362",
"< c #9A6364",
"1 c #86657B",
"2 c #86657C",
"3 c #87657C",
"4 c #87667C",
"5 c #8B6C7F",
"6 c #A26961",
"7 c #A36961",
"8 c #A36A62",
"9 c #A46B64",
"0 c #AF8079",
"q c #B08079",
"w c #B0807A",
"e c #E6924C",
"r c #E6934C",
"t c #E6934D",
"y c #E7934D",
"u c #ECB342",
"i c #ECB442",
"p c #EDB443",
"a c #C78E68",
"s c #C78F69",
"d c #C68E6A",
"f c #C88F69",
"g c #E0B372",
"h c #E0B472",
"j c #E1B472",
"k c #E1B473",
"l c #EFC268",
"z c #F0C268",
"x c #F0C368",
"c c #F0C369",
"v c #6F8FE7",
"b c #CEA497",
"n c #CFA497",
"m c #CFA597",
"M c #F1C995",
"N c #F2CA96",
"B c #F7E49A",
"V c #F8E49B",
"C c #F8E59B",
"Z c #87AFF7",
"A c #F9ECC4",
"S c #FAECC4",
"D c #FAECC5",
"F c #FAEDC5",
"G c #FFFFCC",
"H c #FFFFCD",
"J c #D7EFF7",
"K c #FFFFF8",
"L c #FFFFF9",
/* pixels */
"JJJJJJJJJJJJZvvvvvvZJJJJJJJJJJJJJJJJJJJJJJJJZvvvvvvZJJJJJJJJJJJJ",
"JJJZvvvZJJJJJJZvvZJJJZvvvZJJJJJJJJJZvvvZJJJJJJZvvZJJJZvvvZJJJJJJ",
"vvvvvvvvvvZJJJJJJJJJJJJJZvvvZJJZvvvvvvvvvvZJJJJJJJJJJJJJZvvvZJJZ",
"vvvvvvvvvvvvZJJJJJJJJJJJJJZvvJZvvvvvvvvvvvvvZJJJJJJJJJJJJJZvvJZv",
"vvvvvvvvvvvvvZJJJJJJZvvvZJJZJJvvvvvvvvvvvvvvvZJJJJJJZvvvZJJZJJvv",
"vvvvvvvvvvvvvvZJJJJZvvvvvZJJJZvvvvvvvvvvvvvvvvZJJJJZvvvvvZJJJZvv",
"vvvvvvvvvvvvvvvZJJZvvvvvvvZJJvvvvvvvvvvvvvvvvvvZJJZvvvvvvvZJJvvv",
"vvvvvvvvvvvvvvvvJJvvvvvvvvvJJvvvvvvvvvvvvvvvvvvvJJvvvvvvvvvJJvvv",
"vvvvvvvvvvvvvvvvJJvvvvvvvvvZJvvvvvvvvvvvvvvvvvvvJJvvvvvvvvvZJvvv",
"vvvvvvvvvvvvvvvZJJvvvvvvvvvvJZvvvvvvvvvvvvvvvvvZJJvvvvvvvvvvJZvv",
"vvvvvvvvvvvvvvZJJJZvvvvvvvvZJJvvvvvvvvvvvvvvvvZJJJZvvvvvvvvZJJvv",
"vvvvvvvvvvvvvZJJvJJZvvvvvvZJJJZvvvvvvvvvvvvvvZJJvJJZvvvvvvZJJJZv",
"vvvvvvvvvvvvZJJvvvJJZvvvvZJJZJJZvvvvvvvvvvvvZJJvvvJJZvvvvZJJZJJZ",
"vvvvvvvvvvvZJJJJJJJJJZvvZJJZvZJJvvvvvvvvvvvZJJJJJJJJJZvvZJJZvZJJ",
"JJZvvvvvZJJJJJZvvvZJJJJJJJZvvvvvJJZvvvvvZJJJJJZvvvZJJJJJJJZvvvvv",
"vJJJJJJJJJJJZvvvvvvvZJJZvvvvJ788=8JJJJJJJJJJZvvvvvvvZJJZvvvvJJJJ",
"JJJJZvvvZJJZvvvvvvvvvZJJZvJJ8feyya6JZvvvZJJZvvvvvvvvvZJJZvJJJZZJ",
"vvZJJJZvvJZvvvvvvvvvvvJJJJJ:ecxxxxr6JJZvvJZvvvvvvvvvvvJJJJJZvvvv",
"vvvvZJJZJJvvvvvvvvvvvvZJJZ;2VBBxBCB1,JJZJJvvvvvvvvvvvvZJJZvvvvvv",
"vvvvvZJJJZvvvvvvvvvvvvvJZv3BKKGgHKKC1,JJJZvvvvvvvvvvvvvJZvvvvvvv",
"vvvvvvZJJvvvvvvvvvvvvvvJZ4BKKKHhGKKKB1ZJJvvvvvvvvvvvvvvJZvvvvvvv",
"vvvvvvZJJZvvvvvvvvvvvvZJJ5LKGxxNxxGKK2ZJJZvvvvvvvvvvvvZJJZvvvvvv",
"vvvvvZJJJJZvvvvvvvvvvZJJJ8KGxcbDnclGKV7JJJZvvvvvvvvvvZJJJJZvvvvv",
"vvvZJJJJJJJZvvvvvvvZJJJJJ8GVlbwS0mcCHG8JJJJZvvvvvvvZJJJJJJJJZvvv",
"JJJJJJJJJJJJZvvvvvvZJJJJJ8CBzn&SMnxVVG8JJJJJZvvvvvvZJJJJJJJJJJJJ",
"JJJZvvvZJJJJJJZvvZJJJZvvv<VBlq.NF0cVVG;ZJJJJJJZvvZJJJZvvvZJJJJJJ",
"vvvvvvvvvvZJJJJJJJJJJJJJZ-tCb#.@S#blVeu;vvZJJJJJJJJJJJJJZvvvZJJZ",
"vvvvvvvvvvvvZJJJJJJJJJJJJJ,ty#.X+g.#typ;vvvvZJJJJJJJJJJJJJZvvJZv",
"vvvvvvvvvvvvvZJJJJJJZvvvZJ8pr$..+MO.&ru;vvvvvZJJJJJJZvvvZJJZJJvv",
"vvvvvvvvvvvvvvZJJJJZvvvvvZ7uy&..ODo.&yi;vvvvvvZJJJJZvvvvvZJJJZvv",
"vvvvvvvvvvvvvvvZJJZvvvvvvvZ8t&..OAO.#y;vvvvvvvvZJJZvvvvvvvZJJvvv",
"vvvvvvvvvvvvvvvvJJvvvvvvvvv7u0$.OD. &p;vvvvvvvvvJJvvvvvvvvvJJvvv",
"vvvvvvvvvvvvvvvvJJvvvvvvvvv,ptw..k.$wu=vvvvvvvvvJJvvvvvvvvvZJvvv",
"vvvvvvvvvvvvvvvZJJvvvvvvvvv;pt0%.k#wy;vvvvvvvvvZJJvvvvvvvvvvJZvv",
"vvvvvvvvvvvvvvZJJJZvvvvvvvvZ8yt0&k&yy*vvvvvvvvZJJJZvvvvvvvvZJJvv",
"vvvvvvvvvvvvvZJJvJJZvvvvvvZJ7tewl0ee=vvvvvvvvZJJvJJZvvvvvvZJJJZv",
"vvvvvvvvvvvvZJJvvvJJZvvvvZJJ,ettxwt;vvvvvvvvZJJvvvJJZvvvvZJJZJJZ",
"vvvvvvvvvvvZJJJJJJJJJZvvZJJZ;aeelee;vvvvvvvZJJJJJJJJJZvvZJJZvZJJ",
"JJZvvvvvZJJJJJZvvvZJJJJJJJZvv;ecrt,vvvvvZJJJJJZvvvZJJJJJJJZvvvvv",
"vJJJJJJJJJJJZvvvvvvvZJJZvvvvJ6sly7JJJJJJJJJJZvvvvvvvZJJZvvvvJJJJ",
"vvvZJJJJJJJJJJJJJJJJJJJJJJJJZ=gs*vvZJJJJJJJJJJJJJJJJJJJJJJJJZvvv",
"vZJJJZvvvZJJJJJJJJJZvvvZJJJJJ6ka*ZJJJZvvvZJJJJJJJJJZvvvZJJJJJJZv",
"JJJJJJJJZvvvZJJZvvvvvvvvvvZJJ8s9JJJJJJJJZvvvZJJZvvvvvvvvvvZJJJJJ",
"JJJJJJJJJJZvvJZvvvvvvvvvvvv=>js8JJJJJJJJJJZvvJZvvvvvvvvvvvvvZJJJ",
"JJJJZvvvZJJZJJvvvvvvvvvvvv=cgs8JJJJJZvvvZJJZJJvvvvvvvvvvvvvvvZJJ",
"JJJZvvvvvZJJJZvvvvvvvvvvv;xgf*ZJJJJZvvvvvZJJJZvvvvvvvvvvvvvvvvZJ",
"JJZvvvvvvvZJJvvvvvvvvvvvv;dgs*vZJJZvvvvvvvZJJvvvvvvvvvvvvvvvvvvZ",
"JJvvvvvvvvvJJvvvvvvvvvvvvv;o*vvvJJvvvvvvvvvJJvvvvvvvvvvvvvvvvvvv",
"JJvvvvvvvvvZJvvvvvvvvvvvvvvvvvvvJJvvvvvvvvvZJvvvvvvvvvvvvvvvvvvv",
"JJvvvvvvvvvvJZvvvvvvvvvvvvvvvvvZJJvvvvvvvvvvJZvvvvvvvvvvvvvvvvvZ",
"JJZvvvvvvvvZJJvvvvvvvvvvvvvvvvZJJJZvvvvvvvvZJJvvvvvvvvvvvvvvvvZJ",
"vJJZvvvvvvZJJJZvvvvvvvvvvvvvvZJJvJJZvvvvvvZJJJZvvvvvvvvvvvvvvZJJ",
"vvJJZvvvvZJJZJJZvvvvvvvvvvvvZJJvvvJJZvvvvZJJZJJZvvvvvvvvvvvvZJJv",
"JJJJJZvvZJJZvZJJvvvvvvvvvvvZJJJJJJJJJZvvZJJZvZJJvvvvvvvvvvvZJJJJ",
"vvZJJJJJJJZvvvvvJJZvvvvvZJJJJJZvvvZJJJJJJJZvvvvvJJZvvvvvZJJJJJZv",
"vvvvZJJZvvvvJJJJvJJJJJJJJJJJZvvvvvvvZJJZvvvvJJJJvJJJJJJJJJJJZvvv",
"vvvvvZJJZvJJJZZJJJJJZvvvZJJZvvvvvvvvvZJJZvJJJZZJJJJJZvvvZJJZvvvv",
"vvvvvvJJJJJZvvvvvvZJJJZvvJZvvvvvvvvvvvJJJJJZvvvvvvZJJJZvvJZvvvvv",
"vvvvvvZJJZvvvvvvvvvvZJJZJJvvvvvvvvvvvvZJJZvvvvvvvvvvZJJZJJvvvvvv",
"vvvvvvvJZvvvvvvvvvvvvZJJJZvvvvvvvvvvvvvJZvvvvvvvvvvvvZJJJZvvvvvv",
"vvvvvvvJZvvvvvvvvvvvvvZJJvvvvvvvvvvvvvvJZvvvvvvvvvvvvvZJJvvvvvvv",
"vvvvvvZJJZvvvvvvvvvvvvZJJZvvvvvvvvvvvvZJJZvvvvvvvvvvvvZJJZvvvvvv",
"vvvvvZJJJJZvvvvvvvvvvZJJJJZvvvvvvvvvvZJJJJZvvvvvvvvvvZJJJJZvvvvv",
"vvvZJJJJJJJJZvvvvvvZJJJJJJJZvvvvvvvZJJJJJJJJZvvvvvvZJJJJJJJZvvvv"
};
