/* XPM */
static char *result[] = {
/* columns rows colors chars-per-pixel */
"64 64 74 1 ",
"  c #583947",
". c #583A47",
"X c #593A47",
"o c #583A48",
"O c #593A48",
"+ c #593B48",
"@ c #625168",
"# c #9C594F",
"$ c #9D594F",
"% c #9D5950",
"& c #9D5A50",
"* c #975F5E",
"= c #985F5E",
"- c #985F5F",
"; c #B17654",
": c #8B5C63",
"> c #8B5C64",
", c #8C5D64",
"< c #8C5E64",
"1 c #975F61",
"2 c #985F61",
"3 c #986061",
"4 c #9A6260",
"5 c #9B6260",
"6 c #9B6361",
"7 c #9B6262",
"8 c #86657B",
"9 c #86667B",
"0 c #98757D",
"q c #A26860",
"w c #A36860",
"e c #A36961",
"r c #A26962",
"t c #A36A63",
"y c #AF8079",
"u c #B0807A",
"i c #E6924C",
"p c #E6934C",
"a c #E6934D",
"s c #E7934D",
"d c #ECB342",
"f c #ECB343",
"g c #ECB442",
"h c #EDB443",
"j c #EDB444",
"k c #C78E68",
"l c #C78E69",
"z c #C78F69",
"x c #C88F69",
"c c #E0B372",
"v c #E1B473",
"b c #EFC268",
"n c #F0C368",
"m c #F0C369",
"M c #6F8FE7",
"N c #B48D88",
"B c #CFA597",
"V c #F1C995",
"C c #F1CA95",
"Z c #F0C996",
"A c #F1C996",
"S c #F7E49A",
"D c #F8E49B",
"F c #F8E59B",
"G c #ECCDBF",
"H c #EDCEBF",
"J c #87AFF7",
"K c #FAEBC4",
"L c #F9ECC4",
"P c #FAECC4",
"I c #FAEDC5",
"U c #FFFFCC",
"Y c #FFFFCD",
"T c #D7EFF7",
/* pixels */
"TTTTTTTTTTTTJMMMMMMJTTTTTTTTTTTTTTTTTTTTTTTTJMMMMMMJTTTTTTTTTTTT",
"TTTJMMMJTTTTTTJMMJTTTJMMMJTTTTTTTTTJMMMJTTTTTTJMMJTTTJMMMJTTTTTT",
"MMMMMMMMMMJTTTTTTTTTTTTTJMMMJTTJMMMMMMMMMMJTTTTTTTTTTTTTJMMMJTTJ",
"MMMMMMMMMMMMJTTTTTTTTTTTTTJMMTJMMMMMMMMMMMMMJTTTTTTTTTTTTTJMMTJM",
"MMMMMMMMMMMMMJTTTTTTJMMMJTTJTTMMMMMMMMMMMMMMMJTTTTTTJMMMJTTJTTMM",
"MMMMMMMMMMMMMMJTTTTJMMMMMJTTTJMMMMMMMMMMMMMMMMJTTTTJMMMMMJTTTJMM",
"MMMMMMMMMMMMMMMJTTJMMMMMMMJTTMMMMMMMMMMMMMMMMMMJTTJMMMMMMMJTTMMM",
"MMMMMMMMMMMMMMMMTTMMMMMMMMMTTMMMMMMMMMMMMMMMMMMMTTMMMMMMMMMTTMMM",
"MMMMMMMMMMMMMMMMTTMMMMMMMMMJTMMMMMMMMMMMMMMMMMMMTTMMMMMMMMMJTMMM",
"MMMMMMMMMMMMMMMJTTMMMMMMMMMMTJMMMMMMMMMMMMMMMMMJTTMMMMMMMMMMTJMM",
"MMMMMMMMMMMMMMJTTTJMMMMMMMMJTTMMMMMMMMMMMMMMMMJTTTJMMMMMMMMJTTMM",
"MMMMMMMMMMMMMJTTMTTJMMMMMMJTTTJMMMMMMMMMMMMMMJTTMTTJMMMMMMJTTTJM",
"MMMMMMMMMMMMJTTMMMTTJMMMMJTTJTTJMMMMMMMMMMMMJTTMMMTTJMMMMJTTJTTJ",
"MMMMMMMMMMMJTTTTTTTTTJMMJTTJMJTTMMMMMMMMMMMJTTTTTTTTTJMMJTTJMJTT",
"TTJMMMMMJTTTTTJMMMJTTTTTTTJMMMMMTw6-MMMMJTTTTTJMMMJTTTTTTTJMMMMM",
"MTTTTTTTTTTTJMMMMMMMJTTJMMMMTTTT3k$mtTTTTTTTJMMMMMMMJTTJMMMMTTTT",
"TTTTJMMMJTTJMMMMMMMMMJTTJMTTTJJTennz5MMMJTTJMMMMMMMMMJTTJMTTTJJT",
"MMJTTTJMMTJMMMMMMMMMMMTTTTTJMMM1lDzeTTJMMTJMMMMMMMMMMMTTTTTJMMMM",
"MMMMJTTJTTMMMMMMMMMMMMJTTJMMMMM-zD-MJTTJTTMMMMMMMMMMMMJTTJMMMMMM",
"MMMMMJTTTJMMMMMMMMMMMMMTJMMMMMM=F-MMMJTTTJMMMMMMMMMMMMMTJMMMMMMM",
"MMMMMMJTTMMMMMMMMMMMMMMTJMMMMM2zm=MMMMJTTMMMMMMMMMMMMMMTJMMMMMMM",
"MMMMMMJTTJMMMMMMMMMMMMJTTJMMMM-zz*MMMMJTTJMMMMMMMMMMMMJTTJMMMMMM",
"MMMMMJTTTTJMMMMMMMMMMJTTTTJMMM*auk3MMJTTTTJMMMMMMMMMMJTTTTJMMMMM",
"MMMJTTTTTTTJMMMMMMMJTTTTTTTTJ2syny-JTTTTTTTJMMMMMMMJTTTTTTTTJMMM",
"TTTTTTTTTTTTJMMMMMMJTTTTTTTTtapyc>NrTTTTTTTTJMMMMMMJTTTTTTTTTTTT",
"TTTJMMMJTTTTTTJMMJTTTJMMMJTTwa:,v>,4MMMJTTTTTTJMMJTTTJMMMJTTTTTT",
"MMMMMMMMMMJTTTTTTTTTTTTTJMM1si>.v.,-MMMMMMJTTTTTTTTTTTTTJMMMJTTJ",
"MMMMMMMMMMMMJTTTTTTTTTTTTT7ip>..I.o=MMMMMMMMJTTTTTTTTTTTTTJMMTJM",
"MMMMMMMMMMMMMJTTTTTTJMMMJTeis:O.PA.s3MMMMMMMMJTTTTTTJMMMJTTJTTMM",
"MMMMMMMMMMMMMMJTTTTJMMMMMJqiii, +IZXa1MMMMMMMMJTTTTJMMMMMJTTTJMM",
"MMMMMMMMMMMMMMMJTTJMMMMMMM6aspu,%V$:i-MMMMMMMMMJTTJMMMMMMMJTTMMM",
"MMMMMMMMMMMMMMMMTTMMMMMMMM-isinu#c#us-MMMMMMMMMMTTMMMMMMMMMTTMMM",
"MMMMMMMMMMMMMMMMTTMMMMMMM1smsnFD#;&Dns3MMMMMMMMMTTMMMMMMMMMJTMMM",
"MMMMMMMMMMMMMMMJTTMMMMMMM-ibDUUD;nKYFs=MMMMMMMMJTTMMMMMMMMMMTJMM",
"MMMMMMMMMMMMMMJTTTJMMMMMM2bDUUUDCLUUFi-MMMMMMMJTTTJMMMMMMMMJTTMM",
"MMMMMMMMMMMMMJTTMTTJMMMMM=bUYYUFIDUUUb*MMMMMMJTTMTTJMMMMMMJTTTJM",
"MMMMMMMMMMMMJTTMMMTTJMMMM6UYDDhPjFUYSa*MMMMMJTTMMMTTJMMMMJTTJTTJ",
"MMMMMMMMMMMJTTTTTTTTTJMMJwUFmnBIhnDUDi-MMMMJTTTTTTTTTJMMJTTJMJTT",
"TTJMMMMMJTTTTTJMMMJTTTTTTqFSnnhfhhdSDs*MJTTTTTJMMMJTTTTTTTJMMMMM",
"MTTTTTTTTTTTJMMMMMMMJTTJM=9<sbdbVbdbi,0TTTTTJMMMMMMMJTTJMMMMTTTT",
"MMMJTTTTTTTTTTTTTTTTTTTTTT0H>dhnnbdh:G0TTTTTTTTTTTTTTTTTTTTTJMMM",
"MJTTTJMMMJTTTTTTTTTJMMMJTT0X>phdhhgi>@8MMJTTTTTTTTTJMMMJTTTTTTJM",
"TTTTTTTTJMMMJTTJMMMMMMMMMM50isspaisia0TTJMMMJTTJMMMMMMMMMMJTTTTT",
"TTTTTTTTTTJMMTJMMMMMMMMMMMM-ssiipaiaxeTTTTJMMTJMMMMMMMMMMMMMJTTT",
"TTTTJMMMJTTJTTMMMMMMMMMMMMMM=sidhdaz6MMMJTTJTTMMMMMMMMMMMMMMMJTT",
"TTTJMMMMMJTTTJMMMMMMMMMMMMMMM-kdhhz5MMMMMJTTTJMMMMMMMMMMMMMMMMJT",
"TTJMMMMMMMJTTMMMMMMMMMMMMMMMMM=$&&4MMMMMMMJTTMMMMMMMMMMMMMMMMMMJ",
"TTMMMMMMMMMTTMMMMMMMMMMMMMMMMMMMTTMMMMMMMMMTTMMMMMMMMMMMMMMMMMMM",
"TTMMMMMMMMMJTMMMMMMMMMMMMMMMMMMMTTMMMMMMMMMJTMMMMMMMMMMMMMMMMMMM",
"TTMMMMMMMMMMTJMMMMMMMMMMMMMMMMMJTTMMMMMMMMMMTJMMMMMMMMMMMMMMMMMJ",
"TTJMMMMMMMMJTTMMMMMMMMMMMMMMMMJTTTJMMMMMMMMJTTMMMMMMMMMMMMMMMMJT",
"MTTJMMMMMMJTTTJMMMMMMMMMMMMMMJTTMTTJMMMMMMJTTTJMMMMMMMMMMMMMMJTT",
"MMTTJMMMMJTTJTTJMMMMMMMMMMMMJTTMMMTTJMMMMJTTJTTJMMMMMMMMMMMMJTTM",
"TTTTTJMMJTTJMJTTMMMMMMMMMMMJTTTTTTTTTJMMJTTJMJTTMMMMMMMMMMMJTTTT",
"MMJTTTTTTTJMMMMMTTJMMMMMJTTTTTJMMMJTTTTTTTJMMMMMTTJMMMMMJTTTTTJM",
"MMMMJTTJMMMMTTTTMTTTTTTTTTTTJMMMMMMMJTTJMMMMTTTTMTTTTTTTTTTTJMMM",
"MMMMMJTTJMTTTJJTTTTTJMMMJTTJMMMMMMMMMJTTJMTTTJJTTTTTJMMMJTTJMMMM",
"MMMMMMTTTTTJMMMMMMJTTTJMMTJMMMMMMMMMMMTTTTTJMMMMMMJTTTJMMTJMMMMM",
"MMMMMMJTTJMMMMMMMMMMJTTJTTMMMMMMMMMMMMJTTJMMMMMMMMMMJTTJTTMMMMMM",
"MMMMMMMTJMMMMMMMMMMMMJTTTJMMMMMMMMMMMMMTJMMMMMMMMMMMMJTTTJMMMMMM",
"MMMMMMMTJMMMMMMMMMMMMMJTTMMMMMMMMMMMMMMTJMMMMMMMMMMMMMJTTMMMMMMM",
"MMMMMMJTTJMMMMMMMMMMMMJTTJMMMMMMMMMMMMJTTJMMMMMMMMMMMMJTTJMMMMMM",
"MMMMMJTTTTJMMMMMMMMMMJTTTTJMMMMMMMMMMJTTTTJMMMMMMMMMMJTTTTJMMMMM",
"MMMJTTTTTTTTJMMMMMMJTTTTTTTJMMMMMMMJTTTTTTTTJMMMMMMJTTTTTTTJMMMM"
};
