/* XPM */
static char *result[] = {
/* columns rows colors chars-per-pixel */
"64 64 62 1 ",
"  c #583947",
". c #583A47",
"X c #9D594F",
"o c #9D5950",
"O c #9D5A50",
"+ c #B17654",
"@ c #8B5C63",
"# c #8B5C64",
"$ c #8C5C64",
"% c #8C5D64",
"& c #975F60",
"* c #985F60",
"= c #985F62",
"- c #986061",
"; c #9A6261",
": c #9B6261",
"> c #9B6362",
", c #9A6364",
"< c #86657B",
"1 c #87657C",
"2 c #87667C",
"3 c #8B6C7F",
"4 c #A26961",
"5 c #A36961",
"6 c #A36A62",
"7 c #A46B64",
"8 c #AF8079",
"9 c #B0807A",
"0 c #E6924C",
"q c #E6934C",
"w c #E6934D",
"e c #E7934D",
"r c #ECB342",
"t c #EDB443",
"y c #C78E68",
"u c #C78F69",
"i c #C68E6A",
"p c #C78F6A",
"a c #C88F69",
"s c #E0B372",
"d c #E0B472",
"f c #E1B473",
"g c #EFC268",
"h c #F0C368",
"j c #F0C369",
"k c #6F8FE7",
"l c #CEA497",
"z c #CFA597",
"x c #CFA598",
"c c #F1CA95",
"v c #F2CA96",
"b c #F7E49A",
"n c #F8E49B",
"m c #F8E59B",
"M c #87AFF7",
"N c #F9ECC4",
"B c #FAECC4",
"V c #FAEDC5",
"C c #FFFFCC",
"Z c #FFFFCD",
"A c #D7EFF7",
"S c #FFFFF8",
/* pixels */
"AAAAAAAAAAAAMkkkkkkMAAAAAAAAAAAAAAAAAAAAAAAAMkkkkkkMAAAAAAAAAAAA",
"AAAMkkkMAAAAAAMkkMAAAMkkkMAAAAAAAAAMkkkMAAAAAAMkkMAAAMkkkMAAAAAA",
"kkkkkkkkkkMAAAAAAAAAAAAAMkkkMAAMkkkkkkkkkkMAAAAAAAAAAAAAMkkkMAAM",
"kkkkkkkkkkkkMAAAAAAAAAAAAAMkkAMkkkkkkkkkkkkkMAAAAAAAAAAAAAMkkAMk",
"kkkkkkkkkkkkkMAAAAAAMkkkMAAMAAkkkkkkkkkkkkkkkMAAAAAAMkkkMAAMAAkk",
"kkkkkkkkkkkkkkMAAAAMkkkkkMAAAMkkkkkkkkkkkkkkkkMAAAAMkkkkkMAAAMkk",
"kkkkkkkkkkkkkkkMAAMkkkkkkkMAAkkkkkkkkkkkkkkkkkkMAAMkkkkkkkMAAkkk",
"kkkkkkkkkkkkkkkkAAkkkkkkkkkAAkkkkkkkkkkkkkkkkkkkAAkkkkkkkkkAAkkk",
"kkkkkkkkkkkkkkkkAAkkkkkkkkkMAkkkkkkkkkkkkkkkkkkkAAkkkkkkkkkMAkkk",
"kkkkkkkkkkkkkkkMAAkkkkkkkkkkAMkkkkkkkkkkkkkkkkkMAAkkkkkkkkkkAMkk",
"kkkkkkkkkkkkkkMAAAMkkkkkkkkMAAkkkkkkkkkkkkkkkkMAAAMkkkkkkkkMAAkk",
"kkkkkkkkkkkkkMAAkAAMkkkkkkMAAAMkkkkkkkkkkkkkkMAAkAAMkkkkkkMAAAMk",
"kkkkkkkkkkkkMAAkkkAAMkkkkMAAMAAMkkkkkkkkkkkkMAAkkkAAMkkkkMAAMAAM",
"kkkkkkkkkkkMAAAAAAAAAMkkMAAMkMAAkkkkkkkkkkkMAAAAAAAAAMkkMAAMkMAA",
"AAMkkkkkMAAAAAMkkkMAAAAAAAMkkkkkAAMkkkkkMAAAAAMkkkMAAAAAAAMkkkkk",
"kAAAAAAAAAAAMkkkkkkkMAAMkkkkA664-5AAAAAAAAAAMkkkkkkkMAAMkkkkAAAA",
"AAAAMkkkMAAMkkkkkkkkkMAAMkAA6u0weu6AMkkkMAAMkkkkkkkkkMAAMkAAAMMA",
"kkMAAAMkkAMkkkkkkkkkkkAAAAA>eghghg04AAMkkAMkkkkkkkkkkkAAAAAMkkkk",
"kkkkMAAMAAkkkkkkkkkkkkMAAM-<mmngbnb<>AAMAAkkkkkkkkkkkkMAAMkkkkkk",
"kkkkkMAAAMkkkkkkkkkkkkkAM-1nSSZsCSSn<MAAAMkkkkkkkkkkkkkAMkkkkkkk",
"kkkkkkMAAkkkkkkkkkkkkkkAM-nSSSCfCSSSb2MAAkkkkkkkkkkkkkkAMkkkkkkk",
"kkkkkkMAAMkkkkkkkkkkkkMAA3SSCjhvggCSS2MAAMkkkkkkkkkkkkMAAMkkkkkk",
"kkkkkMAAAAMkkkkkkkkkkMAA5nSChhzVzggZS>AAAAMkkkkkkkkkkMAAAAMkkkkk",
"kkkMAAAAAAAMkkkkkkkMAAAA4ZZbgx9N8xhbZ6AAAAAMkkkkkkkMAAAAAAAAMkkk",
"AAAAAAAAAAAAMkkkkkkMAAAA6Cbmgz%Bczhnn6AAAAAAMkkkkkkMAAAAAAAAAAAA",
"AAAMkkkMAAAAAAMkkMAAAMkk-Cmbg8.vB8jmn&kMAAAAAAMkkMAAAMkkkMAAAAAA",
"kkkkkkkkkkMAAAAAAAAAAAAA,reml# +N%zbq-kkkkMAAAAAAAAAAAAAMkkkMAAM",
"kkkkkkkkkkkkMAAAAAAAAAAA6tww% .s .@er&kkkkkkMAAAAAAAAAAAAAMkkAMk",
"kkkkkkkkkkkkkMAAAAAAMkkk;re0#..v..@wt*kkkkkkkMAAAAAAMkkkMAAMAAkk",
"kkkkkkkkkkkkkkMAAAAMkkkk&t0e# OV. %er&kkkkkkkkMAAAAMkkkkkMAAAMkk",
"kkkkkkkkkkkkkkkMAAMkkkkkk-ee@ oV..@0&kkkkkkkkkkMAAMkkkkkkkMAAkkk",
"kkkkkkkkkkkkkkkkAAkkkkkkk*ee# OV..%t-kkkkkkkkkkkAAkkkkkkkkkAAkkk",
"kkkkkkkkkkkkkkkkAAkkkkkkk-e08$.f.%9r&kkkkkkkkkkkAAkkkkkkkkkMAkkk",
"kkkkkkkkkkkkkkkMAAkkkkkkk*tee9@f%8t-kkkkkkkkkkkMAAkkkkkkkkkkAMkk",
"kkkkkkkkkkkkkkMAAAMkkkkkk*rw008f%0r&kkkkkkkkkkMAAAMkkkkkkkkMAAkk",
"kkkkkkkkkkkkkMAAkAAMkkkkkk>ewe8ge0-kkkkkkkkkkMAAkAAMkkkkkkMAAAMk",
"kkkkkkkkkkkkMAAkkkAAMkkkkMA4009j0t-kkkkkkkkkMAAkkkAAMkkkkMAAMAAM",
"kkkkkkkkkkkMAAAAAAAAAMkkMAA>y00g0r-kkkkkkkkMAAAAAAAAAMkkMAAMkMAA",
"AAMkkkkkMAAAAAMkkkMAAAAAAAMk-aeg04MkkkkkMAAAAAMkkkMAAAAAAAMkkkkk",
"kAAAAAAAAAAAMkkkkkkkMAAMkkkkA5sh06AAAAAAAAAAMkkkkkkkMAAMkkkkAAAA",
"kkkMAAAAAAAAAAAAAAAAAAAAAAAAM&sy=kkMAAAAAAAAAAAAAAAAAAAAAAAAMkkk",
"kMAAAMkkkMAAAAAAAAAMkkkMAAAAA5fu-MAAAMkkkMAAAAAAAAAMkkkMAAAAAAMk",
"AAAAAAAAMkkkMAAMkkkkkkkkkkMAAA4s7AAAAAAAMkkkMAAMkkkkkkkkkkMAAAAA",
"AAAAAAAAAAMkkAMkkkkkkkkkkkkkMA5su5AAAAAAAAMkkAMkkkkkkkkkkkkkMAAA",
"AAAAMkkkMAAMAAkkkkkkkkkkkkkkkM6hsu5AMkkkMAAMAAkkkkkkkkkkkkkkkMAA",
"AAAMkkkkkMAAAMkkkkkkkkkkkkkkkkM6udy:kkkkkMAAAMkkkkkkkkkkkkkkkkMA",
"AAMkkkkkkkMAAkkkkkkkkkkkkkkkkkk;psi*kkkkkkMAAkkkkkkkkkkkkkkkkkkM",
"AAkkkkkkkkkAAkkkkkkkkkkkkkkkkkkk6X*kkkkkkkkAAkkkkkkkkkkkkkkkkkkk",
"AAkkkkkkkkkMAkkkkkkkkkkkkkkkkkkkAAkkkkkkkkkMAkkkkkkkkkkkkkkkkkkk",
"AAkkkkkkkkkkAMkkkkkkkkkkkkkkkkkMAAkkkkkkkkkkAMkkkkkkkkkkkkkkkkkM",
"AAMkkkkkkkkMAAkkkkkkkkkkkkkkkkMAAAMkkkkkkkkMAAkkkkkkkkkkkkkkkkMA",
"kAAMkkkkkkMAAAMkkkkkkkkkkkkkkMAAkAAMkkkkkkMAAAMkkkkkkkkkkkkkkMAA",
"kkAAMkkkkMAAMAAMkkkkkkkkkkkkMAAkkkAAMkkkkMAAMAAMkkkkkkkkkkkkMAAk",
"AAAAAMkkMAAMkMAAkkkkkkkkkkkMAAAAAAAAAMkkMAAMkMAAkkkkkkkkkkkMAAAA",
"kkMAAAAAAAMkkkkkAAMkkkkkMAAAAAMkkkMAAAAAAAMkkkkkAAMkkkkkMAAAAAMk",
"kkkkMAAMkkkkAAAAkAAAAAAAAAAAMkkkkkkkMAAMkkkkAAAAkAAAAAAAAAAAMkkk",
"kkkkkMAAMkAAAMMAAAAAMkkkMAAMkkkkkkkkkMAAMkAAAMMAAAAAMkkkMAAMkkkk",
"kkkkkkAAAAAMkkkkkkMAAAMkkAMkkkkkkkkkkkAAAAAMkkkkkkMAAAMkkAMkkkkk",
"kkkkkkMAAMkkkkkkkkkkMAAMAAkkkkkkkkkkkkMAAMkkkkkkkkkkMAAMAAkkkkkk",
"kkkkkkkAMkkkkkkkkkkkkMAAAMkkkkkkkkkkkkkAMkkkkkkkkkkkkMAAAMkkkkkk",
"kkkkkkkAMkkkkkkkkkkkkkMAAkkkkkkkkkkkkkkAMkkkkkkkkkkkkkMAAkkkkkkk",
"kkkkkkMAAMkkkkkkkkkkkkMAAMkkkkkkkkkkkkMAAMkkkkkkkkkkkkMAAMkkkkkk",
"kkkkkMAAAAMkkkkkkkkkkMAAAAMkkkkkkkkkkMAAAAMkkkkkkkkkkMAAAAMkkkkk",
"kkkMAAAAAAAAMkkkkkkMAAAAAAAMkkkkkkkMAAAAAAAAMkkkkkkMAAAAAAAMkkkk"
};
