/* XPM */
static char *result[] = {
/* columns rows colors chars-per-pixel */
"64 64 70 1 ",
"  c #583947",
". c #583A47",
"X c #6D4758",
"o c #6E4859",
"O c #9C594F",
"+ c #9D594F",
"@ c #9D5950",
"# c #9D5A50",
"$ c #AF7555",
"% c #AF7656",
"& c #AF7657",
"* c #B07553",
"= c #B17554",
"- c #B07656",
"; c #B17756",
": c #B07757",
"> c #B27857",
", c #B07658",
"< c #B27858",
"1 c #8B5C63",
"2 c #8B5C64",
"3 c #8C5C64",
"4 c #8C5D64",
"5 c #975F60",
"6 c #985F60",
"7 c #985F62",
"8 c #986061",
"9 c #9A6261",
"0 c #9B6362",
"q c #9A6364",
"w c #86657B",
"e c #A26961",
"r c #A36961",
"t c #A36A62",
"y c #A46B64",
"u c #E2794D",
"i c #E2794E",
"p c #E3794E",
"a c #E37A4E",
"s c #AF8079",
"d c #B08079",
"f c #B0807A",
"g c #E6924C",
"h c #E6934C",
"j c #E6934D",
"k c #E7934D",
"l c #ECB342",
"z c #ECB442",
"x c #ECB443",
"c c #EDB443",
"v c #C78E68",
"b c #C78F69",
"n c #C78F6A",
"m c #C88F69",
"M c #E0B372",
"N c #E0B472",
"B c #E1B473",
"V c #EFC268",
"C c #F0C368",
"Z c #F0C369",
"A c #6F8FE7",
"S c #F7E49A",
"D c #F8E49B",
"F c #F8E59B",
"G c #87AFF7",
"H c #EDCEC0",
"J c #FFFFCC",
"K c #FFFFCD",
"L c #D7EFF7",
"P c #FFFFF8",
/* pixels */
"LLLLLLLLLLLLGAAAAAAGLLLLLLLLLLLLLLLLLLLLLLLLGAAAAAAGLLLLLLLLLLLL",
"LLLGAAAGLLLLLLGAAGLLLGAAAGLLLLLLLLLGAAAGLLLLLLGAAGLLLGAAAGLLLLLL",
"AAAAAAAAAAGLLLLLLLLLLLLLGAAAGLLGAAAAAAAAAAGLLLLLLLLLLLLLGAAAGLLG",
"AAAAAAAAAAAAGLLLLLLLLLLLLLGAALGAAAAAAAAAAAAAGLLLLLLLLLLLLLGAALGA",
"AAAAAAAAAAAAAGLLLLLLGAAAGLLGLLAAAAAAAAAAAAAAAGLLLLLLGAAAGLLGLLAA",
"AAAAAAAAAAAAAAGLLLLGAAAAAGLLLGAAAAAAAAAAAAAAAAGLLLLGAAAAAGLLLGAA",
"AAAAAAAAAAAAAAAGLLGAAAAAAAGLLAAAAAAAAAAAAAAAAAAGLLGAAAAAAAGLLAAA",
"AAAAAAAAAAAAAAAALLAAAAAAAAALLAAAAAAAAAAAAAAAAAAALLAAAAAAAAALLAAA",
"AAAAAAAAAAAAAAAALLAAAAAAAAAGLAAAAAAAAAAAAAAAAAAALLAAAAAAAAAGLAAA",
"AAAAAAAAAAAAAAAGLLAAAAAAAAAALGAAAAAAAAAAAAAAAAAGLLAAAAAAAAAALGAA",
"AAAAAAAAAAAAAAGLLLGAAAAAAAAGLLAAAAAAAAAAAAAAAAGLLLGAAAAAAAAGLLAA",
"AAAAAAAAAAAAAGLLALLGAAAAAAGLLLGAAAAAAAAAAAAAAGLLALLGAAAAAAGLLLGA",
"AAAAAAAAAAAAGLLAAALLGAAAAGLLGLLGAAAAAAAAAAAAGLLAAALLGAAAAGLLGLLG",
"AAAAAAAAAAAGLLLLLLLLLGAAGLLGAGLLAAAAAAAAAAAGLLLLLLLLLGAAGLLGAGLL",
"LLGAAAAAGLLLLLGAAAGLLLLLLLGAAAAALLGAAAAAGLLLLLGAAAGLLLLLLLGAAAAA",
"ALLLLLLLLLLLGAAAAAAAGLLGAAAALLLLALLLLLLLLLLLGAAAAAAAGLLGAAAALLLL",
"LLLLGAAAGLLGAAAAAAAAAGLLGALLLGGLLLLLGAAAGLLGAAAAAAAAAGLLGALLLGGL",
"AAGLLLGAALGAAAAAAAAAAALLLLLGAAAAAAGLLLGAALGAAAAAAAAAAALLLLLGAAAA",
"AAAAGLLGLLAAAAAAAAAAAAGLLGAAAAAAAAAAGLLGLLAAAAAAAAAAAAGLLGAAAAAA",
"AAAAAGLLLGAAAAAAAAAAAAALGAAAAAAAAAAAAGLLLGAAAAAAAAAAAAALGAAAAAAA",
"AAAAAAGLLAAAAAAAAAAAAAALGAAAAAAAAAAAAAGLLAAAAAAAAAAAAAALGAAAAAAA",
"AAAAAAGLLGAAAAAAAAAAAAGLLGAAAAAAAAAAAAGLLGAAAAAAAAAAAAGLLGAAAAAA",
"AAAAAGLLLLGAAAAAAA-AAGLLLLGAA&-bb$$AAGLLLLGAAAAAAAAAAGLLLLGAAAAA",
"AAAGLLLLLLLGAAAAAA&:LLLLLLLLGAAvBMM,>tLLLLLGAAAAAAAGLLLLLLLLGAAA",
"LLLLLLLLLLLLGAAAAA$z;LLL;LLLL;nSD#O#+ettrLLLGAAAAAAGLLLLLLLLLLLL",
"LLLGAAAGLLLLLLGAAGL>l:AAb%<>bN+#ooo2sppkgteLLLGAAGLLLGAAAGLLLLLL",
"AAAAAAAAAAGLLLLL<;L;ZCvbvMmm@OX .1fspaiSKJDyLLLLLLLLLLLLGAAAGLLG",
"AAAAAAAAAAAAGLLLtl>L=ClbMM##o  .3skkkjkJPPJk9LLLLLLLLLLLLLGAALGA",
"AAAAAAAAAAAAAGLLLtl=*FVcO#oX..o4gCVVVCFPPPKkg0LLLLLLGAAAGLLGLLAA",
"AAAAAAAAAAAAAAGLLLrlVDSF4X..o4fjZCCVCVJPPPSZgj9LLLLGAAAAAGLLLGAA",
"AAAAAAAAAAAAAAAGLLqMMCDF2..o2dkCVZVCCVKPPFVV24j0LLGAAAAAAAGLLAAA",
"AAAAAAAAAAAAAAAALL$ZSDDzfoo4sZVZVVCCCZJPPDZs.H1zeLAAAAAAAAALLAAA",
"AAAAAAAAAAAAAAAAL<lSFc88uw1glVZVCCCVCDJPPSZs..1krLAAAAAAAAAGLAAA",
"AAAAAAAAAAAAAAAG;lcl85AAA7gggxcVCVDDFFKPPJFl44CkeLAAAAAAAAAALGAA",
"AAAAAAAAAAAAAAGLLt06AAAAA8ijkggzcVZCVDFPPJDVccleLLGAAAAAAAAGLLAA",
"AAAAAAAAAAAAAGLLALLGAAAAAA0pphjhgkclczCJJJJJcktLALLGAAAAAAGLLLGA",
"AAAAAAAAAAAAGLLAAALLGAAAAGLe:uajkkghkgkZJJJl0yLAAALLGAAAAGLLGLLG",
"AAAAAAAAAAAGLLLLLLLLLGAAGLLGA9<aiiclclclip89LLLLLLLLLGAAGLLGAGLL",
"LLGAAAAAGLLLLLGAAAGLLLLLLLGAAAA8<<iuiipp9tLLLLGAAAGLLLLLLLGAAAAA",
"ALLLLLLLLLLLGAAAAAAAGLLGAAAALLLLALr>>>teLLLLGAAAAAAAGLLGAAAALLLL",
"AAAGLLLLLLLLLLLLLLLLLLLLLLLLGAAAAAAGLLLLLLLLLLLLLLLLLLLLLLLLGAAA",
"AGLLLGAAAGLLLLLLLLLGAAAGLLLLLLGAAGLLLGAAAGLLLLLLLLLGAAAGLLLLLLGA",
"LLLLLLLLGAAAGLLGAAAAAAAAAAGLLLLLLLLLLLLLGAAAGLLGAAAAAAAAAAGLLLLL",
"LLLLLLLLLLGAALGAAAAAAAAAAAAAGLLLLLLLLLLLLLGAALGAAAAAAAAAAAAAGLLL",
"LLLLGAAAGLLGLLAAAAAAAAAAAAAAAGLLLLLLGAAAGLLGLLAAAAAAAAAAAAAAAGLL",
"LLLGAAAAAGLLLGAAAAAAAAAAAAAAAAGLLLLGAAAAAGLLLGAAAAAAAAAAAAAAAAGL",
"LLGAAAAAAAGLLAAAAAAAAAAAAAAAAAAGLLGAAAAAAAGLLAAAAAAAAAAAAAAAAAAG",
"LLAAAAAAAAALLAAAAAAAAAAAAAAAAAAALLAAAAAAAAALLAAAAAAAAAAAAAAAAAAA",
"LLAAAAAAAAAGLAAAAAAAAAAAAAAAAAAALLAAAAAAAAAGLAAAAAAAAAAAAAAAAAAA",
"LLAAAAAAAAAALGAAAAAAAAAAAAAAAAAGLLAAAAAAAAAALGAAAAAAAAAAAAAAAAAG",
"LLGAAAAAAAAGLLAAAAAAAAAAAAAAAAGLLLGAAAAAAAAGLLAAAAAAAAAAAAAAAAGL",
"ALLGAAAAAAGLLLGAAAAAAAAAAAAAAGLLALLGAAAAAAGLLLGAAAAAAAAAAAAAAGLL",
"AALLGAAAAGLLGLLGAAAAAAAAAAAAGLLAAALLGAAAAGLLGLLGAAAAAAAAAAAAGLLA",
"LLLLLGAAGLLGAGLLAAAAAAAAAAAGLLLLLLLLLGAAGLLGAGLLAAAAAAAAAAAGLLLL",
"AAGLLLLLLLGAAAAALLGAAAAAGLLLLLGAAAGLLLLLLLGAAAAALLGAAAAAGLLLLLGA",
"AAAAGLLGAAAALLLLALLLLLLLLLLLGAAAAAAAGLLGAAAALLLLALLLLLLLLLLLGAAA",
"AAAAAGLLGALLLGGLLLLLGAAAGLLGAAAAAAAAAGLLGALLLGGLLLLLGAAAGLLGAAAA",
"AAAAAALLLLLGAAAAAAGLLLGAALGAAAAAAAAAAALLLLLGAAAAAAGLLLGAALGAAAAA",
"AAAAAAGLLGAAAAAAAAAAGLLGLLAAAAAAAAAAAAGLLGAAAAAAAAAAGLLGLLAAAAAA",
"AAAAAAALGAAAAAAAAAAAAGLLLGAAAAAAAAAAAAALGAAAAAAAAAAAAGLLLGAAAAAA",
"AAAAAAALGAAAAAAAAAAAAAGLLAAAAAAAAAAAAAALGAAAAAAAAAAAAAGLLAAAAAAA",
"AAAAAAGLLGAAAAAAAAAAAAGLLGAAAAAAAAAAAAGLLGAAAAAAAAAAAAGLLGAAAAAA",
"AAAAAGLLLLGAAAAAAAAAAGLLLLGAAAAAAAAAAGLLLLGAAAAAAAAAAGLLLLGAAAAA",
"AAAGLLLLLLLLGAAAAAAGLLLLLLLGAAAAAAAGLLLLLLLLGAAAAAAGLLLLLLLGAAAA"
};
