/* XPM */
static char *result[] = {
/* columns rows colors chars-per-pixel */
"64 64 66 1 ",
"  c #583947",
". c #583A47",
"X c #583A48",
"o c #593A48",
"O c #9D594F",
"+ c #9D5950",
"@ c #9D5A50",
"# c #B17654",
"$ c #8B5C63",
"% c #8B5C64",
"& c #8C5C64",
"* c #8C5D64",
"= c #975F60",
"- c #985F60",
"; c #985F62",
": c #986061",
"> c #9A6261",
", c #9B6261",
"< c #9B6362",
"1 c #9A6364",
"2 c #86657B",
"3 c #86657C",
"4 c #87657C",
"5 c #87667C",
"6 c #8A6B7F",
"7 c #A26961",
"8 c #A36961",
"9 c #A36A62",
"0 c #AF8079",
"q c #B0807A",
"w c #E6924C",
"e c #E6934C",
"r c #E6934D",
"t c #E7934D",
"y c #ECB342",
"u c #ECB442",
"i c #EDB443",
"p c #C78E68",
"a c #C78F69",
"s c #C68E6A",
"d c #C78F6A",
"f c #C88F69",
"g c #E0B372",
"h c #E0B472",
"j c #E1B473",
"k c #EFC268",
"l c #F0C368",
"z c #F0C369",
"x c #6F8FE7",
"c c #CEA497",
"v c #CFA497",
"b c #CFA598",
"n c #F1CA95",
"m c #F2CA96",
"M c #F7E49A",
"N c #F8E49B",
"B c #F8E59B",
"V c #87AFF7",
"C c #FAECC4",
"Z c #FAECC5",
"A c #FAEDC5",
"S c #FFFFCC",
"D c #FFFFCD",
"F c #D7EFF7",
"G c #FFFFF8",
"H c #FFFFF9",
/* pixels */
"FFFFFFFFFFFFVxxxxxxVFFFFFFFFFFFFFFFFFFFFFFFFVxxxxxxVFFFFFFFFFFFF",
"FFFVxxxVFFFFFFVxxVFFFVxxxVFFFFFFFFFVxxxVFFFFFFVxxVFFFVxxxVFFFFFF",
"xxxxxxxxxxVFFFFFFFFFFFFFVxxxVFFVxxxxxxxxxxVFFFFFFFFFFFFFVxxxVFFV",
"xxxxxxxxxxxxVFFFFFFFFFFFFFVxxFVxxxxxxxxxxxxxVFFFFFFFFFFFFFVxxFVx",
"xxxxxxxxxxxxxVFFFFFFVxxxVFFVFFxxxxxxxxxxxxxxxVFFFFFFVxxxVFFVFFxx",
"xxxxxxxxxxxxxxVFFFFVxxxxxVFFFVxxxxxxxxxxxxxxxxVFFFFVxxxxxVFFFVxx",
"xxxxxxxxxxxxxxxVFFVxxxxxxxVFFxxxxxxxxxxxxxxxxxxVFFVxxxxxxxVFFxxx",
"xxxxxxxxxxxxxxxxFFxxxxxxxxxFFxxxxxxxxxxxxxxxxxxxFFxxxxxxxxxFFxxx",
"xxxxxxxxxxxxxxxxFFxxxxxxxxxVFxxxxxxxxxxxxxxxxxxxFFxxxxxxxxxVFxxx",
"xxxxxxxxxxxxxxxVFFxxxxxxxxxxFVxxxxxxxxxxxxxxxxxVFFxxxxxxxxxxFVxx",
"xxxxxxxxxxxxxxVFFFVxxxxxxxxVFFxxxxxxxxxxxxxxxxVFFFVxxxxxxxxVFFxx",
"xxxxxxxxxxxxxVFFxFFVxxxxxxVFFFVxxxxxxxxxxxxxxVFFxFFVxxxxxxVFFFVx",
"xxxxxxxxxxxxVFFxxxFFVxxxxVFFVFFVxxxxxxxxxxxxVFFxxxFFVxxxxVFFVFFV",
"xxxxxxxxxxxVFFFFFFFFFVxxVFFVxVFFxxxxxxxxxxxVFFFFFFFFFVxxVFFVxVFF",
"FFVxxxxxVFFFFFVxxxVFFFFFFFVxxxxxFFVxxxxxVFFFFFVxxxVFFFFFFFVxxxxx",
"xFFFFFFFFFFFVxxxxxxxVFFVxxxxF997:9FFFFFFFFFFVxxxxxxxVFFVxxxxFFFF",
"FFFFVxxxVFFVxxxxxxxxxVFFVxFF9frred8FVxxxVFFVxxxxxxxxxVFFVxFFFVVF",
"xxVFFFVxxFVxxxxxxxxxxxFFFFF,eklklzw8FFVxxFVxxxxxxxxxxxFFFFFVxxxx",
"xxxxVFFVFFxxxxxxxxxxxxVFFV=3BNBlBNM5<FFVFFxxxxxxxxxxxxVFFVxxxxxx",
"xxxxxVFFFVxxxxxxxxxxxxxFVx2BGGDgSGHM3VFFFVxxxxxxxxxxxxxFVxxxxxxx",
"xxxxxxVFFxxxxxxxxxxxxxxFV3NGGGSgSGGGN2VFFxxxxxxxxxxxxxxFVxxxxxxx",
"xxxxxxVFFVxxxxxxxxxxxxVFF6GGSzlnkzSGG4VFFVxxxxxxxxxxxxVFFVxxxxxx",
"xxxxxVFFFFVxxxxxxxxxxVFFF9GDzkvCcllSG>FFFFVxxxxxxxxxxVFFFFVxxxxx",
"xxxVFFFFFFFVxxxxxxxVFFFFF7SBlbqZqckBS7FFFFFVxxxxxxxVFFFFFFFFVxxx",
"FFFFFFFFFFFFVxxxxxxVFFFF9SNNkc*CmbzMNS9FFFFFVxxxxxxVFFFFFFFFFFFF",
"FFFVxxxVFFFFFFVxxVFFFVxx=DMNkq mC0kNND=VFFFFFFVxxVFFFVxxxVFFFFFF",
"xxxxxxxxxxVFFFFFFFFFFFFF,ytMb$.#Z*cNwy=xxxVFFFFFFFFFFFFFVxxxVFFV",
"xxxxxxxxxxxxVFFFFFFFFFFF7ytt&..jo.%tey:xxxxxVFFFFFFFFFFFFFVxxFVx",
"xxxxxxxxxxxxxVFFFFFFVxxx<itw% Xm. *twu:xxxxxxVFFFFFFVxxxVFFVFFxx",
"xxxxxxxxxxxxxxVFFFFVxxxxx1yr& @AO $ti=xxxxxxxxVFFFFVxxxxxVFFFVxx",
"xxxxxxxxxxxxxxxVFFVxxxxxx-iw$.@CO.&wy-xxxxxxxxxVFFVxxxxxxxVFFxxx",
"xxxxxxxxxxxxxxxxFFxxxxxxx-ir*.@Z+ $ty=xxxxxxxxxxFFxxxxxxxxxFFxxx",
"xxxxxxxxxxxxxxxxFFxxxxxxxx-t0$.j %0u:xxxxxxxxxxxFFxxxxxxxxxVFxxx",
"xxxxxxxxxxxxxxxVFFxxxxxxxx:rw0%j*0ti-xxxxxxxxxxVFFxxxxxxxxxxFVxx",
"xxxxxxxxxxxxxxVFFFVxxxxxxxx<trqh$wu=xxxxxxxxxxVFFFVxxxxxxxxVFFxx",
"xxxxxxxxxxxxxVFFxFFVxxxxxxV8tw0lwru:xxxxxxxxxVFFxFFVxxxxxxVFFFVx",
"xxxxxxxxxxxxVFFxxxFFVxxxxVFF<r0lwi:xxxxxxxxxVFFxxxFFVxxxxVFFVFFV",
"xxxxxxxxxxxVFFFFFFFFFVxxVFFV=ptlwy=xxxxxxxxVFFFFFFFFFVxxVFFVxVFF",
"FFVxxxxxVFFFFFVxxxVFFFFFFFVxx=azt9VxxxxxVFFFFFVxxxVFFFFFFFVxxxxx",
"xFFFFFFFFFFFVxxxxxxxVFFVxxxxFF9gt8FFFFFFFFFFVxxxxxxxVFFVxxxxFFFF",
"xxxVFFFFFFFFFFFFFFFFFFFFFFFFVx-je;xVFFFFFFFFFFFFFFFFFFFFFFFFVxxx",
"xVFFFVxxxVFFFFFFFFFVxxxVFFFFFF,a:VFFFVxxxVFFFFFFFFFVxxxVFFFFFFVx",
"FFFFFFFFVxxxVFFVxxxxxxxxxxVFFF9f9FFFFFFFVxxxVFFVxxxxxxxxxxVFFFFF",
"FFFFFFFFFFVxxFVxxxxxxxxxxxxxV9zg7FFFFFFFFFVxxFVxxxxxxxxxxxxxVFFF",
"FFFFVxxxVFFVFFxxxxxxxxxxxxxxx,kja9FFVxxxVFFVFFxxxxxxxxxxxxxxxVFF",
"FFFVxxxxxVFFFVxxxxxxxxxxxxxxxx,kjf8VxxxxxVFFFVxxxxxxxxxxxxxxxxVF",
"FFVxxxxxxxVFFxxxxxxxxxxxxxxxxx=sga<xxxxxxxVFFxxxxxxxxxxxxxxxxxxV",
"FFxxxxxxxxxFFxxxxxxxxxxxxxxxxxx=@9xxxxxxxxxFFxxxxxxxxxxxxxxxxxxx",
"FFxxxxxxxxxVFxxxxxxxxxxxxxxxxxxxFFxxxxxxxxxVFxxxxxxxxxxxxxxxxxxx",
"FFxxxxxxxxxxFVxxxxxxxxxxxxxxxxxVFFxxxxxxxxxxFVxxxxxxxxxxxxxxxxxV",
"FFVxxxxxxxxVFFxxxxxxxxxxxxxxxxVFFFVxxxxxxxxVFFxxxxxxxxxxxxxxxxVF",
"xFFVxxxxxxVFFFVxxxxxxxxxxxxxxVFFxFFVxxxxxxVFFFVxxxxxxxxxxxxxxVFF",
"xxFFVxxxxVFFVFFVxxxxxxxxxxxxVFFxxxFFVxxxxVFFVFFVxxxxxxxxxxxxVFFx",
"FFFFFVxxVFFVxVFFxxxxxxxxxxxVFFFFFFFFFVxxVFFVxVFFxxxxxxxxxxxVFFFF",
"xxVFFFFFFFVxxxxxFFVxxxxxVFFFFFVxxxVFFFFFFFVxxxxxFFVxxxxxVFFFFFVx",
"xxxxVFFVxxxxFFFFxFFFFFFFFFFFVxxxxxxxVFFVxxxxFFFFxFFFFFFFFFFFVxxx",
"xxxxxVFFVxFFFVVFFFFFVxxxVFFVxxxxxxxxxVFFVxFFFVVFFFFFVxxxVFFVxxxx",
"xxxxxxFFFFFVxxxxxxVFFFVxxFVxxxxxxxxxxxFFFFFVxxxxxxVFFFVxxFVxxxxx",
"xxxxxxVFFVxxxxxxxxxxVFFVFFxxxxxxxxxxxxVFFVxxxxxxxxxxVFFVFFxxxxxx",
"xxxxxxxFVxxxxxxxxxxxxVFFFVxxxxxxxxxxxxxFVxxxxxxxxxxxxVFFFVxxxxxx",
"xxxxxxxFVxxxxxxxxxxxxxVFFxxxxxxxxxxxxxxFVxxxxxxxxxxxxxVFFxxxxxxx",
"xxxxxxVFFVxxxxxxxxxxxxVFFVxxxxxxxxxxxxVFFVxxxxxxxxxxxxVFFVxxxxxx",
"xxxxxVFFFFVxxxxxxxxxxVFFFFVxxxxxxxxxxVFFFFVxxxxxxxxxxVFFFFVxxxxx",
"xxxVFFFFFFFFVxxxxxxVFFFFFFFVxxxxxxxVFFFFFFFFVxxxxxxVFFFFFFFVxxxx"
};
