/* XPM */
static char *result[] = {
/* columns rows colors chars-per-pixel */
"64 64 75 1 ",
"  c #583947",
". c #583A47",
"X c #593A47",
"o c #583A48",
"O c #62526B",
"+ c #9C594F",
"@ c #9D594F",
"# c #9D5A50",
"$ c #B17554",
"% c #8B5C63",
"& c #8B5C64",
"* c #8C5D64",
"= c #975F60",
"- c #975F62",
"; c #985F60",
": c #985F62",
"> c #986060",
", c #986061",
"< c #986161",
"1 c #9A6261",
"2 c #9B6261",
"3 c #986063",
"4 c #9B6362",
"5 c #9A6364",
"6 c #87667B",
"7 c #87667C",
"8 c #99777E",
"9 c #9A777F",
"0 c #A26961",
"q c #A36961",
"w c #A36A62",
"e c #A36B64",
"r c #A46B64",
"t c #A46C65",
"y c #AF8079",
"u c #B0807A",
"i c #E6924C",
"p c #E6934C",
"a c #E6934D",
"s c #E7934D",
"d c #ECB342",
"f c #ECB343",
"g c #ECB442",
"h c #ECB443",
"j c #EDB443",
"k c #C78E68",
"l c #C78E69",
"z c #C78F69",
"x c #C68E6A",
"c c #C78F6A",
"v c #C88F69",
"b c #E0B372",
"n c #E1B473",
"m c #EFC268",
"M c #F0C368",
"N c #F0C369",
"B c #6F8FE7",
"V c #B48D89",
"C c #CFA497",
"Z c #F0C995",
"A c #F1CA96",
"S c #F2CA96",
"D c #F7E49A",
"F c #F8E49B",
"G c #F8E59B",
"H c #ECCDBF",
"J c #87AFF7",
"K c #EDCEC0",
"L c #F9ECC4",
"P c #FAECC4",
"I c #FAECC5",
"U c #FAEDC5",
"Y c #FFFFCC",
"T c #FFFFCD",
"R c #D7EFF7",
/* pixels */
"RRRRRRRRRRRRJBBBBBBJRRRRRRRRRRRRRRRRRRRRRRRRJBBBBBBJRRRRRRRRRRRR",
"RRRJBBBJRRRRRRJBBJRRRJBBBJRRRRRRRRRJBBBJRRRRRRJBBJRRRJBBBJRRRRRR",
"BBBBBBBBBBJRRRRRRRRRRRRRJBBBJRRJBBBBBBBBBBJRRRRRRRRRRRRRJBBBJRRJ",
"BBBBBBBBBBBBJRRRRRRRRRRRRRJBBRJBBBBBBBBBBBBBJRRRRRRRRRRRRRJBBRJB",
"BBBBBBBBBBBBBJRRRRRRJBBBJRRJRRBBBBBBBBBBBBBBBJRRRRRRJBBBJRRJRRBB",
"BBBBBBBBBBBBBBJRRRRJBBBBBJRRRJBBBBBBBBBBBBBBBBJRRRRJBBBBBJRRRJBB",
"BBBBBBBBBBBBBBBJRRJBBBBBBBJRRBBBBBBBBBBBBBBBBBBJRRJBBBBBBBJRRBBB",
"BBBBBBBBBBBBBBBBRRBBBBBBBBBRRBBBBBBBBBBBBBBBBBBBRRBBBBBBBBBRRBBB",
"BBBBBBBBBBBBBBBBRRBBBBBBBBBJRBBBBBBBBBBBBBBBBBBBRRBBBBBBBBBJRBBB",
"BBBBBBBBBBBBBBBJRRBBBBBBBBBBRJBBBBBBBBBBBBBBBBBJRRBBBBBBBBBBRJBB",
"BBBBBBBBBBBBBBJRRRJBBBBBBBBJRRBBBBBBBBBBBBBBBBJRRRJBBBBBBBBJRRBB",
"BBBBBBBBBBBBBJRRBRRJBBBBBBJRRRJBBBBBBBBBBBBBBJRRBRRJBBBBBBJRRRJB",
"BBBBBBBBBBBBJRRBBBRRJBBBBJRRJRRJBBBBBBBBBBBBJRRBBBRRJBBBBJRRJRRJ",
"BBBBBBBBBBBJRRRRRRRRRJBBJRRJBJRRBBBBBBBBBBBJRRRRRRRRRJBBJRRJBJRR",
"RRJBBBBBJRRRRRJBBBJRRRRRRRJBBBBBRRJ,;,BBJRRRRRJBBBJRRRRRRRJBBBBB",
"BRRRRRRRRRRRJBBBBBBBJRRJBBBBRRRRBRrc@MrRRRRRJBBBBBBBJRRJBBBBRRRR",
"RRRRJBBBJRRJBBBBBBBBBJRRJBRRRJJRRRwmmv=BJRRJBBBBBBBBBJRRJBRRRJJR",
"BBJRRRJBBRJBBBBBBBBBBBRRRRRJBBBBB-zFzwJBBRJBBBBBBBBBBBRRRRRJBBBB",
"BBBBJRRJRRBBBBBBBBBBBBJRRJBBBBBB:xF<JRRJRRBBBBBBBBBBBBJRRJBBBBBB",
"BBBBBJRRRJBBBBBBBBBBBBBRJBBBBBBB=F>BBJRRRJBBBBBBBBBBBBBRJBBBBBBB",
"BBBBBBJRRBBBBBBBBBBBBBBRJBBBBBB:vm:BBBJRRBBBBBBBBBBBBBBRJBBBBBBB",
"BBBBBBJRRJBBBBBBBBBBBBJRRJBBBBB=zz,BBBJRRJBBBBBBBBBBBBJRRJBBBBBB",
"BBBBBJRRRRJBBBBBBBBBBJRRRRJBBB-iyl=BBJRRRRJBBBBBBBBBBJRRRRJBBBBB",
"BBBJRRRRRRRJBBBBBBBJRRRRRRRRJ3iyMu,JRRRRRRRJBBBBBBBJRRRRRRRRJBBB",
"RRRRRRRRRRRRJBBBBBBJRRRRRRRRtssyb&VeRRRRRRRRJBBBBBBJRRRRRRRRRRRR",
"RRRJBBBJRRRRRRJBBJRRRJBBBJRR0s**n%%2BBBJRRRRRRJBBJRRRJBBBJRRRRRR",
"BBBBBBBBBBJRRRRRRRRRRRRRJBB,sa&ob.&=BBBBBBJRRRRRRRRRRRRRJBBBJRRJ",
"BBBBBBBBBBBBJRRRRRRRRRRRRR5ia% .P..=BBBBBBBBJRRRRRRRRRRRRRJBBRJB",
"BBBBBBBBBBBBBJRRRRRRJBBBJR0is&..LZ.i:BBBBBBBBJRRRRRRJBBBJRRJRRBB",
"BBBBBBBBBBBBBBJRRRRJBBBBB5asi%..PS.a;BBBBBBBBBJRRRRJBBBBBJRRRJBB",
"BBBBBBBBBBBBBBBJRRJBBBBBB;sisy%@S+*p,BBBBBBBBBBJRRJBBBBBBBJRRBBB",
"BBBBBBBBBBBBBBBBRRBBBBBBB=iiamu@b@us,BBBBBBBBBBBRRBBBBBBBBBRRBBB",
"BBBBBBBBBBBBBBBBRRBBBBBB:imiNDG#$@DNs,BBBBBBBBBBRRBBBBBBBBBJRBBB",
"BBBBBBBBBBBBBBBJRRBBBBBB:smFYYF$MIYDi=BBBBBBBBBJRRBBBBBBBBBBRJBB",
"BBBBBBBBBBBBBBJRRRJBBBBB=MGYYYGAPYTGp,BBBBBBBBJRRRJBBBBBBBBJRRBB",
"BBBBBBBBBBBBBJRRBRRJBBBB=mYYYYFPFYYTMi-BBBBBBJRRBRRJBBBBBBJRRRJB",
"BBBBBBBBBBBBJRRBBBRRJBBBB4YYDFjIgGTYFs,BBBBBJRRBBBRRJBBBBJRRJRRJ",
"BBBBBBBBBBBJRRRRRRRRRJBBJ0TFNMCUdMFYDi,BBBBJRRRRRRRRRJBBJRRJBJRR",
"RRJBBBBBJRRRRRJBBBJRRRRRRqDDNMjfdjgFGi:BJRRRRRJBBBJRRRRRRRJBBBBB",
"BRRRRRRRRRRRJBBBBBBBJRRJB;6*sMjMSNgma*8RRRRRJBBBBBBBJRRJBBBBRRRR",
"BBBJRRRRRRRRRRRRRRRRRRRRRR9K*djNMmjd*H9RRRRRRRRRRRRRRRRRRRRRJBBB",
"BJRRRJBBBJRRRRRRRRRJBBBJRR9X%ijjjdhi*O7BBJRRRRRRRRRJBBBJRRRRRRJB",
"RRRRRRRRJBBBJRRJBBBBBBBBBB18siisiiaai8RRJBBBJRRJBBBBBBBBBBJRRRRR",
"RRRRRRRRRRJBBRJBBBBBBBBBBBB=sapiiiapzwRRRRJBBRJBBBBBBBBBBBBBJRRR",
"RRRRJBBBJRRJRRBBBBBBBBBBBBBB,psddjaz4BBBJRRJRRBBBBBBBBBBBBBBBJRR",
"RRRJBBBBBJRRRJBBBBBBBBBBBBBBB;kjjdz4BBBBBJRRRJBBBBBBBBBBBBBBBBJR",
"RRJBBBBBBBJRRBBBBBBBBBBBBBBBBB,@++4BBBBBBBJRRBBBBBBBBBBBBBBBBBBJ",
"RRBBBBBBBBBRRBBBBBBBBBBBBBBBBBBBRRBBBBBBBBBRRBBBBBBBBBBBBBBBBBBB",
"RRBBBBBBBBBJRBBBBBBBBBBBBBBBBBBBRRBBBBBBBBBJRBBBBBBBBBBBBBBBBBBB",
"RRBBBBBBBBBBRJBBBBBBBBBBBBBBBBBJRRBBBBBBBBBBRJBBBBBBBBBBBBBBBBBJ",
"RRJBBBBBBBBJRRBBBBBBBBBBBBBBBBJRRRJBBBBBBBBJRRBBBBBBBBBBBBBBBBJR",
"BRRJBBBBBBJRRRJBBBBBBBBBBBBBBJRRBRRJBBBBBBJRRRJBBBBBBBBBBBBBBJRR",
"BBRRJBBBBJRRJRRJBBBBBBBBBBBBJRRBBBRRJBBBBJRRJRRJBBBBBBBBBBBBJRRB",
"RRRRRJBBJRRJBJRRBBBBBBBBBBBJRRRRRRRRRJBBJRRJBJRRBBBBBBBBBBBJRRRR",
"BBJRRRRRRRJBBBBBRRJBBBBBJRRRRRJBBBJRRRRRRRJBBBBBRRJBBBBBJRRRRRJB",
"BBBBJRRJBBBBRRRRBRRRRRRRRRRRJBBBBBBBJRRJBBBBRRRRBRRRRRRRRRRRJBBB",
"BBBBBJRRJBRRRJJRRRRRJBBBJRRJBBBBBBBBBJRRJBRRRJJRRRRRJBBBJRRJBBBB",
"BBBBBBRRRRRJBBBBBBJRRRJBBRJBBBBBBBBBBBRRRRRJBBBBBBJRRRJBBRJBBBBB",
"BBBBBBJRRJBBBBBBBBBBJRRJRRBBBBBBBBBBBBJRRJBBBBBBBBBBJRRJRRBBBBBB",
"BBBBBBBRJBBBBBBBBBBBBJRRRJBBBBBBBBBBBBBRJBBBBBBBBBBBBJRRRJBBBBBB",
"BBBBBBBRJBBBBBBBBBBBBBJRRBBBBBBBBBBBBBBRJBBBBBBBBBBBBBJRRBBBBBBB",
"BBBBBBJRRJBBBBBBBBBBBBJRRJBBBBBBBBBBBBJRRJBBBBBBBBBBBBJRRJBBBBBB",
"BBBBBJRRRRJBBBBBBBBBBJRRRRJBBBBBBBBBBJRRRRJBBBBBBBBBBJRRRRJBBBBB",
"BBBJRRRRRRRRJBBBBBBJRRRRRRRJBBBBBBBJRRRRRRRRJBBBBBBJRRRRRRRJBBBB"
};
