/* XPM */
static char *result[] = {
/* columns rows colors chars-per-pixel */
"64 64 72 1 ",
"  c #583947",
". c #583A47",
"X c #583A48",
"o c #715D68",
"O c #9C594F",
"+ c #9D594F",
"@ c #9D5A50",
"# c #975F5E",
"$ c #985F5E",
"% c #985F5F",
"& c #B07553",
"* c #B17554",
"= c #8B5C63",
"- c #8B5D63",
"; c #8B5C64",
": c #8C5C64",
"> c #8C5D64",
", c #975F61",
"< c #985F61",
"1 c #986061",
"2 c #9B6361",
"3 c #9B6262",
"4 c #86657B",
"5 c #8A6A7D",
"6 c #98757D",
"7 c #99767D",
"8 c #A26860",
"9 c #A36860",
"0 c #A36961",
"q c #A26962",
"w c #A36962",
"e c #A36A63",
"r c #AF8079",
"t c #B0807A",
"y c #E6924C",
"u c #E6934C",
"i c #E6934D",
"p c #E7934D",
"a c #ECB342",
"s c #ECB442",
"d c #EDB443",
"f c #C78E68",
"g c #C78F69",
"h c #C88F69",
"j c #E0B372",
"k c #E1B473",
"l c #EFC268",
"z c #F0C368",
"x c #F0C369",
"c c #6F8FE7",
"v c #A88287",
"b c #AB8689",
"n c #B58D89",
"m c #CEA497",
"M c #F0C895",
"N c #F1CA95",
"B c #F1CA96",
"V c #F2CA96",
"C c #F7E39A",
"Z c #F7E49A",
"A c #F8E49B",
"S c #F8E59B",
"D c #EDCEBF",
"F c #87AFF7",
"G c #EDCEC0",
"H c #F9ECC4",
"J c #FAECC4",
"K c #FAECC5",
"L c #FAEDC5",
"P c #FFFFCC",
"I c #FFFFCD",
"U c #D7EFF7",
/* pixels */
"UUUUUUUUUUUUFccccccFUUUUUUUUUUUUUUUUUUUUUUUUFccccccFUUUUUUUUUUUU",
"UUUFcccFUUUUUUFccFUUUFcccFUUUUUUUUUFcccFUUUUUUFccFUUUFcccFUUUUUU",
"ccccccccccFUUUUUUUUUUUUUFcccFUUFccccccccccFUUUUUUUUUUUUUFcccFUUF",
"ccccccccccccFUUUUUUUUUUUUUFccUFcccccccccccccFUUUUUUUUUUUUUFccUFc",
"cccccccccccccFUUUUUUFcccFUUFUUcccccccccccccccFUUUUUUFcccFUUFUUcc",
"ccccccccccccccFUUUUFcccccFUUUFccccccccccccccccFUUUUFcccccFUUUFcc",
"cccccccccccccccFUUFcccccccFUUccccccccccccccccccFUUFcccccccFUUccc",
"ccccccccccccccccUUcccccccccUUcccccccccccccccccccUUcccccccccUUccc",
"ccccccccccccccccUUcccccccccFUcccccccccccccccccccUUcccccccccFUccc",
"cccccccccccccccFUUccccccccccUFcccccccccccccccccFUUccccccccccUFcc",
"ccccccccccccccFUUUFccccccccFUUccccccccccccccccFUUUFccccccccFUUcc",
"cccccccccccccFUUcUUFccccccFUUUFccccccccccccccFUUcUUFccccccFUUUFc",
"ccccccccccccFUUcccUUFccccFUUFUUFccccccccccccFUUcccUUFccccFUUFUUF",
"cccccccccccFUUUUUUUUUFccFUUFcFUUcccccccccccFUUUUUUUUUFccFUUFcFUU",
"UUFcccccFUUUUUFcccFUUUUUUUFcccc%w9FcccccFUUUUUFcccFUUUUUUUFccccc",
"cUUUUUUUUUUUFcccccccFUUFccccUUeg@xqUUUUUUUUUFcccccccFUUFccccUUUU",
"UUUUFcccFUUFcccccccccFUUFcUUUF3zlg9UFcccFUUFcccccccccFUUFcUUUFFU",
"ccFUUUFccUFcccccccccccUUUUUFc1gSf#FUUUFccUFcccccccccccUUUUUFcccc",
"ccccFUUFUUccccccccccccFUUFccc%gZ#cccFUUFUUccccccccccccFUUFcccccc",
"cccccFUUUFcccccccccccccUFccccc$S#ccccFUUUFcccccccccccccUFccccccc",
"ccccccFUUccccccccccccccUFccccc%x#cccccFUUccccccccccccccUFccccccc",
"ccccccFUUFccccccccccccFUUFcccc%ff1ccccFUUFccccccccccccFUUFcccccc",
"cccccFUUUUFccccccccccFUUUUFccc%rg#cccFUUUUFccccccccccFUUUUFccccc",
"cccFUUUUUUUFcccccccFUUUUUUUUF,vzr#cFUUUUUUUFcccccccFUUUUUUUUFccc",
"UUUUUUUUUUUUFccccccFUUUUUUUUw6rj>neUUUUUUUUUFccccccFUUUUUUUUUUUU",
"UUUFcccFUUUUUUFccFUUUFcccFUU0>>j>=wFcccFUUUUUUFccFUUUFcccFUUUUUU",
"ccccccccccFUUUUUUUUUUUUUFcc1b>.k.>v%ccccccFUUUUUUUUUUUUUFcccFUUF",
"ccccccccccccFUUUUUUUUUUUUUF$= .L..=#ccccccccFUUUUUUUUUUUUUFccUFc",
"cccccccccccccFUUUUUUFcccFUey=..LM.=p,ccccccccFUUUUUUFcccFUUFUUcc",
"ccccccccccccccFUUUUFcccccF0p:.XKB.>i<cccccccccFUUUUFcccccFUUUFcc",
"cccccccccccccccFUUFcccccc<pit=+V@=tpy,cccccccccFUUFcccccccFUUccc",
"ccccccccccccccccUUccccccc$pylt+j@rlyp%ccccccccccUUcccccccccUUccc",
"ccccccccccccccccUUccccccc%yzZS@&@ZAzp$ccccccccccUUcccccccccFUccc",
"cccccccccccccccFUUcccccc1pxAPPC*KPPZzy,ccccccccFUUccccccccccUFcc",
"ccccccccccccccFUUUFccccc#yAIIPSNJPPIZy%cccccccFUUUFccccccccFUUcc",
"cccccccccccccFUUcUUFcccc$lPIPPAKAPPIPl%ccccccFUUcUUFccccccFUUUFc",
"ccccccccccccFUUcccUUFccc#xPPASdJdZZPPl%cccccFUUcccUUFccccFUUFUUF",
"cccccccccccFUUUUUUUUUFcc2xPAlxmHazlZIz%ccccFUUUUUUUUUFccFUUFcFUU",
"UUFcccccFUUUUUFcccFUUUUUU8ZlladddazzZ%ccFUUUUUFcccFUUUUUUUFccccc",
"cUUUUUUUUUUUFcccccccFUUFc4>yldzVldzp-7UUUUUUFcccccccFUUFccccUUUU",
"cccFUUUUUUUUUUUUUUUUUUUUU6D=adzlxda;G6UUUUUUUUUUUUUUUUUUUUUUFccc",
"cFUUUFcccFUUUUUUUUUFcccFU6o>uasaday=o5cccFUUUUUUUUUFcccFUUUUUUFc",
"UUUUUUUUFcccFUUFcccccccccc5iipyuyyyp6UUUFcccFUUFccccccccccFUUUUU",
"UUUUUUUUUUFccUFccccccccccc$pyiyppipf9UUUUUFccUFcccccccccccccFUUU",
"UUUUFcccFUUFUUccccccccccccc%upaadpg8FcccFUUFUUcccccccccccccccFUU",
"UUUFcccccFUUUFcccccccccccccc%hsdag8FcccccFUUUFccccccccccccccccFU",
"UUFcccccccFUUcccccccccccccccc$OO@8FcccccccFUUccccccccccccccccccF",
"UUcccccccccUUcccccccccccccccccccUUcccccccccUUccccccccccccccccccc",
"UUcccccccccFUcccccccccccccccccccUUcccccccccFUccccccccccccccccccc",
"UUccccccccccUFcccccccccccccccccFUUccccccccccUFcccccccccccccccccF",
"UUFccccccccFUUccccccccccccccccFUUUFccccccccFUUccccccccccccccccFU",
"cUUFccccccFUUUFccccccccccccccFUUcUUFccccccFUUUFccccccccccccccFUU",
"ccUUFccccFUUFUUFccccccccccccFUUcccUUFccccFUUFUUFccccccccccccFUUc",
"UUUUUFccFUUFcFUUcccccccccccFUUUUUUUUUFccFUUFcFUUcccccccccccFUUUU",
"ccFUUUUUUUFcccccUUFcccccFUUUUUFcccFUUUUUUUFcccccUUFcccccFUUUUUFc",
"ccccFUUFccccUUUUcUUUUUUUUUUUFcccccccFUUFccccUUUUcUUUUUUUUUUUFccc",
"cccccFUUFcUUUFFUUUUUFcccFUUFcccccccccFUUFcUUUFFUUUUUFcccFUUFcccc",
"ccccccUUUUUFccccccFUUUFccUFcccccccccccUUUUUFccccccFUUUFccUFccccc",
"ccccccFUUFccccccccccFUUFUUccccccccccccFUUFccccccccccFUUFUUcccccc",
"cccccccUFccccccccccccFUUUFcccccccccccccUFccccccccccccFUUUFcccccc",
"cccccccUFcccccccccccccFUUccccccccccccccUFcccccccccccccFUUccccccc",
"ccccccFUUFccccccccccccFUUFccccccccccccFUUFccccccccccccFUUFcccccc",
"cccccFUUUUFccccccccccFUUUUFccccccccccFUUUUFccccccccccFUUUUFccccc",
"cccFUUUUUUUUFccccccFUUUUUUUFcccccccFUUUUUUUUFccccccFUUUUUUUFcccc"
};
