/* XPM */
static char *result[] = {
/* columns rows colors chars-per-pixel */
"64 64 66 1 ",
"  c #583947",
". c #583A47",
"X c #583A48",
"o c #9C594F",
"O c #9D5A50",
"+ c #B17654",
"@ c #8B5C63",
"# c #8B5C64",
"$ c #8C5C64",
"% c #8C5D64",
"& c #975F60",
"* c #985F60",
"= c #985F62",
"- c #986061",
"; c #9A6261",
": c #9B6362",
"> c #9A6364",
", c #86657B",
"< c #86657C",
"1 c #87667C",
"2 c #8A6B7F",
"3 c #A26961",
"4 c #A36961",
"5 c #A36A62",
"6 c #AF7F79",
"7 c #AF8079",
"8 c #B08079",
"9 c #B0807A",
"0 c #E6924C",
"q c #E6934C",
"w c #E6934D",
"e c #E7934D",
"r c #ECB342",
"t c #ECB442",
"y c #ECB443",
"u c #EDB443",
"i c #C78E68",
"p c #C78F69",
"a c #C88F69",
"s c #E0B372",
"d c #E0B472",
"f c #E1B473",
"g c #EFC268",
"h c #F0C268",
"j c #F0C368",
"k c #F0C369",
"l c #6F8FE7",
"z c #CEA497",
"x c #CFA497",
"c c #CFA597",
"v c #CFA598",
"b c #F1C995",
"n c #F1CA95",
"m c #F1CA96",
"M c #F2CA96",
"N c #F7E49A",
"B c #F8E49B",
"V c #F8E59B",
"C c #87AFF7",
"Z c #FAECC4",
"A c #FAECC5",
"S c #FFFFCC",
"D c #FFFFCD",
"F c #D7EFF7",
"G c #FFFFF8",
"H c #FFFFF9",
/* pixels */
"FFFFFFFFFFFFCllllllCFFFFFFFFFFFFFFFFFFFFFFFFCllllllCFFFFFFFFFFFF",
"FFFClllCFFFFFFCllCFFFClllCFFFFFFFFFClllCFFFFFFCllCFFFClllCFFFFFF",
"llllllllllCFFFFFFFFFFFFFClllCFFCllllllllllCFFFFFFFFFFFFFClllCFFC",
"llllllllllllCFFFFFFFFFFFFFCllFClllllllllllllCFFFFFFFFFFFFFCllFCl",
"lllllllllllllCFFFFFFClllCFFCFFlllllllllllllllCFFFFFFClllCFFCFFll",
"llllllllllllllCFFFFClllllCFFFCllllllllllllllllCFFFFClllllCFFFCll",
"lllllllllllllllCFFClllllllCFFllllllllllllllllllCFFClllllllCFFlll",
"llllllllllllllllFFlllllllllFFlllllllllllllllllllFFlllllllllFFlll",
"llllllllllllllllFFlllllllllCFlllllllllllllllllllFFlllllllllCFlll",
"lllllllllllllllCFFllllllllllFClllllllllllllllllCFFllllllllllFCll",
"llllllllllllllCFFFCllllllllCFFllllllllllllllllCFFFCllllllllCFFll",
"lllllllllllllCFFlFFCllllllCFFFCllllllllllllllCFFlFFCllllllCFFFCl",
"llllllllllllCFFlllFFCllllCFFCFFCllllllllllllCFFlllFFCllllCFFCFFC",
"lllllllllllCFFFFFFFFFCllCFFClCFFlllllllllllCFFFFFFFFFCllCFFClCFF",
"FFClllllCFFFFFClllCFFFFFFFClllllFFClllllCFFFFFClllCFFFFFFFClllll",
"lFFFFFFFFFFFClllllllCFFCllllF355-3FFFFFFFFFFClllllllCFFCllllFFFF",
"FFFFClllCFFClllllllllCFFClFF5ie0wa5FClllCFFClllllllllCFFClFFFCCF",
"llCFFFCllFClllllllllllFFFFF:egjkjge5FFCllFClllllllllllFFFFFCllll",
"llllCFFCFFllllllllllllCFFC*1BNVjBBN,>FFCFFllllllllllllCFFCllllll",
"lllllCFFFClllllllllllllFC-1BGGSsSGGN1CFFFClllllllllllllFClllllll",
"llllllCFFllllllllllllllFC<BGGGSsSGGGV1CFFllllllllllllllFClllllll",
"llllllCFFCllllllllllllCFF2GGShgbkjSGH<CFFCllllllllllllCFFCllllll",
"lllllCFFFFCllllllllllCFF5BGSjkzAxkgDG:FFFFCllllllllllCFFFFClllll",
"lllCFFFFFFFClllllllCFFFF5DSBjc8Z9xjBS5FFFFFClllllllCFFFFFFFFClll",
"FFFFFFFFFFFFCllllllCFFFF5DNBj9%ZMxgBB5FFFFFFCllllllCFFFFFFFFFFFF",
"FFFClllCFFFFFFCllCFFFCll&SVBx@.nZ9jVB&lCFFFFFFCllCFFFClllCFFFFFF",
"llllllllllCFFFFFFFFFFFF4rwev%..+Z%xBq*llllCFFFFFFFFFFFFFClllCFFC",
"llllllllllllCFFFFFFFFFF4reqc$XXs @qe*lllllllCFFFFFFFFFFFFFCllFCl",
"lllllllllllllCFFFFFFCll-tee% .om.@er*llllllllCFFFFFFClllCFFCFFll",
"llllllllllllllCFFFFClll-ree%..ob.%er-lllllllllCFFFFClllllCFFFCll",
"lllllllllllllllCFFClllll-00#. ob.%0*lllllllllllCFFClllllllCFFlll",
"llllllllllllllllFFllllll&ue%..OX.@u-llllllllllllFFlllllllllFFlll",
"llllllllllllllllFFllllll=ye6..sX@7r-llllllllllllFFlllllllllCFlll",
"lllllllllllllllCFFlllllll*09%.d%70u&lllllllllllCFFllllllllllFCll",
"llllllllllllllCFFFCllllll&e07@s%e0*lllllllllllCFFFCllllllllCFFll",
"lllllllllllllCFFlFFCllllll:ee97j0u-llllllllllCFFlFFCllllllCFFFCl",
"llllllllllllCFFlllFFCllllCF4w97g0u-lllllllllCFFlllFFCllllCFFCFFC",
"lllllllllllCFFFFFFFFFCllCFF:0e0gwu&llllllllCFFFFFFFFFCllCFFClCFF",
"FFClllllCFFFFFClllCFFFFFFFCl*aqeg5ClllllCFFFFFClllCFFFFFFFClllll",
"lFFFFFFFFFFFClllllllCFFCllllF5aeg3FFFFFFFFFFClllllllCFFCllllFFFF",
"lllCFFFFFFFFFFFFFFFFFFFFFFFFCl&fk*lCFFFFFFFFFFFFFFFFFFFFFFFFClll",
"lCFFFClllCFFFFFFFFFClllCFFFFFF:ss;FFFClllCFFFFFFFFFClllCFFFFFFCl",
"FFFFFFFFClllCFFCllllllllllCFFFF3s5FFFFFFClllCFFCllllllllllCFFFFF",
"FFFFFFFFFFCllFClllllllllllllCFF5ks3FFFFFFFCllFClllllllllllllCFFF",
"FFFFClllCFFCFFlllllllllllllllCFF4gdp:lllCFFCFFlllllllllllllllCFF",
"FFFClllllCFFFCllllllllllllllllCFF5ifa-lllCFFFCllllllllllllllllCF",
"FFClllllllCFFllllllllllllllllllCF3pfp-llllCFFllllllllllllllllllC",
"FFlllllllllFFlllllllllllllllllllFF-O-llllllFFlllllllllllllllllll",
"FFlllllllllCFlllllllllllllllllllFFlllllllllCFlllllllllllllllllll",
"FFllllllllllFClllllllllllllllllCFFllllllllllFClllllllllllllllllC",
"FFCllllllllCFFllllllllllllllllCFFFCllllllllCFFllllllllllllllllCF",
"lFFCllllllCFFFCllllllllllllllCFFlFFCllllllCFFFCllllllllllllllCFF",
"llFFCllllCFFCFFCllllllllllllCFFlllFFCllllCFFCFFCllllllllllllCFFl",
"FFFFFCllCFFClCFFlllllllllllCFFFFFFFFFCllCFFClCFFlllllllllllCFFFF",
"llCFFFFFFFClllllFFClllllCFFFFFClllCFFFFFFFClllllFFClllllCFFFFFCl",
"llllCFFCllllFFFFlFFFFFFFFFFFClllllllCFFCllllFFFFlFFFFFFFFFFFClll",
"lllllCFFClFFFCCFFFFFClllCFFClllllllllCFFClFFFCCFFFFFClllCFFCllll",
"llllllFFFFFCllllllCFFFCllFClllllllllllFFFFFCllllllCFFFCllFClllll",
"llllllCFFCllllllllllCFFCFFllllllllllllCFFCllllllllllCFFCFFllllll",
"lllllllFCllllllllllllCFFFClllllllllllllFCllllllllllllCFFFCllllll",
"lllllllFClllllllllllllCFFllllllllllllllFClllllllllllllCFFlllllll",
"llllllCFFCllllllllllllCFFCllllllllllllCFFCllllllllllllCFFCllllll",
"lllllCFFFFCllllllllllCFFFFCllllllllllCFFFFCllllllllllCFFFFClllll",
"lllCFFFFFFFFCllllllCFFFFFFFClllllllCFFFFFFFFCllllllCFFFFFFFCllll"
};
