/* XPM */
static char *result[] = {
/* columns rows colors chars-per-pixel */
"64 64 242 2 ",
"   c #2A3A1E",
".  c #2B221D",
"X  c #241B25",
"o  c #083925",
"O  c #192B25",
"+  c #242624",
"@  c #263B24",
"#  c #2D382F",
"$  c #11291E",
"%  c #751136",
"&  c #7A163B",
"*  c #7D183D",
"=  c #4C3633",
"-  c #682935",
";  c #2D491B",
":  c #3A660D",
">  c #29661E",
",  c #357614",
"<  c #024424",
"1  c #064C24",
"2  c #174824",
"3  c #095225",
"4  c #1E5729",
"5  c #124F30",
"6  c #244424",
"7  c #244924",
"8  c #294924",
"9  c #284527",
"0  c #245324",
"q  c #255C24",
"w  c #275626",
"e  c #2B5239",
"r  c #344F30",
"t  c #166924",
"y  c #0D7B24",
"u  c #1D7424",
"i  c #147D24",
"p  c #197826",
"a  c #167A36",
"s  c #0F6E31",
"d  c #246424",
"f  c #296523",
"g  c #246C24",
"h  c #2A6A25",
"j  c #266A2B",
"k  c #336929",
"l  c #247124",
"z  c #267329",
"x  c #2E6A37",
"c  c #366B3A",
"v  c #2A7437",
"b  c #367536",
"n  c #186B1D",
"m  c #51751B",
"M  c #4D4D35",
"N  c #486B26",
"B  c #466437",
"V  c #4D742D",
"C  c #656622",
"Z  c #313652",
"A  c #3C206A",
"S  c #3C2765",
"D  c #773144",
"F  c #41256E",
"G  c #462B74",
"H  c #4D347A",
"J  c #51357F",
"K  c #44376B",
"L  c #60284C",
"P  c #2D5241",
"I  c #32524D",
"U  c #3B6342",
"Y  c #2F7252",
"T  c #397063",
"R  c #2D6357",
"E  c #4C554D",
"W  c #764A4C",
"Q  c #6F544A",
"!  c #4F734C",
"~  c #756C4F",
"^  c #4D516F",
"/  c #41796F",
"(  c #52706F",
")  c #6B7463",
"_  c #821E43",
"`  c #89264A",
"'  c #9D3A5E",
"]  c #99365A",
"[  c #8F3252",
"{  c #9F3D61",
"}  c #A13D62",
"|  c #894757",
" . c #9B5063",
".. c #A9476A",
"X. c #B75478",
"o. c #AE4F71",
"O. c #91776D",
"+. c #B06A7C",
"@. c #008A1E",
"#. c #09841F",
"$. c #199D18",
"%. c #3A870C",
"&. c #329114",
"*. c #3DB50C",
"=. c #2CB61D",
"-. c #36B614",
";. c #35AB0E",
":. c #0C8524",
">. c #018D23",
",. c #078826",
"<. c #158429",
"1. c #009124",
"2. c #01932A",
"3. c #009A2C",
"4. c #049825",
"5. c #0E8C37",
"6. c #148837",
"7. c #0B9134",
"8. c #019C32",
"9. c #079537",
"0. c #139837",
"q. c #199F23",
"w. c #02A12F",
"e. c #1CB52D",
"r. c #01A335",
"t. c #01A53C",
"y. c #00AB3E",
"u. c #08A939",
"i. c #0BB43C",
"p. c #16B937",
"a. c #19A82B",
"s. c #25B625",
"d. c #3CB727",
"f. c #22B02E",
"g. c #1F9C29",
"h. c #468809",
"j. c #479402",
"k. c #4E890F",
"l. c #4BAB01",
"z. c #46A904",
"x. c #46B402",
"c. c #49B400",
"v. c #43B50A",
"b. c #4DB50B",
"n. c #48BA05",
"m. c #52B400",
"M. c #55B800",
"N. c #47A919",
"B. c #47B315",
"V. c #55AE15",
"C. c #4B9730",
"Z. c #58BB23",
"A. c #55AC2C",
"S. c #61BE2B",
"D. c #67A120",
"F. c #1AC232",
"G. c #27C226",
"H. c #37C014",
"J. c #51C300",
"K. c #6AC23B",
"L. c #079A42",
"P. c #108F48",
"I. c #01AC43",
"U. c #03A746",
"Y. c #01B346",
"T. c #00B44A",
"R. c #01BA4C",
"E. c #07B844",
"W. c #01B552",
"Q. c #00BA52",
"!. c #09AD4B",
"~. c #2F8E6C",
"^. c #2EAB74",
"/. c #21A25B",
"(. c #4C9050",
"). c #56AA4B",
"_. c #518D76",
"`. c #718E6F",
"'. c #55A870",
"]. c #78A179",
"[. c #659C55",
"{. c #02C54C",
"}. c #00C953",
"|. c #79C853",
" X c #899066",
".X c #81A279",
"XX c #89845C",
"oX c #91CD76",
"OX c #553983",
"+X c #5B4289",
"@X c #5C5386",
"#X c #664B94",
"$X c #654A93",
"%X c #695394",
"&X c #4D7A8F",
"*X c #727192",
"=X c #785CA6",
"-X c #5974AD",
";X c #7C63AA",
":X c #7F71A3",
">X c #396C87",
",X c #B67383",
"<X c #8970B5",
"1X c #C25D82",
"2X c #D16D91",
"3X c #D9779A",
"4X c #CB6D8E",
"5X c #E37EA3",
"6X c #957AC4",
"7X c #39918A",
"8X c #2FA689",
"9X c #509490",
"0X c #619E84",
"qX c #72828C",
"wX c #72B08A",
"eX c #548BB1",
"rX c #5F9D97",
"tX c #5FCF90",
"yX c #5A92C5",
"uX c #6A8CDB",
"iX c #6989D7",
"pX c #6B91D9",
"aX c #688DC8",
"sX c #6F8FE7",
"dX c #6D90E5",
"fX c #7DABE6",
"gX c #73B0DF",
"hX c #83AA8E",
"jX c #918CB3",
"kX c #B38288",
"lX c #D78499",
"zX c #9BD58A",
"xX c #9DD2AB",
"cX c #9D86C9",
"vX c #A890D4",
"bX c #87AFF7",
"nX c #82ABEC",
"mX c #B6D6D2",
"MX c #B7E4CF",
"NX c #CBE6E9",
"BX c #D7EFF7",
"VX c #C9DFE6",
/* pixels */
"BXBXBXBXBXBXBXBXBXBXBXBXbXsXsXsXdXdXdXfXBXBXBXBXBXBXBXBXBXBXBXBXBXBXBXNX|.K.K.K.S.|.S.K.).Z.'.dXsXsXsXbXBXBXBXBXBXBXBXBXBXBXBXBX",
"BXBXBXbXsXsXsXbXBXBXBXBXzXzXwX0X0XwXzXzXzX8X8X8X~.fXBXBXBXBXMXtXzXzXzXwX).B.c.x.b.b.b.b.b.V.A.'.pXbXBXBXBXbXsXsXsXbXBXBXBXBXBXBX",
"sXsXsXsXsXsXsXsXsXsXgXtXd.d.Z.d.d.Z.d.N.Z.w.I.r.1.8XyXsXfXMXtXY.e.B.V.B.A.b.x.c.c.x.c.c.c.V.K.K.zXxXMXBXBXBXBXBXbXsXsXsXbXBXBXbX",
"sXsXsXsXsXsXsXsXsXdX8XT.T.W.T.T.T.W.t.,.8.2.>.2.0.y.8XdXpX'.R.Y.W.s.c.c.x.c.c.x.c.c.x.x.c.c.n.K.K.K.|.NXBXBXBXBXBXBXbXsXsXBXbXsX",
"sXsXsXsXsXsXsXsXsX^.W.T.R.T.T.T.T.T.T.U.T.I.I.I.!.u.!.~.hX/.y.3.T.!.s.m.x.c.c.c.x.c.c.c.c.c.c.b.M.K.|.|.fXdXsXsXbXBXBXbXBXBXsXsX",
"sXsXsXsXsXsXsXpX0Xi.W.Y.r.T.T.T.Y.s.=.=.s.=.e.Q.Q.8.#.<./.f.3.>.8.T.T.s.x.c.x.c.c.c.x.c.c.c.c.c.c.M.Z.A.^.eXsXdXsXbXBXBXBXbXsXsX",
"sXsXsXsXsXsXpX0Xd.E.Q.y.:.r.Y.R.T.=.v.*.v.b.s.Q.T.9.> g E.r.@.>.@.8.T.T.=.x.c.c.c.x.c.c.c.x.c.c.c.c.n.A.F./.yXdXsXsXbXBXBXsXsXsX",
"sXsXsXsXsXsX0Xd.T.I.R.9.g :.r.R.Y.T.T.Y.T.T.T.Y.R.<.; 4 !.r.@.>.4.@.8.T.W.=.m.c.c.x.c.x.c.c.c.c.c.c.c.c.p.I./.dXsXsXsXBXBXsXsXsX",
"sXsXsXsXsXdX8Xi.T.8.3.4.:.4 d <.3.w.w.3.w.w.w.3.p 0 j t.8.1.>.2.>.>.1.8.T.E.s.M.m.m.m.l.c.c.c.c.x.m.v.p.r.6._.sXsXsXsXbXBXsXsXsX",
"sXsXsXsXsXdX7XW.T.2.@.1.1.t 8 q :.n n t t t n n h 9 s y.>.>.1.>.1.1.>.>.8.T.T.s.s.s.-.c.c.c.c.c.m.*.p.y.,.v &XeXdXsXsXsXBXbXsXsX",
"sXsXsXsXdXaX^.T.y.2.>.>.,.l q 7 f 8 @ 6 6   6 7 d q t 1.1.1.1.1.1.1.1.1.@.8.T.W.W.W.i.*.c.c.v.*.v.e.L.,.u c T T -XuXsXbXBXBXsXsX",
"sXsXsXsXiX/.I.I.>.>.4.,.l g l d 7 6 8 7 7 6 4 g 6 y 4.1.1.>.1.1.1.1.>.1.1.>.3.T.T.T.Y.Y.*.m.*.Y.R.0.d g g g v / T eXbXBXBXBXbXsX",
"sXsXsXsXpXP.4.3.@.1.:.u g l d 0 6 7 7 7 7 6 d d 6 y 4.>.>.1.1.>.>.1.>.1.1.>.1.8.8.I.Q.Q.E.a.$.8.5.z d g g g g v Y 9XxXNXbXBXBXbX",
"sXsXsXsXuX~.:.1.1.:.u h g d 7 6 7 7 6 7 6 6 0 q @ y 4.@.1.1.1.1.1.1.1.1.>.1.>.>.@.3.r.r.t.8.>.i g d g g g g g g c (._.nXsXbXBXBX",
"BXBXbXsXpX&X6.1.,.l h l d 7 6 7 7 6 7 7 7 7 6 6 4 :.3.1.>.1.>.>.>.1.1.1.1.>.1.1.>.1.1.1.4.1.:.h g g g g g g g g h h x uXsXsXsXsX",
"sXBXBXBXBXhX6.>.l g l d 7 6 7 7 7 7 6 7 6 6   7 U.T.R.y.1.>.>.>.1.1.>.1.1.1.1.1.@.8.T.T.T.7.> h g g g g g g g g l q P uXBXBXBXBX",
"BXBXBXBXbX&Xv p d l d 7 7 7 7 7 6 7 6 @ @ a P.L.W.f.e.Q.I.2.@.>.1.1.1.1.1.1.1.1.r.R.Y.r.{.6.> :.l f g g g g g l q 7 E VXBXbXbXBX",
"sXsXbXBXNXwXb h g d 0 6 6 7 7 6 6 @ w s s U.{.p.e.c.v.p.R.U.8.3.>.>.>.1.1.1.>.1.y.I.8.>.r.0.<.:.i u d g g l l d 7 6 c nXsXsXsXsX",
"sXsXsXsXbXhXb j d 0 6 7 7 7 6 7 0 6 6.{.E.Y.=.m.c.c.c.v.i.Y.R.T.2.1.2.1.>.1.1.1.>.>.>.1.>.y.U.g :.:.g g g g > 7 7 6 e iXsXsXsXsX",
"sXsXsXsXpX9XU 7 7 7 6 7 7 7   w U.U.U.Y.*.*.v.c.c.c.c.c.*.v.s.W.I.T.r.@.1.1.1.1.>.1.1.>.>.4.4.@.u :.,.l 0 7 7 7 7 7 P iXsXsXsXsX",
"sXsXsXsXpXT 9 6 6 6 7 7 7 @ t 9.R.F.s.-.c.m.c.c.c.x.c.c.c.m.v.s.s.d.e.r.<.:.1.1.1.1.1.1.1.1.1.1.:.:.p q 6 6 6 7 6 6 P iXsXsXsXsX",
"sXsXsXsXiXe 6 7 7 7 7 6 6 w P.}.T.v.M.m.c.c.x.c.c.x.c.x.c.x.c.m.M.b.s.I.l u 1.1.1.1.>.1.1.1.1.1.1.p w 6 6 6 7 6 6 9 P iXsXsXsXsX",
"sXsXsXsXuXP 7 7 7 7 7 6 7 U.R.T.Y.-.M.c.c.c.c.c.c.c.c.x.c.c.c.c.c.e.I.@.l f p 1.1.>.1.1.1.1.1.1.l w 6 7 7 7 6 7 7 7 P iXsXsXsXsX",
"sXsXsXbXNXU 7 7 6 7   0 L.R.y.2.2.i.E.f.c.m.c.x.c.x.c.c.c.c.m.c.p.t.1.>.l w w p 1.4.>.1.1.:.l u l d 6 7 7 7 7 7 6 7 c NXbXsXsXsX",
"BXBXBXBXVXE 0 7 7   4 0.{.y.2.@.@.8.U.r.s.f.-.M.m.c.c.c.c.m.v.e.t.3.@.i q 2 2 q p >.4.4.:.l h g d 7 6 7 7 6 7 6 7 8 r NXBXBXBXBX",
"BXBXBXbXiX# 6 7 7 2 9.}.I.1.>.1.1.>.@.2.U.T.e.-.-.x.c.c.c.n.s.I.4.,.<.f 8 < < 9 w p #.,.l d d d 7 6 7 7 7 7 7 7 8 7 T VXBXBXBXBX",
"sXsXsXsXiXZ @ 6 7 U.{.I.1.1.1.>.1.>.1.1.>.>.r.R.T.-.M.c.m.p.I.>.1.i h d 7 1 o . 6 7 0 l l q 7 7 7 7 6 7 7 7 7 7 8 e >XdXbXBXBXbX",
"sXsXsXsXiXX . 4 9.Q.y.2.>.>.1.1.1.1.1.1.>.>.2.8.8.u.p.p.p.r.2.@.i l d 0 7 6 2 o + @ q l q 8 6 6 7 7 7 7 6 ; 7 7 2 3 R uXsXBXbXsX",
"sXsXsXsXsX&XY L.{.Y.2.@.1.1.1.1.1.1.>.1.1.1.>.@.>.8.y.t.I.,.i :.j d 0 6 7 8 2 1 $ . 6 7 2 2 2 7 6 8 8 8 2 2 2 2 1 o e fXBXBXsXsX",
"sXsXsXsXdXdX8XR.I.1.>.1.>.1.>.1.1.>.1.1.>.1.1.>.1.>.1.>.,.u f d g 0 6 6 6 7 2 < $ X X X o < < 6 6 2 6 2 < < 1 < < $ Z VXBXbXsXsX",
"sXsXsXsXdXW.Q.!.1.>.1.>.1.1.>.1.1.1.1.1.1.>.1.1.1.1.1.1.u h g g 7 7 7 9 2 < o X X X X X X o < < o < < < < o + O + O # VXBXsXsXsX",
"sXsXsXyX^.~.P.8.>.1.1.1.1.1.1.1.1.>.1.1.4.:.u u p <.i u g l h 0 1 O 8 j.%.%.: : : : : m , %.#.P.9.P.9.&., ; X . . Z -XBXBXsXsXsX",
"sXsXsXeX6.Y a 1.1.>.1.>.1.1.1.1.>.1.>.2.:.g z a w 0 q l l > 0 2 o o u J.J.c.l.l.l.l.l.l.J.J.n.F.F.F.s.n.M., + + Z -XsXbXBXsXsXsX",
"sXsXsX&X8 f :.4.1.1.1.1.>.1.1.1.1.1.1.:.g > 0.I.w 6 q g g 0 o < X t $.m.J.n.c.c.c.c.x.c.c.x.c.c.c.n.l.j.c.;.d + -XsXsXsXBXbXsXsX",
"sXsXsX-X8 h :.4.1.1.1.1.1.1.@.1.1.4.:.q 2 %.J.=.U.W.a @ 8 3 o O X : z.c.x.c.c.c.c.c.c.c.x.x.c.c.c.c.l.l.m.n.&.T iXsXsXbXBXBXsXsX",
"sXsXsX-X7 0 g :.1.1.1.>.1.1.4.@.i t a 5.%.l.M.c.s.s.a.s 2 $ X X 1 , j.M.c.c.x.c.c.c.x.x.c.c.c.x.c.c.c.c.c.n.b.(._.aXbXBXBXBXbXsX",
"sXsXsX-XI 9 r p 1.1.1.1.1.1.1.i w 4 5.F.n.m.x.c.M.M.H.i.s 5 @ 2 r.a.j.l.c.c.c.c.c.c.c.c.c.x.x.c.c.c.c.c.c.x.c.Z.A.0XMXBXbXBXBXbX",
"sXsXsXsXuXP q p 1.1.1.1.1.1.<.q 7 L.G.m.c.c.x.x.c.c.m.v.E.Q.y.4.Y.Q.a.h.l.c.c.c.x.c.x.c.c.c.c.c.c.c.x.c.c.c.x.c.Z.).wXfXsXbXBXBX",
"BXBXbXsXuXe d l u >.4.1.1.i 8 w L.s.v.c.c.x.c.x.c.x.c.c.*.E.Q.y.3.2.r.p.n.m.x.c.x.c.c.c.c.x.c.x.x.x.c.c.x.x.c.c.m.Z.[.&XpXsXsXsX",
"sXBXBXBXNXr 0 d d p :.i n 6.P.5.e.n.m.c.c.x.c.c.c.c.c.c.m.-.p.Q.t.,.>.r.$.*.M.c.m.c.x.x.c.c.x.c.c.c.c.x.c.c.c.x.l.b.V.(.oXMXBXBX",
"sXsXsXbXNX_.r 8 v b x d a i.{.s.M.c.c.c.c.c.x.c.c.c.x.x.c.m.*.i.p.u.3.2.9.$.*.-.-.x.c.c.c.c.c.c.x.c.x.c.c.x.c.c.c.c.c.Z.B.'.eXdX",
"sXbXBXBXBXbX^ 0 T _.! <.Y.*.c.x.c.c.c.c.x.c.c.c.c.c.c.c.c.c.x.x.c.e.W.T.T.3.3.Y.T.s.m.c.c.c.c.c.c.c.c.c.c.c.c.c.c.m.x.4.9.7.L.dX",
"BXBXBXBXBXBXmXmXgX~.&.B.-.c..X6X#XA.n.c.c.c.x.c.c.c.c.c.c.c.m.m.p.6.4 s 3.4.2.8.9. X2X' D.n.x.c.c.x.x.x.x.c.n.m.M.-.i.3.p 6.(.BX",
"BXBXBXBXBXBXBXNXxX/.;.M.c.c.`.%XOX`.Z.l.V V C.c.c.c.c.c.c.l.v.e.9.j   6 y 1.>.>.>.~ ..[ XXV.n.C C D.M.c.M.*.s.s.=.q.5.<.l B 0XBX",
"BXBXBXBXbXdXpX9X1.7.g.c.c.l.B A F 6X.XA.A $X`.*.c.c.c.c.c.v.e.L.l h q 7 ,.4.2.>.1.M % % 4X XD.& ] ~ *.*.z.s.U.U.2.y f h h b ].BX",
"BXBXBXbXdXdX7X2.5.2.4.$.c.l.B A F 6XvX<XA ;X].x.c.l.c.c.m.F.L.g g l f 2 ,.1.>.>.@.r % % 2XlX1X% 1X X@.4.4.<.j u j g g g g v _.BX",
"BXBXbXsXsX7XP.2.2.1.,.2.$.c.! OXA %X=X=X<X.XA.V.) ( (.p.p.0.p d g l q 7 ,.4.>.2.>.Q ` % o.X.o.2X Xg.<.Q Q B d d d g g g z v T fX",
"BXBXsXdX7X5.,.2.1.2.s v Y $.C.) A H +X<X].V.c.j.OX$X( W.U.p > g g l q 7 @.p k b >.b Q % _ } X.) a <.z [ ' W l g g g g g g v >XsX",
"BXBXuX9X>.7.2.>.1.1.I A +XY w.N.A A =XjXB.n.v.C.S H ~.t.g h g g g l f 7 #.= _ ' v 2.z & & X.kXf f k M & [ Q u g g g g g g v / sX",
"BXBX7X9.5.2.>.>.>.1.I A A @Xa 9.$XA =XvX@XV.(.@XA ~.P.g g g g g g g q 2 #.M % & | z :.] % X.lX] w B [ % M z g g g g g g g v / bX",
"BXwXP.2.2.2.1.1.1.1.a I A A Z I #XG OX$X$Xf./.G S 6.v ^ ^ g g g g l q 7 ,.p M % * = = ..* ` } ] f M ` % k k W W g g g g u U _.BX",
"dX,.2.7.1.>.1.1.1.1.>.,.I OXOXOX$XA A OX<XT R F F E ^ %X@Xg g g g l q 7 >.1.:.= [ [ ` } * % ` X.Q M % * M W } | g g g g g x (.BX",
"dX9.>.1.>.1.1.>.2.,.5.,.,.:X6X$X%XG G =XvX=XH S %X#X$X@Xd g g g g l q 7 <.2.,.1.+.4X' } * _ X.5XX.* &  .} ' | g g g g g g g g sX",
"BX0.2.>.1.1.1.>.>.S ^ R 2.2.9.Y cXOXA ^ j ^ A K b c x x g g g g g l d 7 - D E 1.7.<.V 3X_ & D 9 - % D z B k k d g g g g g g l BX",
"dX9.>.>.1.1.1.2.1.OXOXOXP _.5.2._.@XA A E ^ J %XqXb d u g g g g l d 0 7 ` [ _ r [.6.2.`.| & & - [ ` ' O.k d g d g g g g u d w dX",
"dX9.>.2.>.1.1.>.3.^ R S G <X( 5.3.*X+XA OX$X@X@XcXY k U c d g g d 6 @ 6 | - - _ 1X~ <.>.O.` & ]  .]  .lX! k k B g g g g d w 0 dX",
"sX7.2.7.1.1.1.1.>.l <.a #XA OX^ ,.jX=XA A OX^ > d > R #X$Xg g g 0 + X O @ g r ..& ` Q @. XX.% % [ Q l g f M } } g g g l 0 0 g sX",
"sXeX~.2.1.1.1.1.2.^ K Z A A A OX^ =X+XA G I x g g ( K S 6Xl d 0 f 3 $ + D - - % % % ` | X.} % % = 9 q g Q D _ 2Xg l g 0 6 7 g sX",
"sXsX7X1.1.1.4.1.y <X$X^ %X=X$XS G OXF A A x g g I H H =X*Xg q 6 h t o X X.' ` ....] _ ` ` & % % r @ 0 M ` ` o. Xg g 0 6 0 d g sX",
"sXsX~.1.1.@.#.<.h jX=X%XcXcX:X+XOXF A A G ( c e %XH %XjX7 > d 7 g 3 o @ 4X . .lXlX1X` ` & % % * Q M = ] ` o.+.l l q 6 6 d l g sX",
"sXsX~.3.7.u g h N b w 0 z B.! OXvX=XF F +XcX=XA $X6X:Xw d %.%.j l 3 3 h V N m k.j.Q [ lXo.* & ' lXo.% ' 4XO.z h., q 6 2 , h.l dX",
"sXsXyX7XY h t k N N w 6 4 j.B G <XvX$XF cX<X;X<XV ! U 7 t h.h.g > 3 3 l N k.k.j.j.- _ 1X5X] * 3XX.X.1XM ~ c , j.&.4 6 4 h.%.g dX",
"sXsXsXsX&XB l h N m r # E r S A OX6X=XOX6X<X<X`.h.%.0 @ k h., g l 3 1 h N k.k.C C - * ` 4X..` 2XX.1X) @ q u , m k ! ( k h.h.h sX",
"sXsXsXbXNXC.k h N N   Z #XG A A F OX#X$X$X6X*Xm j.m r + N m k g l 3 3 l N k.C } * % % % ] } ] ..3XO.t 6 d u > N N wXNXV h.h.N sX"
};
