/* XPM */
static char *result[] = {
/* columns rows colors chars-per-pixel */
"64 64 16 1 ",
"  c #281820",
". c #5F243D",
"X c #41383F",
"o c #7E3A49",
"O c #69686B",
"+ c #AC3B5C",
"@ c #CC606C",
"# c #CC824F",
"$ c #E0B56C",
"% c #6F8FE7",
"& c #8EA291",
"* c #EEA499",
"= c #87AFF7",
"- c #A8D1C0",
"; c #D7EFF7",
": c #E3F4E3",
/* pixels */
";;;;;;;;;;;;=%%%%%%=;;;;;;;;;;;;;;;;;;;;;;;;=%%%%%%=;;;;;;;;;;;;",
";;;=%%%=;;;;;;=%%=;;;=%%%=;;;;;;;;;=%%%=;;;;;;=%%=;;;=%%%=;;;;;;",
"%%%%%%%%%%=;;;;;;;;;;;;;=%%%=;;=%%%%%%%%%%=;;;;;;;;;;;;;=%%%=;;=",
"%%%%%%%%%%%%=;;;;;;;;;;;;;=%%;=%%%%%%%%%%%%%=;;;;;;;;;;;;;=%%;=%",
"%%%%%%%%%%%%%=;;;;;;=%%%=;;=;;%%%%%%%%%%%%%%%=;;;;;;=%%%=;;=;;%%",
"%%%%%%%%%%%%%%=;;;;=%%%%%=;;;=%%%%%%%%%%%%%%%%=;;;;=%%%%%=;;;=%%",
"%%%%%%%%%%%%%%%=;;=%%%%%%%=;;%%%%%%%%%%%%%%%%%%=;;=%%%%%%%=;;%%%",
"%%%%%%%%%%%%%%%%;;%%%%%%%%%;;%%%%%%%%%%%%%%%%%%%;;%%%%%%%%%;;%%%",
"%%%%%%%%%%%%%%%%;;%%%%%%%%%=;%%%%%%%%%%%%%%%%%%%;;%%%%%%%%%=;%%%",
"%%%%%%%%%%%%%%%=;;%%%%%%%%%%;=%%%%%%%%%%%%%%%%%=;;%%%%%%%%%%;=%%",
"%%%%%%%%%%%%%%=;;;=%%%%%%%%=;;%%%%%%%%%%%%%%%%=;;;=%%%%%%%%=;;%%",
"%%%%%%%%%%%%%=;;%;;=%%%%%%=;;;=%%%%%%%%%%%%%%=;;%;;=%%%%%%=;;;=%",
"%%%%%%%%%%%%=;;%%%;;=%%%%=;;=;;=%%%%%%%%%%%%=;;%%%;;=%%%%=;;=;;=",
"%%%%%%%%%%%=;;;;;;;;;=%%=;;=%=;;%%%%%%%%%%%=;;;;;;;;;=%%=;;=%=;;",
";;=%%%%%=;;;;;=%%%=;;;;;;;=%%%%%;;=%%%%%=;;;;;=%%%=;;;;;;;=%%%%%",
"%;;;;;;;;;;;=%%%%%%%=;;=%%%%;;;;%+++;;;;;;;;=%%%%%%%=;;=%%%%;;;;",
";;;;=%%%=;;=%%%%%%%%%=;;=%;;;==;&&*$+%%%=;;=%%%%%%%%%=;;=%;;;==;",
"%%=;;;=%%;=%%%%%%%%%%%;;;;;=%%%&::&*+;=%%;=%%%%%%%%%%%;;;;;=%%%%",
"%%%%=;;=;;%%%%%%%%%%%%=;;=%%%%%&::&**+;=;;%%%%%%%%%%%%=;;=%%%%%%",
"%%%%%=;;;=%%%%%%%%%%%%%;=%%%%%&-:::&*+;;;=%%%%%%%%%%%%%;=%%%%%%%",
"%%%%%%=;;%%%%%%%%%%%%%%;=%%%%%&::::&$+=;;%%%%%%%%%%%%%%;=%%%%%%%",
"%%%%%%=;;=%%%%%%%%%%%%=;;=%%%&-::::&*+=;;=%%%%%%%%%%%%=;;=%%%%%%",
"%%%%%=;;;;=%%%%%%%%%%=;;;;=%%&:::::&*+;;;;=%%%%%%%%%%=;;;;=%%%%%",
"%%%=;;;;;;;=%%%%%%%=;;;;;;;;=&:::::&*+o;;;;=%%%%%%%=;;;;;;;;=%%%",
";;;;;;;;;;;;=%%%%%%=;;;;;;;;&-:::::&@+o;;;;;=%%%%%%=;;;;;;;;;;;;",
";;;=%%%=;;;;;;=%%=;;;=+++++oO-:::::&++o=;;;;;;=%%=;;;=%%%=;;;;;;",
"%%%%%%%%%%=;;;;;;;++++*$**@+O&-:::&&#+o+++++;;;;;;;;;;;;=%%%=;;=",
"%%%%%%%%%%%%=;;;++****&&&&&OO&&&&&&&O++@$***++++;;;;;;;;;;=%%;=%",
"%%%%%%%%%%%%%=;+@*&&&&::::-&O&&&&&&&OO&&&&&&*$**+++;=%%%=;;=;;%%",
"%%%%%%%%%%%%%%=o&&-:::::::-&O&&&&&&&O&-:::::&&&&**@+%%%%%=;;;=%%",
"%%%%%%%%%%%%%%%XO&&&--::::-&O&&&&&&O&-:::::::::-&&@+%%%%%%=;;%%%",
"%%%%%%%%%%%%%%%%XXO&&&&&&&&&&O&O&&&&-:::::::--&&&&Oo%%%%%%%;;%%%",
"%%%%%%%%%%%%%%%%;;XXO&&&&&&&&OO-&&&&&&&&&&&&&&&&OXX%%%%%%%%=;%%%",
"%%%%%%%%%%%%%%%=;;%%XXO&&&&&&&O&&&O&&&&&&&&&&OXXX;%%%%%%%%%%;=%%",
"%%%%%%%%%%%%%%=;;;=%%%XXXOO&&&&OO&&O&&&&&&OXXX=;;;=%%%%%%%%=;;%%",
"%%%%%%%%%%%%%=;;%;;=%%%O&&&&&&&&&&&&OOOOXXX%%=;;%;;=%%%%%%=;;;=%",
"%%%%%%%%%%%%=;;%%%;;=%&-:::--&&&&&&&&&O+o%%%=;;%%%;;=%%%%=;;=;;=",
"%%%%%%%%%%%=;;;;;;;;;&-::::-&&&O&&&&&-&@o%%=;;;;;;;;;=%%=;;=%=;;",
";;=%%%%%=;;;;;=%%%=;;&::::-&&&OO&&&&-:&**+;;;;=%%%=;;;;;;;=%%%%%",
"%;;;;;;;;;;;=%%%%%%%&-:::-&&&O+X&&&&-:&**+;;=%%%%%%%=;;=%%%%;;;;",
"%%%=;;;;;;;;;;;;;;;;&-::-&&&O+oXO&&&&:-&**+;;;;;;;;;;;;;;;;;=%%%",
"%=;;;=%%%=;;;;;;;;;=O---&&&O+#.%X&&&&-:&*$+;;;;;;;;=%%%=;;;;;;=%",
";;;;;;;;=%%%=;;=%%%%O&&&&&O+o.;;XO&&&&-:&**+=;;=%%%%%%%%%%=;;;;;",
";;;;;;;;;;=%%;=%%%%%XO&&&O+o.;;;;XO&&&&:&**+%;=%%%%%%%%%%%%%=;;;",
";;;;=%%%=;;=;;%%%%%%%X&&&O#.%=;;;;XO&&&&:&**+;%%%%%%%%%%%%%%%=;;",
";;;=%%%%%=;;;=%%%%%%%%X&&O+.%%=;;;;XO&&&&:&*$+%%%%%%%%%%%%%%%%=;",
";;=%%%%%%%=;;%%%%%%%%%%XO+o %%%=;;=%XXO&&&-&@@+%%%%%%%%%%%%%%%%=",
";;%%%%%%%%%;;%%%%%%%%%%%   %%%%%;;%%%%XXXO&&O+.%%%%%%%%%%%%%%%%%",
";;%%%%%%%%%=;%%%%%%%%%%%%%%%%%%%;;%%%%%%%     %%%%%%%%%%%%%%%%%%",
";;%%%%%%%%%%;=%%%%%%%%%%%%%%%%%=;;%%%%%%%%%%;=%%%%%%%%%%%%%%%%%=",
";;=%%%%%%%%=;;%%%%%%%%%%%%%%%%=;;;=%%%%%%%%=;;%%%%%%%%%%%%%%%%=;",
"%;;=%%%%%%=;;;=%%%%%%%%%%%%%%=;;%;;=%%%%%%=;;;=%%%%%%%%%%%%%%=;;",
"%%;;=%%%%=;;=;;=%%%%%%%%%%%%=;;%%%;;=%%%%=;;=;;=%%%%%%%%%%%%=;;%",
";;;;;=%%=;;=%=;;%%%%%%%%%%%=;;;;;;;;;=%%=;;=%=;;%%%%%%%%%%%=;;;;",
"%%=;;;;;;;=%%%%%;;=%%%%%=;;;;;=%%%=;;;;;;;=%%%%%;;=%%%%%=;;;;;=%",
"%%%%=;;=%%%%;;;;%;;;;;;;;;;;=%%%%%%%=;;=%%%%;;;;%;;;;;;;;;;;=%%%",
"%%%%%=;;=%;;;==;;;;;=%%%=;;=%%%%%%%%%=;;=%;;;==;;;;;=%%%=;;=%%%%",
"%%%%%%;;;;;=%%%%%%=;;;=%%;=%%%%%%%%%%%;;;;;=%%%%%%=;;;=%%;=%%%%%",
"%%%%%%=;;=%%%%%%%%%%=;;=;;%%%%%%%%%%%%=;;=%%%%%%%%%%=;;=;;%%%%%%",
"%%%%%%%;=%%%%%%%%%%%%=;;;=%%%%%%%%%%%%%;=%%%%%%%%%%%%=;;;=%%%%%%",
"%%%%%%%;=%%%%%%%%%%%%%=;;%%%%%%%%%%%%%%;=%%%%%%%%%%%%%=;;%%%%%%%",
"%%%%%%=;;=%%%%%%%%%%%%=;;=%%%%%%%%%%%%=;;=%%%%%%%%%%%%=;;=%%%%%%",
"%%%%%=;;;;=%%%%%%%%%%=;;;;=%%%%%%%%%%=;;;;=%%%%%%%%%%=;;;;=%%%%%",
"%%%=;;;;;;;;=%%%%%%=;;;;;;;=%%%%%%%=;;;;;;;;=%%%%%%=;;;;;;;=%%%%"
};
