/* XPM */
static char *result[] = {
/* columns rows colors chars-per-pixel */
"64 64 80 1 ",
"  c #583947",
". c #583A47",
"X c #715D6A",
"o c #725E6A",
"O c #9C594F",
"+ c #9D594F",
"@ c #9D5A50",
"# c #975F5E",
"$ c #985F5F",
"% c #B07553",
"& c #B17654",
"* c #8B5C63",
"= c #8B5D63",
"- c #8B5C64",
"; c #8C5C64",
": c #8C5D64",
"> c #8C5E64",
", c #975F60",
"< c #985F60",
"1 c #985F61",
"2 c #985F62",
"3 c #986061",
"4 c #9A6261",
"5 c #9B6361",
"6 c #986063",
"7 c #87657B",
"8 c #8B6B7D",
"9 c #8B6C7F",
"0 c #98757D",
"q c #99767D",
"w c #99777F",
"e c #9A777F",
"r c #A26961",
"t c #A36961",
"y c #A36A62",
"u c #A36B64",
"i c #A46B64",
"p c #A46C65",
"a c #AF8079",
"s c #B0807A",
"d c #E6924C",
"f c #E6934C",
"g c #E6934D",
"h c #E7934D",
"j c #ECB342",
"k c #ECB442",
"l c #ECB443",
"z c #EDB443",
"x c #C78E68",
"c c #C78F69",
"v c #C88F69",
"b c #E0B372",
"n c #E0B472",
"m c #EFC268",
"M c #F0C268",
"N c #F0C368",
"B c #F0C369",
"V c #6F8FE7",
"C c #A88288",
"Z c #AA8689",
"A c #B48E89",
"S c #CFA497",
"D c #F1C995",
"F c #F1CA95",
"G c #F1C996",
"H c #F1CA96",
"J c #F7E39A",
"K c #F7E49A",
"L c #F8E49B",
"P c #F8E59B",
"I c #EDCEBF",
"U c #87AFF7",
"Y c #EDCEC0",
"T c #F9EBC4",
"R c #F9ECC4",
"E c #FAECC4",
"W c #FAEDC5",
"Q c #FFFFCC",
"! c #FFFFCD",
"~ c #D7EFF7",
/* pixels */
"~~~~~~~~~~~~UVVVVVVU~~~~~~~~~~~~~~~~~~~~~~~~UVVVVVVU~~~~~~~~~~~~",
"~~~UVVVU~~~~~~UVVU~~~UVVVU~~~~~~~~~UVVVU~~~~~~UVVU~~~UVVVU~~~~~~",
"VVVVVVVVVVU~~~~~~~~~~~~~UVVVU~~UVVVVVVVVVVU~~~~~~~~~~~~~UVVVU~~U",
"VVVVVVVVVVVVU~~~~~~~~~~~~~UVV~UVVVVVVVVVVVVVU~~~~~~~~~~~~~UVV~UV",
"VVVVVVVVVVVVVU~~~~~~UVVVU~~U~~VVVVVVVVVVVVVVVU~~~~~~UVVVU~~U~~VV",
"VVVVVVVVVVVVVVU~~~~UVVVVVU~~~UVVVVVVVVVVVVVVVVU~~~~UVVVVVU~~~UVV",
"VVVVVVVVVVVVVVVU~~UVVVVVVVU~~VVVVVVVVVVVVVVVVVVU~~UVVVVVVVU~~VVV",
"VVVVVVVVVVVVVVVV~~VVVVVVVVV~~VVVVVVVVVVVVVVVVVVV~~VVVVVVVVV~~VVV",
"VVVVVVVVVVVVVVVV~~VVVVVVVVVU~VVVVVVVVVVVVVVVVVVV~~VVVVVVVVVU~VVV",
"VVVVVVVVVVVVVVVU~~VVVVVVVVVV~UVVVVVVVVVVVVVVVVVU~~VVVVVVVVVV~UVV",
"VVVVVVVVVVVVVVU~~~UVVVVVVVVU~~VVVVVVVVVVVVVVVVU~~~UVVVVVVVVU~~VV",
"VVVVVVVVVVVVVU~~V~~UVVVVVVU~~~UVVVVVVVVVVVVVVU~~V~~UVVVVVVU~~~UV",
"VVVVVVVVVVVVU~~VVV~~UVVVVU~~U~~UVVVVVVVVVVVVU~~VVV~~UVVVVU~~U~~U",
"VVVVVVVVVVVU~~~~~~~~~UVVU~~UVU~~VVVVVVVVVVVU~~~~~~~~~UVVU~~UVU~~",
"~~UVVVVVU~~~~~UVVVU~~~~~~~UVVVV3OyUVVVVVU~~~~~UVVVU~~~~~~~UVVVVV",
"V~~~~~~~~~~~UVVVVVVVU~~UVVVV~~pv@mu~~~~~~~~~UVVVVVVVU~~UVVVV~~~~",
"~~~~UVVVU~~UVVVVVVVVVU~~UV~~~U4Bmvt~UVVVU~~UVVVVVVVVVU~~UV~~~UU~",
"VVU~~~UVV~UVVVVVVVVVVV~~~~~UV6cLx,U~~~UVV~UVVVVVVVVVVV~~~~~UVVVV",
"VVVVU~~U~~VVVVVVVVVVVVU~~UVVV<cL<VVVU~~U~~VVVVVVVVVVVVU~~UVVVVVV",
"VVVVVU~~~UVVVVVVVVVVVVV~UVVVVV<L<VVVVU~~~UVVVVVVVVVVVVV~UVVVVVVV",
"VVVVVVU~~VVVVVVVVVVVVVV~UVVVVV3N,VVVVVU~~VVVVVVVVVVVVVV~UVVVVVVV",
"VVVVVVU~~UVVVVVVVVVVVVU~~UVVVV3cv6VVVVU~~UVVVVVVVVVVVVU~~UVVVVVV",
"VVVVVU~~~~UVVVVVVVVVVU~~~~UVVV3sv3VVVU~~~~UVVVVVVVVVVU~~~~UVVVVV",
"VVVU~~~~~~~UVVVVVVVU~~~~~~~~U6CNs3VU~~~~~~~UVVVVVVVU~~~~~~~~UVVV",
"~~~~~~~~~~~~UVVVVVVU~~~~~~~~uwsn;Ai~~~~~~~~~UVVVVVVU~~~~~~~~~~~~",
"~~~UVVVU~~~~~~UVVU~~~UVVVU~~y--b*:yUVVVU~~~~~~UVVU~~~UVVVU~~~~~~",
"VVVVVVVVVVU~~~~~~~~~~~~~UVV6Z*.n.-C6VVVVVVU~~~~~~~~~~~~~UVVVU~~U",
"VVVVVVVVVVVVU~~~~~~~~~~~~~U3-. E .-3VVVVVVVVU~~~~~~~~~~~~~UVV~UV",
"VVVVVVVVVVVVVU~~~~~~UVVVU~pd- .EG.*g6VVVVVVVVU~~~~~~UVVVU~~U~~VV",
"VVVVVVVVVVVVVVU~~~~UVVVVVUyg-..RF.:d3VVVVVVVVVU~~~~UVVVVVU~~~UVV",
"VVVVVVVVVVVVVVVU~~UVVVVVV6ffa:@DO*agd6VVVVVVVVVU~~UVVVVVVVU~~VVV",
"VVVVVVVVVVVVVVVV~~VVVVVVV<gfma@b@sMgd3VVVVVVVVVV~~VVVVVVVVV~~VVV",
"VVVVVVVVVVVVVVVV~~VVVVVVV<dNKP@%@KLNf3VVVVVVVVVV~~VVVVVVVVVU~VVV",
"VVVVVVVVVVVVVVVU~~VVVVVV2gmLQQJ&TQ!Lmh6VVVVVVVVU~~VVVVVVVVVV~UVV",
"VVVVVVVVVVVVVVU~~~UVVVVV@fPQQ!LFW!Q!KgOVVVVVVVU~~~UVVVVVVVVU~~VV",
"VVVVVVVVVVVVVU~~V~~UVVVV@NQ!!QLWL!QQQN@VVVVVVU~~V~~UVVVVVVU~~~UV",
"VVVVVVVVVVVVU~~VVV~~UVVV@BQQLLjWzLKQQNOVVVVVU~~VVV~~UVVVVU~~U~~U",
"VVVVVVVVVVVU~~~~~~~~~UVV5mQPmmSWjMmLQm,VVVVU~~~~~~~~~UVVU~~UVU~~",
"~~UVVVVVU~~~~~UVVVU~~~~~~tKNBjjljzNmK,VVU~~~~~UVVVU~~~~~~~UVVVVV",
"V~~~~~~~~~~~UVVVVVVVU~~UV7=fBjNHNkNh>w~~~~~~UVVVVVVVU~~UVVVV~~~~",
"VVVU~~~~~~~~~~~~~~~~~~~~~qY*jzNNmjj*Iw~~~~~~~~~~~~~~~~~~~~~~UVVV",
"VU~~~UVVVU~~~~~~~~~UVVVU~0X:gjjkzzd-o9VVVU~~~~~~~~~UVVVU~~~~~~UV",
"~~~~~~~~UVVVU~~UVVVVVVVVVV8ghgdgffhfe~~~UVVVU~~UVVVVVVVVVVU~~~~~",
"~~~~~~~~~~UVV~UVVVVVVVVVVV#gdggdddhcr~~~~~UVV~UVVVVVVVVVVVVVU~~~",
"~~~~UVVVU~~U~~VVVVVVVVVVVVV$hdzzjhvyUVVVU~~U~~VVVVVVVVVVVVVVVU~~",
"~~~UVVVVVU~~~UVVVVVVVVVVVVVV$vzkzvrUVVVVVU~~~UVVVVVVVVVVVVVVVVU~",
"~~UVVVVVVVU~~VVVVVVVVVVVVVVVV1@+@iUVVVVVVVU~~VVVVVVVVVVVVVVVVVVU",
"~~VVVVVVVVV~~VVVVVVVVVVVVVVVVVVV~~VVVVVVVVV~~VVVVVVVVVVVVVVVVVVV",
"~~VVVVVVVVVU~VVVVVVVVVVVVVVVVVVV~~VVVVVVVVVU~VVVVVVVVVVVVVVVVVVV",
"~~VVVVVVVVVV~UVVVVVVVVVVVVVVVVVU~~VVVVVVVVVV~UVVVVVVVVVVVVVVVVVU",
"~~UVVVVVVVVU~~VVVVVVVVVVVVVVVVU~~~UVVVVVVVVU~~VVVVVVVVVVVVVVVVU~",
"V~~UVVVVVVU~~~UVVVVVVVVVVVVVVU~~V~~UVVVVVVU~~~UVVVVVVVVVVVVVVU~~",
"VV~~UVVVVU~~U~~UVVVVVVVVVVVVU~~VVV~~UVVVVU~~U~~UVVVVVVVVVVVVU~~V",
"~~~~~UVVU~~UVU~~VVVVVVVVVVVU~~~~~~~~~UVVU~~UVU~~VVVVVVVVVVVU~~~~",
"VVU~~~~~~~UVVVVV~~UVVVVVU~~~~~UVVVU~~~~~~~UVVVVV~~UVVVVVU~~~~~UV",
"VVVVU~~UVVVV~~~~V~~~~~~~~~~~UVVVVVVVU~~UVVVV~~~~V~~~~~~~~~~~UVVV",
"VVVVVU~~UV~~~UU~~~~~UVVVU~~UVVVVVVVVVU~~UV~~~UU~~~~~UVVVU~~UVVVV",
"VVVVVV~~~~~UVVVVVVU~~~UVV~UVVVVVVVVVVV~~~~~UVVVVVVU~~~UVV~UVVVVV",
"VVVVVVU~~UVVVVVVVVVVU~~U~~VVVVVVVVVVVVU~~UVVVVVVVVVVU~~U~~VVVVVV",
"VVVVVVV~UVVVVVVVVVVVVU~~~UVVVVVVVVVVVVV~UVVVVVVVVVVVVU~~~UVVVVVV",
"VVVVVVV~UVVVVVVVVVVVVVU~~VVVVVVVVVVVVVV~UVVVVVVVVVVVVVU~~VVVVVVV",
"VVVVVVU~~UVVVVVVVVVVVVU~~UVVVVVVVVVVVVU~~UVVVVVVVVVVVVU~~UVVVVVV",
"VVVVVU~~~~UVVVVVVVVVVU~~~~UVVVVVVVVVVU~~~~UVVVVVVVVVVU~~~~UVVVVV",
"VVVU~~~~~~~~UVVVVVVU~~~~~~~UVVVVVVVU~~~~~~~~UVVVVVVU~~~~~~~UVVVV"
};
