/* XPM */
static char *result[] = {
/* columns rows colors chars-per-pixel */
"64 64 66 1 ",
"  c #583947",
". c #583A47",
"X c #583A48",
"o c #9C594F",
"O c #9D594F",
"+ c #9D5950",
"@ c #9D5A50",
"# c #B17554",
"$ c #8B5C63",
"% c #8B5C64",
"& c #8C5C64",
"* c #8C5D64",
"= c #975F60",
"- c #985F60",
"; c #986061",
": c #9A6261",
"> c #9B6261",
", c #9B6362",
"< c #9A6364",
"1 c #86657B",
"2 c #86657C",
"3 c #87657C",
"4 c #87667C",
"5 c #8A6B7F",
"6 c #A26961",
"7 c #A36961",
"8 c #A36A62",
"9 c #A46B64",
"0 c #AF8079",
"q c #B08079",
"w c #B0807A",
"e c #E6924C",
"r c #E6934C",
"t c #E6934D",
"y c #E7934D",
"u c #ECB342",
"i c #ECB442",
"p c #ECB443",
"a c #EDB443",
"s c #C78E68",
"d c #C78F69",
"f c #C88F69",
"g c #E0B372",
"h c #E0B472",
"j c #EFC268",
"k c #F0C368",
"l c #F0C369",
"z c #6F8FE7",
"x c #CEA497",
"c c #CFA497",
"v c #CFA597",
"b c #CFA598",
"n c #F1C995",
"m c #F1CA95",
"M c #F2CA96",
"N c #F7E49A",
"B c #F8E49B",
"V c #F8E59B",
"C c #87AFF7",
"Z c #F9ECC4",
"A c #FAECC4",
"S c #FAEDC5",
"D c #FFFFCC",
"F c #FFFFCD",
"G c #D7EFF7",
"H c #FFFFF8",
/* pixels */
"GGGGGGGGGGGGCzzzzzzCGGGGGGGGGGGGGGGGGGGGGGGGCzzzzzzCGGGGGGGGGGGG",
"GGGCzzzCGGGGGGCzzCGGGCzzzCGGGGGGGGGCzzzCGGGGGGCzzCGGGCzzzCGGGGGG",
"zzzzzzzzzzCGGGGGGGGGGGGGCzzzCGGCzzzzzzzzzzCGGGGGGGGGGGGGCzzzCGGC",
"zzzzzzzzzzzzCGGGGGGGGGGGGGCzzGCzzzzzzzzzzzzzCGGGGGGGGGGGGGCzzGCz",
"zzzzzzzzzzzzzCGGGGGGCzzzCGGCGGzzzzzzzzzzzzzzzCGGGGGGCzzzCGGCGGzz",
"zzzzzzzzzzzzzzCGGGGCzzzzzCGGGCzzzzzzzzzzzzzzzzCGGGGCzzzzzCGGGCzz",
"zzzzzzzzzzzzzzzCGGCzzzzzzzCGGzzzzzzzzzzzzzzzzzzCGGCzzzzzzzCGGzzz",
"zzzzzzzzzzzzzzzzGGzzzzzzzzzGGzzzzzzzzzzzzzzzzzzzGGzzzzzzzzzGGzzz",
"zzzzzzzzzzzzzzzzGGzzzzzzzzzCGzzzzzzzzzzzzzzzzzzzGGzzzzzzzzzCGzzz",
"zzzzzzzzzzzzzzzCGGzzzzzzzzzzGCzzzzzzzzzzzzzzzzzCGGzzzzzzzzzzGCzz",
"zzzzzzzzzzzzzzCGGGCzzzzzzzzCGGzzzzzzzzzzzzzzzzCGGGCzzzzzzzzCGGzz",
"zzzzzzzzzzzzzCGGzGGCzzzzzzCGGGCzzzzzzzzzzzzzzCGGzGGCzzzzzzCGGGCz",
"zzzzzzzzzzzzCGGzzzGGCzzzzCGGCGGCzzzzzzzzzzzzCGGzzzGGCzzzzCGGCGGC",
"zzzzzzzzzzzCGGGGGGGGGCzzCGGCzCGGzzzzzzzzzzzCGGGGGGGGGCzzCGGCzCGG",
"GGCzzzzzCGGGGGCzzzCGGGGGGGCzzzzzGGCzzzzzCGGGGGCzzzCGGGGGGGCzzzzz",
"zGGGGGGGGGGGCzzzzzzzCGGCzzzzG6@@@6GGGGGGGGGGCzzzzzzzCGGCzzzzGGGG",
"GGGGCzzzCGGCzzzzzzzzzCGGCzGG9feerf9GCzzzCGGCzzzzzzzzzCGGCzGGGCCG",
"zzCGGGCzzGCzzzzzzzzzzzGGGGG,elkjkky8GGCzzGCzzzzzzzzzzzGGGGGCzzzz",
"zzzzCGGCGGzzzzzzzzzzzzCGGC-4BBNjNVB1<GGCGGzzzzzzzzzzzzCGGCzzzzzz",
"zzzzzCGGGCzzzzzzzzzzzzzGCz4BHHDgDHHV3CGGGCzzzzzzzzzzzzzGCzzzzzzz",
"zzzzzzCGGzzzzzzzzzzzzzzGC2BHHHDgDHHHB2CGGzzzzzzzzzzzzzzGCzzzzzzz",
"zzzzzzCGGCzzzzzzzzzzzzCGG5HHFjjmjjDHH4CGGCzzzzzzzzzzzzCGGCzzzzzz",
"zzzzzCGGGGCzzzzzzzzzzCGGG8HDkjvSvklDH>GGGGCzzzzzzzzzzCGGGGCzzzzz",
"zzzCGGGGGGGCzzzzzzzCGGGGG7DVjv0ZqvlVD8GGGGGCzzzzzzzCGGGGGGGGCzzz",
"GGGGGGGGGGGGCzzzzzzCGGGG7DBVlx*AMckBND7GGGGGCzzzzzzCGGGGGGGGGGGG",
"GGGCzzzCGGGGGGCzzCGGGCzzODBVjw mSwlBBD@CGGGGGGCzzCGGGCzzzCGGGGGG",
"zzzzzzzzzzCGGGGGGGGGGGGG@iyVv$.#S*bBya+zzzCGGGGGGGGGGGGGCzzzCGGC",
"zzzzzzzzzzzzCGGGGGGGGGGG@pey%. g X$ttaozzzzzCGGGGGGGGGGGGGCzzGCz",
"zzzzzzzzzzzzzCGGGGGGCzzz>aye$ .n .$rei=zzzzzzCGGGGGGCzzzCGGCGGzz",
"zzzzzzzzzzzzzzCGGGGCzzzzz,at*.OSO.*yi=zzzzzzzzCGGGGCzzzzzCGGGCzz",
"zzzzzzzzzzzzzzzCGGCzzzzzz;it*.@SO.*eu-zzzzzzzzzCGGCzzzzzzzCGGzzz",
"zzzzzzzzzzzzzzzzGGzzzzzzz=uy$ @A@.$yu-zzzzzzzzzzGGzzzzzzzzzGGzzz",
"zzzzzzzzzzzzzzzzGGzzzzzzzz=ew*.g $0a;zzzzzzzzzzzGGzzzzzzzzzCGzzz",
"zzzzzzzzzzzzzzzCGGzzzzzzzz-etw*g&0eu-zzzzzzzzzzCGGzzzzzzzzzzGCzz",
"zzzzzzzzzzzzzzCGGGCzzzzzzzz,et0g*ya;zzzzzzzzzzCGGGCzzzzzzzzCGGzz",
"zzzzzzzzzzzzzCGGzGGCzzzzzzC6ye0lytu-zzzzzzzzzCGGzGGCzzzzzzCGGGCz",
"zzzzzzzzzzzzCGGzzzGGCzzzzCGG,y0jei=zzzzzzzzzCGGzzzGGCzzzzCGGCGGC",
"zzzzzzzzzzzCGGGGGGGGGCzzCGGC-dtlea;zzzzzzzzCGGGGGGGGGCzzCGGCzCGG",
"GGCzzzzzCGGGGGCzzzCGGGGGGGCzz;sje9CzzzzzCGGGGGCzzzCGGGGGGGCzzzzz",
"zGGGGGGGGGGGCzzzzzzzCGGCzzzzGG8gy8GGGGGGGGGGCzzzzzzzCGGCzzzzGGGG",
"zzzCGGGGGGGGGGGGGGGGGGGGGGGGCz;ht-zCGGGGGGGGGGGGGGGGGGGGGGGGCzzz",
"zCGGGCzzzCGGGGGGGGGCzzzCGGGGGG,d;CGGGCzzzCGGGGGGGGGCzzzCGGGGGGCz",
"GGGGGGGGCzzzCGGCzzzzzzzzzzCGGG6d9GGGGGGGCzzzCGGCzzzzzzzzzzCGGGGG",
"GGGGGGGGGGCzzGCzzzzzzzzzzzzzC9jg6GGGGGGGGGCzzGCzzzzzzzzzzzzzCGGG",
"GGGGCzzzCGGCGGzzzzzzzzzzzzzzz:kgs6GGCzzzCGGCGGzzzzzzzzzzzzzzzCGG",
"GGGCzzzzzCGGGCzzzzzzzzzzzzzzzz>lgd7CzzzzzCGGGCzzzzzzzzzzzzzzzzCG",
"GGCzzzzzzzCGGzzzzzzzzzzzzzzzzz;dhs,zzzzzzzCGGzzzzzzzzzzzzzzzzzzC",
"GGzzzzzzzzzGGzzzzzzzzzzzzzzzzzz-@7zzzzzzzzzGGzzzzzzzzzzzzzzzzzzz",
"GGzzzzzzzzzCGzzzzzzzzzzzzzzzzzzzGGzzzzzzzzzCGzzzzzzzzzzzzzzzzzzz",
"GGzzzzzzzzzzGCzzzzzzzzzzzzzzzzzCGGzzzzzzzzzzGCzzzzzzzzzzzzzzzzzC",
"GGCzzzzzzzzCGGzzzzzzzzzzzzzzzzCGGGCzzzzzzzzCGGzzzzzzzzzzzzzzzzCG",
"zGGCzzzzzzCGGGCzzzzzzzzzzzzzzCGGzGGCzzzzzzCGGGCzzzzzzzzzzzzzzCGG",
"zzGGCzzzzCGGCGGCzzzzzzzzzzzzCGGzzzGGCzzzzCGGCGGCzzzzzzzzzzzzCGGz",
"GGGGGCzzCGGCzCGGzzzzzzzzzzzCGGGGGGGGGCzzCGGCzCGGzzzzzzzzzzzCGGGG",
"zzCGGGGGGGCzzzzzGGCzzzzzCGGGGGCzzzCGGGGGGGCzzzzzGGCzzzzzCGGGGGCz",
"zzzzCGGCzzzzGGGGzGGGGGGGGGGGCzzzzzzzCGGCzzzzGGGGzGGGGGGGGGGGCzzz",
"zzzzzCGGCzGGGCCGGGGGCzzzCGGCzzzzzzzzzCGGCzGGGCCGGGGGCzzzCGGCzzzz",
"zzzzzzGGGGGCzzzzzzCGGGCzzGCzzzzzzzzzzzGGGGGCzzzzzzCGGGCzzGCzzzzz",
"zzzzzzCGGCzzzzzzzzzzCGGCGGzzzzzzzzzzzzCGGCzzzzzzzzzzCGGCGGzzzzzz",
"zzzzzzzGCzzzzzzzzzzzzCGGGCzzzzzzzzzzzzzGCzzzzzzzzzzzzCGGGCzzzzzz",
"zzzzzzzGCzzzzzzzzzzzzzCGGzzzzzzzzzzzzzzGCzzzzzzzzzzzzzCGGzzzzzzz",
"zzzzzzCGGCzzzzzzzzzzzzCGGCzzzzzzzzzzzzCGGCzzzzzzzzzzzzCGGCzzzzzz",
"zzzzzCGGGGCzzzzzzzzzzCGGGGCzzzzzzzzzzCGGGGCzzzzzzzzzzCGGGGCzzzzz",
"zzzCGGGGGGGGCzzzzzzCGGGGGGGCzzzzzzzCGGGGGGGGCzzzzzzCGGGGGGGCzzzz"
};
