/* XPM */
static char *result[] = {
/* columns rows colors chars-per-pixel */
"64 64 222 2 ",
"   c #21222F",
".  c #262030",
"X  c #5A001B",
"o  c #6F0D23",
"O  c #6D282F",
"+  c #1E2147",
"@  c #29234B",
"#  c #2C2D54",
"$  c #2A2D56",
"%  c #2E325C",
"&  c #2A3254",
"*  c #32325C",
"=  c #38385A",
"-  c #312E4E",
";  c #2B2C66",
":  c #2C3261",
">  c #353663",
",  c #393664",
"<  c #353966",
"1  c #3B3963",
"2  c #35366C",
"3  c #323969",
"4  c #3A3C6D",
"5  c #2C3B72",
"6  c #3D3D74",
"7  c #353E77",
"8  c #312D66",
"9  c #4D1D43",
"0  c #621946",
"q  c #44254F",
"w  c #572F4C",
"e  c #462A55",
"r  c #543350",
"t  c #702A50",
"y  c #4C356B",
"u  c #413F76",
"i  c #5C3D6C",
"p  c #6D3865",
"a  c #394067",
"s  c #3B4274",
"d  c #3E437B",
"f  c #33437B",
"g  c #2F4076",
"h  c #63615C",
"j  c #5B576E",
"k  c #424376",
"l  c #4B4D72",
"z  c #42427B",
"x  c #474A79",
"c  c #52447A",
"v  c #53517F",
"b  c #555B7B",
"n  c #595978",
"m  c #49516E",
"M  c #665762",
"N  c #6A4271",
"B  c #73656B",
"V  c #686678",
"C  c #756F7D",
"Z  c #757479",
"A  c #6D656E",
"S  c #800012",
"D  c #860027",
"F  c #8E0D34",
"G  c #AC0028",
"H  c #A9132F",
"J  c #B3252E",
"K  c #C20B2D",
"L  c #CA2838",
"P  c #D4393A",
"I  c #911145",
"U  c #B52243",
"Y  c #C23250",
"T  c #CB324A",
"R  c #97424D",
"E  c #965179",
"W  c #8A7A7B",
"Q  c #A9656D",
"!  c #DD5D59",
"~  c #D34848",
"^  c #DB605A",
"/  c #EF7368",
"(  c #FC8375",
")  c #1D3A86",
"_  c #2F3D80",
"`  c #2D458B",
"'  c #2C4787",
"]  c #3D4681",
"[  c #3B4984",
"{  c #364D8D",
"}  c #3A4C8B",
"|  c #314583",
" . c #344F92",
".. c #384F90",
"X. c #365292",
"o. c #395191",
"O. c #3D5996",
"+. c #3D5799",
"@. c #324D91",
"#. c #434C83",
"$. c #494C81",
"%. c #414784",
"&. c #4C5385",
"*. c #49548C",
"=. c #48578B",
"-. c #515287",
";. c #535B8D",
":. c #535887",
">. c #435692",
",. c #4C5B94",
"<. c #4D5D9D",
"1. c #455A97",
"2. c #575F95",
"3. c #5F6686",
"4. c #4A629B",
"5. c #52649E",
"6. c #56689E",
"7. c #5B6598",
"8. c #62638F",
"9. c #676A88",
"0. c #6B738F",
"q. c #76728A",
"w. c #686796",
"e. c #6A6B9A",
"r. c #666895",
"t. c #776D9D",
"y. c #677195",
"u. c #767A97",
"i. c #5569A7",
"p. c #5C72A5",
"a. c #5C74A8",
"s. c #4662A1",
"d. c #616DA1",
"f. c #6B75A5",
"g. c #7272A2",
"h. c #7A7BAB",
"j. c #737BAA",
"k. c #647AB2",
"l. c #5F76C2",
"z. c #637DCC",
"x. c #955683",
"c. c #8C758C",
"v. c #78829A",
"b. c #5E82AD",
"n. c #5989B6",
"m. c #7984A8",
"M. c #6882B7",
"N. c #788AB5",
"B. c #7D94BD",
"V. c #7493BD",
"C. c #6A82A9",
"Z. c #7186C4",
"A. c #718ECF",
"S. c #7E97C0",
"D. c #7C9CC5",
"F. c #6682D4",
"G. c #6E8BDE",
"H. c #6986D9",
"J. c #708DDE",
"K. c #718CD1",
"L. c #6F8FE7",
"P. c #7B9EE2",
"I. c #888887",
"U. c #979797",
"Y. c #8F8C92",
"T. c #A49D93",
"R. c #B9999E",
"E. c #AAA495",
"W. c #B9AD9B",
"Q. c #8591A7",
"!. c #8692A9",
"~. c #828DB7",
"^. c #8194BD",
"/. c #8598BF",
"(. c #8697B8",
"). c #96A4B7",
"_. c #B6A8A0",
"`. c #EBA59B",
"'. c #C8B1AE",
"]. c #CD9691",
"[. c #8099C0",
"{. c #8C9DC4",
"}. c #8097C0",
"|. c #819EDA",
" X c #86A0C6",
".X c #89A2C6",
"XX c #86A3CA",
"oX c #8CA4CB",
"OX c #90A6CB",
"+X c #94AACB",
"@X c #9CB3D5",
"#X c #9FB7D9",
"$X c #98ADD0",
"%X c #A5B6C8",
"&X c #A4BADB",
"*X c #ACBFDD",
"=X c #B1B4C9",
"-X c #85AAEF",
";X c #87AFF7",
":X c #AABEE0",
">X c #B6C8D8",
",X c #AAC4E3",
"<X c #B4C6E4",
"1X c #BED2E7",
"2X c #D6D4CC",
"3X c #D9D5D7",
"4X c #EADFD3",
"5X c #EBD7CD",
"6X c #F1EDD9",
"7X c #FFFFDE",
"8X c #EEEDD9",
"9X c #C7D7ED",
"0X c #D7EFF7",
"qX c #DAEAFC",
"wX c #CDE4EE",
"eX c #E3E6ED",
"rX c #F5F2E6",
"tX c #FFFFEC",
"yX c #FEFDF5",
"uX c #FBFBFB",
"iX c #F6F9F7",
"pX c #F2E6EB",
/* pixels */
"0X0X0X0X0X0X0X0X0X0X0X0X;XL.L.L.L.L.L.;X0X0X0X>Xa * v.0X0X0X0X0X0X0X0X0X0X0X0X0X0X0X0X0X;XL.L.L.L.L.L.;X0X0X0X0X0X0X0X0X0X0X0X0X",
"0X0X0X;XL.L.L.;X0X0X0X0X0X0X;XL.L.;X0X0X0X;XL.L.z., k Q.0X0X0X0X0X0X0X;XL.L.L.;X0X0X0X0X0X0X;XL.L.;X0X0X0X;XL.L.L.;X0X0X0X0X0X0X",
"L.L.L.L.L.L.L.L.L.L.;X0X0X0X0X0X0X0X0X0X0X0X0X0XA.6 f.4.p.0X0X;XL.L.L.L.L.L.L.L.L.L.;X0X0X0X0X0X0X0X0X0X0X0X0X0X;XL.L.L.;X0X0X;X",
"L.L.L.L.L.L.L.L.L.L.L.L.;X0X0X0X0X0X0X0X0X0X0X0X0X%Xf  .f !.;XL.L.L.L.L.L.L.L.L.L.L.L.L.;X0X0X0X0X0X0X0X0X0X0X0X0X0X;XL.L.0X;XL.",
"L.L.L.L.L.L.L.L.L.L.L.L.L.;X0X0X0X0X0X0X;XL.L.L.;X).5 i.+.5 <.L.L.L.L.L.L.L.L.L.L.L.L.L.L.;X0X0X0X0X0X0X;XL.L.L.;X0X0X;X0X0XL.L.",
"L.L.L.L.L.L.L.L.L.L.L.L.L.L.;X0X0X0X0X;XL.L.L.L.L.k.3 i.B.s.2 <.L.L.L.L.L.L.L.L.L.L.L.L.L.L.;X0X0X0X0X;XL.L.L.L.L.;X0X0X0X;XL.L.",
"L.L.L.L.L.L.L.L.L.L.L.L.L.L.L.;X0X0X;XL.L.L.L.L.L.F.2._ [.4.} 4 L.L.L.L.L.L.L.L.L.L.L.L.L.L.L.;X0X0X;XL.L.L.L.L.L.L.;X0X0XL.L.L.",
"L.L.L.L.L.L.L.L.L.L.L.L.L.L.L.L.0X0XL.L.L.L.L.L.L.L.i.5 M.V.X.z *.L.L.L.L.L.L.L.L.L.L.L.L.L.L.L.0X0XL.L.L.L.L.L.L.L.L.0X0XL.L.L.",
"L.L.L.L.L.L.L.L.L.L.L.L.L.L.L.L.0X0XL.L.L.L.L.L.L.L.<.5 M.&X*.[ > L.L.L.L.L.L.L.L.L.L.L.L.L.L.L.0X0XL.L.L.L.L.L.L.L.L.;X0XL.L.L.",
"L.L.L.L.L.L.L.L.L.L.L.L.L.L.L.;X0X0XL.L.L.L.L.L.L.L.<.v N.:X-.{ z L.L.L.L.L.L.L.L.L.L.L.L.L.L.;X0X0XL.L.L.L.L.L.L.L.L.L.0X;XL.L.",
"L.L.L.L.L.L.L.L.L.L.L.L.L.L.;X0X0X0X;XL.L.L.L.L.L.L.<.v ^.XX$.{ d z L.L.L.L.L.L.L.L.L.L.L.L.;X0X0X0X;XL.L.L.L.L.L.L.L.;X0X0XL.L.",
"L.L.L.L.L.L.L.L.L.L.L.L.L.;X0X0XL.0X0X;XL.L.L.L.L.L.p.-.^.[.$.{ 6 s L.L.L.L.L.L.L.L.L.L.L.;X0X0XL.0X0X;XL.L.L.L.L.L.;X0X0X0X;XL.",
"L.L.L.L.L.L.L.L.L.L.L.L.;X0X0XL.L.L.0X0X;XL.L.L.L.;XQ.5 k.oX$...u d L.L.L.L.L.L.L.L.L.L.;X0X0XL.L.L.0X0X;XL.L.L.L.;X0X0X;X0X0X;X",
"L.L.L.L.L.L.L.L.L.L.L.;X0X0X0X0X0X0X0X0X0X;XL.L.;X0XQ.7 2.&X-.[ z #.z.L.L.L.L.L.L.L.L.;X0X0X0X0X0X0X0X0X0X;XL.L.;X0X0X;XL.;X0X0X",
"0X0X;XL.L.L.L.L.;X0X0X0X0X0X;XL.L.L.;X0X0X0X0X0X0XqXk.f w.&X&.u z 4 x L.L.L.L.L.;X0X0X0X0X0X;XL.L.L.;X0X0X0X0X0X0X0X;XL.L.L.L.L.",
"L.0X0X0X0X0X0X0X0X0X0X0X;XL.L.L.L.L.L.L.;X0X0X;XL.z.*.{ >.&X-.6 k 6 9.0X0X0X0X0X0X0X0X0X;XL.L.L.L.L.L.L.;X0X0X;XL.L.L.L.0X0X0X0X",
"0X0X0X0X;XL.L.L.;X0X0X;XL.L.L.L.L.L.L.L.L.;X0X0X;Xi.> } ` XX,.6 k s 9.0X;XL.L.L.;X0X0X;XL.L.L.L.L.L.L.L.L.;X0X0X;XL.0X0X0X;X;X0X",
"L.L.;X0X0X0X;XL.L.0X;XL.L.L.L.L.L.L.L.L.L.L.0X0X0X%X6 6 ] ,.#.} [ a =.0X0X0X;XL.L.0X;XL.L.L.L.L.L.L.L.L.L.L.0X0X0X0X0X;XL.L.L.L.",
"L.L.L.L.;X0X0X;X0X0XL.L.L.L.L.L.L.L.L.L.L.L.;X0X>Xx [ ] u 6 > ; %.6 #.L.;X0X0X;X0X0XL.L.L.L.L.L.L.L.L.L.L.L.;X0X0X;XL.L.L.L.L.L.",
"L.L.L.L.L.;X0X0X0X;XL.L.L.L.L.L.L.L.L.L.L.L.L.0XA.z z z u u * /.* 6 #.L.L.;X0X0X0X;XL.L.L.L.L.L.L.L.L.L.L.L.L.0X;XL.L.L.L.L.L.L.",
"L.L.L.L.L.L.;X0X0XL.L.L.L.L.L.L.L.L.L.L.L.L.L.1X4 z z > 6 u * }.r.4 #.L.L.L.;X0X0XL.L.L.L.L.L.L.L.L.L.L.L.L.L.0X;XL.L.L.L.L.L.L.",
"L.L.L.L.L.L.;X0X0X;XL.L.L.L.L.L.L.L.L.L.L.L.;X>Xz u z > 4 6 w.S.w.# x L.L.L.;X0X0X;XL.L.L.L.L.L.L.L.L.L.L.L.;X0X0X;XL.L.L.L.L.L.",
"L.L.L.L.L.;X0X0X0X0X;XL.L.L.L.L.L.L.L.L.L.;X>X$ 6 6 u , 6 * w.}.w.# $ ,.L.;X0X0X0X0X;XL.L.L.L.L.L.L.L.L.L.;X0X0X0X0X;XL.L.L.L.L.",
"L.L.L.;X0X0X0X0X0X0X0X;XL.L.L.L.L.L.L.;X0XwXm b b n k , %.$ w.S.w.# * 5.0X0X0X0X0X0X0X;XL.L.L.L.L.L.L.;X0X0X0X0X0X0X0X0X;XL.L.L.",
"0X0X0X0X0X0X0X0X0X0X0X0X;XL.L.L.L.L.L.;X0X0X0X0X0X0Xu.6 z % w.S.e.3 , 9.1X0X0X0X0X0X0X0X;XL.L.L.L.L.L.;X0X0X0X0X0X0X0X0X0X0X0X0X",
"0X0X0X;XL.L.L.;X0X0X0X0X0X0X;XL.L.;X0X0X0X;XL.L.L.k.2 z u 2 w.{.f.{ 2 * <.L.L.;X0X0X0X0X0X0X;XL.L.;X0X0X0X;XL.L.L.;X0X0X0X0X0X0X",
"L.L.L.L.L.L.L.L.L.L.;X0X0X0X0X0X0X0X0X0X0X0X0X0XP.$.s [ [ 6 f.e.-.[ } u x F.L.L.L.L.;X0X0X0X0X0X0X0X0X0X0X0X0X0X;XL.L.L.;X0X0X;X",
"L.L.L.L.L.L.L.L.L.L.L.L.;X0X0X0X0X0X0X0X0X0X0X0X>Xd o.X.} z $.> u u u u s d H.L.L.L.L.L.;X0X0X0X0X0X0X0X0X0X0X0X0X0X;XL.L.0X;XL.",
"L.L.L.L.L.L.L.L.L.L.L.L.L.;X0X0X0X0X0X0X;XL.L.F.$.[ X.o.d u d @ < u k z u ] d L.L.L.L.L.L.;X0X0X0X0X0X0X;XL.L.L.;X0X0X;X0X0XL.L.",
"L.L.L.L.L.L.L.L.L.L.L.L.L.L.;X0X0X0X0X;XL.L.L.F.s .... ...d > ~.* z u d } o.{ s L.L.L.L.L.L.;X0X0X0X0X;XL.L.L.L.L.;X0X0X0X;XL.L.",
"L.L.L.L.L.L.L.L.L.L.L.L.L.L.L.;X0X0X;XL.L.L.H.s o. .,.g.1.d $ @X* 6 u ] X...X.{ s L.L.L.L.L.L.;X0X0X;XL.L.L.L.L.L.L.;X0X0XL.L.L.",
"L.L.L.L.L.L.L.L.L.L.L.L.L.L.L.L.0X0XL.L.L.L.H.d X.,.g.g.<.: 8.eX> u k [ X.....o.o.s L.L.L.L.L.L.0X0XL.L.L.L.L.L.L.L.L.0X0XL.L.L.",
"L.L.L.L.L.L.L.L.L.L.L.L.L.L.L.L.0X0XL.L.L.H.< X.o. .o.o.O.> e.eX{ u z #... .o.....z G.L.L.L.L.L.0X0XL.L.L.L.L.L.L.L.L.;X0XL.L.L.",
"L.L.L.L.L.L.L.L.L.L.L.L.L.L.L.;X0X0XL.L.L.> X...{ >.1.d.h.* @X:Xw., h.d.O.>...} ..{ < L.L.L.L.;X0X0XL.L.L.L.L.L.L.L.L.L.0X;XL.L.",
"L.L.L.L.L.L.L.L.L.L.L.L.L.L.;X0X0X0X;XL.z.] ..{ 6.~.XX[.m.> {.&X2.1 h.XX.X~.6.{ { { s L.L.L.;X0X0X0X;XL.L.L.L.L.L.L.L.;X0X0XL.L.",
"L.L.L.L.L.L.L.L.L.L.L.L.L.;X0X0XL.0X0X;X* { { a..X[.[.[.h., 8.#X| v N.[.^.D..Xa.{ X.#.l.L.;X0X0XL.0X0X;XL.L.L.L.L.L.;X0X0X0X;XL.",
"L.L.L.L.L.L.L.L.L.L.L.L.;X0X0XL.L.L.0X0Xk { a..X/.[.[.[.B.= 8.&X,.=..X[./.[.S..Xa. .{ 4 ;X0X0XL.L.L.0X0X;XL.L.L.L.;X0X0X;X0X0X;X",
"L.L.L.L.L.L.L.L.L.L.L.;X0X0X0X0X0X0X0X).=.2.[.[.S.S.[.[.oX[ j.,XC.O..X[.S.S.S./..Xa.| x 0X0X0X0X0X0X0X0X0X;XL.L.;X0X0X;XL.;X0X0X",
"0X0X;XL.L.L.L.L.;X0X0X0X0X0X;XL.L.L.;Xm 3 N.S.S.[.[.[.B.[.d.j.(.j.d.[.[./.D.S.S.S.[.3.b 0X0X;XL.L.L.;X0X0X0X0X0X0X0X;XL.L.L.L.L.",
"L.0X0X0X0X0X0X0X0X0X0X0X;XL.L.L.L.L.L.k # B.D./.[.[.[.[.[.B.g.e.t.^.D./.B.S./.[.S.{.C.b ;XL.L.L.L.L.L.L.;X0X0X;XL.L.L.L.0X0X0X0X",
"L.L.L.;X0X0X0X0X0X0X0X0X0X0X0X0X0X0X0X8.% V.[./.[./.D./.D.[.g.g.B.}.}.}.B./.D.B. XD.N.= m.0X0X0X0X0X0X0X0X0X0X0X0X0X0X0X;XL.L.L.",
"L.;X0X0X0X;XL.L.L.;X0X0X0X0X0X0X0X0Xu.z * g.B.[.B././.B./.[.B.g.}.S.[.}. XB./.B.B./.r.& 9.0X0X0X0X0X0X;XL.L.L.;X0X0X0X0X0X0X;XL.",
"0X0X0X0X0X0X0X0X;XL.L.L.;X0X0X;XL.L.#.k * > [.[.S.D.S.S.S.B.[.g.S.[.}.[.B.[.[.[.^.B.* # =.0X0X;XL.L.L.L.L.L.L.L.L.L.;X0X0X0X0X0X",
"0X0X0X0X0X0X0X0X0X0X;XL.L.0X;XL.L.L.#.s > % y..X/.[.[.S.D./.[.g.[.[.}.[./.D./.B./.B.$ % x wX;XL.L.L.L.L.L.L.L.L.L.L.L.L.;X0X0X0X",
"0X0X0X0X;XL.L.L.;X0X0X;X0X0XL.L.L.L.*.6 e e : N.[.[.[./.S././.j.[.}.S.[.[./.D./.B.8.q e % j.L.L.L.L.L.L.L.L.L.L.L.L.L.L.L.;X0X0X",
"0X0X0X;XL.L.L.L.L.;X0X0X0X;XL.L.G.Z.:.3 I G r % {.D.[.[.S.[.S.[.^.[.S.S.S.S.B././.@ K I g 3.J.L.L.L.L.L.L.L.L.L.L.L.L.L.L.L.;X0X",
"0X0X;XL.L.L.L.L.L.L.;X0X0XL.L.G.v.E.j 8 | F ~ 0.7.oXB.B.[.[.[.[.[.[.[./.[.B./.^.3.q.P F y.E.u.G.L.L.L.L.L.L.L.L.L.L.L.L.L.L.L.;X",
"0X0XL.L.L.L.L.L.L.L.L.0X0XL.G.u.2XtXq.*.t G ! pX9 b.&XoXV.B.S.[.S.[.[.[.V.$X@X,.0 iXL D v.tX2Xu.L.L.L.L.L.L.L.L.L.L.L.L.L.L.L.L.",
"0X0XL.L.L.L.L.L.L.L.L.;X0Xr.y.3XyXtXV 1.x.E ! 5Xo t V.9X<X[.[.[.[.[./.V.oX1XC.t D 4X~ N V tXyX3X0.e.L.L.L.L.L.L.L.L.L.L.L.L.L.L.",
"0X0XL.L.L.L.L.L.L.L.L.L.0XB 3XuXrX7Xq.; D.XXL ].o / 9 +XuX+XS.[.[.B.B.+X0XC.O ( X `.U n.j tXrXuX3XB L.L.L.L.L.L.L.L.L.L.L.L.L.;X",
"0X0X;XL.L.L.L.L.L.L.L.;Xc.I.uXuXiXyX0.; =.;.c./ E.O Q =X.X[.B.[.[.[./.oXOX=XR O '.! t.y.2XyXiXuXuXI.V L.L.L.L.L.L.L.L.L.L.L.;XqX",
"L.0X0X;XL.L.L.L.L.L.;X0XB 6XuXuXuXuX9.; s 6 *.p L J F e 7.^.[.[.[.B.[.^.-.w F J Y p d j yXuXiXiXuX6XB L.L.L.L.L.L.L.L.L.L.;X0X0X",
"L.L.0X0X;XL.L.L.L.;X0X0Xh W 4XuXyXuXrXj 2 { { [ y c [ | 7.~.[.[.[.[.[.N.;.| ] c y ` v 6XuXuXiXyX4XW M L.L.L.L.L.L.L.L.L.;X0X0XL.",
"0X0X0X0X0X;XL.L.;X0X0X;XG.|.A T.5XrXiXV 4 .... .4.{.S.S.B.}.[.S.[.[.[./.D.B.[.1. .{ = E.iXrX5XT.A K.G.L.L.L.L.L.L.L.L.;X0X0X0X0X",
"L.L.;X0X0X0X0X0X0X0X;XL.L.L.L.Z.Z U.I.I.= u ..{ 4.[.[.[.[.[.}.^.[.[./.S./.B.{.1.{ s I.q.Z U.V Z.0X0X;XL.L.L.L.L.;X0X0X0X0X0X;XL.",
"L.L.L.L.;X0X0X;XL.L.L.L.0X0X0X0XL.0X0XqX0.6 {  .=.j..X[.[.[.[.[.[.B.[.[.B. Xj.o.d x L.L.0X0X0X0XL.0X0X0X0X0X0X0X0X0X0X0X;XL.L.L.",
"L.L.L.L.L.;X0X0X;XL.0X0X0X;X;X0X0X0X0X0X;X#.k [ ' 4.B.[.S.S.[.S.[.[.[.[.[.B.1.| x L.0X0X0X;X;X0X0X0X0X0X;XL.L.L.;X0X0X;XL.L.L.L.",
"L.L.L.L.L.L.0X0X0X0X0X;XL.L.L.L.L.L.;X0X0X0Xq.n f.) i.[.[./.[.[./.[.[.B.{.4.` x Y.0X0X;XL.L.L.L.L.L.;X0X0X0X;XL.L.0X;XL.L.L.L.L.",
"L.L.L.L.L.L.;X0X0X;XL.L.L.L.L.L.L.L.L.L.;X0X0XQ._.p.` N.S.B.}.}.V.B.^./.M.+.#.U.0X;XL.L.L.L.L.L.L.L.L.L.;X0X0X;X0X0XL.L.L.L.L.L.",
"L.L.L.L.L.L.L.0X;XL.L.L.L.L.L.L.L.L.L.L.L.;X0X0XU.'.b 3 <XOXB.B.,X@XOX*Xa % y.0X;XL.L.L.L.L.L.L.L.L.L.L.L.;X0X0X0X;XL.L.L.L.L.L.",
"L.L.L.L.L.L.L.0X;XL.L.L.L.L.L.L.L.L.L.L.L.L.;X0X0Xm.W.V j.oX<X<XqX9XoXh.- 9.L.0X;XL.L.L.L.L.L.L.L.L.L.L.L.L.;X0X0XL.L.L.L.L.L.L.",
"L.L.L.L.L.L.;X0X0X;XL.L.L.L.L.L.L.L.L.L.L.L.;X0X0XP.u.I.  @ oX@X@X}.+ . y.G.;X0X0X;XL.L.L.L.L.L.L.L.L.L.L.L.;X0X0X;XL.L.L.L.L.L.",
"L.L.L.L.L.;X0X0X0X0X;XL.L.L.L.L.L.L.L.L.L.;X0X0X0X0X-X0.h W.m > 8 n T.n G.;X0X0X0X0X;XL.L.L.L.L.L.L.L.L.L.;X0X0X0X0X;XL.L.L.L.L.",
"L.L.L.;X0X0X0X0X0X0X0X0X;XL.L.L.L.L.L.;X0X0X0X0X0X0X0X-XJ.q.M Z Z M q.-X0X0X0X0X0X0X0X0X;XL.L.L.L.L.L.;X0X0X0X0X0X0X0X;XL.L.L.L."
};
