/* XPM */
static char *result[] = {
/* columns rows colors chars-per-pixel */
"64 64 228 2 ",
"   c #070B1B",
".  c #0B1130",
"X  c #14213E",
"o  c #341F30",
"O  c #411B3E",
"+  c #5A2B3F",
"@  c #6C1925",
"#  c #09184E",
"$  c #151F54",
"%  c #15235B",
"&  c #1C284C",
"*  c #2C315D",
"=  c #33345E",
"-  c #2F314F",
";  c #1C2C65",
":  c #2A2E65",
">  c #253165",
",  c #28346B",
"<  c #333B6C",
"1  c #363766",
"2  c #263978",
"3  c #333E74",
"4  c #3C3D74",
"5  c #383B76",
"6  c #43325A",
"7  c #712C4E",
"8  c #403F76",
"9  c #403E62",
"0  c #35437C",
"q  c #3C457C",
"w  c #384870",
"e  c #344375",
"r  c #595758",
"t  c #61605E",
"y  c #444569",
"u  c #494C75",
"i  c #44437B",
"p  c #454D7C",
"a  c #4B4A7D",
"s  c #434674",
"d  c #4B5073",
"f  c #6D6167",
"g  c #777479",
"h  c #736B71",
"j  c #764F73",
"k  c #940416",
"l  c #941633",
"z  c #B0263C",
"x  c #D03733",
"c  c #A62651",
"v  c #C23F43",
"b  c #9A5D6C",
"n  c #BB5C66",
"m  c #877B79",
"M  c #C3454A",
"N  c #E1665B",
"B  c #1E3883",
"V  c #253E85",
"C  c #2C468B",
"Z  c #2E488C",
"A  c #2C4284",
"S  c #3C4581",
"D  c #3D4985",
"F  c #344D8E",
"G  c #394D8B",
"H  c #344887",
"J  c #3C508F",
"K  c #364F91",
"L  c #3B4890",
"P  c #375191",
"I  c #395191",
"U  c #3A5698",
"Y  c #3F58A2",
"T  c #444D84",
"R  c #4C4B82",
"E  c #424884",
"W  c #504F84",
"Q  c #41538E",
"!  c #4B538B",
"~  c #495886",
"^  c #5B5A85",
"/  c #53558A",
"(  c #545A8B",
")  c #5A5B8D",
"_  c #555686",
"`  c #445592",
"'  c #4B5C94",
"]  c #485B98",
"[  c #455897",
"{  c #565E96",
"}  c #625F91",
"|  c #586187",
" . c #4D6195",
".. c #47609B",
"X. c #5A6294",
"o. c #54659D",
"O. c #5A679A",
"+. c #5F719B",
"@. c #636394",
"#. c #66699A",
"$. c #706B9A",
"%. c #66739B",
"&. c #69799C",
"*. c #677394",
"=. c #767596",
"-. c #6A6D85",
";. c #465DA5",
":. c #4D65A4",
">. c #546CA3",
",. c #5767A7",
"<. c #5B73A7",
"1. c #4B65B3",
"2. c #5369B1",
"3. c #5A6DB4",
"4. c #5C6FBA",
"5. c #5570BF",
"6. c #666CA2",
"7. c #667CAD",
"8. c #6975A7",
"9. c #727BA3",
"0. c #737CAA",
"q. c #7676A5",
"w. c #677BB5",
"e. c #5B74C2",
"r. c #5E7ACB",
"t. c #5B78C5",
"y. c #637BCA",
"u. c #617FD3",
"i. c #817B97",
"p. c #AB7583",
"a. c #7B829C",
"s. c #6F809E",
"d. c #7582A4",
"f. c #7583AB",
"g. c #7984AA",
"h. c #6C84B3",
"j. c #6C89B9",
"k. c #778AB4",
"l. c #7A8EBA",
"z. c #7887B2",
"x. c #7E95BD",
"c. c #7E91B5",
"v. c #6B80AC",
"b. c #6C83CA",
"n. c #7F98C0",
"m. c #6B89DD",
"M. c #6683D7",
"N. c #7FA3CD",
"B. c #75A7D7",
"V. c #6F8FE7",
"C. c #728FE1",
"Z. c #7090E7",
"A. c #88898A",
"S. c #979689",
"D. c #989893",
"F. c #908F96",
"G. c #A69B94",
"H. c #AB9492",
"J. c #ADA598",
"K. c #B5AA9C",
"L. c #B7B09E",
"P. c #8B91A7",
"I. c #9D9EA4",
"U. c #818FB3",
"Y. c #8395BD",
"T. c #8A95BE",
"R. c #868BA3",
"E. c #97A5B8",
"W. c #B5ADA2",
"Q. c #ACB6BA",
"!. c #B9B8B6",
"~. c #AEACA9",
"^. c #C5BBA9",
"/. c #C5BFB6",
"(. c #C7C2AC",
"). c #D4C9B6",
"_. c #DBD2BC",
"`. c #D7D1BD",
"'. c #C5C3B8",
"]. c #819AC1",
"[. c #8499C2",
"{. c #939EC5",
"}. c #86A1C9",
"|. c #8BA4CA",
" X c #8AA2C7",
".X c #96A8C8",
"XX c #95ACD1",
"oX c #9DB3DA",
"OX c #9CB3CF",
"+X c #A4B6CE",
"@X c #A1B4D4",
"#X c #B8B3C8",
"$X c #81A6EC",
"%X c #87AFF7",
"&X c #88ADF0",
"*X c #CEBDC6",
"=X c #BCCACC",
"-X c #B6CBDB",
";X c #AEC4E2",
":X c #B6C8E3",
">X c #BED5E3",
",X c #D9D6C4",
"<X c #D6D6D6",
"1X c #CACAC8",
"2X c #E6DAC7",
"3X c #F3D8CF",
"4X c #EDE2CC",
"5X c #ECE0C6",
"6X c #F1E4CC",
"7X c #E8E6D9",
"8X c #F6EBD7",
"9X c #FBF2DA",
"0X c #FFFADE",
"qX c #FCF1D6",
"wX c #C4D9EE",
"eX c #CCE3EC",
"rX c #D1E7EF",
"tX c #CFE7F0",
"yX c #D7EFF7",
"uX c #D8E0F3",
"iX c #FFFEE3",
"pX c #F8F6ED",
"aX c #FEFCEC",
"sX c #F8F3E2",
"dX c #FCFBF5",
"fX c #FBFBFB",
"gX c #F7F8F9",
"hX c #EAEFF5",
/* pixels */
"yXyXyXyXyXyXyXyXyXyXyXyX%XV.V.V.V.V.V.%XyXyXyXyXyXyXyXyXyXyXyXyXyXyXyXyXyXyXyXyXyXyXyXyX%XV.V.V.V.V.V.%XyXyXyXyXyXyXyXyXyXyXyXyX",
"yXyXyX%XV.V.V.%XyXyXyXyXyXyX%XV.V.%XyXyXyX%XV.V.V.%XyXyXyXyXyXyXyXyXyX%XV.V.V.%XyXyXyXyXyXyX%XV.V.%XyXyXyX%XV.V.V.%XyXyXyXyXyXyX",
"V.V.V.V.V.V.V.V.V.V.%XyXyXyXyXyXyXyXyXyXyXyXyXyX%XV.V.V.%XyXyX%XV.V.V.V.V.V.V.V.V.V.%XyXyXyXyXyXyXyXyXyXyXyXyXyX%XV.V.V.%XyXyX%X",
"V.V.V.V.V.V.V.V.V.V.V.V.%XyXyXyXyXyXyXyXyXyXyXyXyXyX%XV.V.yX%XV.V.V.V.V.V.V.V.V.V.V.V.V.%XyXyXyXyXyXyXyXyXyXyXyXyXyX%XV.V.yX%XV.",
"V.V.V.V.V.V.V.V.V.V.V.V.Z.%XyXyXyXyXyXyX%XV.V.V.%XyXyX%XyXyXV.V.V.V.V.V.V.V.V.V.V.V.V.V.V.%XyXyXyXyXyXyX%XV.V.V.%XyXyX%XyXyXV.V.",
"V.V.V.V.V.V.V.V.V.V.V.V.V.V.%XyXyXyXyX%XV.V.V.V.V.%XyXyXyX%XV.V.V.V.V.V.V.V.V.V.V.V.V.V.V.V.%XyXyXyXyX%XV.V.V.V.V.%XyXyXyX%XV.V.",
"V.V.V.V.V.V.V.V.V.V.V.V.V.V.V.%XyXyX%XV.V.V.V.V.V.V.%XyXyXV.V.V.V.V.V.V.V.V.V.V.V.V.V.V.V.V.V.%XyXyX%XV.V.V.V.V.V.V.%XyXyXV.V.V.",
"V.V.V.V.V.V.V.V.V.V.V.V.V.V.V.V.yXyXV.V.V.V.V.V.V.V.V.yXyXV.V.V.V.V.V.V.V.V.V.V.V.V.V.V.V.V.V.V.yXyXV.V.V.V.V.V.V.V.V.yXyXV.V.V.",
"V.V.V.V.V.V.V.V.V.V.V.V.V.V.V.V.yXyXV.V.V.V.V.V.V.V.V.%XyXV.V.V.V.V.V.V.V.V.V.V.V.V.V.V.V.V.V.V.yXyXV.V.V.V.V.V.V.V.V.%XyXV.V.V.",
"V.V.V.V.V.V.V.V.V.V.V.V.V.V.V.%XyXyXV.V.V.V.V.V.V.V.V.V.yX%XV.V.V.V.V.V.V.V.V.V.V.V.V.V.V.V.V.%XyXyXV.V.V.V.V.V.V.V.V.V.yX%XV.V.",
"V.V.V.V.V.V.V.V.V.V.V.V.V.V.%XyXyXyX%XV.V.V.V.V.V.V.V.%XyXyXV.V.V.V.V.V.V.V.V.V.V.V.V.V.V.V.%XyXyXyX%XV.V.V.V.V.V.V.V.%XyXyXV.V.",
"V.V.V.V.V.V.V.V.V.V.V.V.V.%XyXyXV.yXyX%XV.V.V.V.V.V.%XyXyXyX%XV.V.V.V.V.V.V.V.V.V.V.V.V.V.%XyXyXV.yXyX%XV.V.V.V.V.V.%XyXyXyX%XV.",
"V.V.V.V.V.V.V.V.V.V.V.V.%XyXyXV.V.V.yXyX%XV.V.V.V.%XyXyX%XyXyX%XV.V.V.V.V.V.V.V.V.V.V.V.%XyXyXV.V.V.yXyX%XV.V.V.V.%XyXyX%XyXyX%X",
"V.V.V.V.V.V.V.V.V.V.V.%XyXyXyXyXyXyXyXyXyX%XV.V.%XyXyX%XV.%XyXyXV.V.V.V.V.V.V.V.V.V.V.%XyXyXyXyXyXyXyXyXyX%XV.V.%XyXyX%XV.%XyXyX",
"yXyX%XV.Z.V.V.V.%XyXyXyXyXyX%XV.V.V.%XyXyXyXyXyXyXyX%XV.V.V.V.C.yXyX%XV.V.V.V.V.%XyXyXyXyXyX%XV.V.V.%XyXyXyXyXyXyXyX%XV.V.V.V.V.",
"V.yXyXyXyXyXyXyXyXyXyXyX%XV.V.V.V.V.V.V.%XyXyX%XV.V.V.V.yXyXyXyXV.yXyXyXyXyXyXyXyXyXyXyX%XV.V.V.V.V.V.V.%XyXyX%XV.V.V.V.yXyXyXyX",
"yXyXyXyX%XV.V.V.%XyXyX%XV.V.V.V.V.V.V.V.V.%XyXyX%XV.yXyXyX%X%XyXyX-Xd.d.>.V.V.V.%XyXyX%XV.V.V.V.V.V.V.V.V.%XyXyX%XV.yXyXyX%X%XyX",
"V.V.%XyXyXyX%XV.V.yX%XV.V.V.V.V.V.V.V.V.V.V.yXyXyXyXyX%XV.V.V.{ ! ( ' H d yX%XV.V.yX%XV.V.V.V.V.V.V.V.V.V.V.yXyXyXyXyX%XV.V.V.V.",
"V.V.V.V.%XyXyX%XyXyXV.V.V.V.V.V.V.V.V.V.V.V.%XyXyX%XV.C.u.3.E { I I G q &XyXyX%XyXyXV.V.V.V.V.V.V.V.V.V.V.V.%XyXyX%XV.r.r.t.t.e.",
"V.V.V.V.V.%XyXyXyX%XV.V.V.V.V.V.V.V.V.V.V.V.V.yX%XV.V.e.) ! [ F L U < M.V.%XyXyXyX%XV.V.V.V.V.V.V.V.V.V.V.V.V.yX%X;.,.D 3 ; # 2 ",
"V.Z.V.V.V.V.%XyXyXV.V.V.V.V.V.V.V.V.C.Z.V.V.V.yX%XV.e.[.>.F F I P H ' m.V.V.%XyXyXV.V.V.V.V.V.V.V.V.C.V.V.V.V.s.~  .0 >.U T 2.V.",
"V.V.V.V.V.V.%XyXyX%XV.V.V.V.V.V.V.V.V.Z.V.V.%XyXyXb.T.h.F I I I P 0 4.V.V.V.%XyXyX%XV.V.V.V.V.V.V.V.Z.Z.V.2.< +.U ] P F q m.V.V.",
"V.V.V.V.V.%XyXyXyXyX%XV.V.V.V.V.V.V.Z.Z.Z.%XyXyXOXg.7.Z P P K q H T V.V.V.%XyXyXyXyX%XV.V.V.V.V.V.V.V.Z.3.%.:.I P ` Q w V.V.V.V.",
"V.V.V.%XyXyXyXyXyXyXyX%XV.V.V.V.V.V.Z.%XyXyXyX.X7.k.Q K I I G i E 3.V.%XyXyXyXyXyXyXyX%XV.V.V.V.V.V.V.y.d.w.Z K U { | eX%XV.V.V.",
"yXyXyXyXyXyXyXyXyXyXyXyX%XZ.Z.V.V.V.3.! 9.9.*.S [.>.F I P P S 8 ^ yXyXyXyXyXyXyXyXyXyXyX$XT T ~ V.V.:.f.7.C P P Q | eXyXyXyXyXyX",
"yXyXyX%XV.V.V.%XyXyXyXyXyXeX$XT 4 ! D G @.X.) 0.v.H G F G S i = p _ u w T m.m.%XyXyXrX-.X.<.1 3.V.t.+.XXF I I ` ( U yXyXyXyXyXyX",
"V.V.V.V.V.V.V.V.V.V.%X-X.X1 / ..o.0.0.0.( ( ( u s T R a 0 * 3 < #.#.O.#.D 4 1 4.t.t.( 7.U 0 E.yXeXd.U.:.K K I 6.< C.V.V.%XyXyX%X",
"V.V.V.V.V.V.V.V.V.M.:.W O.7.Y.[.}.].].Y.].}.].}. X[.U.z.<.<.o.I C Z K F P P P D = 1 c...I p E.yX>X~ [.P F F #.^ c.yX%XV.V.yX%XV.",
"V.V.V.V.V.V.V.V.E 6.Y.k. X[.n.].x.Y.Y.n.n.].].Y.x.].].].}.}.Y.h.h.8.` K K G P P V @.k.K ] ^ E.yX~ c.:.Z I ` q.1 %XyXyX%XyXyXV.V.",
"V.V.V.V.V.V.` u @X[.|.].Y.].].].n.n.].x.].}.].}.Y.}.].].x.Y.x.}.].].l.l.6.I G P I Q < S [ ^ = y y XXo.F F o.q., m.%XyXyXyX%XV.V.",
"V.V.V.V.V.4.1 OX{.n.n.n.].x.].x.].].}.}.l.&.8.%.v.h.v.k.].n.].x.n.].].].].U.<.F F I K q = ) ^ @.q <.Z F ' q.s r.V.V.%XyXyXV.V.V.",
"V.V.V.V.:.{ z.n.x.n.n.].n.].].].}.[.%.| u > > s >.>.>.7.].Y.n.].].n.].n.].].[.7.K I P P S a X.) O. .o.O.0.#.% t.V.V.V.yXyXV.V.V.",
"C.e.! ' _ 0.}.Y.n.Y.].[.].[.].0.u s < 2 S 8.j.x.[.}.[.].].].n.Y.n.x.].n.].].].z.P I I G P S 4 4 W } @.W / , L m.V.V.V.%XyXV.V.V.",
"1 ( n.l.].].n.].]. X|.:X[.j.p s 9 = R $.x.].].].Y.].].n.x.x.x.x.[.[.n.n.].[.0.` F I I I P P S 4 4 4 ) i 8 : 1.V.V.V.V.V.yX%XV.V.",
"u wXXXx.].].x.z.|.gXuXg.T 6 O <X3Xv n n Y.n.n.].].n.Y.n.[.XX X@XhX;Xn.[.x.8.` K G P P P K F 5 _ W 4 8 E E , 1.V.V.V.V.%XyXyXV.V.",
"< oXwX].0.z.0.$.Y.{.d - + + k 1XN b B.N.n.n.].n.x.].].x. XXXXX;X>XXX0.8.' F P P I I I F I X.@.R a 1 E I G W ` M.V.V.%XyXyXyX%XV.",
"2.e oX;X{.$.6.$.9 : o p.l @ b 7Xx b [.<.n.n.n.n.].n.n.].].n.z.9.6.` ` F F I I F G P P K ' @., # $ 8 D K L ) 3 r.V.%XyXyX%XyXyX%X",
"V.2.G.X.A I ` I F H K 7 l z c c M v j j.].x.Y.Y.Y.x.f.6.#.U I J P K G F I K I I P P F [ ~ &.eX>X> 1 E G G 8 i e.%XyXyX%XV.%XyXyX",
"yXyX[.o r  .V C K K K K P 5 O.].+.5 X.j.h.7.6.X.,.P F F K K K I P P I I I I I G P K [ ) *.yX%XV.M., 4 8 i 5 ) , yXyX%XV.V.V.V.V.",
"Z.yXyX=X).<XP.R.Z C K K P G 0 X.X.D S H K > &  .X w :.F K G I I I P I F I K I K C [ ( a.%XV.V.V.C.u.2 1 i S R ) Y V.V.V.yXyXyXyX",
"Z.Z.Z.%XQ.K.qX9X1X~.%.F K F K H ;.K P I I H   &.& - v.H P P P P F F F F F K I J I.g P.yXyXyXyXyXyXyX>X+X; 1 a q.{ yXyXyX&XV.V.V.",
"Z.%XyXyXyXn.=.`.qXiX9X7X,XI.] ' ' Q V Z Z L   !.: t  XV C C A Z ' '  .o.O.R.,XK.L._.=XyXyXyXyXyXyXyXyX%Xm.2.> 4 % ~ ;XeXyXyX%XV.",
"yXyXyXyXyXyXyXI.F._._.4X9X9X0X6X2X!.=.d.U.=.- <Xy D.#X=.U.g.=.i.2X4X0X5X_.K.g K.,XD.-.m.%XyXyX%XC.V.V.V.C.V.V.P 2 V 0 >XyXyXyXyX",
"yXyXyXyXyXyXyXyXyXQ.F.,XiX8X2X6X0XiX0XiX6XS.W.4X).8X2X^.(.0XiXiX).(.G.K.L.g Q.+XQ.~.f.m.V.yX%XV.V.V.V.V.V.V.V.V.V.V.V.V.%XyXyXyX",
"yXyXyXyX&XZ.Z.Z.%XyXeXD.L.G.A.G.K.J.).J.^.^.4X6XiX8X4X,XJ.m D.D.f h K.8X5X*.V.V.%XyXyX%XyXyXV.V.V.V.V.V.V.V.V.V.V.V.V.V.V.%XyXyX",
"yXyXyX%XC.Z.Z.Z.V.%XyXrXrX&XC.C.C.C.c.g S.aXaX9X8X9XpXfXdXW.c.uXrXrXQ.A.h 6.V.V.V.%XyXyXyX%XV.V.V.V.V.V.V.V.V.V.V.V.V.V.V.V.%XyX",
"yXyX%XV.V.V.Z.Z.V.V.%XyXyXC.V.V.V.V.V.f /.fXgXpX9XsXfXfXfX1Xk.%XyXyX&XV.V.V.V.V.V.V.%XyXyXV.V.V.V.V.V.V.V.V.V.V.V.V.V.V.V.V.V.%X",
"yXyXV.V.V.V.V.V.V.Z.Z.yXyXC.V.V.V.V.V.w./.fXgXgXgXpXgXfXfX'.w.V.yXyXC.Z.V.V.V.V.V.V.V.yXyXV.V.V.V.V.V.V.V.V.V.V.V.V.V.V.V.V.V.V.",
"yXyXV.V.V.V.V.V.V.V.V.%XyXV.V.V.V.V.V.V.-.dXfXfXfXfXgXfXdXH.7.V.yXyXV.V.V.V.V.V.V.V.V.%XyXV.V.V.V.V.V.V.V.V.V.V.V.V.V.V.V.V.V.V.",
"yXyXV.V.V.V.V.V.V.V.V.V.yX%XV.V.V.V.V.V.b.S.7XfXfXfXfXfX,Xg.C.%XyXyXV.V.V.V.V.V.V.V.V.V.yX%XV.V.V.V.V.V.V.V.V.V.V.V.V.V.V.V.V.%X",
"yXyX%XV.V.V.V.V.V.V.V.%XyXyXV.V.V.V.V.V.Z.y.=.W.<XfXfXsX-.Z.%XyXyXyX%XV.V.V.V.V.V.V.V.%XyXyXV.V.V.V.V.V.V.V.V.V.V.V.V.V.V.V.%XyX",
"V.yXyX%XV.V.V.V.V.V.%XyXyXyX%XV.V.V.V.V.Z.V.Z.w.f.G.7X~.w.%XyXyXV.yXyX%XV.V.Z.V.V.V.%XyXyXyX%XZ.V.V.V.V.V.V.V.V.V.V.V.V.V.%XyXyX",
"V.V.yXyX%XV.V.V.Z.%XyXyX%XyXyX%XV.V.V.V.V.V.V.V.V.b.a.f %XyXyXV.V.V.yXyX%XV.V.V.V.%XyXyX%XyXyX%XV.V.V.V.V.V.V.V.V.V.V.Z.%XyXyXV.",
"yXyXyXyXyX%XV.Z.%XyXyX%XV.%XyXyXV.V.V.V.V.V.V.V.V.C.V.%XyXyXyXyXyXyXyXyXyX%XV.V.%XyXyX%XV.%XyXyXV.V.V.V.V.V.V.V.V.V.V.%XyXyXyXyX",
"V.V.%XyXyXyXyXyXyXyX%XV.V.V.V.V.yXyX%XZ.V.V.V.V.%XyXyXyXyXyX%XV.V.V.%XyXyXyXyXyXyXyX%XV.V.V.V.V.yXyX%XV.V.V.V.V.%XyXyXyXyXyX%XV.",
"V.V.V.V.%XyXyX%XV.V.V.V.yXyXyXyXV.yXyXyXyXyXyXyXyXyXyXyX%XV.V.V.V.V.V.V.%XyXyX%XV.V.V.V.yXyXyXyXV.yXyXyXyXyXyXyXyXyXyXyX%XV.V.V.",
"V.V.V.V.V.%XyXyX%XV.yXyXyX%X%XyXyXyXyXyX%XV.V.V.%XyXyX%XV.V.V.V.V.V.V.V.V.%XyXyX%XV.yXyXyX%X%XyXyXyXyXyX%XV.V.V.%XyXyX%XV.V.V.V.",
"V.V.V.V.V.V.yXyXyXyXyX%XV.V.V.V.V.V.%XyXyXyX%XV.V.yX%XV.V.V.V.V.V.V.V.V.V.V.yXyXyXyXyX%XV.V.V.V.V.V.%XyXyXyX%XV.V.yX%XV.V.V.V.V.",
"V.V.V.V.V.V.%XyXyX%XV.V.V.V.V.V.V.V.V.V.%XyXyX%XyXyXV.V.V.V.V.V.V.V.V.V.V.V.%XyXyX%XV.V.V.V.V.V.V.V.V.V.%XyXyX%XyXyXV.V.V.V.V.V.",
"V.V.V.V.V.V.V.yX%XV.V.V.V.V.V.V.V.V.V.V.V.%XyXyXyX%XV.V.V.V.V.V.V.V.V.V.V.V.V.yX%XV.V.V.V.V.V.V.V.V.V.V.V.%XyXyXyX%XV.V.V.V.V.V.",
"V.V.V.V.V.V.V.yX%XV.V.V.V.V.V.V.V.V.V.V.V.V.%XyXyXV.V.V.V.V.V.V.V.V.V.V.V.V.V.yX%XV.V.V.V.V.V.V.V.V.V.V.V.V.%XyXyXV.V.V.V.V.V.V.",
"V.V.V.V.V.V.%XyXyX%XV.V.V.V.V.V.V.V.V.V.V.Z.%XyXyX%XV.V.V.V.V.V.V.V.V.V.V.V.%XyXyX%XV.V.V.V.V.V.V.V.Z.V.V.V.%XyXyX%XV.V.V.V.V.V.",
"V.V.V.V.Z.%XyXyXyXyX%XV.V.V.V.V.V.V.V.V.V.%XyXyXyXyX%XV.V.V.V.V.V.V.V.V.Z.%XyXyXyXyX%XV.V.V.V.V.V.V.V.V.V.%XyXyXyXyX%XV.V.V.V.V.",
"V.V.V.%XyXyXyXyXyXyXyXyX%XV.V.V.V.V.V.%XyXyXyXyXyXyXyX%XV.V.V.V.V.V.V.%XyXyXyXyXyXyXyXyX%XV.V.V.V.V.V.%XyXyXyXyXyXyXyX%XZ.V.V.V."
};
