/* XPM */
static char *result[] = {
/* columns rows colors chars-per-pixel */
"64 64 223 2 ",
"   c #070B1B",
".  c #0B1130",
"X  c #14213E",
"o  c #341F30",
"O  c #411B3E",
"+  c #5A2B3F",
"@  c #6C1925",
"#  c #09184E",
"$  c #151F54",
"%  c #172556",
"&  c #2C315D",
"*  c #35365E",
"=  c #2F314F",
"-  c #1C2C65",
";  c #2A2E65",
":  c #243165",
">  c #2A366A",
",  c #343B6C",
"<  c #363766",
"1  c #263977",
"2  c #333E74",
"3  c #3C3D74",
"4  c #383B76",
"5  c #43325A",
"6  c #712C4E",
"7  c #403F76",
"8  c #403E62",
"9  c #35437C",
"0  c #3C457C",
"q  c #3B4772",
"w  c #344375",
"e  c #595758",
"r  c #61605E",
"t  c #444569",
"y  c #4A4D74",
"u  c #44437B",
"i  c #454D7C",
"p  c #4B497D",
"a  c #444674",
"s  c #51507E",
"d  c #6E6167",
"f  c #736A77",
"g  c #777479",
"h  c #716C70",
"j  c #764F73",
"k  c #940416",
"l  c #941633",
"z  c #B0263C",
"x  c #D03733",
"c  c #A62651",
"v  c #C23F43",
"b  c #9A5D6C",
"n  c #BB5C66",
"m  c #877B79",
"M  c #C3454A",
"N  c #E1665B",
"B  c #1E3883",
"V  c #223F8A",
"C  c #2C468B",
"Z  c #2E488C",
"A  c #2C4286",
"S  c #3C4581",
"D  c #3D4985",
"F  c #344D8E",
"G  c #394D8B",
"H  c #344887",
"J  c #3C508F",
"K  c #364E91",
"L  c #3B4890",
"P  c #375191",
"I  c #395191",
"U  c #3A5698",
"Y  c #3F58A3",
"T  c #444D84",
"R  c #4C4B82",
"E  c #424884",
"W  c #504F84",
"Q  c #41538E",
"!  c #4B538B",
"~  c #475883",
"^  c #5B5A85",
"/  c #53558A",
"(  c #545A8B",
")  c #5A5B8D",
"_  c #555686",
"`  c #445592",
"'  c #4B5C94",
"]  c #485B98",
"[  c #455A98",
"{  c #565E96",
"}  c #625F91",
"|  c #586187",
" . c #4D6195",
".. c #47609B",
"X. c #5A6294",
"o. c #54659D",
"O. c #5A679A",
"+. c #5F719B",
"@. c #636A89",
"#. c #636394",
"$. c #66699A",
"%. c #706B9A",
"&. c #66739B",
"*. c #69799C",
"=. c #697298",
"-. c #767596",
";. c #4D65A4",
":. c #546CA3",
">. c #5B69A3",
",. c #5B73A7",
"<. c #4B65B3",
"1. c #546AB1",
"2. c #5A6DB4",
"3. c #5570BF",
"4. c #666CA2",
"5. c #667CAD",
"6. c #6975A7",
"7. c #727BA3",
"8. c #737CAA",
"9. c #7676A5",
"0. c #627BB3",
"q. c #6B7EBD",
"w. c #5A74C2",
"e. c #5C79C8",
"r. c #637FD1",
"t. c #817B97",
"y. c #AB7583",
"u. c #788096",
"i. c #7582A4",
"p. c #7583AB",
"a. c #7B86AB",
"s. c #6C84B3",
"d. c #6C89B9",
"f. c #7383B1",
"g. c #778AB5",
"h. c #7A8BB4",
"j. c #7A8AB5",
"k. c #7E95BD",
"l. c #7E91B5",
"z. c #6B80AC",
"x. c #6B83C8",
"c. c #7D95C1",
"v. c #6C8ADD",
"b. c #6582D5",
"n. c #7491D6",
"m. c #7FA3CD",
"M. c #75A7D7",
"N. c #6F8FE7",
"B. c #728FE1",
"V. c #7090E7",
"C. c #898886",
"Z. c #979689",
"A. c #969793",
"S. c #8D8B94",
"D. c #A69B94",
"F. c #AB9492",
"G. c #ADA598",
"H. c #B4AC9D",
"J. c #B6A99C",
"K. c #848BA4",
"L. c #8893AA",
"P. c #818FB5",
"I. c #8395BD",
"U. c #8A98B7",
"Y. c #9E9DA3",
"T. c #96A4B8",
"R. c #B5ADA2",
"E. c #AAB4BB",
"W. c #BBB6B4",
"Q. c #B1AEA6",
"!. c #C5BBA9",
"~. c #C5BFB6",
"^. c #D4C9B6",
"/. c #DBD2BC",
"(. c #D7D1BD",
"). c #C7C3B0",
"_. c #819AC1",
"`. c #8499C2",
"'. c #939EC5",
"]. c #86A1C9",
"[. c #8BA4CA",
"{. c #8AA2C7",
"}. c #96A8C8",
"|. c #95ACD1",
" X c #9DB3DA",
".X c #9CB3CF",
"XX c #A9B9CB",
"oX c #A1B4D4",
"OX c #B8B3C8",
"+X c #83A7ED",
"@X c #87AFF7",
"#X c #CEBDC6",
"$X c #B6C8D1",
"%X c #AEC4E2",
"&X c #B6C8E3",
"*X c #BED5E3",
"=X c #D9D6C4",
"-X c #D6D6D6",
";X c #CACAC8",
":X c #E6DAC7",
">X c #F3D8CF",
",X c #EDE1CA",
"<X c #F1E4CC",
"1X c #E8E6D9",
"2X c #F6EBD7",
"3X c #FBF2DA",
"4X c #FFFADE",
"5X c #FCF1D6",
"6X c #C4D8E9",
"7X c #C0D9F4",
"8X c #CBE2EC",
"9X c #D1E7EF",
"0X c #CFE7F0",
"qX c #D7EFF7",
"wX c #D8E0F3",
"eX c #FFFEE3",
"rX c #F8F6ED",
"tX c #FEFCEC",
"yX c #F8F3E2",
"uX c #FCFBF5",
"iX c #FBFBFB",
"pX c #F7F8F9",
"aX c #EAEFF5",
/* pixels */
"qXqXqXqXqXqXqXqXqXqXqXqX@XN.N.N.N.N.N.@XqXqXqXqXqXqXqXqXqXqXqXqXqXqXqXqXqXqXqXqXqXqXqXqX@XN.V.N.N.N.N.@XqXqXqXqXqXqXqXqXqXqXqXqX",
"qXqXqX@XN.N.N.@XqXqXqXqXqXqX@XN.N.@XqXqXqX@XN.N.N.@XqXqXqXqXqXqXqXqXqX@XN.N.N.@XqXqXqXqXqXqX@XN.N.@XqXqXqX@XN.N.N.@XqXqXqXqXqXqX",
"N.N.N.N.N.N.N.N.N.N.@XqXqXqXqXqXqXqXqXqXqXqXqXqX@XN.N.N.@XqXqX@XN.N.N.N.N.N.N.N.N.N.@XqXqXqXqXqXqXqXqXqXqXqXqXqX@XN.N.N.@XqXqX@X",
"N.N.N.N.N.N.N.N.N.N.N.N.@XqXqXqXqXqXqXqXqXqXqXqXqXqX@XN.N.qX@XN.N.N.N.N.N.N.N.N.N.N.N.N.@XqXqXqXqXqXqXqXqXqXqXqXqXqX@XN.N.qX@XN.",
"N.N.N.N.N.N.N.N.N.N.N.N.N.@XqXqXqXqXqXqX@XN.N.N.@XqXqX@XqXqXN.N.N.N.N.N.N.N.N.N.N.N.N.N.N.@XqXqXqXqXqXqX@XN.N.N.@XqXqX@XqXqXN.N.",
"N.N.N.N.N.N.N.N.N.N.N.N.N.N.@XqXqXqXqX@XN.N.N.N.V.@XqXqXqX@XN.N.N.N.N.N.N.N.N.N.N.N.N.N.N.N.@XqXqXqXqX@XN.N.N.N.N.@XqXqXqX@XN.N.",
"N.N.N.N.N.N.N.N.N.N.N.N.N.N.N.@XqXqX@XN.N.N.N.N.N.N.@XqXqXN.N.N.N.N.N.N.N.N.N.N.N.N.N.N.N.N.N.@XqXqX@XN.N.N.N.N.N.N.@XqXqXN.N.N.",
"N.N.N.N.N.N.N.N.N.N.N.N.N.N.N.N.qXqXN.N.N.N.N.N.N.N.N.qXqXN.N.N.N.N.N.N.N.N.N.N.N.N.N.N.N.N.N.N.qXqXN.N.N.N.N.N.N.N.N.qXqXN.N.N.",
"N.N.N.N.N.N.N.N.N.N.N.N.N.N.N.N.qXqXN.N.N.N.N.N.N.N.N.@XqXN.N.N.N.N.N.N.N.N.N.N.N.N.N.N.N.N.N.N.qXqXN.N.N.N.N.N.N.N.V.@XqXN.N.N.",
"N.N.N.N.N.N.N.N.N.N.N.N.N.N.N.@XqXqXN.N.N.N.N.N.N.N.N.N.qX@XN.N.N.N.N.N.N.N.N.N.N.N.N.N.N.N.N.@XqXqXN.N.N.N.N.N.N.N.N.N.qX@XN.N.",
"N.N.N.N.N.N.N.N.N.N.N.N.N.N.@XqXqXqX@XN.N.N.N.N.N.N.N.@XqXqXN.N.N.N.N.N.N.N.N.N.N.N.N.N.N.N.@XqXqXqX@XN.N.N.N.N.N.N.N.@XqXqXN.N.",
"N.N.N.N.N.N.N.N.N.N.N.N.N.@XqXqXN.qXqX@XN.N.N.N.N.N.@XqXqXqX@XN.N.N.N.N.N.N.N.N.N.N.N.N.N.@XqXqXN.qXqX@XN.N.N.N.N.N.@XqXqXqX@XN.",
"N.N.N.N.N.N.N.N.N.N.N.N.@XqXqXN.N.N.qXqX@XN.N.N.N.@XqXqX@XqXqX@XN.N.N.N.N.N.V.N.N.N.N.N.@XqXqXN.N.N.qXqX@XN.N.N.N.@XqXqX@XqXqX@X",
"N.N.N.N.N.N.N.N.N.N.N.@XqXqXqXqXqXqXqXqXqX@XN.N.@XqXqX@XN.@XqXqXN.N.N.N.N.N.V.V.N.N.N.@XqXqXqXqXqXqXqXqXqX@XN.N.@XqXqX@XN.@XqXqX",
"qXqX@XN.N.N.N.N.@XqXqXqXqXqX@XN.N.N.@XqXqXqXqXqXqXqX@XN.N.N.V.V.qXqX@XN.N.V.V.V.@XqXqXqXqXqX@XN.N.N.@XqXqXqXqXqXqXqX@XN.N.N.V.V.",
"N.qXqXqXqXqXqXqXqXqXqXqX@XN.N.N.N.N.N.V.@XqXqX@XN.N.N.N.qXqXqXqXN.qXqXqXqXqXqXqXqXqXqXqX@XN.N.N.N.N.N.N.@XqXqX@XN.N.N.N.qXqXqXqX",
"qXqXqXqX@XN.N.N.@XqXqX@XN.N.N.N.N.N.N.N.N.@XqXqX@XN.qXa.i.>.B.qXqXqXqXqX@XN.B.B.@XqXqX@XN.N.N.N.V.N.N.N.N.@XqXqX@XN.qXqXqX@X@XqX",
"N.N.@XqXqXqX@XN.N.qX@XN.N.N.N.N.N.N.N.N.N.N.qXqXqXqXqXq D ' ( T { B.@XqXqXqX@XB.N.qX@XN.N.N.N.N.N.N.N.N.N.N.qXqXqXqXqX@XN.N.N.N.",
"w.e.e.e.n.qXqX@XqXqXN.N.N.N.N.N.N.N.N.N.N.N.@XqXqX@XN.N.0 G I I { E 2.r.@XqXqX@XqXqXN.N.N.N.N.N.N.N.N.N.N.N.@XqXqX@XN.N.N.N.N.N.",
"1 # - 2 T 0.l.qXqX@XN.N.N.N.N.N.N.N.N.N.N.N.N.qX@XN.N.N.b., U F L ] ! ) w.@XqXqXqX@XN.N.N.N.N.N.N.N.N.N.N.N.N.qX@XN.N.N.N.N.N.N.",
"N.1.T U :.w  .| i.N.N.N.N.N.N.N.N.N.N.N.N.N.N.qX@XN.N.N.v.' G I K K K ,.`.w.@XqXqXN.N.N.N.N.N.N.N.N.N.N.N.N.N.qX@XN.N.N.N.N.V.N.",
"N.N.v.q F P ..[ +., <.N.N.N.N.N.N.N.N.N.N.N.@XqXqX@XN.N.N.2.w P G K K F d.I.r.qXqX@XN.N.N.N.N.N.N.N.N.N.N.N.@XqXqX@XN.N.N.N.N.N.",
"N.N.V.N.q Q U F P :.&.1.N.N.N.N.N.N.N.N.N.@XqXqXqXqX@XN.N.N.T G S I G K H s.a..XqXqX@XN.N.N.N.N.N.N.N.N.N.@XqXqXqXqX@XN.N.N.N.N.",
"N.N.V.@XwX| X.U F H 0.i.1.N.N.N.N.N.N.@XqXqXqXqXqXqXqXqX@XN.2.D u G P P I G g.5.}.qXqX@XN.N.N.N.N.N.N.@XqXqXqXqXqXqXqXqX@XN.N.N.",
"qXqXqXqXqX8X| J P I Z 5.i.;.N.B.T ~ T M.qXqXqXqXqXqXqXqXqXqXqX^ 3 S P K I Z >._.9 =.*.*.( 1.N.N.N.N.N.@XqXqXqXqXqXqXqXqXqXqXqXqX",
"qXqXqX@XN.N.F ( U G G F |.+.e.N.2.> 6.O.@.@XN.N.N.+X8X@.y y ^ y < 7 D K G F H z.8.X.#.#.G T ! 3 D @X8XqXqX@XN.N.N.@XqXqXqXqXqXqX",
"N.N.N.N.N.N.N.> 6.U K F ;.l.i.8XqXT.9 U 5.@.$XXXx.< 3 S $.O.O.$., 4 & 2 p R i y y ( ( ( 8.8.9.:.] / , T.$XqXqXqX@XN.N.N.@XqXqX@X",
"N.N.N.N.N.N.N.Y ^ O.Z K I ].~ *XqXT.T U ..l.< * S U I I F F Z Z G o.,.,.a.I.].`.].].k.]._._._._.`.I.5.O.s U.6XqXqXqX@XN.N.qX@XN.",
"N.N.N.N.N.N.N.N.< 9.[ K F ;.h.| qXT.^ ] F d.#.9 P F F F F ` z.s.s.I.{.]._._._._.c._.k.k.I.k.k.k._._.].].h.U.6.E @XqXqX@XqXqXN.N.",
"N.N.N.N.N.N.N.N.> -.{ K F ;.[.q t * ^ ` H < Q U P F I 4.k.k.I.I.].I.k.c._._.`._.c.].].].k.m.I.].I.c.k.I.].[.k..Xy O.wXqXqX@XN.N.",
"N.N.N.N.N.N.N.N.r.u 9.{ F Z :.i #.^ ) < 0 K K G F O.l.].k._._.m.k.I.c.I.g.5.s.0.6.*.*.h.[.].I.c.k._.k._._.k.k.{.oX* e.qXqXN.N.N.",
"N.N.N.N.N.N.N.N.w.% $.9.O.o.{ o.) ) p S U G K K z.].c.c.c.k.c.I.I.c._.c.8.:.,.:.a : : y | =._.].]._.k._.k._._.k.c.g.o.U.qXN.N.N.",
"N.N.N.N.N.N.N.N.N.C > W W } } W 3 3 S P I F P I j.`._.c.c._.c.c.m.I.I.c.].].].I.h.d.5.9 1 w a y 8._._.I.c.c.c.I.c.].8./ &.! w.B.",
"N.N.N.N.N.N.N.N.N.<.; 7 p ) 7 7 3 S P P I I P G ` p._._._.c.`.`.k.k.k.k.k.k.].I.m.I.I.k.%.p 5 5 t i p.].&X].{._._._._._.k._.( < ",
"N.N.N.N.N.N.N.N.N.<.< E 0 7 < W / 4 F P I I I P F ` 6.k.`.c.%XaX.X{.}.].k.m.k.k.c.]._.I.n n v >X-XO 5 ~ 8.wXaX'.g.k._._.k.|.7Xy ",
"N.N.N.N.N.N.N.N.r.Q W F K E 3 y R } X.I G I G I G K F ` 5.a.}.*X%X.X|.{.k.I.c.I.I._.c.k.m.M.b N #Xk + + = ) '.`.%.7.a.8._.6X X, ",
"N.N.N.N.N.N.N.N.e.4 ) L U G 7 $ # , #.' G P P I K I I G G ' U &.7.g.c.c.I._._.I.I.c._.k.,.].b x 2Xy.@ l F.o & 8 9.%.&.[.%X X9 2.",
"N.N.N.N.N.N.N.V.w.E 7 L L E < : *X6X*.! [ K P K I K I K I F F J G J U &.*.p.k.k.I.I._.].d.j M M c c z l 6 4 F F I I P 9 X.D.T.qX",
"qXqX@XN.N.N.N.N.; ( 3 u 7 3 1 b.N.N.@X=.) [ F I G I I K F I I F I G I F F F P >.O.&.5.s.s.X., >.m. .2 P C K K K C C  .e o g.V.V.",
"N.qXqXqXqXqXqXa.{ R S u , : r.N.N.N.N.N.o.( [ C P I K I I I I F P P I F F ;.w X  .# : K H D D O. .9 G P L F C Z K.L.,X^.$XqXqXqX",
"N.N.N.@XqXqXqXX.9.E < & XX*XqXqXqXqXqXqXqXK.f Y.U J G F F F F F K G I K F 0.= = =.  Z P F I P ..F K K L F &.Q.;X5X5XJ.XX@XB.N.N.",
"N.@XqXqXwXn.A % q > T.6XqXqXqXqXqXqXqX@XN.c./.R.J./.K.:.o.'  .' A Z C Z B '.r ; W.  L C A A J  .' ] Y./.1X2XeX2X(.C.E.qXqXqX@XN.",
"qXqXqXqX*Xi J s ] N.N.N.@XqXqX@XN.N.N.N.v.@.D.(.H.g H./.,X4X,X:XS.-.p.P.*.OXZ.t =Xt -.a.i.-.W.,X<XeX3X3X:X:X=XS.&.N.@XqXqXqXqXqX",
"qXqXqXqXqXqXqXqXqXqX@XN.N.qX@XN.N.N.N.N.v.6.6.s.d.5.f R.J.D.).^.eXeX4X).!.:X2X(.:XR.Z.<XeX4X4X4X<X:X5XyX(.C.j.N.B.N.N.N.@XqXqXqX",
"qXqXqXqX@XV.V.V.@XqXqX@XqXqXN.N.N.N.N.N.B.N.N.N.N.N.=.:X2XJ.h d A.A.m G./.<X2X4X<X<X).!.G.^.J.H.D.C.G.H.S.n.N.N.N.N.N.N.N.@XqXqX",
"qXqXqX@XV.V.V.V.N.@XqXqXqX@XN.N.N.N.N.N.N.N.N.N.N.N.%.f -.K.+X0X9XE.R.iXiXuX2X5X2XtXuXZ.g U.B.V.v.B.B.B.N.N.N.N.N.N.N.N.N.N.@XqX",
"qXqXM.V.N.V.V.V.N.N.@XqXqXN.N.N.N.N.N.N.N.N.N.N.N.N.V.V.V.V.N.@XqX$X;XiXpXiXyX3XrXpXiXW.h V.V.V.N.N.B.N.N.N.N.N.N.N.N.N.N.N.N.@X",
"qXqXN.N.V.V.V.V.N.N.N.qXqXN.N.N.N.N.N.N.N.N.N.N.N.N.N.V.V.V.N.N.qXE.).uXpXpXrXpXpXpXiX).E.V.V.V.N.N.N.N.N.N.N.N.N.N.N.N.N.N.N.N.",
"qXqXV.V.N.N.N.N.N.N.N.@XqXN.N.N.N.N.N.N.N.N.N.N.N.N.N.N.N.N.N.N.qXE.D.uXiXpXpXpXiXiXuXg qXN.N.N.N.N.N.N.N.N.N.N.N.N.N.N.N.N.N.N.",
"qXqXV.V.N.N.N.N.N.N.N.N.qX@XN.N.N.N.N.N.N.N.N.N.N.N.N.N.N.N.N.@XqXqXi.^.iXiXpXiXiX1XA.x.qX@XN.N.N.N.N.N.N.N.N.N.N.N.N.N.N.N.N.@X",
"qXqXM.V.N.N.N.N.N.N.N.@XqXqXN.N.N.N.N.N.N.N.N.N.N.N.N.N.N.N.@XqXqXqX@X-.yXiXiX-XR.-.x.@XqXqXN.N.N.N.N.N.N.N.N.N.N.N.N.N.N.N.@XqX",
"V.qXqX@XN.N.N.N.N.N.@XqXqXqX@XN.N.N.N.N.N.N.N.N.N.N.N.N.N.@XqXqXN.qXqXc.R.1XD.a.q.N.@XqXqXqX@XN.N.N.N.N.N.N.N.N.N.N.N.N.N.@XqXqX",
"V.V.qXqX@XN.N.N.N.@XqXqX@XqXqX@XN.N.N.N.N.N.N.N.N.N.N.N.@XqXqXN.N.N.qXqXd u.b.V.N.@XqXqX@XqXqX@XN.N.N.N.N.N.N.N.N.N.N.N.@XqXqXN.",
"qXqXqXqXqX@XN.N.@XqXqX@XN.@XqXqXN.N.N.N.N.N.N.N.N.N.N.@XqXqXqXqXqXqXqXqXqX@XV.V.@XqXqX@XN.@XqXqXN.N.N.N.N.N.N.N.N.N.N.@XqXqXqXqX",
"V.V.@XqXqXqXqXqXqXqX@XN.N.N.N.N.qXqX@XB.N.N.N.N.@XqXqXqXqXqX@XN.N.N.@XqXqXqXqXqXqXqX@XN.N.N.N.N.qXqX@XN.N.N.N.N.@XqXqXqXqXqX@XN.",
"V.V.V.V.@XqXqX@XN.N.N.N.qXqXqXqXN.qXqXqXqXqXqXqXqXqXqXqX@XN.N.N.N.N.N.N.@XqXqX@XN.N.N.N.qXqXqXqXN.qXqXqXqXqXqXqXqXqXqXqX@XN.N.N.",
"N.N.N.N.N.@XqXqX@XN.qXqXqX@X@XqXqXqXqXqX@XN.N.N.@XqXqX@XN.N.N.N.N.N.N.N.N.@XqXqX@XN.qXqXqX@X@XqXqXqXqXqX@XN.N.N.@XqXqX@XN.N.N.N.",
"N.N.N.N.N.N.qXqXqXqXqX@XN.N.N.N.N.N.@XqXqXqX@XN.N.qX@XN.N.N.N.N.N.N.N.N.N.N.qXqXqXqXqX@XN.N.N.N.N.N.@XqXqXqX@XN.N.qX@XN.N.N.N.N.",
"N.N.N.N.N.N.@XqXqX@XN.N.N.N.N.N.N.N.N.N.@XqXqX@XqXqXN.N.N.N.N.N.N.N.N.N.N.N.@XqXqX@XN.N.N.N.N.N.N.N.N.N.@XqXqX@XqXqXN.N.N.N.N.N.",
"N.N.N.N.N.N.N.qX@XN.N.N.N.N.N.N.N.N.N.N.N.@XqXqXqX@XN.N.N.N.N.N.N.N.N.N.N.N.N.qX@XN.N.N.N.N.N.N.N.N.N.N.N.@XqXqXqX@XN.N.N.N.N.N.",
"N.N.N.N.N.N.N.qX@XN.N.N.N.N.N.N.N.N.N.N.N.N.@XqXqXN.N.N.N.N.N.N.N.N.N.N.N.N.N.qX@XN.N.N.N.N.N.N.N.N.N.N.N.N.@XqXqXN.N.N.N.N.N.N.",
"N.N.N.N.N.N.@XqXqX@XN.N.N.N.N.N.N.N.N.N.N.N.@XqXqX@XN.N.N.N.N.N.N.N.N.N.N.N.@XqXqX@XN.N.N.N.N.N.N.N.N.N.N.N.@XqXqX@XN.N.N.N.N.N.",
"N.N.N.N.N.@XqXqXqXqX@XN.N.N.N.N.N.N.N.N.N.@XqXqXqXqX@XN.N.N.N.N.N.N.N.N.N.@XqXqXqXqX@XN.N.N.N.N.N.N.N.N.N.@XqXqXqXqX@XN.N.N.N.N.",
"N.N.N.@XqXqXqXqXqXqXqXqX@XN.N.N.N.N.N.@XqXqXqXqXqXqXqX@XN.N.N.N.N.N.N.@XqXqXqXqXqXqXqXqX@XN.N.N.N.N.N.@XqXqXqXqXqXqXqX@XN.N.N.N."
};
