/* XPM */
static char *result[] = {
/* columns rows colors chars-per-pixel */
"64 64 202 2 ",
"   c #2E2B4E",
".  c #2E2E55",
"X  c #2E2E5A",
"o  c #302F5B",
"O  c #322E55",
"+  c #2F325D",
"@  c #32325C",
"#  c #3A3A5D",
"$  c #353155",
"%  c #302B4D",
"&  c #322F61",
"*  c #2D3666",
"=  c #333664",
"-  c #353965",
";  c #3C3C64",
":  c #343A6B",
">  c #3A3B6C",
",  c #383566",
"<  c #2A3C73",
"1  c #323D74",
"2  c #3D3D74",
"3  c #383D7A",
"4  c #2F2E69",
"5  c #543B5F",
"6  c #673145",
"7  c #693E5E",
"8  c #423E6C",
"9  c #413E75",
"0  c #423F78",
"q  c #3D4168",
"w  c #2A427C",
"e  c #3D4375",
"r  c #3E447B",
"t  c #37477C",
"y  c #42436D",
"u  c #48486E",
"i  c #454575",
"p  c #464B77",
"a  c #42427B",
"s  c #4D4B7C",
"d  c #46487B",
"f  c #4A527A",
"g  c #53567C",
"h  c #665C6E",
"j  c #645C74",
"k  c #694467",
"l  c #6D697C",
"z  c #766A76",
"x  c #747779",
"c  c #903137",
"v  c #8D3F52",
"b  c #8F4052",
"n  c #8F877E",
"m  c #8A897D",
"M  c #3E3F82",
"N  c #2E488C",
"B  c #344782",
"V  c #3C4681",
"C  c #354B86",
"Z  c #3E4A86",
"A  c #354D8D",
"S  c #3A4D8C",
"D  c #37508F",
"F  c #38508F",
"G  c #344E90",
"H  c #365192",
"J  c #395192",
"K  c #3B569A",
"L  c #355499",
"P  c #424682",
"I  c #434A84",
"U  c #484B87",
"Y  c #49548A",
"T  c #525284",
"R  c #5B5A8C",
"E  c #545986",
"W  c #405494",
"Q  c #4B5A97",
"!  c #455B99",
"~  c #475A98",
"^  c #525C94",
"/  c #585E95",
"(  c #514F86",
")  c #5C6688",
"_  c #4E6196",
"`  c #51649B",
"'  c #5A6599",
"]  c #5E6B9B",
"[  c #586493",
"{  c #6C6C8B",
"}  c #7A7384",
"|  c #6D6C9D",
" . c #666798",
".. c #706F9F",
"X. c #747E95",
"o. c #6B709D",
"O. c #465AA4",
"+. c #4B5DAD",
"@. c #5A6CA2",
"#. c #5566A8",
"$. c #5E73A8",
"%. c #596CB3",
"&. c #566EB0",
"*. c #6D72A3",
"=. c #6C7BAE",
"-. c #657CAA",
";. c #7273A3",
":. c #7979A6",
">. c #747CAA",
",. c #7A7EAB",
"<. c #7877A7",
"1. c #6776B7",
"2. c #5565C1",
"3. c #5A6AC2",
"4. c #5969C5",
"5. c #5F75C2",
"6. c #6A7EC0",
"7. c #627DCC",
"8. c #6178C6",
"9. c #77829B",
"0. c #7A80AE",
"q. c #7887A8",
"w. c #7B86B3",
"e. c #7D8BB5",
"r. c #738DB9",
"t. c #778BB4",
"y. c #7C94BD",
"u. c #7B94BD",
"i. c #6781BD",
"p. c #6D82C3",
"a. c #6D84CD",
"s. c #7186C7",
"d. c #778EC0",
"f. c #718FCE",
"g. c #7D94C0",
"h. c #7D98C4",
"j. c #7F97CA",
"k. c #6783D5",
"l. c #6986DA",
"z. c #6D8ADD",
"x. c #7595D7",
"c. c #6F8FE7",
"v. c #7DA1E5",
"b. c #8E8B82",
"n. c #9F978E",
"m. c #979486",
"M. c #878792",
"N. c #92949B",
"B. c #A9A19A",
"V. c #828EA6",
"C. c #8693AA",
"Z. c #838BB7",
"A. c #8294BD",
"S. c #8898BD",
"D. c #9CA2A9",
"F. c #97A6BA",
"G. c #A2AFAF",
"H. c #BFB3A7",
"J. c #B3BFBF",
"K. c #CCBEAF",
"L. c #CFC4AF",
"P. c #C6C3B1",
"I. c #DCCBBA",
"U. c #D5C6B5",
"Y. c #E2D1BC",
"T. c #8199C1",
"R. c #8A9CC2",
"E. c #8A9ED0",
"W. c #86A0C4",
"Q. c #8CA5CA",
"!. c #89A2C6",
"~. c #93AACD",
"^. c #94A6CB",
"/. c #94A9D2",
"(. c #95B2D6",
"). c #A5BADB",
"_. c #A5B8D8",
"`. c #ADB6CA",
"'. c #83A8EC",
"]. c #87AFF7",
"[. c #A2BBE0",
"{. c #B8C7CE",
"}. c #BACEDB",
"|. c #BDD2DF",
" X c #ACC4E4",
".X c #B3C6E3",
"XX c #E6D8C4",
"oX c #E8E4CE",
"OX c #EEE8D0",
"+X c #F0E7D1",
"@X c #F2EBD4",
"#X c #FBF4DB",
"$X c #F1F1D7",
"%X c #C7DAE2",
"&X c #C9DFEA",
"*X c #C1D3E6",
"=X c #CFDBED",
"-X c #CEE5EF",
";X c #D7EFF7",
":X c #D2E1F7",
">X c #FFFAE1",
",X c #ECF0F9",
/* pixels */
";X;X;X;X;X;X;X;X;X;X;X;X].c.c.c.c.c.c.].;X;X;X;X;X;X;X;X:X-Xu @ u -X-X;X;X;X;X;X;X;X;X;X].c.c.c.c.c.c.].;X;X;X;X;X;X;X;X;X;X;X;X",
";X;X;X].c.c.c.].;X;X;X;X;X;X].c.c.].;X;X;X].c.c.c.].;X-Xg @ e e 2 @ g '.c.c.c.].;X;X;X;X;X;X].c.c.].;X;X;X].c.c.c.].;X;X;X;X;X;X",
"c.c.c.c.c.c.c.c.c.c.].;X;X;X;X;X;X;X;X;X;X;X;X;X].c.k.e > a 2 a e a 2 e k.c.c.c.c.c.].;X;X;X;X;X;X;X;X;X;X;X;X;X].c.c.c.].;X;X].",
"c.c.c.c.c.c.c.c.c.c.c.c.].;X;X;X;X;X;X;X;X;X;X;X;X;X` . > a @ - a 0 > . Q c.c.c.c.c.c.c.].;X;X;X;X;X;X;X;X;X;X;X;X;X].c.c.;X].c.",
"c.c.c.c.c.c.c.c.c.c.c.c.c.].;X;X;X;X;X;X].c.c.c.].*Xg - t d @ f > a e - d 7.c.c.c.c.c.c.c.].;X;X;X;X;X;X].c.c.c.].;X;X].;X;Xc.c.",
"c.c.c.c.c.c.c.c.c.c.c.c.c.c.].;X;X;X;X].c.c.c.c.k.t   t K V O Q.- > Z B . #.c.c.c.c.c.c.c.c.].;X;X;X;X].c.c.c.c.c.].;X;X;X].c.c.",
"c.c.c.c.c.c.c.c.c.c.c.c.c.c.c.].;X;X].c.c.c.c.c.1.6 * D H P >  X4 O I G - t 5.c.c.c.c.c.c.c.c.].;X;X].c.c.c.c.c.c.c.].;X;Xc.c.c.",
"c.c.c.c.c.c.c.c.c.c.c.c.c.c.c.c.;X;Xc.c.c.c.c.l.k c w L L - a  .`.< : K w 6 1.c.c.c.c.c.c.c.c.c.;X;Xc.c.c.c.c.c.c.c.c.;X;Xc.c.c.",
"c.c.c.c.c.c.c.c.c.c.c.c.c.c.c.c.;X;Xc.c.c.c.l.5 b q < H J + V d ,XT , L < c 7 5.c.c.c.c.c.c.c.c.;X;Xc.c.c.c.c.c.c.c.c.].;Xc.c.c.",
"c.c.c.c.c.c.c.c.c.c.c.c.c.c.c.].;X;Xc.c.c.l.: I U N ^ *.! + A d .XS.= <.Q C b 8.c.c.c.c.c.c.c.].;X;Xc.c.c.c.c.c.c.c.c.c.;X].c.c.",
"c.c.c.c.c.c.c.c.c.c.c.c.c.c.].;X;X;X].c.c.k.= ~ 0.h.S.W.#.+ A I .XS., :.;.;.^ : 5.c.c.c.c.c.].;X;X;X].c.c.c.c.c.c.c.c.].;X;Xc.c.",
"c.c.c.c.c.c.c.c.c.c.c.c.c.].;X;Xc.;X;X].c.@ K q.W.u.u.h.0.; C h.).R ; <.....;.! * c.c.c.c.].;X;Xc.;X;X].c.c.c.c.c.c.].;X;X;X].c.",
"c.c.c.c.c.c.c.c.c.c.c.c.].;X;Xc.c.c.;X;Xx.* _ W.h.h.S.h.w.# B t.).R ; <.| o.;.! : 5.c.c.].;X;Xc.c.c.;X;X].c.c.c.c.].;X;X].;X;X].",
"c.c.c.c.c.c.c.c.c.c.c.].;X;X;X;X;X;X;X;X+ L ` h.y.T.y.W.,.> ! 2 ). .e 0.>.>.,.[ H + c.].;X;X;X;X;X;X;X;X;X].c.c.].;X;X].c.].;X;X",
";X;X].c.c.c.c.c.].;X;X;X;X;X].c.c.c.].;Xq J :.S.h.T.T.T.e._ t.] (.=.@.!.T.T.W.0.J 1 F.;X;X;X].c.c.c.].;X;X;X;X;X;X;X].c.c.c.c.c.",
"c.;X;X;X;X;X;X;X;X;X;X;X].c.c.c.c.c.c.&.I K e.u.A.A.h.T.T.Z...e.0.o.e.T.S.h.T.t.' J @ ;X].c.c.c.c.c.c.c.].;X;X].c.c.c.c.;X;X;X;X",
";X;X;X;X].c.c.c.].;X;X].c.c.c.c.c.c.c.# A K Q._.u.u.h.h.h.S.X.| | ;.W.h.S.T.h.R.:.J i ].c.c.c.c.c.c.c.c.c.].;X;X].c.;X;X;X].].;X",
"c.c.].;X;X;X].c.c.;X].c.c.c.c.c.c.=.{ # A J ^.*Xu.S.S.h.S.h.e.t.;.t.h.S.h.T.T.g.e.J S Y { =.c.c.c.c.c.c.c.c.;X;X;X;X;X].c.c.c.c.",
"c.c.c.c.].;X;X].;X;Xc.c.c.c.s.{ X.B.n y A W ^..Xt.h.h.S.h.S.h.u.;.T.y.T.y.T.r.).~.K S q n B.X.{ s.c.c.c.c.c.].;X;X].c.c.c.c.c.c.",
"c.c.c.c.c.].;X;X;X].c.l.j l x n.K.Y.m.i S K Q.:X_.u.h.h.h.h.h.S.;.T.h.S.h.u._.:X~.J S i m.I.K.n.x l l z.c.c.c.;X].c.c.c.c.c.c.c.",
"c.c.c.c.c.c.].;X;Xc.h z K.I.@X@X#XXXU.g S K Q.,X-Xt.y.A.y.h.h.y.;.T.T.T.h.u.}.:XQ.W A g U.XX#X@XOXU.L.z h c.c.;X].c.c.c.c.c.c.c.",
"c.c.c.c.c.c.].;X;X].z +X#X#X#XXXU.I.Y.g A J S.h.W.A.A.h.T.R.q w.>.h.h.S.T.g.T.T.R.K A g Y.I.U.oX#X#X#X@Xz c.].;X;X].c.c.c.c.c.c.",
"c.c.c.c.c.].;X;X;X;X].z @X>X#X$X#XXXI._ G ! T.h.A.h.h.S.S.W.; q  .>.h.S.A.u. X~.T.! A Q I.Y.#X#X#X#X@Xz z.].;X;X;X;X].c.c.c.c.c.",
"c.c.c.].;X;X;X;X;X;X;X'.} @X>X$X$XXXXX_ H 3.g.S.h.A.y.h.h.j.; (.+ o.W.h.T.T.y.S.g.3.G _ XXXX#X#X#X$X} '.;X;X;X;X;X;X;X;X].c.c.c.",
";X;X;X;X;X;X;X;X;X;X;X;XE.b.oX>X>X>X#X` G 4.3.R.S.y.T.T.R.#.1 ~.! @ t.h.y.T.T.W.3.3.F ` #X#X>X#XoXb.a.].;X;X;X;X;X;X;X;X;X;X;X;X",
";X;X;X].c.c.c.].;X;X;X;X%XN.M.H.K.$XL.Y G +.3.y.T.T.T.T.!.# C g.~.) ; Q.T.A.W.u.3.+.F Y L.#XP.H.M.X.%X;X;X].c.c.c.].;X;X;X;X;X;X",
"c.c.c.c.c.c.c.c.c.c.].;X;X;X&XD.G.B.m i S H 2.3.p.d.S.W.Q.p A g. XR.d Q.W.d.i.%.4.J F i b.B.G.D.%X;X;X;X;X;X;X;X].c.c.c.].;X;X].",
"c.c.c.c.c.c.c.c.c.c.c.c.].;X;X;X;X{.J.g S K 3.2.2.%.p.i.6.U A R.[.%.U s.6.3.2.4.4.J G ( S.{.;X;X;X;X;X;X;X;X;X;X;X;X].c.c.;X].c.",
"c.c.c.c.c.c.c.c.c.c.c.c.c.].;X;X;X;X;X# A F +.3.4.2.2.2.4.P S ' ).M U 4.2.2.2.4.O.J S e c.].;X;X;X;X;X;X].c.c.c.].;X;X].;X;Xc.c.",
"c.c.c.c.c.c.c.c.c.c.c.c.c.c.].;X;X;X;Xx.J S J 4.%.4.4.%.4.W r 2 ` 2 O.4.%.4.3.4.J F F , c.c.].;X;X;X;X].c.c.c.c.c.].;X;X;X].c.c.",
"c.c.c.c.c.c.c.c.c.c.c.c.c.c.c.].;X;X].c.I F G O.4.2.3.2.4.K S S G S J O.4.3.3.4.K S S - c.c.c.].;X;X].c.c.c.c.c.c.c.].;X;Xc.c.c.",
"c.c.c.c.c.c.c.c.c.c.c.c.c.c.c.c.;X;Xc.c.- F J F G +.3.4.O.S G F F G J J J J J J F G P c.c.c.c.c.;X;Xc.c.c.c.c.c.c.c.c.;X;Xc.c.c.",
"c.c.c.c.c.c.c.c.c.c.c.c.c.c.c.c.;X;Xc.c.> r H w = G J F F F J F F F F J F J G F J S a c.c.c.c.c.;X;Xc.c.c.c.c.c.c.c.c.].;Xc.c.c.",
"c.c.c.c.c.c.c.c.c.c.c.c.c.c.c.].;X;Xc.c.c.2 J B $ e G J F G | J F J F G F F J F J e e c.c.c.c.].;X;Xc.c.c.c.c.c.c.c.c.c.;X].c.c.",
"c.c.c.c.c.c.c.c.c.c.c.c.c.c.].;X;X;X].c.c.e P M E -., G F W | J F F F J J J F J F 2 c.c.c.c.].;X;X;X].c.c.c.c.c.c.c.c.].;X;Xc.c.",
"c.c.c.c.c.c.c.c.c.c.c.c.c.].;X;Xc.;X;X].c.c.2 1 g ^.u 1 G ..<.J J G J F F H G S a P c.c.c.].;X;Xc.;X;X].c.c.c.c.c.c.].;X;X;X].c.",
"c.c.c.c.c.c.c.c.c.c.c.c.].;X;Xc.c.c.;X;X].l.# > ] ~.f $ B ^ ..F J F F F H S S 2 > c.c.c.].;X;Xc.c.c.;X;X].c.c.c.c.].;X;X].;X;X].",
"c.c.c.c.c.c.c.c.c.c.c.].;X;X;X;X;X;X;X;X;X'.Q 4 ^ Z.R o E > | J G F J F F 0 0 a Q z.c.].;X;X;X;X;X;X;X;X;X].c.c.].;X;X].c.].;X;X",
";X;X].c.c.c.c.c.].;X;X;X;X;X].c.c.c.].;X;X;X%X, w.h.P o s 8 Y J F F G S 0 0 a > v.;X;X;X;X;X].c.c.c.].;X;X;X;X;X;X;X].c.c.c.c.c.",
"c.;X;X;X;X;X;X;X;X;X;X;X].c.c.c.c.c.c.c.].;X}., ^.h.3 , X Z G F F J ' 3 0 a > V.-X;X;X;X].c.c.c.c.c.c.c.].;X;X].c.c.c.c.;X;X;X;X",
"c.c.c.].;X;X;X;X;X;X;X;X;X;X;X;X;X;X;X;X;X;X}.; ^.j.N :   B J G J  .P 0 a > V.;X;X;X;X;X;X;X;X;X;X;X;X;X;X;X;X;X;X;X;X;X].c.c.c.",
"c.].;X;X;X].c.c.c.].;X;X;X;X;X;X;X;X;X].c.c.7.; Z.-.G :   A H J | a 2 a > @.c.c.c.].;X;X;X;X;X;X;X;X;X].c.c.c.].;X;X;X;X;X;X].c.",
";X;X;X;X;X;X;X;X].c.c.c.].;X;X].c.c.c.c.c.c.k.U w.-.G * , S S |  .2 0 > 9.;X;X;X].c.c.c.].;X;X].c.c.c.c.c.c.c.c.c.c.].;X;X;X;X;X",
";X;X;X;X;X;X;X;X;X;X].c.c.;X].c.c.c.c.c.c.c.7.2 T ,.Q A V a @ | a a 2 9.;X;X;X;X;X;X].c.c.;X].c.c.c.c.c.c.c.c.c.c.c.c.c.].;X;X;X",
";X;X;X;X].c.c.c.].;X;X].;X;Xc.c.c.c.c.c.c.c.7.# ( R.1.N H r #  .a > 9.;X].c.c.c.].;X;X].;X;Xc.c.c.c.c.c.c.c.c.c.c.c.c.c.c.].;X;X",
";X;X;X].c.c.c.c.c.].;X;X;X].c.c.c.c.c.c.c.c.7.r U R.r.N F 3 2 2 9 X.;X].c.c.c.c.c.].;X;X;X].c.c.c.c.c.c.c.c.c.c.c.c.c.c.c.c.].;X",
";X;X].c.c.c.c.c.c.c.].;X;Xc.c.c.c.c.c.c.c.c.c.7.1 @.-.N a o 2 > # ;X].c.c.c.c.c.c.c.].;X;Xc.c.c.c.c.c.c.c.c.c.c.c.c.c.c.c.c.c.].",
";X;Xc.c.c.c.c.c.c.c.c.;X;Xc.c.c.c.c.c.c.c.c.c.8.* ~ ~ 3 0 # e @ C.;Xc.c.c.c.c.c.c.c.c.;X;Xc.c.c.c.c.c.c.c.c.c.c.c.c.c.c.c.c.c.c.",
";X;Xc.c.c.c.c.c.c.c.c.].;Xc.c.c.c.c.c.c.c.c.c.k.Q S L V a # - @ ;X;Xc.c.c.c.c.c.c.c.c.].;Xc.c.c.c.c.c.c.c.c.c.c.c.c.c.c.c.c.c.c.",
";X;Xc.c.c.c.c.c.c.c.c.c.;X].c.c.c.c.c.c.c.c.c.c.8.0 B e - @ X X ;X;Xc.c.c.c.c.c.c.c.c.c.;X].c.c.c.c.c.c.c.c.c.c.c.c.c.c.c.c.c.].",
";X;X].c.c.c.c.c.c.c.c.].;X;Xc.c.c.c.c.c.c.c.c.c.5.2 T ( @ . + `.;X;X].c.c.c.c.c.c.c.c.].;X;Xc.c.c.c.c.c.c.c.c.c.c.c.c.c.c.c.].;X",
"c.;X;X].c.c.c.c.c.c.].;X;X;X].c.c.c.c.c.c.c.c.c.3.0 / R @ . X ;Xc.;X;X].c.c.c.c.c.c.].;X;X;X].c.c.c.c.c.c.c.c.c.c.c.c.c.c.].;X;X",
"c.c.;X;X].c.c.c.c.].;X;X].;X;X].c.c.c.c.c.c.c.c.%., *.] & X X z.c.c.;X;X].c.c.c.c.].;X;X].;X;X].c.c.c.c.c.c.c.c.c.c.c.c.].;X;Xc.",
";X;X;X;X;X].c.c.].;X;X].c.].;X;Xc.c.c.c.c.c.c.c.%.i T.' o X |.;X;X;X;X;X;X].c.c.].;X;X].c.].;X;Xc.c.c.c.c.c.c.c.c.c.c.].;X;X;X;X",
"c.c.].;X;X;X;X;X;X;X].c.c.c.c.c.;X;X].c.c.c.c.c.1.f R.' X X v.c.c.c.].;X;X;X;X;X;X;X].c.c.c.c.c.;X;X].c.c.c.c.c.].;X;X;X;X;X].c.",
"c.c.c.c.].;X;X].c.c.c.c.;X;X;X;Xc.;X;X;X;X;X;X;XF.E ~.$.- > l.c.c.c.c.c.].;X;X].c.c.c.c.;X;X;X;Xc.;X;X;X;X;X;X;X;X;X;X;X].c.c.c.",
"c.c.c.c.c.].;X;X].c.;X;X;X].].;X;X;X;X;X].c.c.c.f.E w.e.y k.c.c.c.c.c.c.c.].;X;X].c.;X;X;X].].;X;X;X;X;X].c.c.c.].;X;X].c.c.c.c.",
"c.c.c.c.c.c.;X;X;X;X;X].c.c.c.c.c.c.].;X;X;X].c.c.F.] R.y 7.c.c.c.c.c.c.c.c.;X;X;X;X;X].c.c.c.c.c.c.].;X;X;X].c.c.;X].c.c.c.c.c.",
"c.c.c.c.c.c.].;X;X].c.c.c.c.c.c.c.c.c.c.].;X;X].;XV.) (.p 7.c.c.c.c.c.c.c.c.].;X;X].c.c.c.c.c.c.c.c.c.c.].;X;X].;X;Xc.c.c.c.c.c.",
"c.c.c.c.c.c.c.;X].c.c.c.c.c.c.c.c.c.c.c.c.].;X;X;Xx.@.(.f 5.c.c.c.c.c.c.c.c.c.;X].c.c.c.c.c.c.c.c.c.c.c.c.].;X;X;X].c.c.c.c.c.c.",
"c.c.c.c.c.c.c.;X].c.c.c.c.c.c.c.c.c.c.c.c.c.].;X;Xc.#.s #.z.c.c.c.c.c.c.c.c.c.;X].c.c.c.c.c.c.c.c.c.c.c.c.c.].;X;Xc.c.c.c.c.c.c.",
"c.c.c.c.c.c.].;X;X].c.c.c.c.c.c.c.c.c.c.c.c.].;X;X].Q . 7.c.c.c.c.c.c.c.c.c.].;X;X].c.c.c.c.c.c.c.c.c.c.c.c.].;X;X].c.c.c.c.c.c.",
"c.c.c.c.c.].;X;X;X;X].c.c.c.c.c.c.c.c.c.c.].;X;X;X;X_ Q c.c.c.c.c.c.c.c.c.].;X;X;X;X].c.c.c.c.c.c.c.c.c.c.].;X;X;X;X].c.c.c.c.c.",
"c.c.c.].;X;X;X;X;X;X;X;X].c.c.c.c.c.c.].;X;X;X;X;XC.9.].c.c.c.c.c.c.c.].;X;X;X;X;X;X;X;X].c.c.c.c.c.c.].;X;X;X;X;X;X;X].c.c.c.c."
};
